<svg id="svg2" xmlns="http://www.w3.org/2000/svg" xmlns:xlink="http://www.w3.org/1999/xlink" viewBox="0 0 80.97 114.44">
  <defs>
    <style>
      .cls-1 {
        stroke: #000;
        stroke-width: 0.26px;
        fill: url(#linear-gradient);
      }

      .cls-1, .cls-2 {
        stroke-miterlimit: 4.58;
      }

      .cls-2 {
        stroke: #fff;
        stroke-width: 0.56px;
        fill: url(#linear-gradient-2);
      }

      .cls-3 {
        fill: url(#radial-gradient);
      }
    </style>
    <linearGradient id="linear-gradient" x1="302.28" y1="348.36" x2="372.66" y2="348.36" gradientTransform="matrix(1.15, 0, 0, -1.15, -346.02, 456.1)" gradientUnits="userSpaceOnUse">
      <stop offset="0" stop-color="#f3f3f3"/>
      <stop offset="1" stop-color="#8f8f8f"/>
    </linearGradient>
    <linearGradient id="linear-gradient-2" x1="-1490.76" y1="442.55" x2="-1358.48" y2="4.86" gradientTransform="matrix(0.27, 0, 0, -0.27, 433.35, 128.59)" gradientUnits="userSpaceOnUse">
      <stop offset="0" stop-color="#00094d"/>
      <stop offset="1" stop-color="#0045bf"/>
    </linearGradient>
    <radialGradient id="radial-gradient" cx="384.23" cy="764.86" r="25.37" gradientTransform="matrix(1.1, 0.75, 2.87, -4.22, -2600.25, 3027.59)" gradientUnits="userSpaceOnUse">
      <stop offset="0" stop-color="#fff"/>
      <stop offset="1" stop-color="#fff" stop-opacity="0"/>
    </radialGradient>
  </defs>
  <title>Back of a card</title>
  <g id="back">
    <rect id="rect5764" y="0.79" width="80.38" height="113.65" rx="4.15"/>
    <rect id="rect5766" class="cls-1" x="0.46" y="0.13" width="80.38" height="113.65" rx="4.55"/>
    <rect id="rect4616" class="cls-2" x="4.42" y="4.09" width="72.46" height="105.71" rx="1.48"/>
    <path id="path5809" class="cls-3" d="M15.67,108.49c.71-1.2-2.09-5.46-2.45-7.07a2.7,2.7,0,0,1-.08-.41,5.36,5.36,0,0,1-.05-.7,6.09,6.09,0,0,1,.17-1.2.45.45,0,0,0,.4-.45.44.44,0,0,0-.19-.37c.09-.3.19-.61.29-.91a12,12,0,0,1,.8-1.92A23.39,23.39,0,0,1,16,93.12c.16-.25.33-.49.5-.72h.14a.8.8,0,0,0,.81-.8.88.88,0,0,0-.07-.33c.19-.24.4-.48.6-.72a34.84,34.84,0,0,1,2.85-2.72c1.08-1,2.22-1.91,3.38-2.81,1.37-1.06,2.82-2,4.28-3s2.77-1.75,4.17-2.59l.2,0a.81.81,0,0,0,0-1.61.81.81,0,0,0-.81.81.8.8,0,0,0,.59.77l-.4.23c-1.71,1-3.41,2-5.08,3.14-1.46,1-2.93,1.9-4.3,3-1.16.9-2.3,1.82-3.38,2.81-.83.74-1.66,1.49-2.43,2.29A.81.81,0,0,0,16,92.09a21.92,21.92,0,0,0-1.36,1.81,25.54,25.54,0,0,0-1.45,2.35c-.06.13-.12.27-.19.4,0-.81.14-1.62.25-2.43a21.43,21.43,0,0,1,.69-3.37,20.29,20.29,0,0,1,1.11-2.93,17.5,17.5,0,0,0,1.16-2.17c.07-.16.13-.33.19-.5s0-.08,0-.12c.58-1,1.18-2.07,1.79-3.1a1.18,1.18,0,0,1,.11-.19L19,80.9c.66-.85,1.36-1.67,2-2.49.9-1,1.87-2,2.83-3s2.24-2.16,3.39-3.2S29.79,70,31,68.88s2.66-2.35,4-3.52c1.5-1.3,3-2.65,4.39-4,.76-.72,1.51-1.45,2.26-2.19a13.7,13.7,0,0,0,2.25-1.78c1.47-1.25,3-2.48,4.52-3.66a21.73,21.73,0,0,1,3-2.07l.67-.29a.85.85,0,0,0,0,.23.81.81,0,1,0,1.41-.52c3-.21,3.6-.65.37-.44a2.54,2.54,0,0,0-.77.18.65.65,0,0,0-.2,0,.8.8,0,0,0-.72.44,29.51,29.51,0,0,0-4.55,3c-1.54,1.17-3,2.4-4.5,3.66-.6.51-1,.88-1.24,1.1.77-.76,1.53-1.53,2.29-2.3,1.67-1.68,3.24-3.45,4.77-5.25,1-1.13,1.87-2.3,2.76-3.48a.8.8,0,1,0,.94-1.25L53.83,45a75.49,75.49,0,0,0,4.61-7.27,48.37,48.37,0,0,0,3.72-8.32,75,75,0,0,0,1.5-7.74c.49-3.11-.28-2.66-.78.46a72.54,72.54,0,0,1-1.5,7.72,48,48,0,0,1-3.72,8.32c-.11.2-.24.39-.35.59a.44.44,0,0,0-.43-.35.45.45,0,1,0,0,.89.4.4,0,0,0,.15,0,71.42,71.42,0,0,1-4,6.18l-.81,1.12a.8.8,0,0,0-.73.79,1,1,0,0,0,0,.17c-1.09,1.45-2.2,2.89-3.37,4.29-1.53,1.8-3.1,3.56-4.77,5.24s-3.16,3.18-4.78,4.73c-1.44,1.36-2.9,2.71-4.4,4q-2,1.75-4,3.52l-3.74,3.32c-1.07,1-2.15,2-3.16,3a.44.44,0,0,0-.21-.27c.4-.41.8-.81,1.21-1.21,1.34-1.26,2.71-2.48,4.05-3.73,1.58-1.49,3.12-3,4.64-4.55a52.23,52.23,0,0,0,4.82-5.59,63.9,63.9,0,0,0,4.39-7.21,48.38,48.38,0,0,0,3.54-8.16,55.52,55.52,0,0,0,1.82-9.31,74.19,74.19,0,0,0,.1-8A.79.79,0,0,0,48,27a.8.8,0,0,0-.32-.65l0-1c0-.55,0-1.11,0-1.67-.12-3.12-.88-2.68-.77.45l.06,1.67c0,.14,0,.29,0,.43a.81.81,0,0,0-.52.76.78.78,0,0,0,.57.75c0,1.38.07,2.77.06,4.15a.78.78,0,0,0-.31-.07.81.81,0,0,0,0,1.62.88.88,0,0,0,.28-.06c0,.89-.06,1.79-.13,2.68-.25,2-.56,4-1,6,0-1,0-1.91,0-2.85-.07-2.25-.21-4.5-.5-6.73a36.66,36.66,0,0,0-.9-4.53,15.71,15.71,0,0,0-.76-2.22,2.22,2.22,0,0,0-.36-.59c-2.54-2.28-3.39-1.77-.83.49a2.12,2.12,0,0,1,.36.57,14.53,14.53,0,0,1,.76,2.22A34.84,34.84,0,0,1,44.54,33a65.83,65.83,0,0,1,.52,6.73c0,1.25,0,2.5,0,3.75a9.23,9.23,0,0,0,.06,1.63c0,.1-.07.2-.1.31q-.77,2.3-1.74,4.52a.81.81,0,0,0-.7-.4.79.79,0,0,0-.8.8.8.8,0,0,0,.8.81l.16,0c-.39.83-.81,1.64-1.25,2.44a64.68,64.68,0,0,1-4.4,7.22,52.32,52.32,0,0,1-4.83,5.59c-1.52,1.54-3.06,3.07-4.64,4.56-1.34,1.25-2.72,2.47-4.06,3.73-.24.23-.46.46-.69.69a.46.46,0,0,0-.37.38,24.08,24.08,0,0,0-2.35,2.69,42.49,42.49,0,0,0-2.54,3.84,14.71,14.71,0,0,0-.83,1.23c-.26.44-.55.87-.77,1.34a7.92,7.92,0,0,0-.42.94v0c-.22.41-.45.81-.65,1.23s-.53,1.12-.78,1.68l.06-.28a23.6,23.6,0,0,1,.67-2.32c.32-.91.7-1.8,1.07-2.69.47-1.08,1-2.16,1.43-3.24.65-1.46,1.37-2.89,2.09-4.31.92-1.75,1.73-3.54,2.5-5.35.93-2.2,1.84-4.42,2.76-6.63s1.88-4.56,2.75-6.87a.46.46,0,0,0,.34-.44.39.39,0,0,0-.09-.26c.88-2.43,1.66-4.88,2.41-7.35.87-2.86,1.62-5.76,2.2-8.69A57.62,57.62,0,0,0,33,29.91c-.11-3.52-.52-7-1-10.5-.26-2.1-.58-4.19-.9-6.28a7.8,7.8,0,0,0-.47-1.86.7.7,0,0,0,.25.05.81.81,0,0,0,.81-.81.8.8,0,0,0-.81-.8.79.79,0,0,0-.8.8.78.78,0,0,0,.22.55,5,5,0,0,0,0,2.51c.15.93.29,1.86.43,2.79a.45.45,0,1,0-.31.77.44.44,0,0,0,.39-.24c.15,1,.28,2,.41,3l.09.76a.76.76,0,0,0-.37-.1.82.82,0,0,0-.81.82.81.81,0,0,0,.81.8.78.78,0,0,0,.52-.2c.34,2.8.63,5.6.71,8.42a56.67,56.67,0,0,1-.71,10.33,89.26,89.26,0,0,1-2.19,8.7c-.7,2.28-1.42,4.54-2.22,6.78a.44.44,0,0,0-.22.38.41.41,0,0,0,0,.16c-.06.16-.11.31-.17.46-.9,2.4-1.85,4.79-2.85,7.14s-1.83,4.43-2.76,6.63c-.78,1.82-1.59,3.61-2.51,5.36-.72,1.43-1.45,2.85-2.1,4.31-.48,1.08-1,2.17-1.43,3.25-.38.9-.76,1.78-1.08,2.69a23.6,23.6,0,0,0-.67,2.32c-.14.66-.29,1.33-.41,2q-.07.44-.18.87c-.34,1.42-.37,2.14-.24,2.25,0,.23-.07.48-.09.72a24.77,24.77,0,0,0-.28,2.85v1.32c-.1.33-.2.66-.27,1,0,.13-.05.26-.08.4h-4c2.66.77,4.74.54,7.82,8.24Zm.78-6.23a.45.45,0,1,0-.44-.45A.45.45,0,0,0,16.45,102.26ZM10.28,100a.81.81,0,1,0-.81-.81A.81.81,0,0,0,10.28,100Zm4.35-1a.81.81,0,0,0,.81-.81.81.81,0,0,0-1.61,0A.81.81,0,0,0,14.63,99ZM9,96.77a.45.45,0,1,0-.45-.45A.45.45,0,0,0,9,96.77ZM11,96a.45.45,0,1,0-.44-.44A.45.45,0,0,0,11,96Zm7.62-1a.82.82,0,0,0,.82-.81.81.81,0,0,0-.82-.8.8.8,0,0,0-.8.8A.81.81,0,0,0,18.58,95.08Zm1.9-1.38a.44.44,0,0,0,.44-.44.43.43,0,0,0-.44-.44.44.44,0,0,0-.44.44A.44.44,0,0,0,20.48,93.7ZM9.39,92.82A.81.81,0,1,0,8.58,92,.81.81,0,0,0,9.39,92.82Zm1.86-2.34a.81.81,0,1,0-.81-.81A.81.81,0,0,0,11.25,90.48Zm10.45-.32a.45.45,0,1,0-.45-.45A.45.45,0,0,0,21.7,90.16Zm5.84-.73a.82.82,0,0,0,.82-.81.82.82,0,0,0-1.63,0A.82.82,0,0,0,27.54,89.43Zm-8.63-1a.81.81,0,1,0,0-1.61.81.81,0,1,0,0,1.61Zm3.16-.2s.95-.62,2.44-1.71c.63-.46,1.25-1,1.92-1.36a28.26,28.26,0,0,1,2.94-1.57l.63-.27a.76.76,0,0,0-.19.51.8.8,0,0,0,.8.81.82.82,0,0,0,.81-.81.81.81,0,0,0-.76-.8c.7-.31,1.41-.62,2.13-.89s1.61-.65,2.42-1l1-.39c3.18-1.22,4-1.7.83-.48l-1,.39-2.42,1c-1.16.44-2.29,1-3.43,1.46a44.78,44.78,0,0,0-4.56,2.49c-.67.41-1.29.9-1.92,1.36a19.7,19.7,0,0,0-1.63,1.25Zm-11.23-.85a.81.81,0,0,0,.81-.81.81.81,0,0,0-1.62,0A.81.81,0,0,0,10.84,87.41Zm17.63-.89a.44.44,0,0,0,.44-.44.44.44,0,0,0-.44-.44.44.44,0,0,0-.44.44A.43.43,0,0,0,28.47,86.52ZM13.84,85.38a.81.81,0,0,0,.8-.81.81.81,0,0,0-1.61,0A.81.81,0,0,0,13.84,85.38Zm4.35-.25a.8.8,0,0,0,.81-.8.81.81,0,1,0-1.62,0A.8.8,0,0,0,18.19,85.13ZM7.25,84.49a.45.45,0,0,0,.45-.44.45.45,0,1,0-.45.44ZM35.42,83a.44.44,0,0,0,.44-.44.45.45,0,1,0-.44.44Zm-9.64-.07a.81.81,0,0,0,.8-.81.81.81,0,0,0-1.61,0A.81.81,0,0,0,25.78,82.88ZM40,82.15a.44.44,0,1,0,0-.88h0a.8.8,0,0,0,.24-.57.81.81,0,0,0-1.62,0,.8.8,0,0,0,.81.8.58.58,0,0,0,.23,0,.51.51,0,0,0-.07.24.44.44,0,0,0,.45.44ZM42.8,80.3a.82.82,0,0,0,.81-.82.81.81,0,0,0-1.62,0A.82.82,0,0,0,42.8,80.3Zm-27.51,0a.81.81,0,0,0,.8-.82.81.81,0,0,0-1.61,0A.82.82,0,0,0,15.29,80.3Zm6.37-.09a.81.81,0,1,0-.81-.8A.81.81,0,0,0,21.66,80.21Zm23.2-.08a.44.44,0,0,0,.44-.44.45.45,0,1,0-.44.44ZM27.5,79.56a.44.44,0,0,0,.44-.44.45.45,0,0,0-.89,0A.45.45,0,0,0,27.5,79.56ZM20.11,79l.8-1.14A21.38,21.38,0,0,1,22.52,76a.45.45,0,0,0,.27.2c-.87.88-1.73,1.77-2.54,2.7a1.15,1.15,0,0,1-.14.17Zm15.35-1.21,2.61-1.47,2-1.1a.85.85,0,0,0,.23,0,.8.8,0,0,0,.77-.59l2.77-1.59-2.76,1.56a1.1,1.1,0,0,0,0-.18.8.8,0,0,0-.8-.81A.81.81,0,0,0,40,75.24l-.63.35q-2,1.11-3.93,2.23Zm10.35-.12a.44.44,0,0,0,.45-.44.45.45,0,0,0-.89,0A.44.44,0,0,0,45.81,77.7ZM14.94,76.49a.81.81,0,0,0,.81-.81,1,1,0,0,0,0-.25h.08a.45.45,0,0,0,0-.89.44.44,0,0,0-.44.43.8.8,0,0,0-.41-.1.8.8,0,0,0-.8.8.81.81,0,0,0,.8.81Zm-2.62-.09a.43.43,0,0,0,.44-.44.44.44,0,0,0-.44-.44.44.44,0,0,0-.44.44A.44.44,0,0,0,12.32,76.4Zm5.61-3.06a.81.81,0,0,0,0-1.61.81.81,0,1,0,0,1.61ZM52,73.18a.45.45,0,1,0-.45-.44A.44.44,0,0,0,52,73.18Zm-7.88-.27,1.21-.7a56.69,56.69,0,0,0,5.8-3.92c.94-.72,1.85-1.47,2.73-2.26a.81.81,0,0,0,.76.53.8.8,0,0,0,.8-.8A.82.82,0,0,0,55,65c.64-.6,1.26-1.2,1.87-1.83.45-.45.89-.93,1.31-1.4l.06-.06c1.3-1.17,2.6-2.33,3.87-3.54l.06-.06a.8.8,0,0,0,.8.69.81.81,0,0,0,.09-1.61,17.08,17.08,0,0,0,2-2.47c.76-1.12,1.52-2.24,2.25-3.38s1.44-2.28,2.14-3.44c.4-.67.81-1.33,1.19-2a1,1,0,0,0,0,.16.82.82,0,1,0,.25-.57c.11-.2.22-.4.32-.6A14.7,14.7,0,0,0,72,43c.1-.25.16-.51.28-.74s.35-.68.47-1a.8.8,0,0,0,.67-.79.83.83,0,0,0-.49-.75.41.41,0,0,0,.33-.42.44.44,0,0,0-.44-.44.44.44,0,0,0-.44.44.45.45,0,0,0,.2.37.8.8,0,0,0-.77.8.84.84,0,0,0,.45.73c-.23.39-.5.87-.81,1.49a5.94,5.94,0,0,0-.28.74,16.89,16.89,0,0,1-.82,1.91c-.53,1-1.14,2-1.74,3-.69,1.16-1.41,2.3-2.14,3.44S65,54.09,64.25,55.21A15.17,15.17,0,0,1,62.6,57.3a.8.8,0,0,0-.4.43c-.29.31-.6.62-.9.93l-2.21,2c1-1.27,2-2.6,2.92-3.95a32.86,32.86,0,0,0,3.9-7.68c0-.13.09-.27.13-.41a.81.81,0,1,0,.79-1,.79.79,0,0,0-.54.21,37.4,37.4,0,0,0,1.32-8,36.43,36.43,0,0,0-.32-8.28c-.67-5.14-1.93-4.41-1.28.73a36.49,36.49,0,0,1,.31,8.29,34.32,34.32,0,0,1-1.7,9.14,33.72,33.72,0,0,1-3.9,7.69,49.49,49.49,0,0,1-4.57,5.83l-2.89,2.53c-.7.62-1.44,1.18-2.17,1.76-2.54,2-1.74,1.58.8-.46.66-.53,1.34-1,2-1.59a.07.07,0,0,0,0,.05c-1.28,1.2-2.61,2.36-4,3.44a59.28,59.28,0,0,1-5.7,3.85Zm-4.47-.21a.45.45,0,1,0-.44-.45A.45.45,0,0,0,39.68,72.7Zm8.07-.33a.45.45,0,0,0,.36-.45.44.44,0,0,0-.44-.44.45.45,0,0,0,0,.89Zm-17.88-.24a.81.81,0,1,0-.8-.81A.81.81,0,0,0,29.87,72.13Zm2.46-.24a.45.45,0,1,0-.44-.45A.45.45,0,0,0,32.33,71.89Zm11.71-2a.45.45,0,1,0-.44-.44A.44.44,0,0,0,44,69.87Zm4-.24A.81.81,0,1,0,48,68a.81.81,0,0,0,0,1.62ZM19.55,69.3a.8.8,0,0,0,.81-.8.82.82,0,0,0-1.63,0A.81.81,0,0,0,19.55,69.3Zm38.2-.8a.45.45,0,0,0,0-.89.45.45,0,0,0,0,.89Zm-28.44-.16a.81.81,0,0,0,.81-.81.81.81,0,1,0-.81.81ZM17.24,67a.44.44,0,0,0,.45-.44.45.45,0,0,0-.89,0A.44.44,0,0,0,17.24,67Zm32.56-.07a.81.81,0,0,0,.81-.81.81.81,0,0,0-1.61,0A.81.81,0,0,0,49.8,66.89Zm-29-.81a.8.8,0,0,0,.8-.8.78.78,0,0,0-.35-.67.57.57,0,0,0,0-.18.45.45,0,1,0-.89,0,.35.35,0,0,0,0,.14.8.8,0,0,0,.38,1.51Zm17.43-.73a.81.81,0,1,0-.81-.8A.8.8,0,0,0,38.27,65.35ZM23.4,65.06c.19,0,.56-.93.87-2.59s.62-3.39.81-5.1A46.4,46.4,0,0,0,25.36,51a39.62,39.62,0,0,0-.45-4.73c-.17-1.06-.32-2.11-.59-3.15a10.43,10.43,0,0,0-.38-1.2c-1.4-3.11-2.28-2.6-.83.48a8.65,8.65,0,0,1,.38,1.19c.27,1,.44,2.1.61,3.15a37.49,37.49,0,0,1,.46,4.73,47.73,47.73,0,0,1-.26,6.33c-.19,1.71-.49,3.41-.81,5.1-.28,1.47-.25,2.15-.09,2.14Zm17.24,0a.45.45,0,1,0-.44-.44A.45.45,0,0,0,40.64,65Zm-13.23-.32a.45.45,0,0,0,0-.89.45.45,0,0,0,0,.89Zm5.29-1.45a.81.81,0,0,0,0-1.62.81.81,0,1,0,0,1.62Zm22.51-.65a.81.81,0,0,0,0-1.62.81.81,0,1,0,0,1.62Zm9.08-1.86a.45.45,0,1,0-.45-.44A.44.44,0,0,0,64.29,60.75ZM48.91,57a.8.8,0,0,0,.81-.8.81.81,0,1,0-1.61,0A.8.8,0,0,0,48.91,57Zm8.6-1.29a.45.45,0,1,0,0-.89.45.45,0,1,0,0,.89Zm-39.26-.56a.81.81,0,1,0,0-1.62.81.81,0,0,0,0,1.62Zm20.42-.33a.81.81,0,0,0,0-1.61.81.81,0,1,0,0,1.61Zm31.1-1a.45.45,0,1,0-.44-.45A.45.45,0,0,0,69.77,53.82Zm-1-.65a.81.81,0,0,0,0-1.62.81.81,0,1,0,0,1.62Zm-25.1-.24a.81.81,0,1,0,0-1.62.81.81,0,0,0,0,1.62ZM30.35,52a.8.8,0,0,0,.81-.8.81.81,0,1,0-1.61,0A.8.8,0,0,0,30.35,52Zm-8.43-3.46a.45.45,0,1,0-.44-.45A.45.45,0,0,0,21.92,48.57Zm4.64-.17a.8.8,0,0,0,.81-.8.81.81,0,1,0-1.61,0A.8.8,0,0,0,26.56,48.4Zm35.59-.23a.81.81,0,0,0,0-1.62.81.81,0,0,0,0,1.62Zm-30.62-.81a.45.45,0,0,0,0-.89.45.45,0,1,0,0,.89ZM42.71,44a.81.81,0,0,0,.8-.81.81.81,0,0,0-1.61,0A.81.81,0,0,0,42.71,44Zm9.51-.08a.81.81,0,1,0-.8-.81A.81.81,0,0,0,52.22,43.89ZM69,43a.81.81,0,0,0,0-1.61A.81.81,0,1,0,69,43Zm-40.35-.64a.81.81,0,1,0-.81-.81A.81.81,0,0,0,28.66,42.36Zm20.5-.09a.8.8,0,0,0,.81-.8.81.81,0,1,0-1.62,0A.8.8,0,0,0,49.16,42.27ZM33,40.5a.45.45,0,1,0,0-.89.45.45,0,1,0,0,.89ZM21.36,39.21a.45.45,0,1,0,0-.89.45.45,0,1,0,0,.89Zm29.29-.16a.45.45,0,0,0,0-.89.45.45,0,0,0,0,.89Zm13-.73a.81.81,0,0,0,.81-.81.8.8,0,0,0-.81-.8.79.79,0,0,0-.8.8A.8.8,0,0,0,63.6,38.32ZM42.18,38a.45.45,0,1,0-.44-.44A.44.44,0,0,0,42.18,38Zm31.71-.73a.44.44,0,0,0,.44-.44.45.45,0,1,0-.44.44Zm-30.7-.16a.81.81,0,0,0,0-1.62.81.81,0,0,0,0,1.62Zm12.91-.24a.8.8,0,0,0,.8-.81.79.79,0,0,0-.8-.8.8.8,0,0,0-.81.8A.81.81,0,0,0,56.1,36.87Zm5.53-1.13a.45.45,0,1,0-.45-.45A.45.45,0,0,0,61.63,35.74Zm12.06-.25a.8.8,0,0,0,.8-.8.81.81,0,1,0-.8.8ZM31,35.49a.44.44,0,0,0,.35-.44.43.43,0,0,0-.44-.44.44.44,0,0,0-.44.44.44.44,0,0,0,.44.44Zm37.11-1.28a.44.44,0,0,0,.44-.44.45.45,0,1,0-.89,0A.45.45,0,0,0,68.08,34.21ZM35.77,33.4a.81.81,0,0,0,.8-.81.81.81,0,0,0-1.61,0A.81.81,0,0,0,35.77,33.4Zm27.31-.64a.45.45,0,0,0,.44-.45.45.45,0,0,0-.44-.45.45.45,0,0,0-.44.45A.44.44,0,0,0,63.08,32.76ZM49.8,31.62a.81.81,0,0,0,.81-.81s0,0,0,0a.46.46,0,0,0,.21,0,.43.43,0,0,0,.44-.44.44.44,0,0,0-.86-.11A.84.84,0,0,0,49.8,30a.81.81,0,0,0,0,1.61Zm8.68-1a.44.44,0,0,0,.44-.44.45.45,0,1,0-.44.44Zm13.72-.16a.44.44,0,0,0,.44-.44.44.44,0,0,0-.44-.44.43.43,0,0,0-.44.44A.44.44,0,0,0,72.2,30.49Zm-3.43-.08a.81.81,0,1,0-.81-.8A.81.81,0,0,0,68.77,30.41ZM35,30.17a.81.81,0,0,0,0-1.61.81.81,0,1,0,0,1.61Zm6.86-.88a.82.82,0,0,0,.81-.82.81.81,0,0,0-1.57-.27.44.44,0,0,0,.07.68.8.8,0,0,0,.69.41ZM60,28.56a.82.82,0,0,0,.81-.81A.8.8,0,0,0,60,27a.79.79,0,0,0-.8.8A.8.8,0,0,0,60,28.56Zm-29.78-.81a.81.81,0,1,0-.8-.8A.8.8,0,0,0,30.19,27.75Zm13.6-2.5a.45.45,0,1,0-.44-.44A.45.45,0,0,0,43.79,25.25ZM71,25.09a.45.45,0,1,0-.44-.44A.45.45,0,0,0,71,25.09ZM34.11,25a.44.44,0,0,0,.44-.44.45.45,0,1,0-.44.44Zm31.23-1.85a.45.45,0,1,0-.45-.45A.45.45,0,0,0,65.34,23.15Zm1.73-.65a.81.81,0,1,0-.8-.81A.8.8,0,0,0,67.07,22.5Zm-29-1a.44.44,0,0,0,.44-.44.45.45,0,1,0-.44.44Zm3.67-.32a.8.8,0,0,0,.8-.8.81.81,0,1,0-1.61,0A.8.8,0,0,0,41.74,21.21ZM34.8,19.92a.81.81,0,1,0-.81-.8A.81.81,0,0,0,34.8,19.92Zm23.27-.24a.45.45,0,1,0-.44-.45A.45.45,0,0,0,58.07,19.68ZM47.62,19.6a.81.81,0,0,0,.81-.81.81.81,0,0,0-1.61,0A.81.81,0,0,0,47.62,19.6Zm13.92-.81a.45.45,0,1,0-.44-.44A.45.45,0,0,0,61.54,18.79ZM46,16.94a.45.45,0,1,0-.44-.44A.45.45,0,0,0,46,16.94Zm-17.3-.24a.81.81,0,0,0,.8-.82.81.81,0,0,0-1.61,0A.82.82,0,0,0,28.67,16.7ZM59,14.76a.45.45,0,0,0,.45-.44.45.45,0,1,0-.45.44Zm2.87-.56a.81.81,0,0,0,.8-.82.8.8,0,0,0-.8-.8.81.81,0,0,0-.81.8A.82.82,0,0,0,61.91,14.2ZM27.57,13a.45.45,0,1,0-.44-.44A.45.45,0,0,0,27.57,13ZM62,11.29a.45.45,0,1,0-.44-.44A.44.44,0,0,0,62,11.29ZM39.76,10.07a.44.44,0,0,0,.44-.44.45.45,0,1,0-.44.44ZM28.38,7.9a.45.45,0,1,0-.44-.45A.45.45,0,0,0,28.38,7.9Zm2.26-1.62a.44.44,0,0,0,.44-.44.45.45,0,0,0-.89,0A.45.45,0,0,0,30.64,6.28Z"/>
  </g>
</svg>
