<?xml version="1.0" encoding="UTF-8" standalone="no"?>
<svg
   id="svg2"
   viewBox="0 0 70.380005 99.420006"
   version="1.1"
   sodipodi:docname="CA.svg"
   inkscape:version="1.3.2 (091e20e, 2023-11-25, custom)"
   width="70.380005"
   height="99.420006"
   xmlns:inkscape="http://www.inkscape.org/namespaces/inkscape"
   xmlns:sodipodi="http://sodipodi.sourceforge.net/DTD/sodipodi-0.dtd"
   xmlns:xlink="http://www.w3.org/1999/xlink"
   xmlns="http://www.w3.org/2000/svg"
   xmlns:svg="http://www.w3.org/2000/svg"
   xmlns:rdf="http://www.w3.org/1999/02/22-rdf-syntax-ns#"
   xmlns:cc="http://creativecommons.org/ns#"
   xmlns:dc="http://purl.org/dc/elements/1.1/">
  <sodipodi:namedview
     id="namedview6"
     pagecolor="#ffffff"
     bordercolor="#000000"
     borderopacity="0.25"
     inkscape:showpageshadow="2"
     inkscape:pageopacity="0.0"
     inkscape:pagecheckerboard="0"
     inkscape:deskcolor="#d1d1d1"
     inkscape:zoom="15.285714"
     inkscape:cx="34.771029"
     inkscape:cy="50.07944"
     inkscape:window-width="3840"
     inkscape:window-height="2054"
     inkscape:window-x="-11"
     inkscape:window-y="-11"
     inkscape:window-maximized="1"
     inkscape:current-layer="svg2" />
  <defs
     id="defs6">
    <style
       id="style1">
      .cls-1 {
        filter: url(#filter63625-0);
      }

      .cls-2 {
        stroke: #000;
        fill: url(#linear-gradient);
      }

      .cls-2, .cls-6 {
        stroke-miterlimit: 10;
        stroke-width: 0.23px;
      }

      .cls-3 {
        fill: url(#linear-gradient-2);
      }

      .cls-4 {
        opacity: 0.31;
        fill: url(#radial-gradient);
      }

      .cls-4, .cls-5, .cls-9 {
        isolation: isolate;
      }

      .cls-5 {
        opacity: 0.32;
        fill: url(#radial-gradient-2);
      }

      .cls-6 {
        fill: none;
      }

      .cls-11, .cls-6 {
        stroke: #fff;
      }

      .cls-7 {
        fill: url(#radial-gradient-3);
      }

      .cls-10, .cls-8 {
        stroke: #c8c8c8;
        stroke-linejoin: round;
        stroke-width: 1px;
      }

      .cls-8 {
        fill: url(#linear-gradient-3);
      }

      .cls-9 {
        opacity: 0.4;
        fill: url(#radial-gradient-4);
      }

      .cls-10 {
        fill: url(#linear-gradient-4);
      }

      .cls-11 {
        stroke-width: 0.49px;
        fill: url(#linear-gradient-5);
      }
    </style>
    <filter
       id="filter63625-0"
       name="filter63625-0"
       x="-0.12863863"
       y="-0.090976909"
       width="1.2572773"
       height="1.1819538">
      <feGaussianBlur
         result="feGaussianBlur63627-4"
         stdDeviation="3.76"
         id="feGaussianBlur1" />
    </filter>
    <linearGradient
       id="linear-gradient"
       x1="-1340.79"
       y1="-2600.8201"
       x2="-1331.3101"
       y2="-2086.3101"
       gradientTransform="matrix(0.23,0,0,-0.23,346.1,-553.45)"
       gradientUnits="userSpaceOnUse">
      <stop
         offset="0"
         stop-color="#f3f3f3"
         id="stop1" />
      <stop
         offset="1"
         stop-color="#8f8f8f"
         id="stop2" />
    </linearGradient>
    <linearGradient
       id="linear-gradient-2"
       x1="-1752.8"
       y1="-2367.79"
       x2="-1620.52"
       y2="-2805.51"
       gradientTransform="matrix(0.24,0,0,-0.24,447.56,-543.28)"
       gradientUnits="userSpaceOnUse">
      <stop
         offset="0"
         id="stop3" />
      <stop
         offset="1"
         stop-color="#555753"
         id="stop4" />
    </linearGradient>
    <radialGradient
       id="radial-gradient"
       cx="2575.27"
       cy="6228.21"
       r="58.68"
       gradientTransform="matrix(-0.23,0,0,0.21,598.68,-1188.38)"
       gradientUnits="userSpaceOnUse">
      <stop
         offset="0"
         stop-color="#fff"
         id="stop5" />
      <stop
         offset="1"
         stop-color="#fff"
         stop-opacity="0"
         id="stop6" />
    </radialGradient>
    <radialGradient
       id="radial-gradient-2"
       cx="-1374.58"
       cy="-1534.42"
       r="63.150002"
       gradientTransform="matrix(0.23,0,0,-0.36,378.66,-529)"
       xlink:href="#radial-gradient" />
    <radialGradient
       id="radial-gradient-3"
       cx="731.40997"
       cy="1073.55"
       r="25.370001"
       gradientTransform="matrix(0.83,0.56,2.15,-3.16,-2887.92,3067.77)"
       xlink:href="#radial-gradient" />
    <linearGradient
       id="linear-gradient-3"
       x1="-9301.9502"
       y1="-13294.08"
       x2="-9301.9502"
       y2="-13234.57"
       gradientTransform="matrix(0.05,0,0,-0.06,520.11,-676.97)"
       xlink:href="#linear-gradient" />
    <radialGradient
       id="radial-gradient-4"
       cx="104.71"
       cy="-281.57999"
       r="26.74"
       gradientTransform="matrix(0.6,0,0,-0.6,-20.09,-108.21)"
       xlink:href="#radial-gradient" />
    <linearGradient
       id="linear-gradient-4"
       x1="-2944.8101"
       y1="-3373.3"
       x2="-2944.8101"
       y2="-3313.8501"
       gradientTransform="matrix(0.18,0,0,-0.2,578.18,-599.52)"
       xlink:href="#linear-gradient" />
    <linearGradient
       id="linear-gradient-5"
       x1="198.34"
       y1="606.95001"
       x2="198.34"
       y2="612.76001"
       gradientTransform="matrix(1,0,0,-1,-131.52,629.73)"
       xlink:href="#linear-gradient" />
    <linearGradient
       inkscape:collect="always"
       xlink:href="#linear-gradient"
       id="linearGradient1"
       gradientUnits="userSpaceOnUse"
       gradientTransform="matrix(0.23,0,0,-0.23,346.1,-553.45)"
       x1="-1340.79"
       y1="-2600.8201"
       x2="-1331.3101"
       y2="-2086.3101" />
    <radialGradient
       inkscape:collect="always"
       xlink:href="#radial-gradient"
       id="radialGradient1"
       gradientUnits="userSpaceOnUse"
       gradientTransform="matrix(-0.23,0,0,0.21,598.68,-1188.38)"
       cx="2575.27"
       cy="6228.21"
       r="58.68" />
  </defs>
  <title
     id="title6">King of Clubs</title>
  <g
     id="_1_club"
     data-name="1_club"
     transform="translate(-7.175,-9.4149997)">
    <g
       id="use70759">
      <g
         id="g65584">
        <rect
           id="rect65588"
           class="cls-2"
           x="7.29"
           y="9.5299997"
           width="70.150002"
           height="99.190002"
           rx="4.0500002"
           ry="4.0500002"
           style="fill:url(#linearGradient1)" />
        <rect
           id="rect3662"
           class="cls-3"
           x="10.75"
           y="13"
           width="63.240002"
           height="92.260002"
           rx="1.29"
           ry="1.29"
           style="fill:url(#linear-gradient-2)" />
        <rect
           id="rect65592"
           class="cls-4"
           x="10.99"
           y="81.019997"
           width="26.549999"
           height="24.280001"
           style="fill:url(#radialGradient1)" />
        <path
           id="rect65594"
           class="cls-5"
           d="m 46.2,13 h 26.5 a 1,1 0 0 1 1,1 v 43.2 a 1,1 0 0 1 -1,1 H 46.2 a 1,1 0 0 1 -1,-1 V 14 a 1,1 0 0 1 1,-1 z"
           style="fill:url(#radial-gradient-2)" />
        <path
           id="path65596"
           class="cls-6"
           d="M 25.71,101.23 H 70.43 V 27.63 M 58.86,17 H 14.3 v 73.21" />
      </g>
    </g>
    <path
       id="path4201"
       class="cls-7"
       d="m 23.49,98 c 0.53,-0.9 -1.57,-4.09 -1.84,-5.3 0,-0.1 0,-0.2 0,-0.3 a 4.53,4.53 0 0 1 -0.05,-0.53 5.58,5.58 0 0 1 0.13,-0.9 0.34,0.34 0 0 0 0.31,-0.33 0.33,0.33 0 0 0 -0.15,-0.28 c 0.07,-0.23 0.15,-0.46 0.22,-0.68 a 9.63,9.63 0 0 1 0.6,-1.45 17.6,17.6 0 0 1 1.09,-1.75 l 0.37,-0.54 h 0.11 a 0.61,0.61 0 0 0 0.61,-0.6 0.71,0.71 0 0 0 -0.06,-0.25 l 0.45,-0.54 a 27.54,27.54 0 0 1 2.14,-2 c 0.8,-0.74 1.66,-1.42 2.53,-2.1 1,-0.8 2.12,-1.51 3.21,-2.22 1.09,-0.71 2.08,-1.31 3.13,-1.94 h 0.15 a 0.6,0.6 0 0 0 0.6,-0.6 0.61,0.61 0 1 0 -1.21,0 0.59,0.59 0 0 0 0.44,0.58 l -0.3,0.17 c -1.28,0.76 -2.56,1.54 -3.81,2.35 -1.09,0.72 -2.19,1.43 -3.22,2.23 -0.87,0.68 -1.73,1.36 -2.53,2.11 -0.63,0.56 -1.25,1.11 -1.83,1.72 a 0.53,0.53 0 0 0 -0.3,-0.09 0.61,0.61 0 0 0 -0.61,0.61 0.58,0.58 0 0 0 0.12,0.36 15.06,15.06 0 0 0 -1,1.36 19.84,19.84 0 0 0 -1.09,1.76 l -0.14,0.3 c 0,-0.61 0.11,-1.22 0.18,-1.82 A 15.58,15.58 0 0 1 22.27,84.8 14.6,14.6 0 0 1 23.1,82.6 11.75,11.75 0 0 0 23.89,81 c 0.06,-0.12 0.1,-0.25 0.15,-0.38 v -0.09 c 0.43,-0.78 0.88,-1.55 1.34,-2.32 0,0 0.06,-0.1 0.08,-0.15 0.17,-0.23 0.35,-0.46 0.52,-0.7 0.49,-0.63 1,-1.25 1.54,-1.86 0.67,-0.78 1.4,-1.52 2.12,-2.26 0.72,-0.74 1.68,-1.62 2.54,-2.4 L 35,68.3 c 1,-0.89 2,-1.76 3,-2.64 1,-0.88 2.21,-2 3.29,-3 0.57,-0.54 1.14,-1.09 1.7,-1.65 a 9.62,9.62 0 0 0 1.68,-1.33 c 1.11,-0.94 2.23,-1.86 3.39,-2.74 a 15.64,15.64 0 0 1 2.27,-1.55 l 0.5,-0.22 a 0.47,0.47 0 0 0 0,0.17 0.61,0.61 0 0 0 0.61,0.61 0.6,0.6 0 0 0 0.6,-0.61 0.61,0.61 0 0 0 -0.15,-0.39 c 2.24,-0.16 2.7,-0.48 0.28,-0.33 a 1.83,1.83 0 0 0 -0.57,0.14 0.44,0.44 0 0 0 -0.16,0 0.6,0.6 0 0 0 -0.54,0.34 21,21 0 0 0 -3.4,2.2 c -1.16,0.88 -2.27,1.8 -3.38,2.74 -0.45,0.39 -0.76,0.67 -0.93,0.83 0.58,-0.57 1.15,-1.14 1.72,-1.72 1.25,-1.26 2.43,-2.58 3.58,-3.93 0.71,-0.86 1.39,-1.73 2.06,-2.61 a 0.62,0.62 0 0 0 0.47,0.22 0.61,0.61 0 0 0 0.6,-0.61 0.6,0.6 0 0 0 -0.36,-0.55 l 0.89,-1.23 a 53.23,53.23 0 0 0 3.4,-5.44 36.16,36.16 0 0 0 2.79,-6.23 54.94,54.94 0 0 0 1.12,-5.8 c 0.38,-2.33 -0.21,-2 -0.58,0.34 A 51.89,51.89 0 0 1 57.76,39.1 35.49,35.49 0 0 1 55,45.29 c -0.09,0.15 -0.18,0.3 -0.26,0.45 a 0.33185087,0.33185087 0 0 0 -0.66,0.07 0.33,0.33 0 0 0 0.33,0.33 h 0.11 a 52.11,52.11 0 0 1 -3,4.63 l -0.61,0.84 a 0.6,0.6 0 0 0 -0.54,0.6 0.49,0.49 0 0 0 0,0.12 c -0.81,1.09 -1.65,2.17 -2.52,3.21 -1.15,1.36 -2.33,2.68 -3.58,3.94 -1.25,1.26 -2.37,2.36 -3.58,3.52 -1.21,1.16 -2.17,2 -3.3,3 -1.13,1 -2,1.75 -3,2.64 l -2.79,2.5 c -0.8,0.72 -1.61,1.46 -2.37,2.23 a 0.36,0.36 0 0 0 -0.15,-0.21 l 0.9,-0.9 c 1,-0.94 2,-1.86 3,-2.8 1.19,-1.11 2.34,-2.25 3.48,-3.41 a 38.89,38.89 0 0 0 3.61,-4.19 46.6,46.6 0 0 0 3.29,-5.4 34.93,34.93 0 0 0 2.65,-6.12 41.42,41.42 0 0 0 1.37,-7 57.54,57.54 0 0 0 0.07,-6 0.59,0.59 0 0 0 0.21,-0.45 0.61,0.61 0 0 0 -0.24,-0.48 c 0,-0.25 0,-0.5 0,-0.75 0,-0.41 0,-0.83 0,-1.25 -0.09,-2.34 -0.66,-2 -0.58,0.34 0,0.41 0,0.83 0,1.25 0,0.11 0,0.21 0,0.32 a 0.61,0.61 0 0 0 -0.39,0.57 0.58,0.58 0 0 0 0.42,0.56 c 0,1 0.06,2.08 0.05,3.11 a 0.59,0.59 0 0 0 -0.23,-0.05 0.61,0.61 0 1 0 0,1.21 0.46,0.46 0 0 0 0.21,0 c 0,0.67 0,1.34 -0.1,2 -0.18,1.51 -0.42,3 -0.74,4.51 0,-0.71 0,-1.43 0,-2.14 a 50.26,50.26 0 0 0 -0.38,-5 28.37,28.37 0 0 0 -0.67,-3.4 A 12,12 0 0 0 44.49,36 1.79,1.79 0 0 0 44.22,35.56 c -1.9,-1.71 -2.54,-1.33 -0.62,0.36 a 1.79,1.79 0 0 1 0.27,0.44 11.6,11.6 0 0 1 0.57,1.64 26.11,26.11 0 0 1 0.69,3.39 47.29,47.29 0 0 1 0.39,5 c 0,0.94 0,1.88 0,2.82 a 8.08,8.08 0 0 0 0,1.21 1.55,1.55 0 0 1 -0.07,0.23 c -0.38,1.16 -0.82,2.29 -1.31,3.4 a 0.59,0.59 0 0 0 -0.52,-0.31 0.61,0.61 0 0 0 0,1.21 h 0.12 c -0.29,0.62 -0.6,1.23 -0.94,1.83 a 47.28,47.28 0 0 1 -3.29,5.41 40.14,40.14 0 0 1 -3.62,4.19 c -1.15,1.16 -2.3,2.3 -3.48,3.42 -1,0.94 -2,1.85 -3.05,2.8 l -0.52,0.51 a 0.33,0.33 0 0 0 -0.27,0.28 16.87,16.87 0 0 0 -1.76,2 34.19,34.19 0 0 0 -1.91,2.88 c -0.22,0.3 -0.43,0.6 -0.62,0.92 -0.19,0.32 -0.41,0.66 -0.58,1 a 6.21,6.21 0 0 0 -0.31,0.7 v 0 c -0.17,0.3 -0.33,0.61 -0.49,0.91 -0.16,0.3 -0.39,0.85 -0.58,1.27 a 1.55,1.55 0 0 0 0,-0.21 17.35,17.35 0 0 1 0.51,-1.74 c 0.23,-0.69 0.52,-1.35 0.8,-2 0.28,-0.65 0.72,-1.62 1.07,-2.43 0.49,-1.09 1,-2.16 1.57,-3.23 0.69,-1.31 1.29,-2.65 1.87,-4 0.7,-1.65 1.38,-3.31 2.07,-5 0.69,-1.69 1.41,-3.42 2.06,-5.15 a 0.34,0.34 0 0 0 0.26,-0.33 0.37,0.37 0 0 0 -0.07,-0.2 c 0.66,-1.81 1.24,-3.66 1.81,-5.5 A 66.84,66.84 0 0 0 36,46.83 41.86,41.86 0 0 0 36.52,39.09 c -0.08,-2.64 -0.39,-5.26 -0.71,-7.87 -0.2,-1.58 -0.43,-3.14 -0.68,-4.71 a 5.22,5.22 0 0 0 -0.35,-1.39 0.58,0.58 0 0 0 0.19,0 0.61,0.61 0 1 0 -0.6,-0.61 0.63,0.63 0 0 0 0.16,0.42 3.86,3.86 0 0 0 0,1.88 c 0.11,0.69 0.22,1.39 0.32,2.09 a 0.32,0.32 0 0 0 -0.23,-0.09 0.34,0.34 0 0 0 0,0.67 0.36,0.36 0 0 0 0.3,-0.18 c 0.1,0.74 0.21,1.48 0.3,2.22 0,0.19 0,0.38 0.07,0.57 a 0.53,0.53 0 0 0 -0.28,-0.07 0.6,0.6 0 0 0 -0.6,0.6 0.6,0.6 0 0 0 0.6,0.6 0.56,0.56 0 0 0 0.39,-0.14 c 0.25,2.09 0.47,4.2 0.53,6.31 a 41.75,41.75 0 0 1 -0.53,7.74 67,67 0 0 1 -1.64,6.53 c -0.52,1.7 -1.07,3.39 -1.67,5.07 a 0.34,0.34 0 0 0 -0.16,0.29 0.43,0.43 0 0 0 0,0.12 l -0.12,0.35 c -0.68,1.8 -1.39,3.59 -2.14,5.35 -0.75,1.76 -1.37,3.32 -2.07,5 -0.58,1.36 -1.19,2.71 -1.88,4 -0.54,1.07 -1.09,2.13 -1.58,3.23 -0.35,0.81 -0.71,1.62 -1.07,2.44 -0.28,0.67 -0.57,1.33 -0.81,2 a 18.09,18.09 0 0 0 -0.5,1.74 c -0.11,0.5 -0.22,1 -0.3,1.49 -0.05,0.22 -0.09,0.44 -0.14,0.65 -0.26,1.07 -0.28,1.61 -0.18,1.69 0.1,0.08 -0.05,0.36 -0.07,0.54 a 17,17 0 0 0 -0.21,2.14 v 1 c -0.07,0.24 -0.15,0.49 -0.2,0.74 l -0.06,0.3 h -3 c 2,0.57 3.56,0.4 5.86,6.18 z m 0.59,-4.67 a 0.33,0.33 0 0 0 0,-0.66 0.33,0.33 0 0 0 0,0.66 z m -4.63,-1.69 a 0.61,0.61 0 1 0 0,-1.21 0.61,0.61 0 0 0 0,1.21 z m 3.26,-0.73 a 0.61,0.61 0 1 0 -0.6,-0.6 0.6,0.6 0 0 0 0.6,0.59 z m -4.26,-1.69 a 0.34,0.34 0 1 0 -0.33,-0.34 0.34,0.34 0 0 0 0.33,0.33 z M 20,88.66 A 0.33,0.33 0 1 0 19.67,88.33 0.34,0.34 0 0 0 20,88.66 Z m 5.72,-0.72 a 0.61,0.61 0 0 0 0,-1.21 0.61,0.61 0 0 0 0,1.21 z m 1.42,-1 a 0.34,0.34 0 0 0 0,-0.67 0.34,0.34 0 0 0 0,0.67 z m -8.32,-0.67 a 0.6,0.6 0 0 0 0.61,-0.6 0.61,0.61 0 0 0 -1.21,0 0.6,0.6 0 0 0 0.56,0.57 z m 1.4,-1.75 a 0.61,0.61 0 1 0 -0.61,-0.61 0.6,0.6 0 0 0 0.57,0.58 z M 28,84.25 a 0.33,0.33 0 0 0 0.33,-0.33 0.33,0.33 0 0 0 -0.66,0 0.33,0.33 0 0 0 0.33,0.33 z m 4.38,-0.54 A 0.61,0.61 0 0 0 33,83.1 a 0.6,0.6 0 0 0 -0.61,-0.6 0.6,0.6 0 0 0 -0.61,0.6 0.62,0.62 0 0 0 0.61,0.61 z M 25.92,83 a 0.61,0.61 0 0 0 0,-1.21 0.61,0.61 0 0 0 0,1.21 z m 2.37,-0.15 c 0,0 0.71,-0.46 1.83,-1.28 0.47,-0.35 0.93,-0.72 1.44,-1 a 22,22 0 0 1 2.2,-1.17 l 0.47,-0.2 a 0.56,0.56 0 0 0 -0.14,0.38 0.61,0.61 0 0 0 0.6,0.61 0.62,0.62 0 0 0 0.61,-0.61 0.61,0.61 0 0 0 -0.57,-0.6 c 0.52,-0.23 1.05,-0.46 1.59,-0.67 0.54,-0.21 1.21,-0.49 1.82,-0.72 l 0.78,-0.29 c 2.39,-0.91 3,-1.27 0.62,-0.36 l -0.78,0.3 c -0.61,0.23 -1.21,0.47 -1.82,0.72 -0.87,0.33 -1.72,0.71 -2.57,1.09 A 36.49,36.49 0 0 0 31,80.87 c -0.5,0.31 -1,0.68 -1.44,1 a 12.16,12.16 0 0 0 -1.22,0.93 z m -8.42,-0.64 a 0.61,0.61 0 1 0 -0.61,-0.61 0.61,0.61 0 0 0 0.61,0.59 z m 13.22,-0.66 a 0.34,0.34 0 0 0 0,-0.67 0.34,0.34 0 1 0 0,0.67 z m -11,-0.85 a 0.61,0.61 0 0 0 0,-1.21 0.61,0.61 0 1 0 0,1.21 z m 3.27,-0.18 a 0.61,0.61 0 0 0 0,-1.21 0.61,0.61 0 1 0 0,1.21 z M 17.18,80 a 0.34,0.34 0 0 0 0,-0.67 0.34,0.34 0 0 0 0,0.67 z m 21.11,-1.16 a 0.33,0.33 0 1 0 -0.33,-0.33 0.33,0.33 0 0 0 0.33,0.35 z m -7.23,0 a 0.6,0.6 0 0 0 0.6,-0.61 0.59,0.59 0 0 0 -0.6,-0.6 0.6,0.6 0 0 0 -0.6,0.6 0.61,0.61 0 0 0 0.6,0.58 z m 10.68,-0.55 a 0.33,0.33 0 0 0 0,-0.66 v 0 a 0.6,0.6 0 1 0 -1,-0.43 0.6,0.6 0 0 0 0.61,0.6 0.5,0.5 0 0 0 0.17,0 0.37,0.37 0 0 0 -0.05,0.18 0.33,0.33 0 0 0 0.27,0.28 z m 2.09,-1.39 a 0.61,0.61 0 1 0 -0.61,-0.61 0.6,0.6 0 0 0 0.61,0.58 z m -20.63,0 a 0.61,0.61 0 0 0 0,-1.21 0.61,0.61 0 1 0 0,1.21 z M 28,76.81 A 0.61,0.61 0 1 0 27.4,76.2 0.61,0.61 0 0 0 28,76.81 Z m 17.4,-0.06 a 0.34,0.34 0 0 0 0,-0.67 0.34,0.34 0 1 0 0,0.67 z m -13,-0.43 A 0.33,0.33 0 0 0 32.7,76 0.35,0.35 0 0 0 32,76 a 0.33,0.33 0 0 0 0.36,0.32 z m -5.53,-0.39 c 0.2,-0.29 0.39,-0.57 0.6,-0.86 a 16.79,16.79 0 0 1 1.2,-1.45 0.32,0.32 0 0 0 0.21,0.15 c -0.65,0.66 -1.3,1.33 -1.91,2 l -0.1,0.13 z M 38.33,75 l 2,-1.11 c 0.5,-0.27 1,-0.54 1.49,-0.82 a 0.51,0.51 0 0 0 0.17,0 0.6,0.6 0 0 0 0.58,-0.45 c 0.7,-0.39 1.39,-0.79 2.08,-1.19 l -2.07,1.17 a 0.66,0.66 0 0 0 0,-0.14 0.6,0.6 0 0 0 -0.6,-0.6 0.61,0.61 0 0 0 -0.61,0.6 0.63,0.63 0 0 0 0.41,0.58 l -0.47,0.26 c -1,0.55 -2,1.11 -3,1.67 z m 7.76,-0.09 a 0.33,0.33 0 1 0 -0.33,-0.33 0.34,0.34 0 0 0 0.33,0.35 z M 23,74 a 0.61,0.61 0 0 0 0.61,-0.61 0.48,0.48 0 0 0 0,-0.18 h 0.06 a 0.33,0.33 0 0 0 0.33,-0.33 0.33,0.33 0 1 0 -0.66,0 0.55,0.55 0 0 0 -0.31,-0.08 0.6,0.6 0 0 0 -0.6,0.6 A 0.61,0.61 0 0 0 23,74 Z m -2,0 A 0.33,0.33 0 1 0 20.67,73.67 0.33,0.33 0 0 0 21,74 Z m 4.21,-2.29 a 0.61,0.61 0 1 0 -0.61,-0.61 0.6,0.6 0 0 0 0.6,0.57 z m 25.55,-0.12 a 0.34,0.34 0 1 0 0,-0.67 0.34,0.34 0 0 0 0,0.67 z m -5.9,-0.21 0.91,-0.52 a 42.38,42.38 0 0 0 4.34,-2.94 c 0.71,-0.54 1.39,-1.1 2,-1.69 a 0.61,0.61 0 0 0 0.57,0.39 0.6,0.6 0 0 0 0.6,-0.6 0.61,0.61 0 0 0 -0.35,-0.55 c 0.48,-0.45 1,-0.9 1.41,-1.37 0.41,-0.47 0.66,-0.7 1,-1.06 v 0 c 1,-0.88 1.94,-1.75 2.89,-2.65 l 0.05,-0.05 a 0.61,0.61 0 1 0 0.67,-0.68 12.21,12.21 0 0 0 1.5,-1.86 c 0.58,-0.84 1.14,-1.68 1.69,-2.53 0.55,-0.85 1.08,-1.71 1.6,-2.58 0.3,-0.5 0.61,-1 0.9,-1.51 a 0.49,0.49 0 0 0 0,0.12 0.6,0.6 0 0 0 0.6,0.61 0.61,0.61 0 0 0 0.6,-0.61 0.6,0.6 0 0 0 -0.6,-0.6 0.57,0.57 0 0 0 -0.42,0.17 l 0.24,-0.45 a 12.86,12.86 0 0 0 0.62,-1.43 5.37,5.37 0 0 1 0.21,-0.56 c 0.14,-0.28 0.26,-0.51 0.35,-0.71 a 0.59,0.59 0 0 0 0.51,-0.59 0.6,0.6 0 0 0 -0.37,-0.56 0.32,0.32 0 0 0 0.25,-0.32 0.33,0.33 0 0 0 -0.33,-0.33 0.33,0.33 0 0 0 -0.33,0.33 0.35,0.35 0 0 0 0.14,0.28 0.6,0.6 0 0 0 -0.23,1.14 c -0.18,0.3 -0.38,0.66 -0.61,1.12 a 5.37,5.37 0 0 0 -0.21,0.56 12.86,12.86 0 0 1 -0.62,1.43 c -0.39,0.77 -0.85,1.52 -1.3,2.27 -0.45,0.75 -1.06,1.72 -1.6,2.57 -0.54,0.85 -1.11,1.7 -1.68,2.54 a 12.49,12.49 0 0 1 -1.24,1.56 0.62,0.62 0 0 0 -0.3,0.32 c -0.22,0.24 -0.45,0.47 -0.68,0.7 -0.54,0.51 -1.09,1 -1.65,1.52 0.78,-1 1.5,-1.94 2.19,-3 a 24.9,24.9 0 0 0 2.92,-5.75 c 0,-0.11 0.07,-0.21 0.1,-0.31 a 0.61,0.61 0 0 0 0.59,0.48 0.61,0.61 0 0 0 0,-1.21 0.62,0.62 0 0 0 -0.41,0.16 27.38,27.38 0 0 0 1,-6 26.8,26.8 0 0 0 -0.24,-6.2 c -0.49,-3.86 -1.44,-3.31 -0.95,0.54 a 27.47,27.47 0 0 1 0.23,6.21 25.82,25.82 0 0 1 -1.23,6.82 25.17,25.17 0 0 1 -2.92,5.76 36.25,36.25 0 0 1 -3.43,4.37 c -0.71,0.64 -1.44,1.27 -2.16,1.9 -0.52,0.46 -1.08,0.88 -1.63,1.32 -1.9,1.53 -1.3,1.18 0.6,-0.35 0.5,-0.39 1,-0.78 1.48,-1.19 v 0 c -1,0.9 -2,1.77 -3,2.58 a 44.31,44.31 0 0 1 -4.27,2.88 z m -3.35,-0.16 a 0.33,0.33 0 0 0 0.33,-0.33 0.33,0.33 0 0 0 -0.66,0 0.33,0.33 0 0 0 0.32,0.29 z m 6,-0.24 a 0.34,0.34 0 0 0 0.27,-0.33 0.34,0.34 0 0 0 -0.33,-0.34 0.34,0.34 0 0 0 0,0.67 z M 34.11,70.8 a 0.61,0.61 0 0 0 0,-1.21 0.61,0.61 0 0 0 0,1.21 z M 36,70.58 A 0.34,0.34 0 1 0 35.67,70.24 0.34,0.34 0 0 0 36,70.58 Z m 8.78,-1.52 a 0.33,0.33 0 0 0 0.33,-0.33 0.34,0.34 0 0 0 -0.67,0 0.33,0.33 0 0 0 0.33,0.33 z m 3,-0.17 a 0.61,0.61 0 1 0 -0.61,-0.61 0.61,0.61 0 0 0 0.59,0.61 z M 26.4,68.64 a 0.61,0.61 0 1 0 -0.6,-0.6 0.6,0.6 0 0 0 0.6,0.6 z M 55,68 A 0.34,0.34 0 1 0 54.67,67.67 0.34,0.34 0 0 0 55,68 Z M 33.68,67.88 a 0.61,0.61 0 0 0 0.61,-0.61 0.61,0.61 0 0 0 -1.21,0 0.61,0.61 0 0 0 0.64,0.65 z m -9,-1 a 0.34,0.34 0 1 0 -0.33,-0.34 0.34,0.34 0 0 0 0.33,0.35 z m 24.41,-0.06 a 0.61,0.61 0 1 0 -0.61,-0.61 0.6,0.6 0 0 0 0.61,0.62 z M 27.37,66.21 a 0.6,0.6 0 0 0 0.34,-1.1 0.32,0.32 0 0 0 0,-0.14 0.33,0.33 0 0 0 -0.33,-0.33 0.33,0.33 0 0 0 -0.33,0.33 0.36,0.36 0 0 0 0,0.11 0.6,0.6 0 0 0 0.28,1.13 z m 13.07,-0.54 a 0.61,0.61 0 0 0 0,-1.21 0.61,0.61 0 1 0 0,1.21 z M 29.3,65.46 c 0.14,0 0.41,-0.7 0.65,-1.95 0.24,-1.25 0.46,-2.53 0.61,-3.81 a 36,36 0 0 0 0.21,-4.76 30,30 0 0 0 -0.34,-3.55 C 30.3,50.6 30.18,49.8 30,49 a 7.2,7.2 0 0 0 -0.28,-0.9 c -1.05,-2.33 -1.71,-2 -0.62,0.36 a 7.06,7.06 0 0 1 0.28,0.89 24,24 0 0 1 0.46,2.36 30.09,30.09 0 0 1 0.35,3.54 A 36,36 0 0 1 30,60 c -0.14,1.28 -0.37,2.55 -0.61,3.81 -0.21,1.1 -0.19,1.62 -0.06,1.61 z m 12.92,0 a 0.34,0.34 0 1 0 -0.33,-0.34 0.34,0.34 0 0 0 0.33,0.32 z M 32.3,65.2 a 0.34,0.34 0 0 0 0,-0.67 0.34,0.34 0 0 0 0,0.67 z m 4,-1.09 a 0.61,0.61 0 0 0 0.6,-0.61 0.61,0.61 0 0 0 -1.21,0 0.61,0.61 0 0 0 0.58,0.61 z m 16.87,-0.49 a 0.6,0.6 0 0 0 0.61,-0.6 0.61,0.61 0 1 0 -1.21,0 0.6,0.6 0 0 0 0.57,0.6 z M 60,62.23 A 0.34,0.34 0 1 0 59.66,61.89 0.34,0.34 0 0 0 60,62.23 Z M 48.42,59.38 a 0.6,0.6 0 0 0 0.61,-0.6 0.61,0.61 0 0 0 -1.21,0 0.6,0.6 0 0 0 0.6,0.6 z m 6.44,-1 a 0.34,0.34 0 1 0 0,-0.67 0.34,0.34 0 0 0 0,0.67 z M 25.44,58 a 0.6,0.6 0 0 0 0.6,-0.61 0.61,0.61 0 0 0 -0.6,-0.61 0.6,0.6 0 0 0 -0.6,0.61 0.6,0.6 0 0 0 0.6,0.61 z m 15.3,-0.25 a 0.6,0.6 0 0 0 0.6,-0.6 0.6,0.6 0 0 0 -0.6,-0.61 0.61,0.61 0 0 0 -0.6,0.61 0.6,0.6 0 0 0 0.6,0.6 z M 64.06,57 a 0.33,0.33 0 0 0 0.33,-0.33 0.33,0.33 0 0 0 -0.66,0 0.33,0.33 0 0 0 0.33,0.33 z M 63.3,56.51 a 0.6,0.6 0 0 0 0.61,-0.6 0.61,0.61 0 1 0 -1.21,0 0.6,0.6 0 0 0 0.6,0.63 z M 44.49,56.34 a 0.62,0.62 0 0 0 0.61,-0.61 0.61,0.61 0 0 0 -0.61,-0.61 0.6,0.6 0 0 0 -0.6,0.61 0.61,0.61 0 0 0 0.6,0.64 z m -10,-0.68 a 0.6,0.6 0 0 0 0.61,-0.6 0.61,0.61 0 0 0 -0.61,-0.6 0.6,0.6 0 0 0 -0.6,0.6 0.59,0.59 0 0 0 0.62,0.63 z m -6.3,-2.56 a 0.34,0.34 0 0 0 0.33,-0.34 0.34,0.34 0 0 0 -0.67,0 0.34,0.34 0 0 0 0.34,0.34 z M 31.66,53 a 0.6,0.6 0 0 0 0.61,-0.6 0.61,0.61 0 1 0 -1.21,0 0.6,0.6 0 0 0 0.6,0.6 z m 26.68,-0.17 a 0.62,0.62 0 0 0 0.61,-0.61 0.6,0.6 0 0 0 -0.61,-0.6 0.6,0.6 0 0 0 -0.6,0.6 0.61,0.61 0 0 0 0.6,0.58 z m -23,-0.61 a 0.34,0.34 0 0 0 0,-0.67 0.34,0.34 0 1 0 0,0.67 z m 8.38,-2.54 a 0.61,0.61 0 1 0 -0.61,-0.61 0.6,0.6 0 0 0 0.66,0.58 z m 7.13,-0.06 a 0.61,0.61 0 1 0 -0.6,-0.61 0.61,0.61 0 0 0 0.65,0.58 z m 12.59,-0.67 a 0.6,0.6 0 0 0 0.6,-0.6 0.61,0.61 0 1 0 -1.21,0 0.6,0.6 0 0 0 0.66,0.57 z M 33.19,48.47 a 0.61,0.61 0 0 0 0,-1.21 0.61,0.61 0 1 0 0,1.21 z m 15.36,-0.06 a 0.61,0.61 0 1 0 -0.6,-0.6 0.6,0.6 0 0 0 0.65,0.57 z M 36.48,47.05 a 0.34,0.34 0 0 0 0,-0.67 0.34,0.34 0 1 0 0,0.67 z m -8.72,-1 a 0.34,0.34 0 1 0 0,-0.67 0.34,0.34 0 0 0 0,0.67 z m 22,-0.12 A 0.34,0.34 0 1 0 49.43,45.6 0.33,0.33 0 0 0 49.72,46 Z m 9.71,-0.55 a 0.61,0.61 0 0 0 0.61,-0.6 0.6,0.6 0 0 0 -0.61,-0.6 0.59,0.59 0 0 0 -0.6,0.6 0.6,0.6 0 0 0 0.56,0.63 z M 43.41,45.14 a 0.32,0.32 0 0 0 0.33,-0.33 0.33,0.33 0 0 0 -0.33,-0.33 0.33,0.33 0 0 0 -0.33,0.33 0.33,0.33 0 0 0 0.29,0.36 z M 67.18,44.6 a 0.34,0.34 0 0 0 0,-0.67 0.34,0.34 0 0 0 0,0.67 z m -23,-0.12 a 0.6,0.6 0 0 0 0.6,-0.61 0.61,0.61 0 0 0 -0.6,-0.61 0.62,0.62 0 0 0 -0.61,0.61 0.61,0.61 0 0 0 0.56,0.64 z m 9.68,-0.18 a 0.61,0.61 0 0 0 0.6,-0.61 0.61,0.61 0 0 0 -1.21,0 0.61,0.61 0 0 0 0.56,0.64 z M 58,43.48 a 0.34,0.34 0 0 0 0,-0.67 0.34,0.34 0 0 0 0,0.67 z m 9,-0.19 a 0.6,0.6 0 0 0 0.61,-0.6 0.61,0.61 0 1 0 -1.21,0 0.6,0.6 0 0 0 0.6,0.6 z m -32,0 a 0.37,0.37 0 1 0 -0.07,0 z m 27.82,-1 a 0.33,0.33 0 0 0 0.33,-0.33 0.34,0.34 0 0 0 -0.33,-0.34 0.34,0.34 0 0 0 -0.33,0.34 0.33,0.33 0 0 0 0.3,0.37 z M 38.6,41.68 a 0.61,0.61 0 1 0 -0.61,-0.6 0.6,0.6 0 0 0 0.58,0.64 z M 59,41.24 a 0.33,0.33 0 0 0 0.33,-0.33 0.33,0.33 0 1 0 -0.66,0 0.33,0.33 0 0 0 0.33,0.33 z m -9.95,-0.85 a 0.6,0.6 0 0 0 0.6,-0.6 v 0 a 0.26,0.26 0 0 0 0.15,0 0.34,0.34 0 1 0 0,-0.67 0.34,0.34 0 0 0 -0.32,0.25 0.6,0.6 0 0 0 -0.43,-0.18 0.59,0.59 0 0 0 -0.6,0.6 0.6,0.6 0 0 0 0.6,0.6 z m 6.5,-0.72 a 0.34,0.34 0 1 0 -0.33,-0.34 0.34,0.34 0 0 0 0.37,0.34 z m 10.29,-0.12 a 0.34,0.34 0 0 0 0,-0.67 0.34,0.34 0 0 0 0,0.67 z m -2.58,-0.07 a 0.6,0.6 0 0 0 0.61,-0.6 0.61,0.61 0 1 0 -1.21,0 0.6,0.6 0 0 0 0.64,0.6 z M 38,39.31 A 0.6,0.6 0 0 0 38.6,38.7 0.59,0.59 0 0 0 38,38.1 0.6,0.6 0 0 0 37.39,38.7 0.62,0.62 0 0 0 38,39.31 Z m 5.14,-0.67 a 0.61,0.61 0 1 0 0,-1.21 0.6,0.6 0 0 0 -0.56,0.4 0.33,0.33 0 0 0 -0.1,0.23 0.33,0.33 0 0 0 0.15,0.28 0.58,0.58 0 0 0 0.53,0.3 z M 56.69,38.1 a 0.62,0.62 0 0 0 0.61,-0.61 0.6,0.6 0 0 0 -0.61,-0.6 0.59,0.59 0 0 0 -0.6,0.6 0.6,0.6 0 0 0 0.62,0.61 z M 34.37,37.49 a 0.61,0.61 0 1 0 0,-1.21 0.61,0.61 0 0 0 0,1.21 z m 10.19,-1.87 a 0.34,0.34 0 0 0 0,-0.67 0.34,0.34 0 0 0 0,0.67 z M 65,35.5 A 0.34,0.34 0 1 0 64.66,35.16 0.34,0.34 0 0 0 65,35.5 Z M 37.35,35.43 a 0.33,0.33 0 0 0 0,-0.66 0.33,0.33 0 0 0 0,0.66 z M 60.73,34 A 0.34,0.34 0 1 0 60.4,33.67 0.33,0.33 0 0 0 60.73,34 Z m 1.3,-0.48 a 0.61,0.61 0 0 0 0.61,-0.61 0.61,0.61 0 0 0 -1.21,0 0.61,0.61 0 0 0 0.57,0.65 z M 40.29,32.79 a 0.34,0.34 0 0 0 0,-0.67 0.34,0.34 0 1 0 0,0.67 z M 43,32.59 a 0.61,0.61 0 0 0 0,-1.21 0.61,0.61 0 1 0 0,1.21 z m -5.2,-1 a 0.61,0.61 0 0 0 0.61,-0.6 0.62,0.62 0 0 0 -0.61,-0.61 0.61,0.61 0 0 0 -0.61,0.61 0.6,0.6 0 0 0 0.65,0.63 z M 55.25,31.41 A 0.34,0.34 0 1 0 55,31.1 a 0.34,0.34 0 0 0 0.29,0.34 z m -7.84,-0.06 a 0.61,0.61 0 1 0 -0.6,-0.61 0.61,0.61 0 0 0 0.64,0.64 z m 10.44,-0.61 a 0.33,0.33 0 1 0 0,-0.66 0.33,0.33 0 1 0 0,0.66 z M 46.21,29.39 a 0.34,0.34 0 1 0 0,-0.67 0.34,0.34 0 0 0 0,0.67 z m -13,-0.19 a 0.61,0.61 0 0 0 0,-1.21 0.61,0.61 0 1 0 0,1.21 z M 56,27.75 A 0.33,0.33 0 1 0 55.67,27.42 0.34,0.34 0 0 0 56,27.75 Z m 2.15,-0.42 a 0.6,0.6 0 0 0 0.6,-0.61 0.6,0.6 0 0 0 -0.6,-0.6 0.61,0.61 0 0 0 -0.61,0.6 0.62,0.62 0 0 0 0.62,0.61 z M 32.41,26.42 a 0.34,0.34 0 1 0 -0.33,-0.34 0.34,0.34 0 0 0 0.34,0.34 z m 25.77,-1.27 a 0.33,0.33 0 1 0 -0.33,-0.33 0.33,0.33 0 0 0 0.34,0.33 z M 41.54,24.24 a 0.34,0.34 0 1 0 -0.33,-0.33 0.34,0.34 0 0 0 0.34,0.33 z M 33,22.61 a 0.34,0.34 0 0 0 0,-0.67 0.34,0.34 0 0 0 0,0.67 z m 1.69,-1.21 a 0.34,0.34 0 0 0 0,-0.67 0.34,0.34 0 0 0 0,0.67 z"
       style="fill:url(#radial-gradient-3)" />
    <g
       id="use74206">
      <g
         id="g74116">
        <path
           id="path74118"
           class="cls-8"
           d="m 17.8,94.5 a 1.35,1.35 0 0 0 -1.22,1.5 1.89,1.89 0 0 0 0.26,0.94 1.67,1.67 0 0 0 -0.95,-0.3 1.31,1.31 0 1 0 0,2.62 1.56,1.56 0 0 0 1.49,-1.15 4.05,4.05 0 0 1 0.14,1.06 3.64,3.64 0 0 1 -0.72,2.22 h 2.06 a 3.56,3.56 0 0 1 -0.76,-2.27 3.8,3.8 0 0 1 0.13,-1 1.48,1.48 0 0 0 1.49,1.16 1.31,1.31 0 1 0 0,-2.62 1.53,1.53 0 0 0 -1,0.36 A 2.13,2.13 0 0 0 19,96 1.35,1.35 0 0 0 17.8,94.5 Z"
           style="fill:url(#linear-gradient-3)" />
      </g>
    </g>
    <g
       id="use74345">
      <g
         id="g74326">
        <path
           id="path74301"
           class="cls-9"
           d="M 58.13,59.36 A 15.91,15.91 0 1 1 42.22,43.45 15.91,15.91 0 0 1 58.13,59.36 Z"
           style="fill:url(#radial-gradient-4)" />
        <g
           id="g74277">
          <path
             id="path74279"
             class="cls-10"
             d="m 42.19,47.84 c -2.26,0 -4.09,2.19 -4.09,4.9 a 6.41,6.41 0 0 0 0.9,3.17 5.64,5.64 0 0 0 -3.19,-1 4.42,4.42 0 1 0 0,8.84 5.21,5.21 0 0 0 5,-3.87 12.94,12.94 0 0 1 0.49,3.57 12.09,12.09 0 0 1 -2.42,7.46 h 6.93 a 12,12 0 0 1 -2.57,-7.63 13.29,13.29 0 0 1 0.46,-3.44 c 0.25,2.25 2.66,3.91 5,3.91 a 4.42,4.42 0 1 0 0,-8.84 5.35,5.35 0 0 0 -3.29,1.21 6.81,6.81 0 0 0 0.89,-3.35 c 0,-2.71 -1.83,-4.9 -4.08,-4.9 z"
             style="fill:url(#linear-gradient-4)" />
        </g>
      </g>
    </g>
    <g
       id="use7059">
      <path
         id="text6966"
         class="cls-11"
         d="m 70.65,24.24 c -0.5,0 -0.61,-0.14 -1,-1 L 66.89,17 h -0.22 l -2.31,5.44 c -0.71,1.62 -0.84,1.8 -1.37,1.82 v 0.21 h 2.19 v -0.21 c -0.53,0 -0.75,-0.14 -0.75,-0.45 a 1.19,1.19 0 0 1 0.09,-0.44 L 65,22.06 h 2.9 l 0.46,1.06 a 2.29,2.29 0 0 1 0.21,0.74 c 0,0.28 -0.19,0.37 -0.78,0.38 v 0.21 h 2.83 v -0.21 m -5.4,-2.64 1.27,-3.05 1.29,3.05 h -2.56"
         style="fill:url(#linear-gradient-5)" />
    </g>
  </g>
  <metadata
     id="metadata1">
    <rdf:RDF>
      <cc:Work
         rdf:about="">
        <dc:title>Ace of Clubs</dc:title>
      </cc:Work>
    </rdf:RDF>
  </metadata>
</svg>
