<?xml version="1.0" encoding="UTF-8" standalone="no"?>
<svg
   id="svg2"
   viewBox="0 0 70.380005 99.420006"
   version="1.1"
   sodipodi:docname="CJ.svg"
   inkscape:version="1.3.2 (091e20e, 2023-11-25, custom)"
   width="70.380005"
   height="99.420006"
   xmlns:inkscape="http://www.inkscape.org/namespaces/inkscape"
   xmlns:sodipodi="http://sodipodi.sourceforge.net/DTD/sodipodi-0.dtd"
   xmlns:xlink="http://www.w3.org/1999/xlink"
   xmlns="http://www.w3.org/2000/svg"
   xmlns:svg="http://www.w3.org/2000/svg"
   xmlns:rdf="http://www.w3.org/1999/02/22-rdf-syntax-ns#"
   xmlns:cc="http://creativecommons.org/ns#"
   xmlns:dc="http://purl.org/dc/elements/1.1/">
  <sodipodi:namedview
     id="namedview6"
     pagecolor="#ffffff"
     bordercolor="#000000"
     borderopacity="0.25"
     inkscape:showpageshadow="2"
     inkscape:pageopacity="0.0"
     inkscape:pagecheckerboard="0"
     inkscape:deskcolor="#d1d1d1"
     inkscape:zoom="15.285714"
     inkscape:cx="34.90187"
     inkscape:cy="50.210281"
     inkscape:window-width="3840"
     inkscape:window-height="2054"
     inkscape:window-x="-11"
     inkscape:window-y="-11"
     inkscape:window-maximized="1"
     inkscape:current-layer="svg2" />
  <defs
     id="defs6">
    <style
       id="style1">
      .cls-1 {
        filter: url(#filter63625-2-3);
      }

      .cls-2 {
        stroke: #000;
        fill: url(#linear-gradient);
      }

      .cls-2, .cls-6 {
        stroke-miterlimit: 10;
        stroke-width: 0.23px;
      }

      .cls-3 {
        fill: url(#linear-gradient-2);
      }

      .cls-4 {
        opacity: 0.31;
        fill: url(#radial-gradient);
      }

      .cls-4, .cls-5, .cls-7 {
        isolation: isolate;
      }

      .cls-5 {
        opacity: 0.32;
        fill: url(#radial-gradient-2);
      }

      .cls-6 {
        fill: none;
      }

      .cls-12, .cls-6 {
        stroke: #fff;
      }

      .cls-7 {
        opacity: 0.32;
        fill: url(#radial-gradient-3);
      }

      .cls-10, .cls-11, .cls-8 {
        stroke: #c8c8c8;
      }

      .cls-11, .cls-8 {
        stroke-linejoin: round;
        stroke-width: 1px;
      }

      .cls-8 {
        fill: url(#linear-gradient-3);
      }

      .cls-9 {
        fill: url(#radial-gradient-4);
      }

      .cls-10 {
        stroke-width: 0.38px;
        fill-rule: evenodd;
        fill: url(#linear-gradient-4);
      }

      .cls-11 {
        fill: url(#linear-gradient-5);
      }

      .cls-12 {
        stroke-width: 0.49px;
        fill: url(#linear-gradient-6);
      }
    </style>
    <filter
       id="filter63625-2-3"
       name="filter63625-2-3"
       x="-0.12863863"
       y="-0.090976909"
       width="1.2572773"
       height="1.1819538">
      <feGaussianBlur
         result="feGaussianBlur63627-6-62"
         stdDeviation="3.76"
         id="feGaussianBlur1" />
    </filter>
    <linearGradient
       id="linear-gradient"
       x1="-1221.74"
       y1="-2666.97"
       x2="-1212.26"
       y2="-2152.46"
       gradientTransform="matrix(0.23,0,0,-0.23,319.03,-568.53)"
       gradientUnits="userSpaceOnUse">
      <stop
         offset="0"
         stop-color="#f3f3f3"
         id="stop1" />
      <stop
         offset="1"
         stop-color="#8f8f8f"
         id="stop2" />
    </linearGradient>
    <linearGradient
       id="linear-gradient-2"
       x1="-1692.1"
       y1="-2431.5801"
       x2="-1559.8199"
       y2="-2869.29"
       gradientTransform="matrix(0.24,0,0,-0.24,432.94,-558.49)"
       gradientUnits="userSpaceOnUse">
      <stop
         offset="0"
         id="stop3" />
      <stop
         offset="1"
         stop-color="#555753"
         id="stop4" />
    </linearGradient>
    <radialGradient
       id="radial-gradient"
       cx="431.42999"
       cy="6274.79"
       r="58.68"
       gradientTransform="matrix(-0.23,0,0,0.21,113.36,-1198.18)"
       gradientUnits="userSpaceOnUse">
      <stop
         offset="0"
         stop-color="#fff"
         id="stop5" />
      <stop
         offset="1"
         stop-color="#fff"
         stop-opacity="0"
         id="stop6" />
    </radialGradient>
    <radialGradient
       id="radial-gradient-2"
       cx="-1255.53"
       cy="-1580.6899"
       r="63.150002"
       gradientTransform="matrix(0.23,0,0,-0.36,351.84,-545.66)"
       xlink:href="#radial-gradient" />
    <radialGradient
       id="radial-gradient-3"
       cx="-364.82001"
       cy="526.62"
       r="26.74"
       gradientTransform="matrix(0.84,0,0,-1.48,347.61,839.68)"
       xlink:href="#radial-gradient" />
    <linearGradient
       id="linear-gradient-3"
       x1="-5574.8501"
       y1="-13514.97"
       x2="-5574.8501"
       y2="-13455.46"
       gradientTransform="matrix(0.05,0,0,-0.06,318.65,-689.99)"
       xlink:href="#linear-gradient" />
    <radialGradient
       id="radial-gradient-4"
       cx="-62.43"
       cy="1096.22"
       r="25.370001"
       gradientTransform="matrix(0.83,0.56,2.15,-3.16,-2280.02,3585.33)"
       xlink:href="#radial-gradient" />
    <linearGradient
       id="linear-gradient-4"
       x1="-1748.17"
       y1="-4563.0601"
       x2="-1748.17"
       y2="-4334.3398"
       gradientTransform="matrix(0.17,0,0,-0.17,330.69,-676.13)"
       xlink:href="#linear-gradient" />
    <linearGradient
       id="linear-gradient-5"
       x1="-3344.4099"
       y1="-6089.21"
       x2="-3344.4099"
       y2="-6029.73"
       gradientTransform="matrix(0.11,0,0,-0.12,397.98,-709.63)"
       xlink:href="#linear-gradient" />
    <linearGradient
       id="linear-gradient-6"
       x1="-149.72"
       y1="579.96002"
       x2="-149.78"
       y2="583.84003"
       gradientTransform="matrix(1,0,0,-1,216.25,601.44)"
       xlink:href="#linear-gradient" />
    <linearGradient
       inkscape:collect="always"
       xlink:href="#linear-gradient"
       id="linearGradient1"
       gradientUnits="userSpaceOnUse"
       gradientTransform="matrix(0.23,0,0,-0.23,319.03,-568.53)"
       x1="-1221.74"
       y1="-2666.97"
       x2="-1212.26"
       y2="-2152.46" />
    <radialGradient
       inkscape:collect="always"
       xlink:href="#radial-gradient"
       id="radialGradient1"
       gradientUnits="userSpaceOnUse"
       gradientTransform="matrix(-0.23,0,0,0.21,113.36,-1198.18)"
       cx="431.42999"
       cy="6274.79"
       r="58.68" />
  </defs>
  <title
     id="title6">Queen of Clubs</title>
  <g
     id="jack_club"
     data-name="jack club"
     transform="translate(-7.0350001,-9.3050001)">
    <g
       id="use72921">
      <g
         id="g70523">
        <rect
           id="rect70527"
           class="cls-2"
           x="7.1500001"
           y="9.4200001"
           width="70.150002"
           height="99.190002"
           rx="4.0500002"
           ry="4.0500002"
           style="fill:url(#linearGradient1)" />
        <rect
           id="rect6077"
           class="cls-3"
           x="10.61"
           y="12.88"
           width="63.240002"
           height="92.260002"
           rx="1.29"
           ry="1.29"
           style="fill:url(#linear-gradient-2)" />
        <rect
           id="rect70531"
           class="cls-4"
           x="10.61"
           y="80.860001"
           width="26.549999"
           height="24.280001"
           rx="0.85000002"
           ry="0.85000002"
           style="fill:url(#radialGradient1)" />
        <rect
           id="rect70533"
           class="cls-5"
           x="45.27"
           y="12.88"
           width="28.57"
           height="45.27"
           rx="1.04"
           ry="1.04"
           style="fill:url(#radial-gradient-2)" />
        <path
           id="path70535"
           class="cls-6"
           d="M 25.57,101.12 H 70.29 V 27.51 M 58.72,16.91 H 14.16 v 73.18" />
        <path
           id="path70537"
           class="cls-7"
           d="m 64.6,59 c 0,21.89 -10,39.64 -22.38,39.64 C 29.84,98.64 19.83,80.9 19.83,59 c 0,-21.9 10,-39.64 22.39,-39.64 12.39,0 22.38,17.76 22.38,39.64 z"
           style="fill:url(#radial-gradient-3)" />
      </g>
    </g>
    <g
       id="use74226">
      <g
         id="g74116">
        <path
           id="path74118"
           class="cls-8"
           d="m 17.6,94.38 a 1.35,1.35 0 0 0 -1.22,1.45 1.93,1.93 0 0 0 0.26,1 1.61,1.61 0 0 0 -1,-0.31 1.31,1.31 0 1 0 0,2.62 1.56,1.56 0 0 0 1.54,-1.14 4,4 0 0 1 0.14,1 3.55,3.55 0 0 1 -0.72,2.21 h 2.06 A 3.56,3.56 0 0 1 17.9,99 a 4.27,4.27 0 0 1 0.13,-1 1.48,1.48 0 0 0 1.5,1.16 1.31,1.31 0 1 0 0,-2.62 1.6,1.6 0 0 0 -1,0.36 2.09,2.09 0 0 0 0.26,-1 1.35,1.35 0 0 0 -1.21,-1.45 z"
           style="fill:url(#linear-gradient-3)" />
      </g>
    </g>
    <path
       id="path7050"
       class="cls-9"
       d="m 23.35,97.88 c 0.53,-0.91 -1.57,-4.1 -1.84,-5.31 a 1.45,1.45 0 0 1 -0.06,-0.3 3,3 0 0 1 0,-0.52 4.63,4.63 0 0 1 0.12,-0.91 0.33,0.33 0 0 0 0.31,-0.33 0.34,0.34 0 0 0 -0.14,-0.28 l 0.21,-0.68 a 9.11,9.11 0 0 1 0.6,-1.44 19.84,19.84 0 0 1 1.09,-1.76 l 0.37,-0.53 h 0.11 a 0.6,0.6 0 0 0 0.61,-0.6 0.71,0.71 0 0 0 -0.06,-0.25 l 0.45,-0.53 a 29.51,29.51 0 0 1 2.14,-2 c 0.81,-0.74 1.67,-1.42 2.53,-2.1 1,-0.8 2.12,-1.5 3.21,-2.22 1.09,-0.72 2.08,-1.31 3.13,-1.94 h 0.15 a 0.6,0.6 0 0 0 0.6,-0.6 0.61,0.61 0 0 0 -0.6,-0.61 0.62,0.62 0 0 0 -0.61,0.61 0.6,0.6 0 0 0 0.44,0.58 l -0.3,0.17 c -1.28,0.77 -2.55,1.54 -3.81,2.36 -1.09,0.71 -2.19,1.42 -3.22,2.22 -0.87,0.68 -1.72,1.37 -2.53,2.11 -0.62,0.56 -1.25,1.12 -1.83,1.72 a 0.6,0.6 0 0 0 -0.79,0.88 c -0.36,0.44 -0.7,0.88 -1,1.36 a 19.74,19.74 0 0 0 -1.08,1.76 l -0.15,0.3 c 0,-0.61 0.11,-1.21 0.19,-1.82 a 16.57,16.57 0 0 1 0.52,-2.52 15.31,15.31 0 0 1 0.83,-2.2 13.8,13.8 0 0 0 0.87,-1.63 c 0.05,-0.12 0.09,-0.25 0.14,-0.37 v -0.1 c 0.44,-0.78 0.89,-1.55 1.34,-2.32 l 0.09,-0.14 0.51,-0.7 c 0.49,-0.64 1,-1.26 1.54,-1.87 0.68,-0.78 1.4,-1.52 2.12,-2.25 0.72,-0.73 1.68,-1.63 2.54,-2.41 0.86,-0.78 1.87,-1.65 2.8,-2.49 0.93,-0.84 2,-1.76 3,-2.63 1,-0.87 2.21,-2 3.28,-3 l 1.7,-1.64 a 10.71,10.71 0 0 0 1.68,-1.33 c 1.11,-1 2.23,-1.87 3.39,-2.75 a 16.52,16.52 0 0 1 2.27,-1.55 l 0.5,-0.22 a 0.53,0.53 0 0 0 0,0.18 0.61,0.61 0 0 0 0.61,0.6 0.6,0.6 0 0 0 0.6,-0.6 0.58,0.58 0 0 0 -0.14,-0.39 c 2.23,-0.17 2.69,-0.49 0.27,-0.34 a 2.16,2.16 0 0 0 -0.57,0.14 h -0.16 a 0.59,0.59 0 0 0 -0.53,0.33 21.8,21.8 0 0 0 -3.41,2.2 C 46.14,58 45,59 43.93,59.9 c -0.46,0.39 -0.76,0.66 -0.94,0.82 L 44.71,59 c 1.25,-1.26 2.43,-2.58 3.58,-3.93 0.71,-0.85 1.39,-1.73 2.06,-2.61 a 0.62,0.62 0 0 0 0.47,0.22 0.61,0.61 0 0 0 0.6,-0.61 0.6,0.6 0 0 0 -0.36,-0.55 L 52,50.3 a 56.44,56.44 0 0 0 3.46,-5.46 36.2,36.2 0 0 0 2.78,-6.23 54.49,54.49 0 0 0 1.13,-5.8 c 0.37,-2.33 -0.21,-2 -0.58,0.34 a 54.3,54.3 0 0 1 -1.13,5.79 35.92,35.92 0 0 1 -2.79,6.24 c -0.08,0.15 -0.18,0.29 -0.26,0.44 a 0.33185087,0.33185087 0 0 0 -0.66,0.07 0.33,0.33 0 0 0 0.33,0.33 0.25,0.25 0 0 0 0.12,0 50,50 0 0 1 -3,4.63 l -0.6,0.85 a 0.6,0.6 0 0 0 -0.55,0.59 c 0,0 0,0.08 0,0.12 -0.81,1.09 -1.64,2.17 -2.52,3.22 -1.15,1.35 -2.33,2.67 -3.58,3.93 -1.25,1.26 -2.36,2.38 -3.58,3.54 -1.22,1.16 -2.17,2 -3.3,3 -1.13,1 -2,1.75 -3,2.64 L 31.45,71 c -0.8,0.73 -1.6,1.46 -2.36,2.23 a 0.32,0.32 0 0 0 -0.16,-0.2 l 0.9,-0.91 c 1,-0.94 2,-1.86 3,-2.8 1.19,-1.11 2.34,-2.25 3.48,-3.41 a 38,38 0 0 0 3.69,-4.17 48,48 0 0 0 3.28,-5.4 35.74,35.74 0 0 0 2.66,-6.12 41.4,41.4 0 0 0 1.36,-7 57.54,57.54 0 0 0 0.08,-6 0.61,0.61 0 0 0 0.2,-0.45 0.58,0.58 0 0 0 -0.24,-0.48 c 0,-0.25 0,-0.5 0,-0.74 0,-0.42 0,-0.84 0,-1.25 -0.09,-2.35 -0.66,-2 -0.57,0.33 0,0.42 0,0.83 0,1.25 0,0.11 0,0.22 0,0.32 a 0.61,0.61 0 0 0 -0.39,0.57 0.6,0.6 0 0 0 0.43,0.57 c 0,1 0,2.07 0,3.11 a 0.64,0.64 0 0 0 -0.24,-0.05 0.6,0.6 0 0 0 -0.6,0.6 0.61,0.61 0 0 0 0.6,0.61 0.54,0.54 0 0 0 0.22,0 c 0,0.67 0,1.34 -0.1,2 -0.19,1.51 -0.42,3 -0.75,4.51 0,-0.71 0,-1.42 0,-2.13 a 49.81,49.81 0 0 0 -0.37,-5 27.64,27.64 0 0 0 -0.68,-3.4 12.17,12.17 0 0 0 -0.57,-1.67 2,2 0 0 0 -0.27,-0.44 c -1.9,-1.71 -2.54,-1.32 -0.62,0.37 a 1.57,1.57 0 0 1 0.27,0.43 12,12 0 0 1 0.57,1.66 27.92,27.92 0 0 1 0.7,3.39 50,50 0 0 1 0.38,5 c 0,0.94 0,1.88 0,2.82 a 7.72,7.72 0 0 0 0,1.21 2.17,2.17 0 0 0 -0.07,0.24 c -0.39,1.15 -0.82,2.28 -1.31,3.39 a 0.61,0.61 0 0 0 -0.53,-0.3 0.6,0.6 0 0 0 -0.6,0.6 0.61,0.61 0 0 0 0.6,0.61 h 0.12 c -0.29,0.62 -0.6,1.23 -0.94,1.83 a 45.89,45.89 0 0 1 -3.29,5.41 39,39 0 0 1 -3.62,4.19 c -1.14,1.16 -2.29,2.31 -3.48,3.42 -1,0.94 -2,1.85 -3.05,2.8 l -0.51,0.51 a 0.34,0.34 0 0 0 -0.28,0.29 19.78,19.78 0 0 0 -1.76,2 c -0.67,0.94 -1.33,1.89 -1.91,2.89 -0.22,0.3 -0.42,0.6 -0.61,0.92 a 10,10 0 0 0 -0.58,1 5.69,5.69 0 0 0 -0.32,0.71 v 0 l -0.49,0.92 c -0.2,0.42 -0.39,0.84 -0.58,1.26 0,-0.07 0,-0.14 0.05,-0.21 a 18.09,18.09 0 0 1 0.5,-1.74 c 0.24,-0.68 0.52,-1.35 0.81,-2 0.35,-0.82 0.71,-1.62 1.06,-2.44 0.49,-1.09 1,-2.16 1.57,-3.23 0.69,-1.31 1.3,-2.65 1.88,-4 0.69,-1.65 1.37,-3.31 2.06,-5 0.69,-1.69 1.41,-3.42 2.06,-5.15 a 0.34,0.34 0 0 0 0.26,-0.32 0.32,0.32 0 0 0 -0.06,-0.2 c 0.65,-1.82 1.24,-3.66 1.8,-5.51 0.65,-2.15 1.21,-4.32 1.65,-6.52 A 42.61,42.61 0 0 0 36.33,39 c -0.08,-2.64 -0.38,-5.26 -0.7,-7.87 -0.2,-1.57 -0.44,-3.14 -0.68,-4.71 A 5.23,5.23 0 0 0 34.59,25 a 0.63,0.63 0 0 0 0.19,0 0.6,0.6 0 0 0 0.61,-0.6 0.61,0.61 0 0 0 -1.21,0 0.57,0.57 0 0 0 0.17,0.41 3.72,3.72 0 0 0 0,1.88 c 0.11,0.7 0.21,1.4 0.31,2.09 a 0.3,0.3 0 0 0 -0.23,-0.09 0.34,0.34 0 1 0 0.3,0.49 q 0.16,1.11 0.3,2.22 c 0,0.19 0.05,0.38 0.07,0.57 a 0.6,0.6 0 1 0 -0.27,1.14 0.61,0.61 0 0 0 0.39,-0.15 c 0.24,2.09 0.46,4.2 0.53,6.31 A 42.63,42.63 0 0 1 35.24,47 c -0.44,2.2 -1,4.38 -1.65,6.53 -0.52,1.7 -1.07,3.4 -1.66,5.08 a 0.32,0.32 0 0 0 -0.17,0.29 0.27,0.27 0 0 0 0,0.12 c -0.05,0.11 -0.09,0.23 -0.13,0.34 -0.63,1.84 -1.36,3.64 -2.11,5.39 -0.75,1.75 -1.37,3.32 -2.07,5 -0.58,1.36 -1.19,2.71 -1.88,4 C 25,74.81 24.48,75.88 24,77 l -1.06,2.44 c -0.29,0.67 -0.58,1.33 -0.82,2 -0.24,0.67 -0.37,1.14 -0.5,1.73 -0.13,0.59 -0.22,1 -0.3,1.5 0,0.21 -0.08,0.43 -0.14,0.65 -0.25,1.06 -0.28,1.6 -0.18,1.68 0.1,0.08 0,0.36 -0.07,0.54 -0.09,0.71 -0.19,1.42 -0.21,2.14 0,0.33 0,0.66 0,1 0,0.34 -0.14,0.49 -0.2,0.74 l -0.06,0.3 h -3 c 2,0.57 3.56,0.41 5.87,6.18 z m 0.58,-4.68 a 0.33,0.33 0 0 0 0,-0.66 0.33,0.33 0 1 0 0,0.66 z M 19.3,91.51 a 0.61,0.61 0 1 0 0,-1.21 0.61,0.61 0 0 0 0,1.21 z m 3.27,-0.72 a 0.61,0.61 0 0 0 0.6,-0.61 0.6,0.6 0 0 0 -0.6,-0.6 0.59,0.59 0 0 0 -0.6,0.6 0.6,0.6 0 0 0 0.6,0.61 z m -4.27,-1.7 a 0.34,0.34 0 1 0 -0.33,-0.33 0.34,0.34 0 0 0 0.33,0.33 z m 1.52,-0.55 a 0.33,0.33 0 0 0 0.33,-0.33 0.34,0.34 0 0 0 -0.67,0 0.33,0.33 0 0 0 0.34,0.33 z m 5.71,-0.72 a 0.61,0.61 0 1 0 0,-1.21 0.61,0.61 0 0 0 0,1.21 z m 1.42,-1 a 0.33,0.33 0 1 0 -0.33,-0.33 0.33,0.33 0 0 0 0.38,0.3 z m -8.31,-0.66 a 0.61,0.61 0 1 0 -0.61,-0.6 0.6,0.6 0 0 0 0.61,0.57 z M 20,84.37 a 0.61,0.61 0 1 0 -0.61,-0.6 0.6,0.6 0 0 0 0.61,0.6 z m 7.83,-0.24 a 0.33,0.33 0 0 0 0,-0.66 0.33,0.33 0 0 0 0,0.66 z m 4.39,-0.54 a 0.61,0.61 0 0 0 0.6,-0.61 0.61,0.61 0 0 0 -1.21,0 0.61,0.61 0 0 0 0.64,0.61 z m -6.47,-0.73 a 0.6,0.6 0 0 0 0.6,-0.6 0.61,0.61 0 1 0 -1.21,0 0.6,0.6 0 0 0 0.64,0.6 z m 2.37,-0.15 c 0,0 0.7,-0.46 1.82,-1.28 0.47,-0.35 0.94,-0.72 1.44,-1 a 22,22 0 0 1 2.21,-1.18 l 0.46,-0.2 a 0.6,0.6 0 1 0 1.07,0.38 0.59,0.59 0 0 0 -0.57,-0.59 c 0.53,-0.24 1.06,-0.47 1.6,-0.68 L 38,77.42 38.78,77.13 c 2.39,-0.91 3,-1.27 0.62,-0.36 l -0.78,0.3 c -0.61,0.23 -1.21,0.48 -1.82,0.72 -0.87,0.33 -1.72,0.72 -2.56,1.1 a 34.4,34.4 0 0 0 -3.43,1.86 c -0.5,0.31 -1,0.68 -1.44,1 a 13.37,13.37 0 0 0 -1.21,0.93 z m -8.43,-0.63 a 0.61,0.61 0 0 0 0.61,-0.61 0.61,0.61 0 0 0 -1.21,0 0.61,0.61 0 0 0 0.63,0.61 z m 13.22,-0.67 a 0.33,0.33 0 0 0 0.33,-0.33 0.33,0.33 0 1 0 -0.66,0 0.33,0.33 0 0 0 0.36,0.33 z m -11,-0.85 A 0.61,0.61 0 1 0 21.3,79.95 0.6,0.6 0 0 0 22,80.56 Z m 3.26,-0.18 a 0.61,0.61 0 0 0 0,-1.21 0.61,0.61 0 1 0 0,1.21 z M 17,79.9 A 0.34,0.34 0 1 0 16.67,79.57 0.33,0.33 0 0 0 17,79.9 Z m 21.11,-1.15 a 0.34,0.34 0 0 0 0,-0.67 0.34,0.34 0 0 0 0,0.67 z m -7.22,-0.06 a 0.61,0.61 0 0 0 0.6,-0.61 0.61,0.61 0 0 0 -1.21,0 0.61,0.61 0 0 0 0.64,0.61 z m 10.67,-0.55 a 0.32,0.32 0 0 0 0.33,-0.33 0.33,0.33 0 0 0 -0.33,-0.33 v 0 a 0.6,0.6 0 0 0 -0.42,-1 0.61,0.61 0 1 0 0,1.21 h 0.17 a 0.34,0.34 0 0 0 -0.05,0.17 0.33,0.33 0 0 0 0.33,0.33 z m 2.09,-1.39 a 0.61,0.61 0 1 0 0,-1.21 0.61,0.61 0 1 0 0,1.21 z m -20.62,0 a 0.61,0.61 0 1 0 -0.61,-0.61 0.6,0.6 0 0 0 0.64,0.61 z m 4.77,-0.06 a 0.61,0.61 0 1 0 0,-1.21 0.61,0.61 0 0 0 0,1.21 z m 17.39,-0.06 a 0.33,0.33 0 1 0 -0.33,-0.33 0.33,0.33 0 0 0 0.36,0.33 z m -13,-0.42 a 0.34,0.34 0 0 0 0,-0.67 0.34,0.34 0 0 0 0,0.67 z m -5.54,-0.4 0.6,-0.85 a 16.79,16.79 0 0 1 1.2,-1.45 0.34,0.34 0 0 0 0.21,0.14 c -0.65,0.67 -1.3,1.33 -1.9,2 l -0.11,0.13 z m 11.5,-0.91 2,-1.1 1.48,-0.8 h 0.17 a 0.6,0.6 0 0 0 0.58,-0.45 c 0.7,-0.39 1.39,-0.79 2.08,-1.19 -0.21,0.13 -1.13,0.64 -2.07,1.17 a 0.59,0.59 0 0 0 0,-0.13 0.61,0.61 0 1 0 -0.8,0.57 l -0.48,0.26 -3,1.67 z M 46,74.81 A 0.33,0.33 0 0 0 46.33,74.48 0.33,0.33 0 0 0 46,74.15 0.33,0.33 0 0 0 45.67,74.48 0.32,0.32 0 0 0 46,74.81 Z m -23.14,-0.9 a 0.61,0.61 0 0 0 0.61,-0.61 0.58,0.58 0 0 0 0,-0.18 h 0.06 a 0.33,0.33 0 0 0 0.34,-0.33 0.34,0.34 0 0 0 -0.34,-0.34 0.34,0.34 0 0 0 -0.33,0.33 0.61,0.61 0 0 0 -0.3,-0.08 0.61,0.61 0 0 0 0,1.21 z m -2,-0.07 a 0.33,0.33 0 0 0 0.33,-0.33 0.33,0.33 0 0 0 -0.33,-0.33 0.33,0.33 0 0 0 -0.33,0.33 0.32,0.32 0 0 0 0.32,0.33 z m 4.2,-2.29 a 0.61,0.61 0 1 0 -0.6,-0.6 0.6,0.6 0 0 0 0.59,0.6 z m 25.56,-0.12 a 0.34,0.34 0 0 0 0,-0.67 0.34,0.34 0 0 0 0,0.67 z m -5.9,-0.21 0.9,-0.52 A 41.45,41.45 0 0 0 50,67.76 c 0.71,-0.54 1.39,-1.1 2,-1.69 a 0.61,0.61 0 0 0 0.57,0.39 0.6,0.6 0 0 0 0.6,-0.6 0.61,0.61 0 0 0 -0.35,-0.55 c 0.48,-0.45 1,-0.9 1.41,-1.37 0.41,-0.47 0.66,-0.7 1,-1 v 0 c 1,-0.88 2,-1.75 2.9,-2.65 0,0 0,0 0.05,0 a 0.6,0.6 0 1 0 0.67,-0.68 12.21,12.21 0 0 0 1.5,-1.86 c 0.57,-0.84 1.14,-1.68 1.69,-2.53 0.55,-0.85 1.08,-1.71 1.6,-2.58 0.3,-0.5 0.61,-1 0.9,-1.51 a 0.5,0.5 0 0 0 0,0.12 0.61,0.61 0 1 0 1.21,0 0.6,0.6 0 0 0 -0.6,-0.6 0.57,0.57 0 0 0 -0.42,0.17 l 0.24,-0.45 a 12.1,12.1 0 0 0 0.62,-1.43 5.37,5.37 0 0 1 0.21,-0.56 c 0.14,-0.27 0.26,-0.51 0.35,-0.71 a 0.59,0.59 0 0 0 0.51,-0.59 0.6,0.6 0 0 0 -0.37,-0.56 0.33,0.33 0 1 0 -0.27,0 0.6,0.6 0 0 0 -0.23,1.14 c -0.18,0.3 -0.38,0.66 -0.61,1.12 a 5.37,5.37 0 0 0 -0.21,0.56 12.1,12.1 0 0 1 -0.62,1.43 c -0.4,0.77 -0.85,1.52 -1.3,2.27 -0.45,0.75 -1.06,1.72 -1.6,2.57 -0.54,0.85 -1.11,1.7 -1.69,2.54 a 11.56,11.56 0 0 1 -1.23,1.56 0.57,0.57 0 0 0 -0.3,0.33 l -0.68,0.69 c -0.54,0.52 -1.1,1 -1.65,1.53 0.77,-1 1.49,-2 2.19,-3 A 24.9,24.9 0 0 0 61,53.35 c 0,-0.1 0.06,-0.21 0.1,-0.31 a 0.6,0.6 0 0 0 0.59,0.48 0.61,0.61 0 1 0 -0.41,-1.05 28,28 0 0 0 1,-6 26.8,26.8 0 0 0 -0.24,-6.2 c -0.49,-3.86 -1.44,-3.31 -0.95,0.54 a 27.54,27.54 0 0 1 0.23,6.22 25.83,25.83 0 0 1 -1.28,6.85 25.17,25.17 0 0 1 -2.92,5.76 37.16,37.16 0 0 1 -3.43,4.38 l -2.16,1.89 c -0.53,0.46 -1.08,0.89 -1.63,1.32 -1.91,1.53 -1.3,1.18 0.6,-0.34 0.5,-0.4 1,-0.79 1.48,-1.2 a 39.13,39.13 0 0 1 -3,2.58 45.58,45.58 0 0 1 -4.27,2.88 z m -3.35,-0.15 a 0.34,0.34 0 0 0 0,-0.67 0.34,0.34 0 0 0 0,0.67 z m 6,-0.25 a 0.34,0.34 0 0 0 0.27,-0.33 0.34,0.34 0 1 0 -0.33,0.33 z M 34,70.64 a 0.61,0.61 0 1 0 -0.6,-0.61 0.61,0.61 0 0 0 0.6,0.61 z m 1.85,-0.18 a 0.34,0.34 0 1 0 -0.33,-0.33 0.33,0.33 0 0 0 0.33,0.33 z m 8.77,-1.52 a 0.33,0.33 0 0 0 0.34,-0.33 0.34,0.34 0 0 0 -0.67,0 0.33,0.33 0 0 0 0.33,0.33 z m 3,-0.17 a 0.61,0.61 0 1 0 -0.6,-0.61 0.61,0.61 0 0 0 0.59,0.61 z M 26.27,68.52 a 0.6,0.6 0 0 0 0.61,-0.6 0.61,0.61 0 0 0 -0.61,-0.61 0.62,0.62 0 0 0 -0.61,0.61 0.61,0.61 0 0 0 0.6,0.6 z m 28.64,-0.6 a 0.34,0.34 0 0 0 0.34,-0.33 0.34,0.34 0 0 0 -0.67,0 0.33,0.33 0 0 0 0.32,0.33 z M 33.58,67.8 a 0.61,0.61 0 1 0 0,-1.21 0.61,0.61 0 0 0 0,1.21 z m -9,-1 a 0.34,0.34 0 0 0 0,-0.67 0.34,0.34 0 0 0 0,0.67 z m 24.4,-0.06 a 0.61,0.61 0 1 0 -0.6,-0.61 0.61,0.61 0 0 0 0.56,0.58 z M 27.23,66.1 a 0.59,0.59 0 0 0 0.6,-0.6 0.6,0.6 0 0 0 -0.26,-0.5 0.3,0.3 0 0 0 0,-0.13 0.33,0.33 0 1 0 -0.66,0 0.36,0.36 0 0 0 0,0.1 0.6,0.6 0 0 0 0.28,1.13 z M 40.3,65.56 a 0.61,0.61 0 1 0 -0.61,-0.6 0.6,0.6 0 0 0 0.61,0.6 z M 29.16,65.34 c 0.14,0 0.41,-0.7 0.65,-2 0.24,-1.3 0.46,-2.53 0.6,-3.81 a 34.41,34.41 0 0 0 0.22,-4.76 32.31,32.31 0 0 0 -0.34,-3.55 c -0.13,-0.79 -0.25,-1.58 -0.45,-2.36 a 7.2,7.2 0 0 0 -0.28,-0.9 c -1,-2.33 -1.71,-1.95 -0.62,0.36 a 7.06,7.06 0 0 1 0.28,0.89 24,24 0 0 1 0.46,2.36 32.56,32.56 0 0 1 0.32,3.6 36,36 0 0 1 -0.2,4.75 c -0.14,1.28 -0.37,2.55 -0.61,3.81 -0.24,1.26 -0.19,1.62 -0.06,1.61 z m 12.92,0 a 0.34,0.34 0 1 0 -0.33,-0.33 0.33,0.33 0 0 0 0.33,0.31 z M 32.16,65.1 a 0.34,0.34 0 1 0 -0.33,-0.33 0.33,0.33 0 0 0 0.33,0.31 z m 4,-1.09 a 0.61,0.61 0 0 0 0.6,-0.61 0.61,0.61 0 0 0 -1.21,0 0.61,0.61 0 0 0 0.58,0.6 z M 53,63.5 A 0.6,0.6 0 0 0 53.6,62.9 0.6,0.6 0 0 0 53,62.29 0.62,0.62 0 0 0 52.39,62.9 0.61,0.61 0 0 0 53,63.5 Z m 6.8,-1.39 a 0.34,0.34 0 1 0 -0.33,-0.33 0.34,0.34 0 0 0 0.33,0.33 z M 48.28,59.27 a 0.61,0.61 0 1 0 0,-1.21 0.61,0.61 0 0 0 0,1.21 z m 6.44,-1 a 0.34,0.34 0 1 0 0,-0.67 0.34,0.34 0 0 0 0,0.67 z M 25.29,57.85 a 0.61,0.61 0 0 0 0.61,-0.61 0.61,0.61 0 1 0 -1.21,0 0.6,0.6 0 0 0 0.6,0.64 z M 40.6,57.6 A 0.59,0.59 0 0 0 41.2,57 0.6,0.6 0 0 0 40.6,56.39 0.62,0.62 0 0 0 40,57 a 0.6,0.6 0 0 0 0.6,0.63 z m 23.32,-0.72 a 0.33,0.33 0 1 0 -0.33,-0.33 0.33,0.33 0 0 0 0.33,0.36 z m -0.76,-0.49 a 0.6,0.6 0 0 0 0.61,-0.6 0.61,0.61 0 0 0 -0.61,-0.61 0.62,0.62 0 0 0 -0.61,0.61 0.6,0.6 0 0 0 0.61,0.63 z M 44.35,56.22 a 0.62,0.62 0 0 0 0.61,-0.61 0.61,0.61 0 0 0 -0.61,-0.61 0.6,0.6 0 0 0 -0.6,0.61 0.6,0.6 0 0 0 0.6,0.64 z m -10,-0.67 a 0.61,0.61 0 1 0 -0.61,-0.61 0.6,0.6 0 0 0 0.63,0.64 z M 28,53 a 0.34,0.34 0 0 0 0.34,-0.34 0.34,0.34 0 0 0 -0.67,0 A 0.34,0.34 0 0 0 28,53 Z m 3.48,-0.13 a 0.6,0.6 0 0 0 0.61,-0.6 0.61,0.61 0 1 0 -1.21,0 0.6,0.6 0 0 0 0.64,0.58 z M 58.16,52.7 a 0.62,0.62 0 0 0 0.61,-0.61 0.6,0.6 0 0 0 -0.61,-0.6 0.59,0.59 0 0 0 -0.6,0.6 0.6,0.6 0 0 0 0.64,0.59 z m -23,-0.61 a 0.34,0.34 0 0 0 0,-0.67 0.34,0.34 0 1 0 0,0.67 z m 8.38,-2.54 a 0.61,0.61 0 1 0 -0.61,-0.61 0.6,0.6 0 0 0 0.7,0.59 z m 7.13,-0.06 a 0.61,0.61 0 1 0 0,-1.21 0.61,0.61 0 0 0 0,1.21 z m 12.59,-0.67 a 0.6,0.6 0 0 0 0.6,-0.6 0.61,0.61 0 1 0 -1.21,0 0.6,0.6 0 0 0 0.7,0.58 z M 33.1,48.32 a 0.61,0.61 0 0 0 0,-1.21 0.61,0.61 0 1 0 0,1.21 z m 15.36,-0.06 a 0.61,0.61 0 1 0 0,-1.21 0.61,0.61 0 1 0 0,1.21 z M 36.34,46.93 a 0.34,0.34 0 0 0 0,-0.67 0.34,0.34 0 1 0 0,0.67 z m -8.72,-1 a 0.34,0.34 0 0 0 0.34,-0.33 0.34,0.34 0 0 0 -0.34,-0.33 0.33,0.33 0 0 0 -0.33,0.33 0.33,0.33 0 0 0 0.33,0.4 z m 22,-0.12 a 0.33,0.33 0 0 0 0.33,-0.33 0.33,0.33 0 0 0 -0.66,0 0.33,0.33 0 0 0 0.29,0.36 z m 9.71,-0.54 a 0.61,0.61 0 0 0 0.6,-0.61 0.6,0.6 0 0 0 -0.6,-0.6 0.59,0.59 0 0 0 -0.6,0.6 0.6,0.6 0 0 0 0.56,0.64 z M 43.27,45.02 a 0.33,0.33 0 0 0 0.33,-0.33 0.33,0.33 0 1 0 -0.66,0 0.33,0.33 0 0 0 0.29,0.36 z M 67,44.51 a 0.33,0.33 0 0 0 0.33,-0.33 0.33,0.33 0 1 0 -0.66,0 0.33,0.33 0 0 0 0.33,0.33 z M 44,44.39 a 0.6,0.6 0 0 0 0.6,-0.61 0.61,0.61 0 1 0 -0.6,0.61 z m 9.68,-0.18 a 0.61,0.61 0 0 0 0.6,-0.61 0.61,0.61 0 0 0 -1.21,0 0.61,0.61 0 0 0 0.6,0.61 z m 4.14,-0.85 a 0.34,0.34 0 1 0 -0.33,-0.33 0.33,0.33 0 0 0 0.32,0.33 z m 9,-0.19 a 0.59,0.59 0 0 0 0.6,-0.6 0.6,0.6 0 0 0 -0.6,-0.6 0.61,0.61 0 0 0 -0.61,0.6 0.6,0.6 0 0 0 0.64,0.6 z m -32,0 a 0.33,0.33 0 0 0 0.26,-0.33 0.33,0.33 0 0 0 -0.33,-0.33 0.33,0.33 0 0 0 -0.33,0.33 0.33,0.33 0 0 0 0.33,0.33 z m 27.82,-1 a 0.33,0.33 0 0 0 0.33,-0.33 0.34,0.34 0 1 0 -0.67,0 0.34,0.34 0 0 0 0.35,0.37 z M 38.42,41.6 A 0.6,0.6 0 0 0 39,41 0.61,0.61 0 1 0 38.39,41.6 Z M 58.9,41.12 a 0.33,0.33 0 0 0 0.33,-0.33 0.33,0.33 0 1 0 -0.66,0 0.33,0.33 0 0 0 0.33,0.33 z m -10,-0.84 a 0.61,0.61 0 0 0 0.61,-0.61 v 0 a 0.24,0.24 0 0 0 0.15,0 0.34,0.34 0 0 0 0,-0.67 0.34,0.34 0 0 0 -0.32,0.25 0.61,0.61 0 0 0 -0.44,-0.18 0.6,0.6 0 0 0 -0.6,0.6 0.61,0.61 0 0 0 0.64,0.61 z m 6.51,-0.73 a 0.34,0.34 0 1 0 -0.33,-0.33 0.33,0.33 0 0 0 0.37,0.33 z M 65.7,39.43 a 0.34,0.34 0 1 0 -0.34,-0.34 0.34,0.34 0 0 0 0.38,0.34 z m -2.58,-0.07 a 0.6,0.6 0 0 0 0.61,-0.6 0.61,0.61 0 0 0 -0.61,-0.61 0.62,0.62 0 0 0 -0.61,0.61 0.6,0.6 0 0 0 0.65,0.6 z M 37.84,39.19 a 0.61,0.61 0 0 0 0.6,-0.61 0.6,0.6 0 0 0 -0.6,-0.6 0.6,0.6 0 0 0 -0.61,0.6 0.62,0.62 0 0 0 0.65,0.61 z M 43,38.52 a 0.61,0.61 0 1 0 0,-1.21 0.62,0.62 0 0 0 -0.57,0.4 0.32,0.32 0 0 0 -0.09,0.23 0.35,0.35 0 0 0 0.14,0.28 0.61,0.61 0 0 0 0.52,0.3 z M 56.57,38 a 0.61,0.61 0 0 0 0.6,-0.61 0.6,0.6 0 0 0 -0.6,-0.6 0.6,0.6 0 0 0 -0.6,0.6 0.6,0.6 0 0 0 0.6,0.61 z M 34.25,37.39 a 0.61,0.61 0 1 0 -0.6,-0.6 0.6,0.6 0 0 0 0.6,0.58 z M 44.44,35.5 a 0.34,0.34 0 1 0 -0.33,-0.34 0.34,0.34 0 0 0 0.33,0.34 z m 20.38,-0.12 a 0.34,0.34 0 1 0 0,-0.67 0.34,0.34 0 0 0 0,0.67 z M 37.18,35.31 a 0.33,0.33 0 1 0 -0.33,-0.33 0.33,0.33 0 0 0 0.33,0.33 z m 23.41,-1.39 a 0.34,0.34 0 1 0 -0.33,-0.33 0.33,0.33 0 0 0 0.33,0.33 z m 1.3,-0.48 a 0.62,0.62 0 0 0 0.61,-0.61 0.61,0.61 0 0 0 -0.61,-0.6 0.6,0.6 0 0 0 -0.6,0.6 0.61,0.61 0 0 0 0.6,0.61 z M 40.15,32.71 a 0.33,0.33 0 0 0 0.33,-0.33 0.33,0.33 0 0 0 -0.33,-0.33 0.34,0.34 0 0 0 -0.34,0.33 0.34,0.34 0 0 0 0.34,0.33 z m 2.75,-0.24 a 0.6,0.6 0 0 0 0.6,-0.6 0.61,0.61 0 0 0 -0.6,-0.61 0.62,0.62 0 0 0 -0.61,0.61 0.61,0.61 0 0 0 0.61,0.6 z m -5.2,-1 a 0.6,0.6 0 0 0 0.6,-0.6 0.61,0.61 0 1 0 -1.21,0 0.6,0.6 0 0 0 0.61,0.63 z m 17.44,-0.18 a 0.34,0.34 0 1 0 -0.33,-0.33 0.34,0.34 0 0 0 0.33,0.36 z m -7.83,-0.06 a 0.61,0.61 0 1 0 0,-1.21 0.61,0.61 0 0 0 0,1.21 z m 10.44,-0.61 a 0.33,0.33 0 1 0 -0.34,-0.33 0.33,0.33 0 0 0 0.34,0.36 z M 46.07,29.27 a 0.34,0.34 0 1 0 -0.33,-0.33 0.34,0.34 0 0 0 0.33,0.33 z m -13,-0.19 a 0.61,0.61 0 1 0 -0.61,-0.6 0.6,0.6 0 0 0 0.64,0.6 z m 22.77,-1.45 a 0.32,0.32 0 0 0 0.33,-0.33 0.33,0.33 0 0 0 -0.33,-0.33 0.33,0.33 0 0 0 -0.33,0.33 0.33,0.33 0 0 0 0.36,0.33 z M 58,27.21 A 0.61,0.61 0 0 0 58,26 0.61,0.61 0 1 0 58,27.21 Z M 32.28,26.3 A 0.34,0.34 0 1 0 32,26 0.33,0.33 0 0 0 32.28,26.3 Z M 58.05,25 A 0.33,0.33 0 1 0 57.72,24.67 0.33,0.33 0 0 0 58.05,25 Z M 41.41,24.09 a 0.34,0.34 0 0 0 0.34,-0.33 0.34,0.34 0 0 0 -0.67,0 0.33,0.33 0 0 0 0.33,0.36 z m -8.52,-1.63 a 0.34,0.34 0 1 0 -0.34,-0.34 0.34,0.34 0 0 0 0.34,0.37 z m 1.69,-1.21 a 0.34,0.34 0 0 0 0,-0.67 0.34,0.34 0 1 0 0,0.67 z"
       style="fill:url(#radial-gradient-4)" />
    <g
       id="use81506">
      <path
         id="path72939"
         class="cls-10"
         d="m 52.21,38.53 a 20.36,20.36 0 0 1 1.57,3.69 2,2 0 0 1 0.16,1.57 1.11,1.11 0 0 0 0.06,1.31 c 0.4,0.62 0.51,0.59 0.75,1 a 6.54,6.54 0 0 0 0.75,1.1 4.13,4.13 0 0 1 0.88,1.2 c 0.24,0.53 0.29,0.72 0.08,1 -0.21,0.28 -0.56,0.29 -1.09,0.4 a 1.28,1.28 0 0 0 -1.07,0.91 1.09,1.09 0 0 0 0,1 c 0.14,0.35 0,0.59 -0.13,0.65 -0.13,0.06 -0.59,0.13 -0.51,0.24 0.08,0.11 0.35,0.21 0.35,0.58 0,0.37 -0.19,0.38 -0.29,0.56 -0.1,0.18 -0.4,0.62 -0.32,0.81 a 2.33,2.33 0 0 1 0.7,1.45 1.88,1.88 0 0 1 -1,1.85 7.63,7.63 0 0 1 -2,0.26 10.44,10.44 0 0 0 -2.94,0.67 2.78,2.78 0 0 0 -1.36,1.58 4.63,4.63 0 0 1 -0.91,1.73 5.79,5.79 0 0 0 -1.47,1.79 7.92,7.92 0 0 0 -1,3.1 c 0,1.26 0,1.29 0.21,1.53 a 4.9,4.9 0 0 0 0.78,1.27 c 0.75,0.61 1.17,1 1.06,2 -0.08,0.53 -0.34,0.91 -0.15,1.1 a 0.78,0.78 0 0 1 0.26,0.79 c -0.08,1.79 2,3.6 3,5 0.27,0.53 0.95,1 0.87,2.2 l -0.08,1.2 a 27.39,27.39 0 0 1 0,3.14 c -0.18,1.29 -5.66,-0.77 -10.46,-4 -6.44,-4.38 -11,-13.64 -10.32,-15.08 0.68,-1.44 0.47,-1.16 0.48,-1.39 -0.14,-0.4 0.37,-0.42 0.43,-0.72 0.06,-0.3 -0.05,-0.41 0.09,-0.48 0.43,-0.13 0.51,-0.51 0.74,-0.84 -0.19,-0.37 0.09,-0.91 0.61,-1.29 a 9.9,9.9 0 0 1 -1,-1.74 c -0.11,-0.49 -0.26,-1.36 -0.26,-1.36 0,0 -0.11,-1 -0.61,-1.25 -0.5,-0.25 -0.11,-0.75 -0.11,-0.75 0,0 0,-0.49 -0.79,-1 -0.79,-0.51 -0.42,-1.1 -0.42,-2.08 0,-0.98 2.04,-10.13 2.47,-12.23 0.43,-2.1 3,-5.66 5.56,-7.05 2.56,-1.39 5.34,-1.07 7.48,-0.86 a 18,18 0 0 1 6.74,1.67 7.93,7.93 0 0 1 3.42,3.31 8.23,8.23 0 0 1 1.17,4.28 5.14,5.14 0 0 0 -2.37,-3.82 z"
         style="fill:url(#linear-gradient-4)" />
    </g>
    <g
       id="use81698">
      <g
         id="g72933">
        <path
           id="path72935"
           class="cls-11"
           d="m 22.71,18.81 a 2.81,2.81 0 0 0 -2.52,3 3.89,3.89 0 0 0 0.54,1.95 3.45,3.45 0 0 0 -2,-0.64 2.73,2.73 0 1 0 0,5.45 3.2,3.2 0 0 0 3.07,-2.38 7.9,7.9 0 0 1 0.31,2.2 7.5,7.5 0 0 1 -1.5,4.6 h 4.28 a 7.38,7.38 0 0 1 -1.59,-4.7 8,8 0 0 1 0.28,-2.12 3.07,3.07 0 0 0 3.1,2.4 2.73,2.73 0 1 0 0,-5.45 3.32,3.32 0 0 0 -2,0.75 4.15,4.15 0 0 0 0.55,-2.06 2.81,2.81 0 0 0 -2.52,-3 z"
           style="fill:url(#linear-gradient-5)" />
      </g>
    </g>
    <path
       id="use4722"
       class="cls-12"
       d="m 67.45,15.64 c 0,-0.81 0.12,-0.93 1,-1 v -0.21 h -3.17 v 0.21 c 0.91,0.07 1,0.19 1,1 v 5.14 c 0,0.5 -0.14,0.73 -0.43,0.73 -0.29,0 -0.22,-0.09 -0.3,-0.37 -0.08,-0.28 -0.28,-0.56 -0.57,-0.56 a 0.55,0.55 0 0 0 -0.55,0.55 c 0,0.47 0.46,0.8 1.1,0.8 1.2,0 1.88,-0.8 1.88,-2.18 v -4.11"
       style="fill:url(#linear-gradient-6)" />
  </g>
  <metadata
     id="metadata1">
    <rdf:RDF>
      <cc:Work
         rdf:about="">
        <dc:title>Jack of Clubs</dc:title>
      </cc:Work>
    </rdf:RDF>
  </metadata>
</svg>
