<?xml version="1.0" encoding="UTF-8" standalone="no"?>
<svg
   id="svg2"
   viewBox="0 0 84 119"
   version="1.1"
   sodipodi:docname="JC.svg"
   inkscape:version="1.3.2 (091e20e, 2023-11-25, custom)"
   xmlns:inkscape="http://www.inkscape.org/namespaces/inkscape"
   xmlns:sodipodi="http://sodipodi.sourceforge.net/DTD/sodipodi-0.dtd"
   xmlns:xlink="http://www.w3.org/1999/xlink"
   xmlns="http://www.w3.org/2000/svg"
   xmlns:svg="http://www.w3.org/2000/svg">
  <sodipodi:namedview
     id="namedview6"
     pagecolor="#ffffff"
     bordercolor="#000000"
     borderopacity="0.25"
     inkscape:showpageshadow="2"
     inkscape:pageopacity="0.0"
     inkscape:pagecheckerboard="0"
     inkscape:deskcolor="#d1d1d1"
     inkscape:zoom="15.285714"
     inkscape:cx="41.96729"
     inkscape:cy="59.5"
     inkscape:window-width="3840"
     inkscape:window-height="2054"
     inkscape:window-x="-11"
     inkscape:window-y="-11"
     inkscape:window-maximized="1"
     inkscape:current-layer="svg2" />
  <defs
     id="defs6">
    <style
       id="style1">
      .cls-1 {
        filter: url(#filter63625-2-3);
      }

      .cls-2 {
        stroke: #000;
        fill: url(#linear-gradient);
      }

      .cls-2, .cls-6 {
        stroke-miterlimit: 10;
        stroke-width: 0.23px;
      }

      .cls-3 {
        fill: url(#linear-gradient-2);
      }

      .cls-4 {
        opacity: 0.31;
        fill: url(#radial-gradient);
      }

      .cls-4, .cls-5, .cls-7 {
        isolation: isolate;
      }

      .cls-5 {
        opacity: 0.32;
        fill: url(#radial-gradient-2);
      }

      .cls-6 {
        fill: none;
      }

      .cls-12, .cls-6 {
        stroke: #fff;
      }

      .cls-7 {
        opacity: 0.32;
        fill: url(#radial-gradient-3);
      }

      .cls-10, .cls-11, .cls-8 {
        stroke: #c8c8c8;
      }

      .cls-11, .cls-8 {
        stroke-linejoin: round;
        stroke-width: 1px;
      }

      .cls-8 {
        fill: url(#linear-gradient-3);
      }

      .cls-9 {
        fill: url(#radial-gradient-4);
      }

      .cls-10 {
        stroke-width: 0.38px;
        fill-rule: evenodd;
        fill: url(#linear-gradient-4);
      }

      .cls-11 {
        fill: url(#linear-gradient-5);
      }

      .cls-12 {
        stroke-width: 0.49px;
        fill: url(#linear-gradient-6);
      }
    </style>
    <filter
       id="filter63625-2-3"
       name="filter63625-2-3"
       x="-0.12863863"
       y="-0.090976911"
       width="1.2572773"
       height="1.1819538">
      <feGaussianBlur
         result="feGaussianBlur63627-6-62"
         stdDeviation="3.76"
         id="feGaussianBlur1" />
    </filter>
    <linearGradient
       id="linear-gradient"
       x1="-1221.74"
       y1="-2666.97"
       x2="-1212.26"
       y2="-2152.46"
       gradientTransform="matrix(0.23, 0, 0, -0.23, 319.03, -568.53)"
       gradientUnits="userSpaceOnUse">
      <stop
         offset="0"
         stop-color="#f3f3f3"
         id="stop1" />
      <stop
         offset="1"
         stop-color="#8f8f8f"
         id="stop2" />
    </linearGradient>
    <linearGradient
       id="linear-gradient-2"
       x1="-1692.1"
       y1="-2431.58"
       x2="-1559.82"
       y2="-2869.29"
       gradientTransform="matrix(0.24, 0, 0, -0.24, 432.94, -558.49)"
       gradientUnits="userSpaceOnUse">
      <stop
         offset="0"
         id="stop3" />
      <stop
         offset="1"
         stop-color="#555753"
         id="stop4" />
    </linearGradient>
    <radialGradient
       id="radial-gradient"
       cx="431.43"
       cy="6274.79"
       r="58.68"
       gradientTransform="matrix(-0.23, 0, 0, 0.21, 113.36, -1198.18)"
       gradientUnits="userSpaceOnUse">
      <stop
         offset="0"
         stop-color="#fff"
         id="stop5" />
      <stop
         offset="1"
         stop-color="#fff"
         stop-opacity="0"
         id="stop6" />
    </radialGradient>
    <radialGradient
       id="radial-gradient-2"
       cx="-1255.53"
       cy="-1580.69"
       r="63.15"
       gradientTransform="matrix(0.23, 0, 0, -0.36, 351.84, -545.66)"
       xlink:href="#radial-gradient" />
    <radialGradient
       id="radial-gradient-3"
       cx="-364.82"
       cy="526.62"
       r="26.74"
       gradientTransform="matrix(0.84, 0, 0, -1.48, 347.61, 839.68)"
       xlink:href="#radial-gradient" />
    <linearGradient
       id="linear-gradient-3"
       x1="-5574.85"
       y1="-13514.97"
       x2="-5574.85"
       y2="-13455.46"
       gradientTransform="matrix(0.05, 0, 0, -0.06, 318.65, -689.99)"
       xlink:href="#linear-gradient" />
    <radialGradient
       id="radial-gradient-4"
       cx="-62.43"
       cy="1096.22"
       r="25.37"
       gradientTransform="matrix(0.83, 0.56, 2.15, -3.16, -2280.02, 3585.33)"
       xlink:href="#radial-gradient" />
    <linearGradient
       id="linear-gradient-4"
       x1="-1748.17"
       y1="-4563.06"
       x2="-1748.17"
       y2="-4334.34"
       gradientTransform="matrix(0.17, 0, 0, -0.17, 330.69, -676.13)"
       xlink:href="#linear-gradient" />
    <linearGradient
       id="linear-gradient-5"
       x1="-3344.41"
       y1="-6089.21"
       x2="-3344.41"
       y2="-6029.73"
       gradientTransform="matrix(0.11, 0, 0, -0.12, 397.98, -709.63)"
       xlink:href="#linear-gradient" />
    <linearGradient
       id="linear-gradient-6"
       x1="-149.72"
       y1="579.96"
       x2="-149.78"
       y2="583.84"
       gradientTransform="matrix(1, 0, 0, -1, 216.25, 601.44)"
       xlink:href="#linear-gradient" />
  </defs>
  <title
     id="title6">Jack of Clubs</title>
  <g
     id="jack_club"
     data-name="jack club">
    <g
       id="use72921">
      <g
         id="g70523">
        <rect
           id="rect70527"
           class="cls-2"
           x="7.15"
           y="9.42"
           width="70.15"
           height="99.19"
           rx="4.05"
           ry="4.05" />
        <rect
           id="rect6077"
           class="cls-3"
           x="10.61"
           y="12.88"
           width="63.24"
           height="92.26"
           rx="1.29"
           ry="1.29" />
        <rect
           id="rect70531"
           class="cls-4"
           x="10.61"
           y="80.86"
           width="26.55"
           height="24.28"
           rx="0.85"
           ry="0.85" />
        <rect
           id="rect70533"
           class="cls-5"
           x="45.27"
           y="12.88"
           width="28.57"
           height="45.27"
           rx="1.04"
           ry="1.04" />
        <path
           id="path70535"
           class="cls-6"
           d="M25.57,101.12H70.29V27.51M58.72,16.91H14.16V90.09" />
        <path
           id="path70537"
           class="cls-7"
           d="M64.6,59c0,21.89-10,39.64-22.38,39.64S19.83,80.9,19.83,59s10-39.64,22.39-39.64S64.6,37.12,64.6,59Z" />
      </g>
    </g>
    <g
       id="use74226">
      <g
         id="g74116">
        <path
           id="path74118"
           class="cls-8"
           d="M17.6,94.38a1.35,1.35,0,0,0-1.22,1.45,1.93,1.93,0,0,0,.26,1,1.61,1.61,0,0,0-1-.31,1.31,1.31,0,1,0,0,2.62A1.56,1.56,0,0,0,17.18,98,4,4,0,0,1,17.32,99a3.55,3.55,0,0,1-.72,2.21h2.06A3.56,3.56,0,0,1,17.9,99a4.27,4.27,0,0,1,.13-1,1.48,1.48,0,0,0,1.5,1.16,1.31,1.31,0,1,0,0-2.62,1.6,1.6,0,0,0-1,.36,2.09,2.09,0,0,0,.26-1,1.35,1.35,0,0,0-1.21-1.45Z" />
      </g>
    </g>
    <path
       id="path7050"
       class="cls-9"
       d="M23.35,97.88c.53-.91-1.57-4.1-1.84-5.31a1.45,1.45,0,0,1-.06-.3,3,3,0,0,1,0-.52,4.63,4.63,0,0,1,.12-.91.33.33,0,0,0,.31-.33.34.34,0,0,0-.14-.28l.21-.68a9.11,9.11,0,0,1,.6-1.44,19.84,19.84,0,0,1,1.09-1.76l.37-.53h.11a.6.6,0,0,0,.61-.6.71.71,0,0,0-.06-.25l.45-.53a29.51,29.51,0,0,1,2.14-2c.81-.74,1.67-1.42,2.53-2.1,1-.8,2.12-1.5,3.21-2.22s2.08-1.31,3.13-1.94h.15a.6.6,0,0,0,.6-.6.61.61,0,0,0-.6-.61.62.62,0,0,0-.61.61.6.6,0,0,0,.44.58l-.3.17c-1.28.77-2.55,1.54-3.81,2.36-1.09.71-2.19,1.42-3.22,2.22-.87.68-1.72,1.37-2.53,2.11-.62.56-1.25,1.12-1.83,1.72a.6.6,0,0,0-.79.88c-.36.44-.7.88-1,1.36a19.74,19.74,0,0,0-1.08,1.76l-.15.3c0-.61.11-1.21.19-1.82a16.57,16.57,0,0,1,.52-2.52,15.31,15.31,0,0,1,.83-2.2,13.8,13.8,0,0,0,.87-1.63c.05-.12.09-.25.14-.37l0-.1c.44-.78.89-1.55,1.34-2.32l.09-.14.51-.7c.49-.64,1-1.26,1.54-1.87.68-.78,1.4-1.52,2.12-2.25s1.68-1.63,2.54-2.41,1.87-1.65,2.8-2.49,2-1.76,3-2.63,2.21-2,3.28-3l1.7-1.64a10.71,10.71,0,0,0,1.68-1.33c1.11-1,2.23-1.87,3.39-2.75a16.52,16.52,0,0,1,2.27-1.55l.5-.22a.53.53,0,0,0,0,.18.61.61,0,0,0,.61.6.6.6,0,0,0,.6-.6.58.58,0,0,0-.14-.39c2.23-.17,2.69-.49.27-.34a2.16,2.16,0,0,0-.57.14h-.16a.59.59,0,0,0-.53.33,21.8,21.8,0,0,0-3.41,2.2C46.14,58,45,59,43.93,59.9c-.46.39-.76.66-.94.82L44.71,59c1.25-1.26,2.43-2.58,3.58-3.93.71-.85,1.39-1.73,2.06-2.61a.62.62,0,0,0,.47.22.61.61,0,0,0,.6-.61.6.6,0,0,0-.36-.55L52,50.3a56.44,56.44,0,0,0,3.46-5.46,36.2,36.2,0,0,0,2.78-6.23,54.49,54.49,0,0,0,1.13-5.8c.37-2.33-.21-2-.58.34a54.3,54.3,0,0,1-1.13,5.79,35.92,35.92,0,0,1-2.79,6.24c-.08.15-.18.29-.26.44a.33.33,0,0,0-.66.07.33.33,0,0,0,.33.33.25.25,0,0,0,.12,0,50,50,0,0,1-3,4.63l-.6.85a.6.6,0,0,0-.55.59s0,.08,0,.12c-.81,1.09-1.64,2.17-2.52,3.22-1.15,1.35-2.33,2.67-3.58,3.93s-2.36,2.38-3.58,3.54-2.17,2-3.3,3-2,1.75-3,2.64L31.45,71c-.8.73-1.6,1.46-2.36,2.23a.32.32,0,0,0-.16-.2l.9-.91c1-.94,2-1.86,3-2.8,1.19-1.11,2.34-2.25,3.48-3.41A38,38,0,0,0,40,61.74a48,48,0,0,0,3.28-5.4,35.74,35.74,0,0,0,2.66-6.12,41.4,41.4,0,0,0,1.36-7,57.54,57.54,0,0,0,.08-6,.61.61,0,0,0,.2-.45.58.58,0,0,0-.24-.48c0-.25,0-.5,0-.74,0-.42,0-.84,0-1.25-.09-2.35-.66-2-.57.33,0,.42,0,.83,0,1.25,0,.11,0,.22,0,.32a.61.61,0,0,0-.39.57.6.6,0,0,0,.43.57c0,1,0,2.07,0,3.11a.64.64,0,0,0-.24-.05.6.6,0,0,0-.6.6.61.61,0,0,0,.6.61.54.54,0,0,0,.22,0c0,.67,0,1.34-.1,2-.19,1.51-.42,3-.75,4.51,0-.71,0-1.42,0-2.13a49.81,49.81,0,0,0-.37-5,27.64,27.64,0,0,0-.68-3.4,12.17,12.17,0,0,0-.57-1.67,2,2,0,0,0-.27-.44c-1.9-1.71-2.54-1.32-.62.37a1.57,1.57,0,0,1,.27.43,12,12,0,0,1,.57,1.66,27.92,27.92,0,0,1,.7,3.39,50,50,0,0,1,.38,5c0,.94,0,1.88,0,2.82a7.72,7.72,0,0,0,0,1.21,2.17,2.17,0,0,0-.07.24c-.39,1.15-.82,2.28-1.31,3.39a.61.61,0,0,0-.53-.3.6.6,0,0,0-.6.6.61.61,0,0,0,.6.61l.12,0c-.29.62-.6,1.23-.94,1.83a45.89,45.89,0,0,1-3.29,5.41,39,39,0,0,1-3.62,4.19c-1.14,1.16-2.29,2.31-3.48,3.42-1,.94-2,1.85-3.05,2.8l-.51.51a.34.34,0,0,0-.28.29,19.78,19.78,0,0,0-1.76,2c-.67.94-1.33,1.89-1.91,2.89-.22.3-.42.6-.61.92a10,10,0,0,0-.58,1,5.69,5.69,0,0,0-.32.71v0l-.49.92c-.2.42-.39.84-.58,1.26,0-.07,0-.14.05-.21a18.09,18.09,0,0,1,.5-1.74c.24-.68.52-1.35.81-2,.35-.82.71-1.62,1.06-2.44.49-1.09,1-2.16,1.57-3.23.69-1.31,1.3-2.65,1.88-4,.69-1.65,1.37-3.31,2.06-5s1.41-3.42,2.06-5.15a.34.34,0,0,0,.26-.32.32.32,0,0,0-.06-.2c.65-1.82,1.24-3.66,1.8-5.51.65-2.15,1.21-4.32,1.65-6.52A42.61,42.61,0,0,0,36.33,39c-.08-2.64-.38-5.26-.7-7.87-.2-1.57-.44-3.14-.68-4.71A5.23,5.23,0,0,0,34.59,25a.63.63,0,0,0,.19,0,.6.6,0,0,0,.61-.6.61.61,0,0,0-1.21,0,.57.57,0,0,0,.17.41,3.72,3.72,0,0,0,0,1.88c.11.7.21,1.4.31,2.09a.3.3,0,0,0-.23-.09.34.34,0,1,0,.3.49q.16,1.11.3,2.22c0,.19.05.38.07.57a.6.6,0,1,0-.27,1.14.61.61,0,0,0,.39-.15c.24,2.09.46,4.2.53,6.31A42.63,42.63,0,0,1,35.24,47c-.44,2.2-1,4.38-1.65,6.53-.52,1.7-1.07,3.4-1.66,5.08a.32.32,0,0,0-.17.29.27.27,0,0,0,0,.12c-.05.11-.09.23-.13.34C31,61.2,30.27,63,29.52,64.75s-1.37,3.32-2.07,5c-.58,1.36-1.19,2.71-1.88,4C25,74.81,24.48,75.88,24,77l-1.06,2.44c-.29.67-.58,1.33-.82,2s-.37,1.14-.5,1.73-.22,1-.3,1.5c0,.21-.08.43-.14.65-.25,1.06-.28,1.6-.18,1.68s0,.36-.07.54c-.09.71-.19,1.42-.21,2.14,0,.33,0,.66,0,1s-.14.49-.2.74l-.06.3h-3c2,.57,3.56.41,5.87,6.18Zm.58-4.68a.33.33,0,0,0,0-.66.33.33,0,1,0,0,.66ZM19.3,91.51a.61.61,0,1,0,0-1.21.61.61,0,0,0,0,1.21Zm3.27-.72a.61.61,0,0,0,.6-.61.6.6,0,0,0-.6-.6.59.59,0,0,0-.6.6A.6.6,0,0,0,22.57,90.79Zm-4.27-1.7a.34.34,0,1,0-.33-.33A.34.34,0,0,0,18.3,89.09Zm1.52-.55a.33.33,0,0,0,.33-.33.34.34,0,0,0-.67,0A.33.33,0,0,0,19.82,88.54Zm5.71-.72a.61.61,0,1,0,0-1.21.61.61,0,0,0,0,1.21Zm1.42-1a.33.33,0,1,0-.33-.33A.33.33,0,0,0,27,86.79Zm-8.31-.66a.61.61,0,1,0-.61-.6A.6.6,0,0,0,18.64,86.13ZM20,84.37a.61.61,0,1,0-.61-.6A.6.6,0,0,0,20,84.37Zm7.83-.24a.33.33,0,0,0,0-.66.33.33,0,0,0,0,.66Zm4.39-.54a.61.61,0,0,0,.6-.61.61.61,0,0,0-1.21,0A.61.61,0,0,0,32.25,83.59Zm-6.47-.73a.6.6,0,0,0,.6-.6.61.61,0,1,0-1.21,0A.6.6,0,0,0,25.78,82.86Zm2.37-.15s.7-.46,1.82-1.28c.47-.35.94-.72,1.44-1a22,22,0,0,1,2.21-1.18l.46-.2a.6.6,0,1,0,1.07.38.59.59,0,0,0-.57-.59c.53-.24,1.06-.47,1.6-.68L38,77.42l.78-.29c2.39-.91,3-1.27.62-.36l-.78.3c-.61.23-1.21.48-1.82.72-.87.33-1.72.72-2.56,1.1a34.4,34.4,0,0,0-3.43,1.86c-.5.31-1,.68-1.44,1a13.37,13.37,0,0,0-1.21.93Zm-8.43-.63a.61.61,0,0,0,.61-.61.61.61,0,0,0-1.21,0A.61.61,0,0,0,19.72,82.08Zm13.22-.67a.33.33,0,0,0,.33-.33.33.33,0,1,0-.66,0A.33.33,0,0,0,32.94,81.41Zm-11-.85a.61.61,0,1,0-.61-.61A.6.6,0,0,0,22,80.56Zm3.26-.18a.61.61,0,0,0,0-1.21.61.61,0,1,0,0,1.21ZM17,79.9a.34.34,0,1,0-.33-.33A.33.33,0,0,0,17,79.9Zm21.11-1.15a.34.34,0,0,0,0-.67.34.34,0,0,0,0,.67Zm-7.22-.06a.61.61,0,0,0,.6-.61.61.61,0,0,0-1.21,0A.61.61,0,0,0,30.92,78.69Zm10.67-.55a.32.32,0,0,0,.33-.33.33.33,0,0,0-.33-.33h0a.6.6,0,0,0-.42-1,.61.61,0,1,0,0,1.21l.17,0a.34.34,0,0,0-.05.17.33.33,0,0,0,.33.33Zm2.09-1.39a.61.61,0,1,0,0-1.21.61.61,0,1,0,0,1.21Zm-20.62,0a.61.61,0,1,0-.61-.61A.6.6,0,0,0,23.06,76.75Zm4.77-.06a.61.61,0,1,0,0-1.21.61.61,0,0,0,0,1.21Zm17.39-.06a.33.33,0,1,0-.33-.33A.33.33,0,0,0,45.22,76.63Zm-13-.42a.34.34,0,0,0,0-.67.34.34,0,0,0,0,.67Zm-5.54-.4.6-.85a16.79,16.79,0,0,1,1.2-1.45.34.34,0,0,0,.21.14c-.65.67-1.3,1.33-1.9,2l-.11.13Zm11.5-.91,2-1.1L41.63,73l.17,0a.6.6,0,0,0,.58-.45c.7-.39,1.39-.79,2.08-1.19-.21.13-1.13.64-2.07,1.17a.59.59,0,0,0,0-.13.61.61,0,1,0-.8.57l-.48.26-3,1.67ZM46,74.81a.33.33,0,0,0,.33-.33.33.33,0,0,0-.33-.33.33.33,0,0,0-.33.33A.32.32,0,0,0,46,74.81Zm-23.14-.9a.61.61,0,0,0,.61-.61.58.58,0,0,0,0-.18h.06a.33.33,0,0,0,.34-.33.34.34,0,0,0-.34-.34.34.34,0,0,0-.33.33.61.61,0,0,0-.3-.08.61.61,0,0,0,0,1.21Zm-2-.07a.33.33,0,0,0,.33-.33.33.33,0,0,0-.33-.33.33.33,0,0,0-.33.33A.32.32,0,0,0,20.85,73.84Zm4.2-2.29a.61.61,0,1,0-.6-.6A.6.6,0,0,0,25.05,71.55Zm25.56-.12a.34.34,0,0,0,0-.67.34.34,0,0,0,0,.67Zm-5.9-.21.9-.52A41.45,41.45,0,0,0,50,67.76c.71-.54,1.39-1.1,2-1.69a.61.61,0,0,0,.57.39.6.6,0,0,0,.6-.6.61.61,0,0,0-.35-.55c.48-.45,1-.9,1.41-1.37s.66-.7,1-1l0,0c1-.88,2-1.75,2.9-2.65,0,0,0,0,.05,0a.6.6,0,1,0,.67-.68,12.21,12.21,0,0,0,1.5-1.86c.57-.84,1.14-1.68,1.69-2.53s1.08-1.71,1.6-2.58c.3-.5.61-1,.9-1.51a.5.5,0,0,0,0,.12.61.61,0,1,0,1.21,0,.6.6,0,0,0-.6-.6.57.57,0,0,0-.42.17l.24-.45a12.1,12.1,0,0,0,.62-1.43,5.37,5.37,0,0,1,.21-.56c.14-.27.26-.51.35-.71a.59.59,0,0,0,.51-.59.6.6,0,0,0-.37-.56.33.33,0,1,0-.27,0,.6.6,0,0,0-.23,1.14c-.18.3-.38.66-.61,1.12a5.37,5.37,0,0,0-.21.56,12.1,12.1,0,0,1-.62,1.43c-.4.77-.85,1.52-1.3,2.27s-1.06,1.72-1.6,2.57-1.11,1.7-1.69,2.54a11.56,11.56,0,0,1-1.23,1.56.57.57,0,0,0-.3.33l-.68.69c-.54.52-1.1,1-1.65,1.53.77-1,1.49-2,2.19-3A24.9,24.9,0,0,0,61,53.35c0-.1.06-.21.1-.31a.6.6,0,0,0,.59.48.61.61,0,1,0-.41-1.05,28,28,0,0,0,1-6,26.8,26.8,0,0,0-.24-6.2c-.49-3.86-1.44-3.31-.95.54a27.54,27.54,0,0,1,.23,6.22,25.83,25.83,0,0,1-1.28,6.85,25.17,25.17,0,0,1-2.92,5.76,37.16,37.16,0,0,1-3.43,4.38l-2.16,1.89c-.53.46-1.08.89-1.63,1.32-1.91,1.53-1.3,1.18.6-.34.5-.4,1-.79,1.48-1.2a.08.08,0,0,1,0,0,39.13,39.13,0,0,1-3,2.58,45.58,45.58,0,0,1-4.27,2.88Zm-3.35-.15a.34.34,0,0,0,0-.67.34.34,0,0,0,0,.67Zm6-.25a.34.34,0,0,0,.27-.33.34.34,0,1,0-.33.33ZM34,70.64a.61.61,0,1,0-.6-.61A.61.61,0,0,0,34,70.64Zm1.85-.18a.34.34,0,1,0-.33-.33A.33.33,0,0,0,35.85,70.46Zm8.77-1.52a.33.33,0,0,0,.34-.33.34.34,0,0,0-.67,0A.33.33,0,0,0,44.62,68.94Zm3-.17a.61.61,0,1,0-.6-.61A.61.61,0,0,0,47.61,68.77Zm-21.35-.25a.6.6,0,0,0,.61-.6.61.61,0,0,0-.61-.61.62.62,0,0,0-.61.61A.61.61,0,0,0,26.26,68.52Zm28.64-.6a.34.34,0,0,0,.34-.33.34.34,0,0,0-.67,0A.33.33,0,0,0,54.9,67.92ZM33.58,67.8a.61.61,0,1,0,0-1.21.61.61,0,0,0,0,1.21Zm-9-1a.34.34,0,0,0,0-.67.34.34,0,0,0,0,.67Zm24.4-.06a.61.61,0,1,0-.6-.61A.61.61,0,0,0,48.94,66.71ZM27.23,66.1a.59.59,0,0,0,.6-.6.6.6,0,0,0-.26-.5.3.3,0,0,0,0-.13.33.33,0,1,0-.66,0,.36.36,0,0,0,0,.1.6.6,0,0,0,.28,1.13Zm13.07-.54a.61.61,0,1,0-.61-.6A.6.6,0,0,0,40.3,65.56Zm-11.14-.22c.14,0,.41-.7.65-2s.46-2.53.6-3.81a34.41,34.41,0,0,0,.22-4.76,32.31,32.31,0,0,0-.34-3.55c-.13-.79-.25-1.58-.45-2.36a7.2,7.2,0,0,0-.28-.9c-1-2.33-1.71-1.95-.62.36a7.06,7.06,0,0,1,.28.89,24,24,0,0,1,.46,2.36A32.56,32.56,0,0,1,30,55.17a36,36,0,0,1-.2,4.75c-.14,1.28-.37,2.55-.61,3.81s-.19,1.62-.06,1.61Zm12.92,0a.34.34,0,1,0-.33-.33A.33.33,0,0,0,42.08,65.32Zm-9.92-.24a.34.34,0,1,0-.33-.33A.33.33,0,0,0,32.16,65.08Zm4-1.09a.61.61,0,0,0,.6-.61.61.61,0,0,0-1.21,0A.61.61,0,0,0,36.13,64ZM53,63.5a.6.6,0,0,0,.6-.6.6.6,0,0,0-.6-.61.62.62,0,0,0-.61.61A.61.61,0,0,0,53,63.5Zm6.8-1.39a.34.34,0,1,0-.33-.33A.34.34,0,0,0,59.8,62.11ZM48.28,59.27a.61.61,0,1,0,0-1.21.61.61,0,0,0,0,1.21Zm6.44-1a.34.34,0,1,0,0-.67.34.34,0,0,0,0,.67Zm-29.43-.42a.61.61,0,0,0,.61-.61.61.61,0,1,0-1.21,0A.6.6,0,0,0,25.29,57.88Zm15.31-.25a.59.59,0,0,0,.6-.6.6.6,0,0,0-.6-.61A.62.62,0,0,0,40,57,.6.6,0,0,0,40.6,57.63Zm23.32-.72a.33.33,0,1,0-.33-.33A.33.33,0,0,0,63.92,56.91Zm-.76-.49a.6.6,0,0,0,.61-.6.61.61,0,0,0-.61-.61.62.62,0,0,0-.61.61A.6.6,0,0,0,63.16,56.42Zm-18.81-.17a.62.62,0,0,0,.61-.61.61.61,0,0,0-.61-.61.6.6,0,0,0-.6.61A.6.6,0,0,0,44.35,56.25Zm-10-.67a.61.61,0,1,0-.61-.61A.6.6,0,0,0,34.37,55.58ZM28,53a.34.34,0,0,0,.34-.34.34.34,0,0,0-.67,0A.34.34,0,0,0,28,53Zm3.48-.13a.6.6,0,0,0,.61-.6.61.61,0,1,0-1.21,0A.6.6,0,0,0,31.52,52.85Zm26.68-.17a.62.62,0,0,0,.61-.61.6.6,0,0,0-.61-.6.59.59,0,0,0-.6.6A.6.6,0,0,0,58.2,52.68Zm-23-.61a.34.34,0,0,0,0-.67.34.34,0,1,0,0,.67Zm8.38-2.54a.61.61,0,1,0-.61-.61A.6.6,0,0,0,43.63,49.53Zm7.13-.06a.61.61,0,1,0,0-1.21.61.61,0,0,0,0,1.21Zm12.59-.67a.6.6,0,0,0,.6-.6.61.61,0,1,0-1.21,0A.6.6,0,0,0,63.35,48.8ZM33.1,48.32a.61.61,0,0,0,0-1.21.61.61,0,1,0,0,1.21Zm15.36-.06a.61.61,0,1,0,0-1.21.61.61,0,1,0,0,1.21ZM36.34,46.93a.34.34,0,0,0,0-.67.34.34,0,1,0,0,.67Zm-8.72-1a.34.34,0,0,0,.34-.33.34.34,0,0,0-.34-.33.33.33,0,0,0-.33.33A.33.33,0,0,0,27.62,46Zm22-.12a.33.33,0,0,0,.33-.33.33.33,0,0,0-.66,0A.33.33,0,0,0,49.58,45.84Zm9.71-.54a.61.61,0,0,0,.6-.61.6.6,0,0,0-.6-.6.59.59,0,0,0-.6.6A.6.6,0,0,0,59.29,45.3Zm-16.06-.25a.33.33,0,0,0,.33-.33.33.33,0,1,0-.66,0A.33.33,0,0,0,43.23,45.05ZM67,44.51a.33.33,0,0,0,.33-.33.33.33,0,1,0-.66,0A.33.33,0,0,0,67,44.51Zm-23-.12a.6.6,0,0,0,.6-.61.61.61,0,1,0-.6.61Zm9.68-.18a.61.61,0,0,0,.6-.61.61.61,0,0,0-1.21,0A.61.61,0,0,0,53.67,44.21Zm4.14-.85a.34.34,0,1,0-.33-.33A.33.33,0,0,0,57.81,43.36Zm9-.19a.59.59,0,0,0,.6-.6.6.6,0,0,0-.6-.6.61.61,0,0,0-.61.6A.6.6,0,0,0,66.85,43.17Zm-32,0a.33.33,0,0,0,.26-.33.33.33,0,0,0-.33-.33.33.33,0,0,0-.33.33.33.33,0,0,0,.33.33Zm27.82-1a.33.33,0,0,0,.33-.33.34.34,0,1,0-.67,0A.34.34,0,0,0,62.65,42.21ZM38.42,41.6A.6.6,0,0,0,39,41a.61.61,0,1,0-.61.6Zm20.48-.48a.33.33,0,0,0,.33-.33.33.33,0,1,0-.66,0A.33.33,0,0,0,58.9,41.12Zm-10-.84a.61.61,0,0,0,.61-.61v0a.24.24,0,0,0,.15,0,.34.34,0,0,0,0-.67.34.34,0,0,0-.32.25.61.61,0,0,0-.44-.18.6.6,0,0,0-.6.6A.61.61,0,0,0,48.94,40.28Zm6.51-.73a.34.34,0,1,0-.33-.33A.33.33,0,0,0,55.45,39.55Zm10.29-.12a.34.34,0,1,0-.34-.34A.34.34,0,0,0,65.74,39.43Zm-2.58-.07a.6.6,0,0,0,.61-.6.61.61,0,0,0-.61-.61.62.62,0,0,0-.61.61A.6.6,0,0,0,63.16,39.36Zm-25.28-.17a.61.61,0,0,0,.6-.61.6.6,0,0,0-.6-.6.6.6,0,0,0-.61.6A.62.62,0,0,0,37.88,39.19ZM43,38.52a.61.61,0,1,0,0-1.21.62.62,0,0,0-.57.4.32.32,0,0,0-.09.23.35.35,0,0,0,.14.28A.61.61,0,0,0,43,38.52ZM56.57,38a.61.61,0,0,0,.6-.61.6.6,0,0,0-.6-.6.6.6,0,0,0-.6.6A.6.6,0,0,0,56.57,38Zm-22.32-.61a.61.61,0,1,0-.6-.6A.6.6,0,0,0,34.25,37.37ZM44.44,35.5a.34.34,0,1,0-.33-.34A.34.34,0,0,0,44.44,35.5Zm20.38-.12a.34.34,0,1,0,0-.67.34.34,0,0,0,0,.67Zm-27.64-.07a.33.33,0,1,0-.33-.33A.33.33,0,0,0,37.18,35.31Zm23.41-1.39a.34.34,0,1,0-.33-.33A.33.33,0,0,0,60.59,33.92Zm1.3-.48a.62.62,0,0,0,.61-.61.61.61,0,0,0-.61-.6.6.6,0,0,0-.6.6A.61.61,0,0,0,61.89,33.44Zm-21.74-.73a.33.33,0,0,0,.33-.33.33.33,0,0,0-.33-.33.34.34,0,0,0-.34.33A.34.34,0,0,0,40.15,32.71Zm2.75-.24a.6.6,0,0,0,.6-.6.61.61,0,0,0-.6-.61.62.62,0,0,0-.61.61A.61.61,0,0,0,42.9,32.47Zm-5.2-1a.6.6,0,0,0,.6-.6.61.61,0,1,0-1.21,0A.6.6,0,0,0,37.7,31.5Zm17.44-.18a.34.34,0,1,0-.33-.33A.34.34,0,0,0,55.14,31.32Zm-7.83-.06a.61.61,0,1,0,0-1.21.61.61,0,0,0,0,1.21Zm10.44-.61a.33.33,0,1,0-.34-.33A.33.33,0,0,0,57.75,30.65ZM46.07,29.27a.34.34,0,1,0-.33-.33A.34.34,0,0,0,46.07,29.27Zm-13-.19a.61.61,0,1,0-.61-.6A.6.6,0,0,0,33.1,29.08Zm22.77-1.45a.32.32,0,0,0,.33-.33.33.33,0,0,0-.33-.33.33.33,0,0,0-.33.33A.33.33,0,0,0,55.87,27.63ZM58,27.21A.61.61,0,0,0,58,26a.61.61,0,1,0,0,1.21ZM32.28,26.3A.34.34,0,1,0,32,26,.33.33,0,0,0,32.28,26.3ZM58.05,25a.33.33,0,1,0-.33-.33A.33.33,0,0,0,58.05,25Zm-16.64-.91a.34.34,0,0,0,.34-.33.34.34,0,0,0-.67,0A.33.33,0,0,0,41.41,24.12Zm-8.52-1.63a.34.34,0,1,0-.34-.34A.34.34,0,0,0,32.89,22.49Zm1.69-1.21a.34.34,0,0,0,0-.67.34.34,0,1,0,0,.67Z" />
    <g
       id="use81506">
      <path
         id="path72939"
         class="cls-10"
         d="M52.21,38.53a20.36,20.36,0,0,1,1.57,3.69,2,2,0,0,1,.16,1.57A1.11,1.11,0,0,0,54,45.1c.4.62.51.59.75,1a6.54,6.54,0,0,0,.75,1.1,4.13,4.13,0,0,1,.88,1.2c.24.53.29.72.08,1s-.56.29-1.09.4a1.28,1.28,0,0,0-1.07.91,1.09,1.09,0,0,0,0,1c.14.35,0,.59-.13.65s-.59.13-.51.24.35.21.35.58-.19.38-.29.56-.4.62-.32.81A2.33,2.33,0,0,1,54.1,56a1.88,1.88,0,0,1-1,1.85,7.63,7.63,0,0,1-2,.26,10.44,10.44,0,0,0-2.94.67,2.78,2.78,0,0,0-1.36,1.58,4.63,4.63,0,0,1-.91,1.73,5.79,5.79,0,0,0-1.47,1.79,7.92,7.92,0,0,0-1,3.1c0,1.26,0,1.29.21,1.53a4.9,4.9,0,0,0,.78,1.27c.75.61,1.17,1,1.06,2-.08.53-.34.91-.15,1.1a.78.78,0,0,1,.26.79c-.08,1.79,2,3.6,3,5,.27.53.95,1,.87,2.2l-.08,1.2a27.39,27.39,0,0,1,0,3.14c-.18,1.29-5.66-.77-10.46-4-6.44-4.38-11-13.64-10.32-15.08s.47-1.16.48-1.39c-.14-.4.37-.42.43-.72s-.05-.41.09-.48c.43-.13.51-.51.74-.84-.19-.37.09-.91.61-1.29a9.9,9.9,0,0,1-1-1.74c-.11-.49-.26-1.36-.26-1.36s-.11-1-.61-1.25-.11-.75-.11-.75,0-.49-.79-1-.42-1.1-.42-2.08S29.79,43.1,30.22,41s3-5.66,5.56-7.05,5.34-1.07,7.48-.86A18,18,0,0,1,50,34.76a7.93,7.93,0,0,1,3.42,3.31,8.23,8.23,0,0,1,1.17,4.28,5.14,5.14,0,0,0-2.37-3.82Z" />
    </g>
    <g
       id="use81698">
      <g
         id="g72933">
        <path
           id="path72935"
           class="cls-11"
           d="M22.71,18.81a2.81,2.81,0,0,0-2.52,3,3.89,3.89,0,0,0,.54,1.95,3.45,3.45,0,0,0-2-.64,2.73,2.73,0,1,0,0,5.45,3.2,3.2,0,0,0,3.07-2.38,7.9,7.9,0,0,1,.31,2.2,7.5,7.5,0,0,1-1.5,4.6h4.28a7.38,7.38,0,0,1-1.59-4.7,8,8,0,0,1,.28-2.12,3.07,3.07,0,0,0,3.1,2.4,2.73,2.73,0,1,0,0-5.45,3.32,3.32,0,0,0-2,.75,4.15,4.15,0,0,0,.55-2.06,2.81,2.81,0,0,0-2.52-3Z" />
      </g>
    </g>
    <path
       id="use4722"
       class="cls-12"
       d="M67.45,15.64c0-.81.12-.93,1-1v-.21H65.28v.21c.91.07,1,.19,1,1v5.14c0,.5-.14.73-.43.73s-.22-.09-.3-.37-.28-.56-.57-.56a.55.55,0,0,0-.55.55c0,.47.46.8,1.1.8,1.2,0,1.88-.8,1.88-2.18V15.64" />
  </g>
</svg>
