<?xml version="1.0" encoding="UTF-8" standalone="no"?>
<svg
   id="svg2"
   viewBox="0 0 84 119"
   version="1.1"
   sodipodi:docname="KC.svg"
   inkscape:version="1.3.2 (091e20e, 2023-11-25, custom)"
   xmlns:inkscape="http://www.inkscape.org/namespaces/inkscape"
   xmlns:sodipodi="http://sodipodi.sourceforge.net/DTD/sodipodi-0.dtd"
   xmlns:xlink="http://www.w3.org/1999/xlink"
   xmlns="http://www.w3.org/2000/svg"
   xmlns:svg="http://www.w3.org/2000/svg">
  <sodipodi:namedview
     id="namedview6"
     pagecolor="#ffffff"
     bordercolor="#000000"
     borderopacity="0.25"
     inkscape:showpageshadow="2"
     inkscape:pageopacity="0.0"
     inkscape:pagecheckerboard="0"
     inkscape:deskcolor="#d1d1d1"
     inkscape:zoom="15.285714"
     inkscape:cx="41.96729"
     inkscape:cy="59.5"
     inkscape:window-width="3840"
     inkscape:window-height="2054"
     inkscape:window-x="-11"
     inkscape:window-y="-11"
     inkscape:window-maximized="1"
     inkscape:current-layer="svg2" />
  <defs
     id="defs6">
    <style
       id="style1">
      .cls-1 {
        filter: url(#filter63625-2-3);
      }

      .cls-2 {
        stroke: #000;
        fill: url(#linear-gradient);
      }

      .cls-2, .cls-6 {
        stroke-miterlimit: 10;
        stroke-width: 0.23px;
      }

      .cls-3 {
        fill: url(#linear-gradient-2);
      }

      .cls-4 {
        opacity: 0.31;
        fill: url(#radial-gradient);
      }

      .cls-4, .cls-5, .cls-7 {
        isolation: isolate;
      }

      .cls-5 {
        opacity: 0.32;
        fill: url(#radial-gradient-2);
      }

      .cls-6 {
        fill: none;
      }

      .cls-12, .cls-6 {
        stroke: #fff;
      }

      .cls-7 {
        opacity: 0.32;
        fill: url(#radial-gradient-3);
      }

      .cls-10, .cls-11, .cls-8 {
        stroke: #c8c8c8;
      }

      .cls-11, .cls-8 {
        stroke-linejoin: round;
        stroke-width: 1px;
      }

      .cls-8 {
        fill: url(#linear-gradient-3);
      }

      .cls-9 {
        fill: url(#radial-gradient-4);
      }

      .cls-10, .cls-12 {
        stroke-width: 0.49px;
      }

      .cls-10 {
        fill-rule: evenodd;
        fill: url(#linear-gradient-4);
      }

      .cls-11 {
        fill: url(#linear-gradient-5);
      }

      .cls-12 {
        fill: url(#linear-gradient-6);
      }
    </style>
    <filter
       id="filter63625-2-3"
       name="filter63625-2-3"
       x="-0.12863863"
       y="-0.090976911"
       width="1.2572773"
       height="1.1819538">
      <feGaussianBlur
         result="feGaussianBlur63627-6-62"
         stdDeviation="3.76"
         id="feGaussianBlur1" />
    </filter>
    <linearGradient
       id="linear-gradient"
       x1="-1158.36"
       y1="-2706.59"
       x2="-1148.88"
       y2="-2192.08"
       gradientTransform="matrix(0.23, 0, 0, -0.23, 304.69, -577.49)"
       gradientUnits="userSpaceOnUse">
      <stop
         offset="0"
         stop-color="#f3f3f3"
         id="stop1" />
      <stop
         offset="1"
         stop-color="#8f8f8f"
         id="stop2" />
    </linearGradient>
    <linearGradient
       id="linear-gradient-2"
       x1="-1643.03"
       y1="-2469.78"
       x2="-1510.74"
       y2="-2907.49"
       gradientTransform="matrix(0.24, 0, 0, -0.24, 421.24, -567.53)"
       gradientUnits="userSpaceOnUse">
      <stop
         offset="0"
         id="stop3" />
      <stop
         offset="1"
         stop-color="#555753"
         id="stop4" />
    </linearGradient>
    <radialGradient
       id="radial-gradient"
       cx="-59.96"
       cy="6302.81"
       r="58.68"
       gradientTransform="matrix(-0.23, 0, 0, 0.21, 2.21, -1203.98)"
       gradientUnits="userSpaceOnUse">
      <stop
         offset="0"
         stop-color="#fff"
         id="stop5" />
      <stop
         offset="1"
         stop-color="#fff"
         stop-opacity="0"
         id="stop6" />
    </radialGradient>
    <radialGradient
       id="radial-gradient-2"
       cx="-1192.15"
       cy="-1608.39"
       r="63.15"
       gradientTransform="matrix(0.23, 0, 0, -0.36, 337.5, -555.59)"
       xlink:href="#radial-gradient" />
    <radialGradient
       id="radial-gradient-3"
       cx="-503.87"
       cy="514.38"
       r="26.74"
       gradientTransform="matrix(0.84, 0, 0, -1.48, 464.01, 821.53)"
       xlink:href="#radial-gradient" />
    <linearGradient
       id="linear-gradient-3"
       x1="-4626.91"
       y1="-13647.43"
       x2="-4626.91"
       y2="-13587.92"
       gradientTransform="matrix(0.05, 0, 0, -0.06, 267.73, -697.73)"
       xlink:href="#linear-gradient" />
    <radialGradient
       id="radial-gradient-4"
       cx="-220.42"
       cy="1096.54"
       r="25.37"
       gradientTransform="matrix(0.83, 0.56, 2.15, -3.16, -2150.01, 3675.12)"
       xlink:href="#radial-gradient" />
    <linearGradient
       id="linear-gradient-4"
       x1="-1265.58"
       y1="-3069.62"
       x2="-1265.58"
       y2="-2829.09"
       gradientTransform="matrix(0.24, 0, 0, -0.24, 341.65, -639.8)"
       xlink:href="#linear-gradient" />
    <linearGradient
       id="linear-gradient-5"
       x1="-2999.19"
       y1="-6156.78"
       x2="-2999.19"
       y2="-6097.3"
       gradientTransform="matrix(0.11, 0, 0, -0.12, 358.95, -717.82)"
       xlink:href="#linear-gradient" />
    <linearGradient
       id="linear-gradient-6"
       x1="-283.04"
       y1="567.05"
       x2="-283.04"
       y2="570.07"
       gradientTransform="matrix(1, 0, 0, -1, 350.21, 587.39)"
       xlink:href="#linear-gradient" />
  </defs>
  <title
     id="title6">King of Clubs</title>
  <g
     id="king_club"
     data-name="king club">
    <g
       id="use72929">
      <g
         id="g70523">
        <rect
           id="rect70527"
           class="cls-2"
           x="7.15"
           y="9.42"
           width="70.15"
           height="99.19"
           rx="4.05"
           ry="4.05" />
        <rect
           id="rect6077"
           class="cls-3"
           x="10.61"
           y="12.88"
           width="63.24"
           height="92.26"
           rx="1.29"
           ry="1.29" />
        <rect
           id="rect70531"
           class="cls-4"
           x="10.61"
           y="80.86"
           width="26.55"
           height="24.28"
           rx="0.85"
           ry="0.85" />
        <rect
           id="rect70533"
           class="cls-5"
           x="45.27"
           y="12.88"
           width="28.57"
           height="45.27"
           rx="1.04"
           ry="1.04" />
        <path
           id="path70535"
           class="cls-6"
           d="M25.57,101.12H70.29V27.51M58.72,16.91H14.16V90.09" />
        <path
           id="path70537"
           class="cls-7"
           d="M64.6,59c0,21.89-10,39.64-22.38,39.64S19.83,80.9,19.83,59s10-39.64,22.39-39.64S64.6,37.12,64.6,59Z" />
      </g>
    </g>
    <g
       id="use74230">
      <g
         id="g74116">
        <path
           id="path74118"
           class="cls-8"
           d="M17.86,94.38a1.35,1.35,0,0,0-1.21,1.45,1.93,1.93,0,0,0,.26,1,1.61,1.61,0,0,0-.95-.31,1.31,1.31,0,1,0,0,2.62A1.55,1.55,0,0,0,17.44,98,4,4,0,0,1,17.59,99a3.61,3.61,0,0,1-.72,2.21h2.06A3.56,3.56,0,0,1,18.16,99a3.82,3.82,0,0,1,.14-1,1.47,1.47,0,0,0,1.49,1.16,1.31,1.31,0,1,0,0-2.62,1.62,1.62,0,0,0-1,.36,2,2,0,0,0,.27-1,1.35,1.35,0,0,0-1.22-1.45Z" />
      </g>
    </g>
    <path
       id="path7058"
       class="cls-9"
       d="M23.36,97.88c.53-.91-1.57-4.1-1.84-5.31a1.45,1.45,0,0,1-.06-.3,3,3,0,0,1,0-.52,4.63,4.63,0,0,1,.12-.91.33.33,0,0,0,.31-.33.34.34,0,0,0-.14-.28l.21-.68a9.11,9.11,0,0,1,.6-1.44,19.84,19.84,0,0,1,1.09-1.76l.37-.53h.11a.6.6,0,0,0,.61-.6.71.71,0,0,0-.06-.25l.45-.53a29.51,29.51,0,0,1,2.14-2c.81-.74,1.67-1.42,2.53-2.1,1-.8,2.12-1.5,3.21-2.22s2.08-1.31,3.13-1.94h.15a.6.6,0,0,0,.6-.6.61.61,0,0,0-.6-.61.62.62,0,0,0-.61.61.6.6,0,0,0,.44.58l-.3.17c-1.28.77-2.55,1.54-3.81,2.36-1.09.71-2.19,1.42-3.22,2.22-.87.68-1.72,1.37-2.53,2.11-.62.56-1.25,1.12-1.83,1.72a.6.6,0,0,0-.79.88c-.36.44-.7.88-1,1.36A19.74,19.74,0,0,0,21.5,88.7l-.15.3c0-.61.11-1.21.19-1.82a16.57,16.57,0,0,1,.52-2.52,15.31,15.31,0,0,1,.83-2.2,13.8,13.8,0,0,0,.87-1.63c0-.12.09-.25.14-.37l0-.1c.44-.78.89-1.55,1.34-2.32l.09-.14.51-.7c.49-.64,1-1.26,1.54-1.87.68-.78,1.4-1.52,2.12-2.25s1.68-1.63,2.54-2.41,1.87-1.65,2.8-2.49,2-1.76,3-2.63,2.21-2,3.28-3l1.7-1.64a10.71,10.71,0,0,0,1.68-1.33c1.11-1,2.23-1.87,3.39-2.75a16.52,16.52,0,0,1,2.27-1.55l.5-.22a.52.52,0,0,0,0,.18.6.6,0,0,0,.6.6.6.6,0,0,0,.6-.6.58.58,0,0,0-.14-.39c2.23-.17,2.69-.49.27-.34a2.16,2.16,0,0,0-.57.14h-.16a.59.59,0,0,0-.53.33,21.8,21.8,0,0,0-3.41,2.2C46.15,58,45,59,43.94,59.9c-.46.39-.76.66-.94.82L44.72,59c1.25-1.26,2.43-2.58,3.58-3.93.71-.85,1.39-1.73,2.06-2.61a.62.62,0,0,0,.47.22.61.61,0,0,0,.6-.61.6.6,0,0,0-.36-.55L52,50.3a56.44,56.44,0,0,0,3.46-5.46,36.2,36.2,0,0,0,2.78-6.23,54.49,54.49,0,0,0,1.13-5.8c.37-2.33-.21-2-.58.34a54.3,54.3,0,0,1-1.13,5.79,35.92,35.92,0,0,1-2.79,6.24c-.08.15-.18.29-.26.44a.33.33,0,0,0-.66.07.33.33,0,0,0,.33.33.25.25,0,0,0,.12,0,50,50,0,0,1-3,4.63l-.6.85a.6.6,0,0,0-.55.59s0,.08,0,.12c-.81,1.09-1.64,2.17-2.52,3.22-1.15,1.35-2.33,2.67-3.58,3.93s-2.36,2.38-3.58,3.54-2.17,2-3.3,3-2,1.75-3,2.64L31.46,71c-.8.73-1.6,1.46-2.36,2.23a.32.32,0,0,0-.16-.2l.9-.91c1-.94,2-1.86,3-2.8,1.19-1.11,2.34-2.25,3.48-3.41A38,38,0,0,0,40,61.74a48,48,0,0,0,3.28-5.4,35.74,35.74,0,0,0,2.66-6.12,41.4,41.4,0,0,0,1.36-7,57.54,57.54,0,0,0,.08-6,.61.61,0,0,0,.2-.45.58.58,0,0,0-.24-.48c0-.25,0-.5,0-.74,0-.42,0-.84,0-1.25-.09-2.35-.66-2-.57.33,0,.42,0,.83,0,1.25,0,.11,0,.22,0,.32a.61.61,0,0,0-.39.57.6.6,0,0,0,.43.57c0,1,0,2.07,0,3.11a.64.64,0,0,0-.24-.05.6.6,0,0,0-.6.6.61.61,0,0,0,.6.61.54.54,0,0,0,.22,0c0,.67-.05,1.34-.1,2-.19,1.51-.42,3-.75,4.51,0-.71,0-1.42,0-2.13a49.81,49.81,0,0,0-.37-5,27.64,27.64,0,0,0-.68-3.4,12.17,12.17,0,0,0-.57-1.67,2,2,0,0,0-.27-.44c-1.9-1.71-2.54-1.32-.62.37a1.57,1.57,0,0,1,.27.43,12,12,0,0,1,.57,1.66,27.92,27.92,0,0,1,.7,3.39,50,50,0,0,1,.38,5c0,.94,0,1.88,0,2.82a7.72,7.72,0,0,0,0,1.21,2.17,2.17,0,0,0-.07.24C45,51.71,44.52,52.84,44,54a.61.61,0,0,0-.53-.3.6.6,0,0,0-.6.6.61.61,0,0,0,.6.61l.12,0c-.29.62-.6,1.23-.94,1.83a45.89,45.89,0,0,1-3.29,5.41,39,39,0,0,1-3.62,4.19c-1.14,1.16-2.29,2.31-3.48,3.42-1,.94-2,1.85-3.05,2.8l-.51.51a.34.34,0,0,0-.28.29,19.78,19.78,0,0,0-1.76,2c-.67.94-1.33,1.89-1.91,2.89-.22.3-.42.6-.61.92a10,10,0,0,0-.58,1,5.69,5.69,0,0,0-.32.71v0l-.49.92c-.2.42-.39.84-.58,1.26,0-.07,0-.14,0-.21a18.09,18.09,0,0,1,.5-1.74c.24-.68.52-1.35.81-2,.35-.82.71-1.62,1.06-2.44.49-1.09,1-2.16,1.57-3.23.69-1.31,1.3-2.65,1.88-4,.69-1.65,1.37-3.31,2.06-5s1.41-3.42,2.07-5.15a.34.34,0,0,0,.25-.32.32.32,0,0,0-.06-.2c.65-1.82,1.24-3.66,1.8-5.51.65-2.15,1.21-4.32,1.65-6.52A42.61,42.61,0,0,0,36.34,39c-.08-2.64-.38-5.26-.7-7.87-.2-1.57-.44-3.14-.68-4.71A5.23,5.23,0,0,0,34.6,25a.63.63,0,0,0,.19,0,.6.6,0,0,0,.61-.6.61.61,0,0,0-1.21,0,.57.57,0,0,0,.17.41,3.72,3.72,0,0,0,0,1.88c.11.7.21,1.4.31,2.09a.3.3,0,0,0-.23-.09.34.34,0,1,0,.3.49q.16,1.11.3,2.22c0,.19,0,.38.07.57a.6.6,0,1,0-.27,1.14.61.61,0,0,0,.39-.15c.25,2.09.46,4.2.53,6.31A42.63,42.63,0,0,1,35.25,47c-.44,2.2-1,4.38-1.65,6.53-.52,1.7-1.07,3.4-1.66,5.08a.32.32,0,0,0-.17.29.27.27,0,0,0,0,.12c-.05.11-.09.23-.13.34C31,61.2,30.28,63,29.53,64.75s-1.37,3.32-2.07,5c-.58,1.36-1.19,2.71-1.88,4C25,74.81,24.49,75.88,24,77c-.36.81-.72,1.63-1.07,2.44s-.58,1.33-.82,2-.37,1.14-.5,1.73-.21,1-.3,1.5c-.05.21-.08.43-.14.65-.25,1.06-.28,1.6-.18,1.68s-.05.36-.07.54c-.09.71-.19,1.42-.21,2.14,0,.33,0,.66,0,1s-.14.49-.2.74l-.06.3h-3c2,.57,3.56.41,5.87,6.18Zm.58-4.68a.33.33,0,1,0,0-.66.33.33,0,1,0,0,.66Zm-4.63-1.69a.61.61,0,1,0,0-1.21.61.61,0,0,0,0,1.21Zm3.27-.72a.62.62,0,0,0,.61-.61.6.6,0,0,0-.61-.6.59.59,0,0,0-.6.6A.6.6,0,0,0,22.58,90.79Zm-4.27-1.7a.34.34,0,1,0-.33-.33A.34.34,0,0,0,18.31,89.09Zm1.52-.55a.33.33,0,0,0,.33-.33.34.34,0,0,0-.67,0A.33.33,0,0,0,19.83,88.54Zm5.71-.72a.61.61,0,1,0,0-1.21.61.61,0,0,0,0,1.21Zm1.42-1a.33.33,0,1,0-.33-.33A.33.33,0,0,0,27,86.79Zm-8.31-.66a.61.61,0,1,0-.61-.6A.6.6,0,0,0,18.65,86.13ZM20,84.37a.61.61,0,1,0-.61-.6A.6.6,0,0,0,20,84.37Zm7.83-.24a.33.33,0,0,0,0-.66.33.33,0,1,0,0,.66Zm4.39-.54a.61.61,0,0,0,.6-.61.61.61,0,0,0-1.21,0A.61.61,0,0,0,32.26,83.59Zm-6.47-.73a.6.6,0,0,0,.6-.6.61.61,0,1,0-1.21,0A.6.6,0,0,0,25.79,82.86Zm2.37-.15s.7-.46,1.82-1.28c.48-.35.94-.72,1.44-1a22,22,0,0,1,2.21-1.18l.46-.2a.6.6,0,1,0,1.07.38.59.59,0,0,0-.57-.59c.53-.24,1.06-.47,1.6-.68L38,77.42l.78-.29c2.39-.91,3-1.27.62-.36l-.78.3c-.61.23-1.21.48-1.82.72-.87.33-1.72.72-2.56,1.1a34.4,34.4,0,0,0-3.43,1.86c-.5.31-1,.68-1.44,1a13.37,13.37,0,0,0-1.21.93Zm-8.43-.63a.61.61,0,0,0,.61-.61.61.61,0,0,0-1.21,0A.61.61,0,0,0,19.73,82.08ZM33,81.41a.33.33,0,0,0,.33-.33.33.33,0,0,0-.66,0A.33.33,0,0,0,33,81.41Zm-11-.85a.61.61,0,1,0-.61-.61A.6.6,0,0,0,22,80.56Zm3.26-.18a.61.61,0,0,0,0-1.21.61.61,0,1,0,0,1.21ZM17,79.9a.34.34,0,1,0-.33-.33A.33.33,0,0,0,17,79.9Zm21.11-1.15a.34.34,0,0,0,0-.67.34.34,0,0,0,0,.67Zm-7.22-.06a.61.61,0,0,0,.6-.61.61.61,0,0,0-1.21,0A.61.61,0,0,0,30.93,78.69Zm10.67-.55a.32.32,0,0,0,.33-.33.33.33,0,0,0-.33-.33h0a.6.6,0,0,0-.42-1,.61.61,0,1,0,0,1.21l.17,0a.34.34,0,0,0,0,.17.33.33,0,0,0,.33.33Zm2.09-1.39a.61.61,0,1,0,0-1.21.61.61,0,1,0,0,1.21Zm-20.62,0a.61.61,0,1,0-.61-.61A.6.6,0,0,0,23.07,76.75Zm4.77-.06a.61.61,0,1,0,0-1.21.61.61,0,0,0,0,1.21Zm17.39-.06a.33.33,0,1,0-.33-.33A.33.33,0,0,0,45.23,76.63Zm-13-.42a.34.34,0,0,0,0-.67.34.34,0,0,0,0,.67Zm-5.54-.4.6-.85a16.79,16.79,0,0,1,1.2-1.45.34.34,0,0,0,.21.14c-.65.67-1.3,1.33-1.9,2l-.11.13Zm11.5-.91,2-1.1L41.64,73l.17,0a.6.6,0,0,0,.58-.45c.7-.39,1.39-.79,2.08-1.19-.21.13-1.13.64-2.07,1.17a.59.59,0,0,0,0-.13.61.61,0,1,0-.8.57l-.48.26-3,1.67ZM46,74.81a.33.33,0,0,0,.33-.33.33.33,0,0,0-.33-.33.33.33,0,0,0-.33.33A.32.32,0,0,0,46,74.81Zm-23.14-.9a.61.61,0,0,0,.61-.61.58.58,0,0,0,0-.18h.06a.33.33,0,0,0,.34-.33.34.34,0,0,0-.34-.34.34.34,0,0,0-.33.33.61.61,0,0,0-.3-.08.61.61,0,0,0,0,1.21Zm-2-.06a.34.34,0,0,0,0-.67.34.34,0,0,0,0,.67Zm4.21-2.3a.61.61,0,1,0-.61-.6A.6.6,0,0,0,25.06,71.55Zm25.56-.12a.34.34,0,0,0,0-.67.34.34,0,1,0,0,.67Zm-5.91-.21.91-.52A45.33,45.33,0,0,0,50,67.77c.7-.55,1.38-1.11,2.05-1.7a.6.6,0,0,0,1.16-.21.62.62,0,0,0-.34-.55c.48-.45.94-.9,1.4-1.37s.66-.69,1-1l.05,0c1-.88,1.95-1.74,2.9-2.65l0,0a.6.6,0,0,0,.6.52.6.6,0,0,0,.07-1.2,13.4,13.4,0,0,0,1.51-1.85c.57-.84,1.13-1.69,1.68-2.54s1.08-1.71,1.61-2.58c.3-.5.6-1,.89-1.51a.49.49,0,0,0,0,.12.6.6,0,0,0,.6.61.61.61,0,1,0,0-1.21.59.59,0,0,0-.42.17c.08-.15.17-.3.24-.45a10.7,10.7,0,0,0,.63-1.43,5.37,5.37,0,0,1,.21-.56c.14-.27.25-.51.34-.71a.59.59,0,0,0,.51-.59.61.61,0,0,0-.36-.56.32.32,0,0,0,.24-.32.33.33,0,1,0-.51.28.61.61,0,0,0-.58.6.59.59,0,0,0,.34.54c-.18.3-.37.66-.6,1.12a5.42,5.42,0,0,0-.22.56,10.59,10.59,0,0,1-.61,1.43c-.4.77-.85,1.52-1.3,2.27S62,54.57,61.46,55.42s-1.11,1.7-1.68,2.54a11.63,11.63,0,0,1-1.24,1.56.59.59,0,0,0-.29.33l-.68.69c-.55.52-1.1,1-1.66,1.53.78-1,1.5-2,2.19-3A24.71,24.71,0,0,0,61,53.35c0-.1.07-.21.1-.31a.62.62,0,0,0,.6.49.61.61,0,0,0,.6-.61.6.6,0,0,0-.6-.61.58.58,0,0,0-.41.16,28,28,0,0,0,1-6,27.45,27.45,0,0,0-.24-6.21c-.5-3.86-1.45-3.31-1,.54a27.56,27.56,0,0,1,.23,6.22,25.81,25.81,0,0,1-1.27,6.85,25.17,25.17,0,0,1-2.92,5.76,39.38,39.38,0,0,1-3.43,4.38l-2.17,1.89c-.52.46-1.08.89-1.62,1.32-1.91,1.53-1.31,1.18.6-.34.49-.4,1-.78,1.48-1.2a.06.06,0,0,0,0,0c-1,.9-2,1.77-3,2.58a40.92,40.92,0,0,1-4.27,2.88Zm-3.35-.15a.34.34,0,0,0,0-.67.34.34,0,0,0,0,.67Zm6-.25a.33.33,0,0,0,.27-.33.33.33,0,1,0-.66,0,.33.33,0,0,0,.33.33ZM34,70.64a.61.61,0,1,0,0-1.21.61.61,0,0,0,0,1.21Zm1.84-.18a.34.34,0,1,0-.33-.33A.34.34,0,0,0,35.85,70.46ZM44.63,69a.34.34,0,0,0,0-.67.34.34,0,0,0,0,.67Zm3-.18a.61.61,0,0,0,.61-.61.62.62,0,0,0-.61-.61.6.6,0,0,0-.6.61A.6.6,0,0,0,47.62,68.77Zm-21.35-.25a.6.6,0,0,0,.6-.6.61.61,0,1,0-1.21,0A.6.6,0,0,0,26.27,68.52Zm28.64-.6a.33.33,0,0,0,0-.66.33.33,0,0,0,0,.66ZM33.58,67.8a.61.61,0,1,0-.6-.61A.61.61,0,0,0,33.58,67.8Zm-9-1a.34.34,0,0,0,0-.67.34.34,0,0,0,0,.67ZM49,66.71a.61.61,0,1,0,0-1.21.61.61,0,0,0,0,1.21ZM27.24,66.1a.6.6,0,0,0,.34-1.1.59.59,0,0,0,0-.13.34.34,0,1,0-.67,0,.36.36,0,0,0,0,.1.6.6,0,0,0,.29,1.13Zm13.06-.54a.61.61,0,0,0,0-1.21.61.61,0,1,0,0,1.21Zm-11.14-.22c.14,0,.42-.7.65-1.94s.47-2.54.61-3.82a36,36,0,0,0,.21-4.76,30.24,30.24,0,0,0-.34-3.55,23.89,23.89,0,0,0-.44-2.36,7.25,7.25,0,0,0-.29-.9c-1-2.33-1.71-1.95-.62.36a5.73,5.73,0,0,1,.28.89,24,24,0,0,1,.46,2.36A28.26,28.26,0,0,1,30,55.17a36,36,0,0,1-.2,4.75c-.14,1.28-.37,2.55-.61,3.82-.2,1.1-.18,1.61-.06,1.6Zm12.92,0a.34.34,0,1,0-.33-.33A.34.34,0,0,0,42.08,65.32Zm-9.92-.24a.34.34,0,1,0-.33-.33A.34.34,0,0,0,32.16,65.08Zm4-1.09a.61.61,0,0,0,0-1.21.61.61,0,1,0,0,1.21ZM53,63.5a.6.6,0,0,0,.6-.6.61.61,0,1,0-1.21,0A.6.6,0,0,0,53,63.5Zm6.8-1.39a.34.34,0,0,0,0-.67.34.34,0,0,0,0,.67ZM48.27,59.27a.61.61,0,1,0,0-1.21.61.61,0,0,0,0,1.21Zm6.44-1a.34.34,0,1,0,0-.67.34.34,0,0,0,0,.67Zm-29.43-.42a.61.61,0,0,0,.61-.61.61.61,0,1,0-1.21,0A.6.6,0,0,0,25.28,57.88Zm15.31-.25a.6.6,0,0,0,.6-.6.61.61,0,0,0-.6-.61A.62.62,0,0,0,40,57,.6.6,0,0,0,40.59,57.63Zm23.32-.72a.33.33,0,0,0,0-.66.33.33,0,0,0,0,.66Zm-.76-.49a.6.6,0,0,0,.61-.6.61.61,0,0,0-1.22,0A.6.6,0,0,0,63.15,56.42Zm-18.81-.17a.61.61,0,0,0,0-1.22.61.61,0,0,0,0,1.22Zm-10-.67a.61.61,0,1,0-.6-.61A.61.61,0,0,0,34.35,55.58ZM28,53a.34.34,0,1,0,0-.67A.34.34,0,0,0,28,53Zm3.48-.13a.6.6,0,0,0,.61-.6.61.61,0,1,0-1.21,0A.6.6,0,0,0,31.51,52.85Zm26.68-.17a.61.61,0,0,0,.6-.61.6.6,0,0,0-.6-.6.6.6,0,0,0-.6.6A.6.6,0,0,0,58.19,52.68Zm-22.95-.61a.34.34,0,0,0,0-.67.34.34,0,1,0,0,.67Zm8.37-2.54a.61.61,0,1,0-.6-.61A.61.61,0,0,0,43.61,49.53Zm7.14-.06a.61.61,0,1,0,0-1.21.61.61,0,0,0,0,1.21Zm12.58-.67a.59.59,0,0,0,.6-.6.6.6,0,0,0-.6-.61.61.61,0,0,0-.6.61A.6.6,0,0,0,63.33,48.8Zm-30.24-.48a.61.61,0,1,0-.61-.61A.6.6,0,0,0,33.09,48.32Zm15.36-.06a.61.61,0,1,0-.61-.6A.61.61,0,0,0,48.45,48.26ZM36.33,46.93a.34.34,0,0,0,0-.67.34.34,0,1,0,0,.67Zm-8.72-1a.34.34,0,0,0,.34-.33.34.34,0,0,0-.34-.33.32.32,0,0,0-.33.33A.33.33,0,0,0,27.61,46Zm22-.12a.33.33,0,0,0,.33-.33.33.33,0,0,0-.33-.33.32.32,0,0,0-.33.33A.33.33,0,0,0,49.57,45.84Zm9.71-.54a.61.61,0,0,0,.6-.61.61.61,0,0,0-1.21,0A.61.61,0,0,0,59.28,45.3Zm-16.06-.24a.34.34,0,1,0-.33-.34A.34.34,0,0,0,43.22,45.06ZM67,44.51a.33.33,0,1,0-.33-.33A.33.33,0,0,0,67,44.51Zm-23-.12a.6.6,0,0,0,.6-.61.61.61,0,1,0-.6.61Zm9.68-.18a.61.61,0,0,0,.6-.61.61.61,0,0,0-1.21,0A.61.61,0,0,0,53.66,44.21Zm4.14-.85a.34.34,0,1,0-.33-.33A.33.33,0,0,0,57.8,43.36Zm9-.19a.59.59,0,0,0,.6-.6.6.6,0,0,0-.6-.6.61.61,0,0,0-.61.6A.6.6,0,0,0,66.84,43.17Zm-32,0a.33.33,0,1,0-.4-.33.33.33,0,0,0,.33.33Zm27.82-1a.33.33,0,0,0,.33-.33.34.34,0,1,0-.67,0A.34.34,0,0,0,62.64,42.21Zm-24.23-.6A.6.6,0,0,0,39,41a.59.59,0,0,0-.6-.6.6.6,0,0,0-.6.6A.61.61,0,0,0,38.41,41.61Zm20.48-.49a.33.33,0,0,0,.33-.33.34.34,0,0,0-.33-.34.34.34,0,0,0-.33.34A.32.32,0,0,0,58.89,41.12Zm-10-.84a.61.61,0,0,0,.61-.61.06.06,0,0,0,0,0,.29.29,0,0,0,.16,0,.34.34,0,0,0,0-.67.34.34,0,0,0-.32.25.63.63,0,0,0-.44-.18.6.6,0,0,0-.6.6A.61.61,0,0,0,48.93,40.28Zm6.51-.73a.34.34,0,0,0,0-.67.34.34,0,0,0,0,.67Zm10.29-.12a.34.34,0,0,0,0-.67.34.34,0,1,0,0,.67Zm-2.58-.07a.6.6,0,0,0,.61-.6.6.6,0,0,0-.61-.6.61.61,0,0,0-.61.6A.6.6,0,0,0,63.15,39.36Zm-25.28-.17a.61.61,0,0,0,.6-.61.61.61,0,0,0-1.21,0A.61.61,0,0,0,37.87,39.19ZM43,38.52a.61.61,0,1,0,0-1.21.62.62,0,0,0-.57.4.33.33,0,0,0-.1.23.33.33,0,0,0,.15.28A.61.61,0,0,0,43,38.52ZM56.55,38a.61.61,0,0,0,.61-.61.61.61,0,0,0-1.21,0A.61.61,0,0,0,56.55,38Zm-22.32-.61a.6.6,0,0,0,.61-.6.61.61,0,1,0-1.21,0A.6.6,0,0,0,34.23,37.37Zm10.2-1.87a.34.34,0,1,0-.33-.34A.34.34,0,0,0,44.43,35.5Zm20.38-.12a.34.34,0,0,0,0-.67.34.34,0,0,0,0,.67Zm-27.64-.07a.33.33,0,0,0,0-.66.33.33,0,0,0,0,.66Zm23.41-1.39a.33.33,0,0,0,.33-.33.33.33,0,0,0-.33-.33.32.32,0,0,0-.33.33A.33.33,0,0,0,60.58,33.92Zm1.3-.48a.61.61,0,1,0,0-1.21.61.61,0,0,0,0,1.21Zm-21.74-.73a.33.33,0,1,0-.34-.33A.33.33,0,0,0,40.14,32.71Zm2.75-.24a.6.6,0,0,0,.6-.6.61.61,0,1,0-1.21,0A.6.6,0,0,0,42.89,32.47Zm-5.2-1a.6.6,0,0,0,.6-.6.61.61,0,1,0-1.21,0A.6.6,0,0,0,37.69,31.5Zm17.44-.17a.34.34,0,0,0,.34-.34.34.34,0,1,0-.67,0A.34.34,0,0,0,55.13,31.33Zm-7.83-.07a.61.61,0,1,0,0-1.21.61.61,0,0,0,0,1.21Zm10.44-.61a.33.33,0,0,0,.33-.33.34.34,0,0,0-.67,0A.33.33,0,0,0,57.74,30.65ZM46.06,29.27a.34.34,0,0,0,0-.67.34.34,0,0,0,0,.67Zm-13-.19a.6.6,0,0,0,.6-.6.61.61,0,0,0-1.21,0A.6.6,0,0,0,33.09,29.08Zm22.77-1.45a.32.32,0,0,0,.33-.33.33.33,0,0,0-.33-.33.33.33,0,0,0-.33.33A.33.33,0,0,0,55.86,27.63ZM58,27.21A.61.61,0,0,0,58,26a.61.61,0,1,0,0,1.21ZM32.27,26.3a.34.34,0,1,0-.33-.33A.33.33,0,0,0,32.27,26.3ZM58,25a.33.33,0,1,0-.33-.33A.33.33,0,0,0,58,25ZM41.4,24.12a.34.34,0,0,0,.34-.33.34.34,0,0,0-.67,0A.33.33,0,0,0,41.4,24.12Zm-8.52-1.63a.34.34,0,0,0,0-.67.34.34,0,1,0,0,.67Zm1.69-1.21a.34.34,0,0,0,0-.67.34.34,0,1,0,0,.67Z" />
    <g
       id="use81522">
      <path
         id="path72951"
         class="cls-10"
         d="M34.23,26.19c-1.49,0-2.66.42-3,1.53-.93,3.14,1.62,4.55,4.31,6.1h-.39a.77.77,0,0,0-.77.77V36.1a.77.77,0,0,0,.74.77,9,9,0,0,0-2.23,2.36C30,43.64,29.43,47.7,31,51.76a90.83,90.83,0,0,1,2.86,8.72,1.35,1.35,0,0,1-1.19,1.67c-1.08.12-1.08,1.31-1.31,1.91S30,65.37,30.15,66s-1.07.48-2.15,1A9.24,9.24,0,0,0,25,70c-.6,1-1.07,2.26,3.94,3.46S42.33,90.32,44.48,91.75s7.76-.12,6.92-2.62-3.35-8.49-3.65-9.08.13-1.48,1.1-4,.55-2.36.5-2.74.47-.76.47-1S49,71.31,48.72,71s-1.31-1.48-1.52-1.74.21-.59.47-.75A6.74,6.74,0,0,0,49,66.71c.34-.67.76-.84,1.69-1.18a21.87,21.87,0,0,1,3.51-1,2.79,2.79,0,0,0,2.49-1.43,3.57,3.57,0,0,0-.47-2.79c-.17-.29-.08-.34-.08-.51a1.06,1.06,0,0,1,.38-.59c.17-.12.21-.42.12-.8a.86.86,0,0,0-.46-.55,1.22,1.22,0,0,0,.51-.8c.16-.63,0-1,.08-1.31s.84-.17,1.22-.21A2.73,2.73,0,0,0,59.23,55a1.08,1.08,0,0,0,.25-1,12.09,12.09,0,0,0-.84-2,14,14,0,0,0-1.48-2.53c-.63-.8-.34-1-.34-1.73a6.63,6.63,0,0,0-.67-2.61A8.42,8.42,0,0,1,55.52,43a11.71,11.71,0,0,0-1.06-2.61c.28.16.52-.2.64-1s-.79-1.64-2.47-2.49a.77.77,0,0,0,.64-.76V34.59a.77.77,0,0,0-.77-.77h-.21c2.69-1.55,5.24-3,4.31-6.1-.35-1.16-1.62-1.56-3.21-1.53a13.07,13.07,0,0,0-2.4.29,4.28,4.28,0,0,0-1.6-.29,6.42,6.42,0,0,0-2.61.82c-.22-.62-.63-.84-.88-.82-.43,0-1,.76-1.35,1.48a1,1,0,0,0-.63-.24,1,1,0,0,0-.64.24c-.4-.75-1-1.5-1.38-1.48-.24,0-.63.24-.83.83a6.27,6.27,0,0,0-2.75-.83,4.38,4.38,0,0,0-1.44.29,13.49,13.49,0,0,0-2.65-.29Zm1.64,1a1.34,1.34,0,0,0-.23.53c-.5,2.9,1.29,4.57,3,6.1H36.22c-1.67-1.78-4.73-5.53-1.92-6.39a5.73,5.73,0,0,1,1.57-.24Zm3.66,0a4.33,4.33,0,0,1,1.42.34s0,.11,0,.16C40.5,27.52,40,27.35,39.53,27.19Zm8.78,0c-.49.16-1,.33-1.4.5,0-.05,0-.11,0-.16a4.33,4.33,0,0,1,1.42-.34Zm3.67,0a5.85,5.85,0,0,1,1.57.24c2.8.86-.26,4.61-1.93,6.39H49.23c1.68-1.53,3.47-3.2,3-6.1a1.32,1.32,0,0,0-.22-.53Zm-2.49.25c1.52.82,0,4.39-1,6.38H45.92a13.46,13.46,0,0,0,1-5.66,22.38,22.38,0,0,1,2.56-.72Zm-11.14,0a22.38,22.38,0,0,1,2.56.72,13.46,13.46,0,0,0,1,5.66H39.3c-1-2-2.46-5.55-.95-6.38Zm7.26.76a.09.09,0,0,1,.06,0l-.56.28.5-.31Zm-3.12.15.24.16-.26-.14,0,0Zm3.47.17c.47.81,0,3.52-.29,5.3h-3.4c-.23-1.72-.47-4.31,0-5.16.44.17.78.31,1,.37a1,1,0,0,0,.7.31,1,1,0,0,0,.7-.31c.25-.08.72-.27,1.34-.51Z" />
    </g>
    <g
       id="use81694">
      <g
         id="g72933">
        <path
           id="path72935"
           class="cls-11"
           d="M22.41,18.81a2.81,2.81,0,0,0-2.52,3,4,4,0,0,0,.54,1.95,3.45,3.45,0,0,0-2-.64,2.73,2.73,0,1,0,0,5.45,3.23,3.23,0,0,0,3.08-2.38,8.29,8.29,0,0,1,.3,2.2,7.44,7.44,0,0,1-1.5,4.6h4.28A7.38,7.38,0,0,1,23,28.32a8,8,0,0,1,.28-2.12,3.07,3.07,0,0,0,3.1,2.4,2.73,2.73,0,1,0,0-5.45,3.34,3.34,0,0,0-2,.75,4.15,4.15,0,0,0,.55-2.06,2.81,2.81,0,0,0-2.52-3Z" />
      </g>
    </g>
    <path
       id="use4730"
       class="cls-12"
       d="M67.55,14.72h.28c.34,0,.47.11.47.34s-.25.57-.86,1.14l-2,1.78V15.72c0-.81.12-.93,1-1v-.21H63.34v.21c.87.07,1,.21,1,1v4.8c0,.92-.12,1.07-1,1.12v.21h3.13v-.21c-.86-.05-1-.19-1-1V18.57l.29-.23,1.18,1.16a5.28,5.28,0,0,1,1.44,1.89c0,.15-.16.23-.47.24H67.6v.21H71v-.21c-.57,0-.73-.12-1.74-1.2l-2.58-2.77,2.11-2.08c.75-.72.93-.81,1.68-.87v-.21h-2.9v.21" />
  </g>
</svg>
