<?xml version="1.0" encoding="UTF-8" standalone="no"?>
<svg
   id="svg2"
   viewBox="0 0 70.380005 99.420006"
   version="1.1"
   sodipodi:docname="CQ.svg"
   inkscape:version="1.3.2 (091e20e, 2023-11-25, custom)"
   width="70.380005"
   height="99.420006"
   xmlns:inkscape="http://www.inkscape.org/namespaces/inkscape"
   xmlns:sodipodi="http://sodipodi.sourceforge.net/DTD/sodipodi-0.dtd"
   xmlns:xlink="http://www.w3.org/1999/xlink"
   xmlns="http://www.w3.org/2000/svg"
   xmlns:svg="http://www.w3.org/2000/svg"
   xmlns:rdf="http://www.w3.org/1999/02/22-rdf-syntax-ns#"
   xmlns:cc="http://creativecommons.org/ns#"
   xmlns:dc="http://purl.org/dc/elements/1.1/">
  <sodipodi:namedview
     id="namedview6"
     pagecolor="#ffffff"
     bordercolor="#000000"
     borderopacity="0.25"
     inkscape:showpageshadow="2"
     inkscape:pageopacity="0.0"
     inkscape:pagecheckerboard="0"
     inkscape:deskcolor="#d1d1d1"
     inkscape:zoom="15.285714"
     inkscape:cx="34.90187"
     inkscape:cy="50.210281"
     inkscape:window-width="3840"
     inkscape:window-height="2054"
     inkscape:window-x="-11"
     inkscape:window-y="-11"
     inkscape:window-maximized="1"
     inkscape:current-layer="svg2" />
  <defs
     id="defs6">
    <style
       id="style1">
      .cls-1 {
        filter: url(#filter63625-2-3);
      }

      .cls-2 {
        stroke: #000;
        fill: url(#linear-gradient);
      }

      .cls-2, .cls-6 {
        stroke-miterlimit: 10;
        stroke-width: 0.23px;
      }

      .cls-3 {
        fill: url(#linear-gradient-2);
      }

      .cls-4 {
        opacity: 0.31;
        fill: url(#radial-gradient);
      }

      .cls-4, .cls-5, .cls-7 {
        isolation: isolate;
      }

      .cls-5 {
        opacity: 0.32;
        fill: url(#radial-gradient-2);
      }

      .cls-6 {
        fill: none;
      }

      .cls-12, .cls-6 {
        stroke: #fff;
      }

      .cls-7 {
        opacity: 0.32;
        fill: url(#radial-gradient-3);
      }

      .cls-8 {
        fill: url(#radial-gradient-4);
      }

      .cls-10, .cls-11, .cls-9 {
        stroke: #c8c8c8;
      }

      .cls-11, .cls-9 {
        stroke-linejoin: round;
        stroke-width: 1px;
      }

      .cls-9 {
        fill: url(#linear-gradient-3);
      }

      .cls-10 {
        stroke-width: 0.4px;
        fill-rule: evenodd;
        fill: url(#linear-gradient-4);
      }

      .cls-11 {
        fill: url(#linear-gradient-5);
      }

      .cls-12 {
        stroke-width: 0.49px;
        fill: url(#linear-gradient-6);
      }
    </style>
    <filter
       id="filter63625-2-3"
       name="filter63625-2-3"
       x="-0.12863863"
       y="-0.090976909"
       width="1.2572773"
       height="1.1819538">
      <feGaussianBlur
         result="feGaussianBlur63627-6-62"
         stdDeviation="3.76"
         id="feGaussianBlur1" />
    </filter>
    <linearGradient
       id="linear-gradient"
       x1="-1196.78"
       y1="-2666.97"
       x2="-1187.29"
       y2="-2152.46"
       gradientTransform="matrix(0.23,0,0,-0.23,313.38,-568.53)"
       gradientUnits="userSpaceOnUse">
      <stop
         offset="0"
         stop-color="#f3f3f3"
         id="stop1" />
      <stop
         offset="1"
         stop-color="#8f8f8f"
         id="stop2" />
    </linearGradient>
    <linearGradient
       id="linear-gradient-2"
       x1="-1673.84"
       y1="-2431.5801"
       x2="-1541.5601"
       y2="-2869.29"
       gradientTransform="matrix(0.24,0,0,-0.24,428.59,-558.49)"
       gradientUnits="userSpaceOnUse">
      <stop
         offset="0"
         id="stop3" />
      <stop
         offset="1"
         stop-color="#555753"
         id="stop4" />
    </linearGradient>
    <radialGradient
       id="radial-gradient"
       cx="196.39"
       cy="6274.79"
       r="58.68"
       gradientTransform="matrix(-0.23,0,0,0.21,60.2,-1198.18)"
       gradientUnits="userSpaceOnUse">
      <stop
         offset="0"
         stop-color="#fff"
         id="stop5" />
      <stop
         offset="1"
         stop-color="#fff"
         stop-opacity="0"
         id="stop6" />
    </radialGradient>
    <radialGradient
       id="radial-gradient-2"
       cx="-1230.5699"
       cy="-1580.6899"
       r="63.150002"
       gradientTransform="matrix(0.23,0,0,-0.36,346.19,-545.66)"
       xlink:href="#radial-gradient" />
    <radialGradient
       id="radial-gradient-3"
       cx="-434.73001"
       cy="526.62"
       r="26.74"
       gradientTransform="matrix(0.84,0,0,-1.48,406.13,839.68)"
       xlink:href="#radial-gradient" />
    <radialGradient
       id="radial-gradient-4"
       cx="-143.13"
       cy="1100.54"
       r="25.370001"
       gradientTransform="matrix(0.83,0.56,2.15,-3.16,-2222.53,3644.34)"
       xlink:href="#radial-gradient" />
    <linearGradient
       id="linear-gradient-3"
       x1="-5135.3301"
       y1="-13514.97"
       x2="-5135.3301"
       y2="-13455.46"
       gradientTransform="matrix(0.05,0,0,-0.06,294.86,-689.99)"
       xlink:href="#linear-gradient" />
    <linearGradient
       id="linear-gradient-4"
       x1="-1306.47"
       y1="-3011.21"
       x2="-1306.47"
       y2="-2834.28"
       gradientTransform="matrix(0.24,0,0,-0.24,351.06,-633.12)"
       xlink:href="#linear-gradient" />
    <linearGradient
       id="linear-gradient-5"
       x1="-3187.3601"
       y1="-6089.21"
       x2="-3187.3601"
       y2="-6029.73"
       gradientTransform="matrix(0.11,0,0,-0.12,380.39,-709.63)"
       xlink:href="#linear-gradient" />
    <linearGradient
       id="linear-gradient-6"
       x1="-190.42999"
       y1="579.84003"
       x2="-190.62"
       y2="586.29999"
       gradientTransform="matrix(1,0,0,-1,255.89,602.8)"
       xlink:href="#linear-gradient" />
    <linearGradient
       inkscape:collect="always"
       xlink:href="#linear-gradient"
       id="linearGradient1"
       gradientUnits="userSpaceOnUse"
       gradientTransform="matrix(0.23,0,0,-0.23,313.38,-568.53)"
       x1="-1196.78"
       y1="-2666.97"
       x2="-1187.29"
       y2="-2152.46" />
    <radialGradient
       inkscape:collect="always"
       xlink:href="#radial-gradient"
       id="radialGradient1"
       gradientUnits="userSpaceOnUse"
       gradientTransform="matrix(-0.23,0,0,0.21,60.2,-1198.18)"
       cx="196.39"
       cy="6274.79"
       r="58.68" />
  </defs>
  <title
     id="title6">Ten of Clubs</title>
  <g
     id="queen_club"
     data-name="queen club"
     transform="translate(-7.0350001,-9.3050001)">
    <g
       id="use72925">
      <g
         id="g70523">
        <rect
           id="rect70527"
           class="cls-2"
           x="7.1500001"
           y="9.4200001"
           width="70.150002"
           height="99.190002"
           rx="4.0500002"
           ry="4.0500002"
           style="fill:url(#linearGradient1)" />
        <rect
           id="rect6077"
           class="cls-3"
           x="10.61"
           y="12.88"
           width="63.240002"
           height="92.260002"
           rx="1.29"
           ry="1.29"
           style="fill:url(#linear-gradient-2)" />
        <rect
           id="rect70531"
           class="cls-4"
           x="10.61"
           y="80.860001"
           width="26.549999"
           height="24.280001"
           rx="0.85000002"
           ry="0.85000002"
           style="fill:url(#radialGradient1)" />
        <rect
           id="rect70533"
           class="cls-5"
           x="45.27"
           y="12.88"
           width="28.57"
           height="45.27"
           rx="1.04"
           ry="1.04"
           style="fill:url(#radial-gradient-2)" />
        <path
           id="path70535"
           class="cls-6"
           d="M 25.57,101.12 H 70.29 V 27.51 M 58.72,16.91 H 14.16 v 73.18" />
        <path
           id="path70537"
           class="cls-7"
           d="m 64.6,59 c 0,21.89 -10,39.64 -22.38,39.64 C 29.84,98.64 19.83,80.9 19.83,59 c 0,-21.9 10,-39.64 22.39,-39.64 12.39,0 22.38,17.76 22.38,39.64 z"
           style="fill:url(#radial-gradient-3)" />
      </g>
    </g>
    <path
       id="path7054"
       class="cls-8"
       d="m 23.36,97.88 c 0.53,-0.91 -1.57,-4.1 -1.84,-5.31 a 1.45,1.45 0 0 1 -0.06,-0.3 3,3 0 0 1 0,-0.52 4.63,4.63 0 0 1 0.12,-0.91 0.33,0.33 0 0 0 0.31,-0.33 0.34,0.34 0 0 0 -0.14,-0.28 l 0.21,-0.68 a 9.11,9.11 0 0 1 0.6,-1.44 19.84,19.84 0 0 1 1.09,-1.76 l 0.37,-0.53 h 0.11 a 0.6,0.6 0 0 0 0.61,-0.6 0.71,0.71 0 0 0 -0.06,-0.25 l 0.45,-0.53 a 29.51,29.51 0 0 1 2.14,-2 c 0.81,-0.74 1.67,-1.42 2.53,-2.1 1,-0.8 2.12,-1.5 3.21,-2.22 1.09,-0.72 2.08,-1.31 3.13,-1.94 h 0.15 a 0.6,0.6 0 0 0 0.6,-0.6 0.61,0.61 0 0 0 -0.6,-0.61 0.62,0.62 0 0 0 -0.61,0.61 0.6,0.6 0 0 0 0.44,0.58 l -0.3,0.17 c -1.28,0.77 -2.55,1.54 -3.81,2.36 -1.09,0.71 -2.19,1.42 -3.22,2.22 -0.87,0.68 -1.72,1.37 -2.53,2.11 -0.62,0.56 -1.25,1.12 -1.83,1.72 a 0.6,0.6 0 0 0 -0.79,0.88 c -0.36,0.44 -0.7,0.88 -1,1.36 A 19.74,19.74 0 0 0 21.5,88.7 L 21.35,89 c 0,-0.61 0.11,-1.21 0.19,-1.82 a 16.57,16.57 0 0 1 0.52,-2.52 15.31,15.31 0 0 1 0.83,-2.2 13.8,13.8 0 0 0 0.87,-1.63 c 0,-0.12 0.09,-0.25 0.14,-0.37 v -0.1 c 0.44,-0.78 0.89,-1.55 1.34,-2.32 l 0.09,-0.14 0.51,-0.7 c 0.49,-0.64 1,-1.26 1.54,-1.87 0.68,-0.78 1.4,-1.52 2.12,-2.25 0.72,-0.73 1.68,-1.63 2.54,-2.41 0.86,-0.78 1.87,-1.65 2.8,-2.49 0.93,-0.84 2,-1.76 3,-2.63 1,-0.87 2.21,-2 3.28,-3 l 1.7,-1.64 a 10.71,10.71 0 0 0 1.68,-1.33 c 1.11,-1 2.23,-1.87 3.39,-2.75 a 16.52,16.52 0 0 1 2.27,-1.55 l 0.5,-0.22 a 0.53,0.53 0 0 0 0,0.18 0.61,0.61 0 0 0 0.61,0.6 0.6,0.6 0 0 0 0.6,-0.6 0.58,0.58 0 0 0 -0.14,-0.39 c 2.23,-0.17 2.69,-0.49 0.27,-0.34 a 2.16,2.16 0 0 0 -0.57,0.14 h -0.16 a 0.59,0.59 0 0 0 -0.53,0.33 21.8,21.8 0 0 0 -3.41,2.2 C 46.15,58 45,59 43.94,59.9 43.48,60.29 43.18,60.56 43,60.72 L 44.72,59 c 1.25,-1.26 2.43,-2.58 3.58,-3.93 0.71,-0.85 1.39,-1.73 2.06,-2.61 a 0.62,0.62 0 0 0 0.47,0.22 0.61,0.61 0 0 0 0.6,-0.61 0.6,0.6 0 0 0 -0.36,-0.55 L 52,50.3 a 56.44,56.44 0 0 0 3.46,-5.46 36.2,36.2 0 0 0 2.78,-6.23 54.49,54.49 0 0 0 1.13,-5.8 c 0.37,-2.33 -0.21,-2 -0.58,0.34 a 54.3,54.3 0 0 1 -1.13,5.79 35.92,35.92 0 0 1 -2.79,6.24 c -0.08,0.15 -0.18,0.29 -0.26,0.44 a 0.33185087,0.33185087 0 0 0 -0.66,0.07 0.33,0.33 0 0 0 0.33,0.33 0.25,0.25 0 0 0 0.12,0 50,50 0 0 1 -3,4.63 l -0.6,0.85 a 0.6,0.6 0 0 0 -0.55,0.59 c 0,0 0,0.08 0,0.12 -0.81,1.09 -1.64,2.17 -2.52,3.22 -1.15,1.35 -2.33,2.67 -3.58,3.93 -1.25,1.26 -2.36,2.38 -3.58,3.54 -1.22,1.16 -2.17,2 -3.3,3 -1.13,1 -2,1.75 -3,2.64 L 31.46,71 c -0.8,0.73 -1.6,1.46 -2.36,2.23 a 0.32,0.32 0 0 0 -0.16,-0.2 l 0.9,-0.91 c 1,-0.94 2,-1.86 3,-2.8 1.19,-1.11 2.34,-2.25 3.48,-3.41 a 38,38 0 0 0 3.68,-4.17 48,48 0 0 0 3.28,-5.4 35.74,35.74 0 0 0 2.66,-6.12 41.4,41.4 0 0 0 1.36,-7 57.54,57.54 0 0 0 0.08,-6 0.61,0.61 0 0 0 0.2,-0.45 0.58,0.58 0 0 0 -0.24,-0.48 c 0,-0.25 0,-0.5 0,-0.74 0,-0.42 0,-0.84 0,-1.25 -0.09,-2.35 -0.66,-2 -0.57,0.33 0,0.42 0,0.83 0,1.25 0,0.11 0,0.22 0,0.32 a 0.61,0.61 0 0 0 -0.39,0.57 0.6,0.6 0 0 0 0.43,0.57 c 0,1 0,2.07 0,3.11 a 0.64,0.64 0 0 0 -0.24,-0.05 0.6,0.6 0 0 0 -0.6,0.6 0.61,0.61 0 0 0 0.6,0.61 0.54,0.54 0 0 0 0.22,0 c 0,0.67 -0.05,1.34 -0.1,2 -0.19,1.51 -0.42,3 -0.75,4.51 0,-0.71 0,-1.42 0,-2.13 a 49.81,49.81 0 0 0 -0.37,-5 27.64,27.64 0 0 0 -0.68,-3.4 12.17,12.17 0 0 0 -0.57,-1.67 2,2 0 0 0 -0.27,-0.44 c -1.9,-1.71 -2.54,-1.32 -0.62,0.37 a 1.57,1.57 0 0 1 0.27,0.43 12,12 0 0 1 0.57,1.66 27.92,27.92 0 0 1 0.7,3.39 50,50 0 0 1 0.38,5 c 0,0.94 0,1.88 0,2.82 a 7.72,7.72 0 0 0 0,1.21 2.17,2.17 0 0 0 -0.07,0.24 C 45,51.71 44.52,52.84 44,54 a 0.61,0.61 0 0 0 -0.53,-0.3 0.6,0.6 0 0 0 -0.6,0.6 0.61,0.61 0 0 0 0.6,0.61 h 0.12 c -0.29,0.62 -0.6,1.23 -0.94,1.83 a 45.89,45.89 0 0 1 -3.29,5.41 39,39 0 0 1 -3.62,4.19 c -1.14,1.16 -2.29,2.31 -3.48,3.42 -1,0.94 -2,1.85 -3.05,2.8 l -0.51,0.51 a 0.34,0.34 0 0 0 -0.28,0.29 19.78,19.78 0 0 0 -1.76,2 c -0.67,0.94 -1.33,1.89 -1.91,2.89 -0.22,0.3 -0.42,0.6 -0.61,0.92 a 10,10 0 0 0 -0.58,1 5.69,5.69 0 0 0 -0.32,0.71 v 0 l -0.49,0.92 c -0.2,0.42 -0.39,0.84 -0.58,1.26 0,-0.07 0,-0.14 0,-0.21 a 18.09,18.09 0 0 1 0.5,-1.74 c 0.24,-0.68 0.52,-1.35 0.81,-2 0.35,-0.82 0.71,-1.62 1.06,-2.44 0.49,-1.09 1,-2.16 1.57,-3.23 0.69,-1.31 1.3,-2.65 1.88,-4 0.69,-1.65 1.37,-3.31 2.06,-5 0.69,-1.69 1.41,-3.42 2.07,-5.15 a 0.34,0.34 0 0 0 0.25,-0.32 0.32,0.32 0 0 0 -0.06,-0.2 c 0.65,-1.82 1.24,-3.66 1.8,-5.51 0.65,-2.15 1.21,-4.32 1.65,-6.52 A 42.61,42.61 0 0 0 36.34,39 c -0.08,-2.64 -0.38,-5.26 -0.7,-7.87 -0.2,-1.57 -0.44,-3.14 -0.68,-4.71 A 5.23,5.23 0 0 0 34.6,25 a 0.63,0.63 0 0 0 0.19,0 0.6,0.6 0 0 0 0.61,-0.6 0.61,0.61 0 0 0 -1.21,0 0.57,0.57 0 0 0 0.17,0.41 3.72,3.72 0 0 0 0,1.88 c 0.11,0.7 0.21,1.4 0.31,2.09 a 0.3,0.3 0 0 0 -0.23,-0.09 0.34,0.34 0 1 0 0.3,0.49 q 0.16,1.11 0.3,2.22 c 0,0.19 0,0.38 0.07,0.57 a 0.6,0.6 0 1 0 -0.27,1.14 0.61,0.61 0 0 0 0.39,-0.15 c 0.24,2.09 0.46,4.2 0.53,6.31 A 42.63,42.63 0 0 1 35.25,47 c -0.44,2.2 -1,4.38 -1.65,6.53 -0.52,1.7 -1.07,3.4 -1.66,5.08 a 0.32,0.32 0 0 0 -0.17,0.29 0.27,0.27 0 0 0 0,0.12 c -0.05,0.11 -0.09,0.23 -0.13,0.34 -0.64,1.84 -1.36,3.64 -2.11,5.39 -0.75,1.75 -1.37,3.32 -2.07,5 -0.58,1.36 -1.19,2.71 -1.88,4 C 25,74.81 24.49,75.88 24,77 l -1.06,2.44 c -0.29,0.67 -0.58,1.33 -0.82,2 -0.24,0.67 -0.37,1.14 -0.5,1.73 -0.13,0.59 -0.22,1 -0.3,1.5 -0.05,0.21 -0.08,0.43 -0.14,0.65 -0.25,1.06 -0.28,1.6 -0.18,1.68 0.1,0.08 -0.05,0.36 -0.07,0.54 -0.09,0.71 -0.19,1.42 -0.21,2.14 0,0.33 0,0.66 0,1 0,0.34 -0.14,0.49 -0.2,0.74 l -0.06,0.3 h -3 c 2,0.57 3.56,0.41 5.87,6.18 z m 0.58,-4.68 a 0.33,0.33 0 1 0 0,-0.66 0.33,0.33 0 1 0 0,0.66 z m -4.63,-1.69 a 0.61,0.61 0 1 0 0,-1.21 0.61,0.61 0 0 0 0,1.21 z m 3.27,-0.72 a 0.62,0.62 0 0 0 0.61,-0.61 0.6,0.6 0 0 0 -0.61,-0.6 0.59,0.59 0 0 0 -0.6,0.6 0.6,0.6 0 0 0 0.6,0.61 z m -4.27,-1.7 a 0.34,0.34 0 1 0 -0.33,-0.33 0.34,0.34 0 0 0 0.33,0.33 z m 1.52,-0.55 a 0.33,0.33 0 0 0 0.33,-0.33 0.34,0.34 0 0 0 -0.67,0 0.33,0.33 0 0 0 0.34,0.33 z m 5.71,-0.72 a 0.61,0.61 0 1 0 0,-1.21 0.61,0.61 0 0 0 0,1.21 z m 1.42,-1 a 0.33,0.33 0 1 0 -0.33,-0.33 0.33,0.33 0 0 0 0.37,0.3 z m -8.31,-0.66 a 0.61,0.61 0 1 0 -0.61,-0.6 0.6,0.6 0 0 0 0.61,0.57 z M 20,84.37 a 0.61,0.61 0 1 0 -0.61,-0.6 0.6,0.6 0 0 0 0.61,0.6 z m 7.83,-0.24 a 0.33,0.33 0 0 0 0,-0.66 0.33,0.33 0 1 0 0,0.66 z m 4.39,-0.54 a 0.61,0.61 0 0 0 0.6,-0.61 0.61,0.61 0 0 0 -1.21,0 0.61,0.61 0 0 0 0.65,0.61 z m -6.47,-0.73 a 0.6,0.6 0 0 0 0.6,-0.6 0.61,0.61 0 1 0 -1.21,0 0.6,0.6 0 0 0 0.65,0.6 z m 2.37,-0.15 c 0,0 0.7,-0.46 1.82,-1.28 0.47,-0.35 0.94,-0.72 1.44,-1 a 22,22 0 0 1 2.21,-1.18 l 0.46,-0.2 a 0.6,0.6 0 1 0 1.07,0.38 0.59,0.59 0 0 0 -0.57,-0.59 c 0.53,-0.24 1.06,-0.47 1.6,-0.68 L 38,77.42 38.78,77.13 c 2.39,-0.91 3,-1.27 0.62,-0.36 l -0.78,0.3 c -0.61,0.23 -1.21,0.48 -1.82,0.72 -0.87,0.33 -1.72,0.72 -2.56,1.1 a 34.4,34.4 0 0 0 -3.43,1.86 c -0.5,0.31 -1,0.68 -1.44,1 a 13.37,13.37 0 0 0 -1.21,0.93 z m -8.43,-0.63 a 0.61,0.61 0 0 0 0.61,-0.61 0.61,0.61 0 0 0 -1.21,0 0.61,0.61 0 0 0 0.64,0.61 z M 33,81.41 a 0.33,0.33 0 0 0 0.33,-0.33 0.33,0.33 0 0 0 -0.66,0 0.33,0.33 0 0 0 0.33,0.33 z M 22,80.56 A 0.61,0.61 0 1 0 21.39,79.95 0.6,0.6 0 0 0 22,80.56 Z m 3.26,-0.18 a 0.61,0.61 0 0 0 0,-1.21 0.61,0.61 0 1 0 0,1.21 z M 17,79.9 A 0.34,0.34 0 1 0 16.67,79.57 0.33,0.33 0 0 0 17,79.9 Z m 21.11,-1.15 a 0.34,0.34 0 0 0 0,-0.67 0.34,0.34 0 0 0 0,0.67 z m -7.22,-0.06 a 0.61,0.61 0 0 0 0.6,-0.61 0.61,0.61 0 0 0 -1.21,0 0.61,0.61 0 0 0 0.65,0.61 z m 10.67,-0.55 a 0.32,0.32 0 0 0 0.33,-0.33 0.33,0.33 0 0 0 -0.33,-0.33 v 0 a 0.6,0.6 0 0 0 -0.42,-1 0.61,0.61 0 1 0 0,1.21 h 0.17 a 0.34,0.34 0 0 0 0,0.17 0.33,0.33 0 0 0 0.33,0.33 z m 2.09,-1.39 a 0.61,0.61 0 1 0 0,-1.21 0.61,0.61 0 1 0 0,1.21 z m -20.62,0 a 0.61,0.61 0 1 0 -0.61,-0.61 0.6,0.6 0 0 0 0.65,0.61 z m 4.77,-0.06 a 0.61,0.61 0 1 0 0,-1.21 0.61,0.61 0 0 0 0,1.21 z m 17.39,-0.06 a 0.33,0.33 0 1 0 -0.33,-0.33 0.33,0.33 0 0 0 0.37,0.33 z m -13,-0.42 a 0.34,0.34 0 0 0 0,-0.67 0.34,0.34 0 0 0 0,0.67 z m -5.54,-0.4 0.6,-0.85 a 16.79,16.79 0 0 1 1.2,-1.45 0.34,0.34 0 0 0 0.21,0.14 c -0.65,0.67 -1.3,1.33 -1.9,2 l -0.11,0.13 z m 11.5,-0.91 2,-1.1 1.49,-0.8 h 0.17 a 0.6,0.6 0 0 0 0.58,-0.45 c 0.7,-0.39 1.39,-0.79 2.08,-1.19 -0.21,0.13 -1.13,0.64 -2.07,1.17 a 0.59,0.59 0 0 0 0,-0.13 0.61,0.61 0 1 0 -0.8,0.57 l -0.48,0.26 -3,1.67 z M 46,74.81 A 0.33,0.33 0 0 0 46.33,74.48 0.33,0.33 0 0 0 46,74.15 0.33,0.33 0 0 0 45.67,74.48 0.32,0.32 0 0 0 46,74.81 Z m -23.14,-0.9 a 0.61,0.61 0 0 0 0.61,-0.61 0.58,0.58 0 0 0 0,-0.18 h 0.06 a 0.33,0.33 0 0 0 0.34,-0.33 0.34,0.34 0 0 0 -0.34,-0.34 0.34,0.34 0 0 0 -0.33,0.33 0.61,0.61 0 0 0 -0.3,-0.08 0.61,0.61 0 0 0 0,1.21 z m -2,-0.06 a 0.34,0.34 0 0 0 0,-0.67 0.34,0.34 0 0 0 0,0.67 z m 4.21,-2.3 a 0.61,0.61 0 1 0 -0.61,-0.6 0.6,0.6 0 0 0 0.6,0.6 z m 25.56,-0.12 a 0.34,0.34 0 0 0 0,-0.67 0.34,0.34 0 1 0 0,0.67 z M 44.72,71.22 45.63,70.7 A 45.33,45.33 0 0 0 50,67.77 c 0.7,-0.55 1.38,-1.11 2.05,-1.7 a 0.6,0.6 0 0 0 1.16,-0.21 0.62,0.62 0 0 0 -0.34,-0.55 c 0.48,-0.45 0.94,-0.9 1.4,-1.37 0.46,-0.47 0.66,-0.69 1,-1 h 0.05 c 1,-0.88 1.95,-1.74 2.9,-2.65 v 0 a 0.6,0.6 0 0 0 0.6,0.52 0.60101997,0.60101997 0 0 0 0.07,-1.2 13.4,13.4 0 0 0 1.51,-1.85 c 0.57,-0.84 1.13,-1.69 1.68,-2.54 0.55,-0.85 1.08,-1.71 1.61,-2.58 0.3,-0.5 0.6,-1 0.89,-1.51 a 0.49,0.49 0 0 0 0,0.12 0.6,0.6 0 0 0 0.6,0.61 0.61,0.61 0 1 0 0,-1.21 0.59,0.59 0 0 0 -0.42,0.17 c 0.08,-0.15 0.17,-0.3 0.24,-0.45 a 12.16,12.16 0 0 0 0.63,-1.43 5.37,5.37 0 0 1 0.21,-0.56 c 0.14,-0.27 0.25,-0.51 0.34,-0.71 a 0.59,0.59 0 0 0 0.51,-0.59 0.61,0.61 0 0 0 -0.36,-0.56 0.32,0.32 0 0 0 0.24,-0.32 0.33,0.33 0 1 0 -0.51,0.28 0.61,0.61 0 0 0 -0.58,0.6 0.59,0.59 0 0 0 0.34,0.54 c -0.18,0.3 -0.37,0.66 -0.6,1.12 A 5.42,5.42 0 0 0 65,49.3 10.59,10.59 0 0 1 64.39,50.73 c -0.4,0.77 -0.85,1.52 -1.3,2.27 -0.45,0.75 -1.09,1.57 -1.63,2.42 -0.54,0.85 -1.11,1.7 -1.68,2.54 a 11.63,11.63 0 0 1 -1.24,1.56 0.59,0.59 0 0 0 -0.29,0.33 l -0.68,0.69 c -0.55,0.52 -1.1,1 -1.66,1.53 0.78,-1 1.5,-2 2.19,-3 A 24.71,24.71 0 0 0 61,53.35 c 0,-0.1 0.07,-0.21 0.1,-0.31 a 0.62,0.62 0 0 0 0.6,0.49 0.61,0.61 0 0 0 0.6,-0.61 0.6,0.6 0 0 0 -0.6,-0.61 0.58,0.58 0 0 0 -0.41,0.16 28,28 0 0 0 1,-6 27.45,27.45 0 0 0 -0.24,-6.21 c -0.5,-3.86 -1.45,-3.31 -1,0.54 a 27.56,27.56 0 0 1 0.23,6.22 25.81,25.81 0 0 1 -1.27,6.85 25.17,25.17 0 0 1 -2.92,5.76 39.38,39.38 0 0 1 -3.43,4.38 l -2.17,1.89 c -0.52,0.46 -1.08,0.89 -1.62,1.32 -1.91,1.53 -1.31,1.18 0.6,-0.34 0.49,-0.4 1,-0.78 1.48,-1.2 -1,0.9 -2,1.77 -3,2.58 a 42.54,42.54 0 0 1 -4.27,2.88 z m -3.35,-0.15 a 0.34,0.34 0 0 0 0,-0.67 0.34,0.34 0 0 0 0,0.67 z m 6,-0.25 a 0.33,0.33 0 0 0 0.27,-0.33 0.33,0.33 0 1 0 -0.66,0 0.33,0.33 0 0 0 0.33,0.33 z M 34,70.64 a 0.61,0.61 0 1 0 0,-1.21 0.61,0.61 0 0 0 0,1.21 z m 1.84,-0.18 a 0.34,0.34 0 1 0 -0.33,-0.33 0.34,0.34 0 0 0 0.34,0.33 z M 44.63,69 a 0.34,0.34 0 0 0 0,-0.67 0.34,0.34 0 0 0 0,0.67 z m 3,-0.18 a 0.61,0.61 0 0 0 0.61,-0.61 0.62,0.62 0 0 0 -0.61,-0.61 0.6,0.6 0 0 0 -0.6,0.61 0.6,0.6 0 0 0 0.59,0.56 z M 26.28,68.57 a 0.6,0.6 0 0 0 0.6,-0.6 0.61,0.61 0 1 0 -1.21,0 0.6,0.6 0 0 0 0.6,0.55 z m 28.64,-0.6 a 0.33,0.33 0 0 0 0,-0.66 0.33,0.33 0 0 0 0,0.66 z M 33.58,67.8 a 0.61,0.61 0 1 0 -0.6,-0.61 0.61,0.61 0 0 0 0.6,0.61 z m -9,-1 a 0.34,0.34 0 0 0 0,-0.67 0.34,0.34 0 0 0 0,0.67 z M 49,66.71 a 0.61,0.61 0 1 0 0,-1.21 0.61,0.61 0 0 0 0,1.21 z M 27.24,66.1 a 0.6,0.6 0 0 0 0.34,-1.1 0.59,0.59 0 0 0 0,-0.13 0.34,0.34 0 1 0 -0.67,0 0.36,0.36 0 0 0 0,0.1 0.6,0.6 0 0 0 0.29,1.13 z M 40.3,65.56 a 0.61,0.61 0 0 0 0,-1.21 0.61,0.61 0 1 0 0,1.21 z M 29.16,65.34 c 0.14,0 0.42,-0.7 0.65,-1.94 0.23,-1.24 0.47,-2.54 0.61,-3.82 a 36,36 0 0 0 0.21,-4.76 30.24,30.24 0 0 0 -0.34,-3.55 23.89,23.89 0 0 0 -0.44,-2.36 7.25,7.25 0 0 0 -0.29,-0.9 c -1,-2.33 -1.71,-1.95 -0.62,0.36 a 5.73,5.73 0 0 1 0.28,0.89 24,24 0 0 1 0.46,2.36 28.26,28.26 0 0 1 0.32,3.55 36,36 0 0 1 -0.2,4.75 c -0.14,1.28 -0.37,2.55 -0.61,3.82 -0.2,1.1 -0.18,1.61 -0.06,1.6 z m 12.92,0 a 0.34,0.34 0 1 0 -0.33,-0.33 0.34,0.34 0 0 0 0.33,0.31 z M 32.16,65.1 a 0.34,0.34 0 1 0 -0.33,-0.33 0.34,0.34 0 0 0 0.33,0.31 z m 4,-1.09 a 0.61,0.61 0 0 0 0,-1.21 0.61,0.61 0 1 0 0,1.21 z M 53,63.5 a 0.6,0.6 0 0 0 0.6,-0.6 0.61,0.61 0 1 0 -1.21,0 0.6,0.6 0 0 0 0.61,0.6 z m 6.8,-1.39 a 0.34,0.34 0 0 0 0,-0.67 0.34,0.34 0 0 0 0,0.67 z M 48.28,59.27 a 0.61,0.61 0 1 0 -0.6,-0.6 0.6,0.6 0 0 0 0.6,0.6 z m 6.45,-1 a 0.34,0.34 0 0 0 0,-0.67 0.34,0.34 0 1 0 0,0.67 z M 25.3,57.88 a 0.61,0.61 0 1 0 0,-1.21 0.61,0.61 0 0 0 0,1.21 z m 15.31,-0.25 a 0.6,0.6 0 0 0 0.6,-0.6 0.61,0.61 0 1 0 -0.6,0.6 z m 23.31,-0.72 a 0.33,0.33 0 1 0 -0.33,-0.33 0.34,0.34 0 0 0 0.33,0.33 z m -0.75,-0.48 a 0.61,0.61 0 1 0 -0.61,-0.61 0.6,0.6 0 0 0 0.61,0.61 z M 44.35,56.25 a 0.61,0.61 0 1 0 -0.6,-0.61 0.61,0.61 0 0 0 0.6,0.61 z m -10,-0.67 a 0.61,0.61 0 1 0 0,-1.21 0.61,0.61 0 0 0 0,1.21 z M 28.05,53 A 0.34,0.34 0 1 0 27.72,52.66 0.34,0.34 0 0 0 28.05,53 Z m 3.48,-0.13 a 0.6,0.6 0 0 0 0.61,-0.6 0.61,0.61 0 0 0 -0.61,-0.6 0.6,0.6 0 0 0 -0.6,0.6 0.59,0.59 0 0 0 0.6,0.58 z M 58.2,52.7 a 0.61,0.61 0 0 0 0.61,-0.61 0.61,0.61 0 0 0 -1.21,0 0.61,0.61 0 0 0 0.6,0.59 z m -23,-0.61 a 0.34,0.34 0 0 0 0.34,-0.33 0.33,0.33 0 0 0 -0.34,-0.33 0.34,0.34 0 0 0 -0.34,0.33 0.34,0.34 0 0 0 0.39,0.31 z m 8.38,-2.54 a 0.61,0.61 0 0 0 0,-1.21 0.61,0.61 0 1 0 0,1.21 z m 7.13,-0.06 a 0.61,0.61 0 1 0 -0.6,-0.6 0.6,0.6 0 0 0 0.65,0.58 z M 63.3,48.82 a 0.6,0.6 0 0 0 0.6,-0.6 0.61,0.61 0 0 0 -0.6,-0.61 0.62,0.62 0 0 0 -0.61,0.61 0.6,0.6 0 0 0 0.66,0.58 z m -30.2,-0.5 a 0.61,0.61 0 1 0 -0.6,-0.61 0.6,0.6 0 0 0 0.6,0.61 z m 15.37,-0.06 a 0.61,0.61 0 1 0 -0.61,-0.6 0.6,0.6 0 0 0 0.61,0.6 z M 36.34,46.93 A 0.33,0.33 0 0 0 36.67,46.6 0.32,0.32 0 0 0 36.34,46.27 0.34,0.34 0 0 0 36,46.6 a 0.34,0.34 0 0 0 0.34,0.33 z m -8.72,-1 A 0.33,0.33 0 1 0 27.29,45.6 0.34,0.34 0 0 0 27.62,46 Z m 22,-0.12 a 0.33,0.33 0 1 0 -0.33,-0.33 0.34,0.34 0 0 0 0.29,0.36 z m 9.71,-0.54 a 0.61,0.61 0 0 0 0.61,-0.61 0.61,0.61 0 0 0 -1.21,0 0.61,0.61 0 0 0 0.56,0.64 z m -16,-0.24 a 0.34,0.34 0 1 0 -0.34,-0.34 0.34,0.34 0 0 0 0.25,0.37 z M 67,44.51 A 0.33,0.33 0 1 0 66.66,44.18 0.33,0.33 0 0 0 67,44.51 Z M 44,44.39 a 0.61,0.61 0 0 0 0,-1.21 0.61,0.61 0 1 0 0,1.21 z m 9.68,-0.18 a 0.6,0.6 0 0 0 0.6,-0.61 0.6,0.6 0 0 0 -0.6,-0.6 0.61,0.61 0 0 0 -0.61,0.6 0.62,0.62 0 0 0 0.6,0.61 z m 4.14,-0.85 a 0.34,0.34 0 1 0 -0.33,-0.33 0.34,0.34 0 0 0 0.32,0.33 z m 9,-0.18 a 0.61,0.61 0 1 0 -0.61,-0.61 0.6,0.6 0 0 0 0.65,0.61 z m -32,0 a 0.35,0.35 0 0 0 0.26,-0.34 0.34,0.34 0 0 0 -0.67,0 0.34,0.34 0 0 0 0.34,0.34 z m 27.81,-1 a 0.33,0.33 0 0 0 0.33,-0.33 0.33,0.33 0 1 0 -0.66,0 0.33,0.33 0 0 0 0.35,0.36 z M 38.41,41.58 A 0.61,0.61 0 0 0 39,41 0.6,0.6 0 0 0 38.4,40.4 0.6,0.6 0 0 0 37.79,41 0.62,0.62 0 0 0 38.43,41.61 Z M 58.88,41.1 a 0.34,0.34 0 0 0 0.34,-0.34 0.34,0.34 0 1 0 -0.67,0 0.34,0.34 0 0 0 0.35,0.37 z M 49,40.28 a 0.62,0.62 0 0 0 0.61,-0.61 c 0,0 0,0 0,0 a 0.29,0.29 0 0 0 0.16,0 0.34,0.34 0 1 0 -0.32,-0.42 0.63,0.63 0 0 0 -0.44,-0.18 0.6,0.6 0 0 0 -0.6,0.6 0.61,0.61 0 0 0 0.59,0.61 z m 6.5,-0.73 a 0.34,0.34 0 1 0 -0.33,-0.33 0.34,0.34 0 0 0 0.28,0.33 z m 10.29,-0.12 a 0.34,0.34 0 1 0 -0.33,-0.33 0.33,0.33 0 0 0 0.28,0.33 z m -2.57,-0.07 a 0.6,0.6 0 0 0 0.61,-0.6 0.61,0.61 0 0 0 -0.61,-0.6 0.6,0.6 0 0 0 -0.61,0.6 0.6,0.6 0 0 0 0.56,0.6 z M 37.93,39.19 a 0.61,0.61 0 0 0 0.61,-0.61 0.61,0.61 0 0 0 -1.21,0 0.61,0.61 0 0 0 0.55,0.61 z M 43,38.52 a 0.61,0.61 0 1 0 0,-1.21 0.6,0.6 0 0 0 -0.56,0.4 0.33,0.33 0 0 0 -0.1,0.23 0.33,0.33 0 0 0 0.15,0.28 0.58,0.58 0 0 0 0.51,0.3 z M 56.57,38 a 0.62,0.62 0 0 0 0.61,-0.61 0.61,0.61 0 0 0 -0.61,-0.6 0.6,0.6 0 0 0 -0.6,0.6 0.61,0.61 0 0 0 0.6,0.61 z M 34.25,37.39 a 0.61,0.61 0 0 0 0.61,-0.6 0.62,0.62 0 0 0 -0.61,-0.61 0.61,0.61 0 0 0 -0.6,0.61 0.6,0.6 0 0 0 0.6,0.58 z m 10.2,-1.87 a 0.34,0.34 0 0 0 0,-0.67 0.34,0.34 0 1 0 0,0.67 z M 64.83,35.4 a 0.34,0.34 0 0 0 0,-0.67 0.34,0.34 0 0 0 0,0.67 z M 37.18,35.33 a 0.33,0.33 0 0 0 0.34,-0.33 0.34,0.34 0 0 0 -0.67,0 0.33,0.33 0 0 0 0.33,0.31 z m 23.41,-1.39 a 0.34,0.34 0 0 0 0.34,-0.33 0.34,0.34 0 0 0 -0.67,0 0.33,0.33 0 0 0 0.33,0.31 z m 1.3,-0.48 a 0.61,0.61 0 1 0 -0.6,-0.61 0.61,0.61 0 0 0 0.6,0.59 z M 40.15,32.73 a 0.33,0.33 0 1 0 0,-0.66 0.33,0.33 0 1 0 0,0.66 z m 2.75,-0.24 a 0.6,0.6 0 0 0 0.6,-0.6 0.6,0.6 0 0 0 -0.6,-0.61 0.61,0.61 0 0 0 -0.6,0.61 0.6,0.6 0 0 0 0.6,0.58 z m -5.2,-1 a 0.6,0.6 0 0 0 0.61,-0.6 0.61,0.61 0 1 0 -1.22,0 0.6,0.6 0 0 0 0.61,0.61 z m 17.45,-0.17 a 0.34,0.34 0 0 0 0.33,-0.34 0.33,0.33 0 1 0 -0.66,0 0.34,0.34 0 0 0 0.33,0.35 z m -7.83,-0.07 a 0.61,0.61 0 1 0 -0.61,-0.61 0.6,0.6 0 0 0 0.61,0.62 z m 10.43,-0.61 a 0.33,0.33 0 0 0 0.33,-0.33 0.33,0.33 0 0 0 -0.66,0 0.33,0.33 0 0 0 0.33,0.34 z M 46.08,29.27 a 0.34,0.34 0 0 0 0,-0.67 0.34,0.34 0 0 0 0,0.67 z m -13,-0.19 a 0.6,0.6 0 0 0 0.6,-0.6 0.59,0.59 0 0 0 -0.6,-0.6 0.6,0.6 0 0 0 -0.6,0.6 0.6,0.6 0 0 0 0.62,0.6 z m 22.78,-1.44 a 0.34,0.34 0 1 0 -0.34,-0.34 0.34,0.34 0 0 0 0.36,0.34 z M 58,27.21 A 0.61,0.61 0 1 0 57.39,26.6 0.6,0.6 0 0 0 58,27.21 Z M 32.28,26.3 A 0.34,0.34 0 1 0 32,26 0.34,0.34 0 0 0 32.28,26.3 Z M 58.05,25 a 0.33,0.33 0 0 0 0.34,-0.33 0.34,0.34 0 0 0 -0.67,0 0.33,0.33 0 0 0 0.33,0.33 z M 41.42,24.09 a 0.33,0.33 0 0 0 0,-0.66 0.33,0.33 0 0 0 0,0.66 z m -8.53,-1.63 a 0.34,0.34 0 1 0 -0.33,-0.33 0.33,0.33 0 0 0 0.33,0.36 z m 1.69,-1.21 a 0.34,0.34 0 1 0 -0.33,-0.33 0.33,0.33 0 0 0 0.33,0.36 z"
       style="fill:url(#radial-gradient-4)" />
    <g
       id="use74228">
      <g
         id="g74116">
        <path
           id="path74118"
           class="cls-9"
           d="m 17.54,94.38 a 1.35,1.35 0 0 0 -1.21,1.45 1.93,1.93 0 0 0 0.26,1 1.61,1.61 0 0 0 -0.95,-0.31 1.31,1.31 0 1 0 0,2.62 1.55,1.55 0 0 0 1.48,-1.14 4,4 0 0 1 0.15,1 3.61,3.61 0 0 1 -0.72,2.21 h 2.06 A 3.56,3.56 0 0 1 17.84,99 a 3.82,3.82 0 0 1 0.14,-1 1.47,1.47 0 0 0 1.49,1.16 1.31,1.31 0 1 0 0,-2.62 1.62,1.62 0 0 0 -1,0.36 2,2 0 0 0 0.27,-1 1.35,1.35 0 0 0 -1.22,-1.45 z"
           style="fill:url(#linear-gradient-3)" />
      </g>
    </g>
    <g
       id="use81514">
      <path
         id="path72947"
         class="cls-10"
         d="m 47.93,27.44 c 0,0 -0.07,0 -0.11,0.32 -0.04,0.32 0,2.7 -0.1,3.21 L 45.14,31.4 45,30.79 h 0.21 a 0.23,0.23 0 0 0 0.21,-0.25 0.24,0.24 0 0 0 -0.26,-0.21 v 0 h -0.29 c -0.16,-0.48 -0.33,-0.93 -0.43,-0.91 -0.1,0.02 -0.13,0.49 -0.13,1 l -0.46,0.06 a 0.25,0.25 0 0 0 -0.19,0.14 0.26,0.26 0 0 0 0,0.24 0.23,0.23 0 0 0 0.22,0.08 l 0.41,-0.05 c 0,0.36 0,0.66 0,0.66 l -3.13,0.51 c 0,0 -0.08,-0.25 -0.19,-0.57 h 0.28 a 0.25,0.25 0 0 0 0,-0.5 v 0 h -0.39 c -0.2,-0.53 -0.44,-1.07 -0.58,-1 C 40.14,30.06 40,30.54 40,31.1 h -0.42 a 0.24,0.24 0 0 0 -0.17,0.4 0.23,0.23 0 0 0 0.23,0.09 H 40 c 0,0.36 0,0.64 0,0.64 l -3.21,0.52 c 0,0 -0.07,-0.25 -0.17,-0.58 h 0.27 A 0.24,0.24 0 0 0 37.1,31.92 0.25,0.25 0 0 0 36.84,31.7 v 0 H 36.5 c -0.17,-0.49 -0.35,-1 -0.45,-1 -0.1,0 -0.13,0.52 -0.13,1 l -0.39,0.06 a 0.23,0.23 0 0 0 -0.19,0.14 0.24,0.24 0 0 0 0,0.23 0.24,0.24 0 0 0 0.22,0.09 h 0.34 c 0,0.35 0,0.62 0,0.62 l -2.46,0.41 c -0.26,-0.44 -0.66,-1.14 -0.81,-1.43 -0.15,-0.29 -0.17,-0.29 -0.19,-0.28 -0.02,0.01 0,0 0,0 l 0.35,2.2 0.39,1.11 c 0.1,0.63 0.56,1.08 0.86,1 h 0.17 a 4.12,4.12 0 0 1 -0.84,0.38 c -1.52,0.54 -1.3,1.51 -2.28,2.16 -0.98,0.65 -2.38,4.44 -2.7,8.56 -0.32,4.12 1.41,7.47 3.46,8.34 a 3.39,3.39 0 0 1 2.28,2.81 c 0.21,0.65 0.43,1.52 1.08,1.73 0.65,0.21 0.76,0 0.32,0.76 -0.44,0.76 -1.19,1 -2.49,2.28 -1.3,1.28 -2.16,4.22 -2.7,4 -0.54,-0.22 -1.2,0.54 -1.74,1.19 -0.54,0.65 -3,3.36 -3.46,5.2 -0.46,1.84 5.3,-1.41 11.15,8 5.85,9.41 19.44,11.04 19.44,8.98 0,-2.06 -6.58,-12.1 -7.48,-13.59 a 45.33,45.33 0 0 1 -2.92,-5.46 c -0.57,-1.49 -1,-1.9 -0.95,-2.28 a 52.23,52.23 0 0 1 3.25,-5.36 18.44,18.44 0 0 1 2.6,-3.33 c 0.52,-0.32 4,-0.43 4.47,-0.49 a 2.35,2.35 0 0 0 1.76,-0.81 2.17,2.17 0 0 0 0.24,-2.14 2.8,2.8 0 0 1 -0.35,-1.43 c 0,-0.57 0.27,-0.71 0.4,-0.79 A 1,1 0 0 0 57,53.78 c 0,-0.3 -0.44,-0.49 -0.46,-0.6 -0.02,-0.11 0.43,-0.41 0.43,-0.68 a 9.36,9.36 0 0 0 -0.13,-1 1.63,1.63 0 0 1 0.24,-1.17 c 0.11,-0.19 0.84,-0.43 1.3,-0.78 a 1.38,1.38 0 0 0 0.6,-1.3 c -0.09,-0.46 -0.9,-1 -1.33,-1.41 -0.43,-0.41 -1.33,-1.14 -1.9,-1.54 a 2,2 0 0 1 -0.67,-0.71 h 0.15 c 0.15,0 0.43,0.06 0.32,0 -0.11,-0.06 -0.14,0 -0.27,0 -0.13,0 -0.06,-0.12 0,-0.15 0.06,-0.03 0.4,-0.22 0.26,-0.17 -0.14,0.05 -0.23,0 -0.17,-0.1 A 0.64,0.64 0 0 1 55.54,44 0.75,0.75 0 0 0 55.28,44.19 c 0,0 0.07,-0.21 0.14,-0.29 a 0.36,0.36 0 0 0 -0.15,0.18 0.65,0.65 0 0 1 -0.34,0.31 c -0.07,-0.15 -0.16,-0.33 -0.26,-0.56 -0.14,-0.49 0,-0.45 0.15,-0.76 0.15,-0.31 0.23,-0.34 0,-0.65 a 4.66,4.66 0 0 1 -0.46,-1.19 c -0.11,-0.34 0.39,0.39 0.46,0.65 a 4.12,4.12 0 0 0 -0.1,-2.35 8,8 0 0 0 -6.39,-5.74 h -0.31 a 1.2,1.2 0 0 0 0.44,-1.25 V 31.43 L 48,27.46 v 0 z m 7.52,16.39 v 0 c 0,0 0.03,-0.04 0,0 z"
         style="fill:url(#linear-gradient-4)" />
    </g>
    <g
       id="use81696">
      <g
         id="g72933">
        <path
           id="path72935"
           class="cls-11"
           d="m 22.74,18.81 a 2.81,2.81 0 0 0 -2.52,3 4,4 0 0 0 0.54,1.95 3.45,3.45 0 0 0 -2,-0.64 2.73,2.73 0 1 0 0,5.45 3.23,3.23 0 0 0 3.08,-2.38 8.29,8.29 0 0 1 0.3,2.2 7.44,7.44 0 0 1 -1.5,4.6 H 25 a 7.38,7.38 0 0 1 -1.59,-4.7 8,8 0 0 1 0.28,-2.12 3.07,3.07 0 0 0 3.1,2.4 2.73,2.73 0 1 0 0,-5.45 3.34,3.34 0 0 0 -2,0.75 4.15,4.15 0 0 0 0.55,-2.06 2.81,2.81 0 0 0 -2.52,-3 z"
           style="fill:url(#linear-gradient-5)" />
      </g>
    </g>
    <path
       id="use4738"
       class="cls-12"
       d="m 69.1,23.93 a 3.71,3.71 0 0 1 -3,-1.69 3,3 0 0 0 1.66,-0.78 3.81,3.81 0 0 0 1.24,-3 3.63,3.63 0 1 0 -7.25,0 3.83,3.83 0 0 0 1,2.71 3.12,3.12 0 0 0 1.57,1 l 0.52,0.61 a 5,5 0 0 0 3.86,1.36 h 0.46 v -0.2 m -3.74,-8.86 a 2.12,2.12 0 0 1 1.37,0.55 3.87,3.87 0 0 1 1,2.85 4.61,4.61 0 0 1 -0.77,2.74 2.14,2.14 0 0 1 -1.59,0.71 2.11,2.11 0 0 1 -1.42,-0.54 4,4 0 0 1 -1.01,-2.94 4.41,4.41 0 0 1 0.78,-2.66 2.11,2.11 0 0 1 1.62,-0.72"
       style="fill:url(#linear-gradient-6)" />
  </g>
  <metadata
     id="metadata1">
    <rdf:RDF>
      <cc:Work
         rdf:about="">
        <dc:title>Queen of Clubs</dc:title>
      </cc:Work>
    </rdf:RDF>
  </metadata>
</svg>
