<?xml version="1.0" encoding="UTF-8" standalone="no"?>
<svg
   id="svg2"
   viewBox="0 0 84 119"
   version="1.1"
   sodipodi:docname="AD.svg"
   inkscape:version="1.3.2 (091e20e, 2023-11-25, custom)"
   xmlns:inkscape="http://www.inkscape.org/namespaces/inkscape"
   xmlns:sodipodi="http://sodipodi.sourceforge.net/DTD/sodipodi-0.dtd"
   xmlns:xlink="http://www.w3.org/1999/xlink"
   xmlns="http://www.w3.org/2000/svg"
   xmlns:svg="http://www.w3.org/2000/svg">
  <sodipodi:namedview
     id="namedview6"
     pagecolor="#ffffff"
     bordercolor="#000000"
     borderopacity="0.25"
     inkscape:showpageshadow="2"
     inkscape:pageopacity="0.0"
     inkscape:pagecheckerboard="0"
     inkscape:deskcolor="#d1d1d1"
     inkscape:zoom="15.285714"
     inkscape:cx="41.96729"
     inkscape:cy="59.5"
     inkscape:window-width="3840"
     inkscape:window-height="2054"
     inkscape:window-x="-11"
     inkscape:window-y="-11"
     inkscape:window-maximized="1"
     inkscape:current-layer="svg2" />
  <defs
     id="defs6">
    <style
       id="style1">
      .cls-1 {
        filter: url(#filter63625-2);
      }

      .cls-2 {
        stroke: #000;
        fill: url(#linear-gradient);
      }

      .cls-2, .cls-6 {
        stroke-miterlimit: 10;
        stroke-width: 0.23px;
      }

      .cls-3 {
        fill: url(#linear-gradient-2);
      }

      .cls-4 {
        opacity: 0.47;
        fill: url(#radial-gradient);
      }

      .cls-10, .cls-4, .cls-5 {
        isolation: isolate;
      }

      .cls-5 {
        opacity: 0.4;
        fill: url(#radial-gradient-2);
      }

      .cls-6 {
        fill: none;
      }

      .cls-6, .cls-8 {
        stroke: #fff;
      }

      .cls-11, .cls-7 {
        stroke: #c8c8c8;
        stroke-linejoin: round;
      }

      .cls-7 {
        stroke-width: 0.17px;
        fill: url(#linear-gradient-3);
      }

      .cls-8 {
        stroke-width: 0.49px;
        fill: url(#linear-gradient-4);
      }

      .cls-9 {
        fill: url(#radial-gradient-3);
      }

      .cls-10 {
        opacity: 0.4;
        fill: url(#radial-gradient-4);
      }

      .cls-11 {
        stroke-width: 0.59px;
        fill: url(#linear-gradient-5);
      }
    </style>
    <filter
       id="filter63625-2"
       name="filter63625-2"
       x="-0.12863863"
       y="-0.090976911"
       width="1.2572773"
       height="1.1819538">
      <feGaussianBlur
         result="feGaussianBlur63627-6"
         stdDeviation="3.76"
         id="feGaussianBlur1" />
    </filter>
    <linearGradient
       id="linear-gradient"
       x1="-1329.74"
       y1="-2391.37"
       x2="-1320.25"
       y2="-1876.86"
       gradientTransform="matrix(0.23, 0, 0, -0.23, 343.45, -506.28)"
       gradientUnits="userSpaceOnUse">
      <stop
         offset="0"
         stop-color="#f3f3f3"
         id="stop1" />
      <stop
         offset="1"
         stop-color="#8f8f8f"
         id="stop2" />
    </linearGradient>
    <linearGradient
       id="linear-gradient-2"
       x1="-1742.48"
       y1="-2162.13"
       x2="-1610.19"
       y2="-2599.84"
       gradientTransform="matrix(0.24, 0, 0, -0.24, 445.09, -495.61)"
       gradientUnits="userSpaceOnUse">
      <stop
         offset="0"
         stop-color="#590000"
         id="stop3" />
      <stop
         offset="1"
         stop-color="#bf0303"
         id="stop4" />
    </linearGradient>
    <radialGradient
       id="radial-gradient"
       cx="2557.73"
       cy="6257.49"
       r="58.68"
       gradientTransform="matrix(-0.23, 0, 0, 0.21, 594.56, -1195.61)"
       gradientUnits="userSpaceOnUse">
      <stop
         offset="0"
         stop-color="#fff"
         id="stop5" />
      <stop
         offset="1"
         stop-color="#fff"
         stop-opacity="0"
         id="stop6" />
    </radialGradient>
    <radialGradient
       id="radial-gradient-2"
       cx="-1312.11"
       cy="-1356.73"
       r="63.15"
       gradientTransform="matrix(0.23, 0, 0, -0.36, 372.07, -466.38)"
       xlink:href="#radial-gradient" />
    <linearGradient
       id="linear-gradient-3"
       x1="-8707.91"
       y1="-12838.47"
       x2="-8707.91"
       y2="-12781.33"
       gradientTransform="matrix(0.06, 0, 0, -0.06, 509.01, -651.2)"
       xlink:href="#linear-gradient" />
    <linearGradient
       id="linear-gradient-4"
       x1="198.33"
       y1="749.8"
       x2="198.33"
       y2="755.61"
       gradientTransform="matrix(1, 0, 0, -1, -131.57, 771.49)"
       xlink:href="#linear-gradient" />
    <radialGradient
       id="radial-gradient-3"
       cx="719.91"
       cy="1201.62"
       r="25.37"
       gradientTransform="matrix(0.83, 0.56, 2.15, -3.16, -3153.55, 3478.38)"
       xlink:href="#radial-gradient" />
    <radialGradient
       id="radial-gradient-4"
       cx="124.67"
       cy="-95.59"
       r="26.74"
       gradientTransform="matrix(0.61, 0, 0, -0.61, -33.72, 0.15)"
       xlink:href="#radial-gradient" />
    <linearGradient
       id="linear-gradient-5"
       x1="-2599.16"
       y1="-3057.84"
       x2="-2599.16"
       y2="-3000.73"
       gradientTransform="matrix(0.19, 0, 0, -0.2, 547.21, -551.54)"
       xlink:href="#linear-gradient" />
  </defs>
  <title
     id="title6">Ace of Diamonds</title>
  <g
     id="_1_diamond"
     data-name="1_diamond">
    <g
       id="use70721">
      <g
         id="g65535">
        <rect
           id="rect65539"
           class="cls-2"
           x="7.14"
           y="9.33"
           width="70.15"
           height="99.19"
           rx="3.97"
           ry="3.97" />
        <rect
           id="rect65541"
           class="cls-3"
           x="10.74"
           y="12"
           width="63.24"
           height="92.26"
           rx="1.29"
           ry="1.29" />
        <rect
           id="rect65543"
           class="cls-4"
           x="10.84"
           y="79.85"
           width="26.55"
           height="24.28"
           rx="1.04"
           ry="1.04" />
        <rect
           id="rect65545"
           class="cls-5"
           x="44.8"
           y="11.87"
           width="29.28"
           height="45.27" />
        <path
           id="path65547"
           class="cls-6"
           d="M25.71,100.24H70.42V26.63M58.85,16H14.3V89.21" />
      </g>
    </g>
    <g
       id="use74178">
      <path
         id="path74110"
         class="cls-7"
         d="M17.88,93.42A18.28,18.28,0,0,0,21,96.94a18.14,18.14,0,0,0-1.65,1.63,19.76,19.76,0,0,0-1.43,1.86,20.23,20.23,0,0,0-1.45-1.88,19.58,19.58,0,0,0-1.68-1.65,19.07,19.07,0,0,0,1.67-1.62,19.76,19.76,0,0,0,1.43-1.86Z" />
    </g>
    <g
       id="use7055">
      <path
         id="text6966"
         class="cls-8"
         d="M70.59,23.15c-.49,0-.61-.14-1-1l-2.76-6.3h-.23l-2.3,5.44c-.71,1.62-.85,1.8-1.38,1.82v.21h2.2v-.21c-.53,0-.76-.14-.76-.45a1.44,1.44,0,0,1,.09-.44L65,21h2.91L68.33,22a2,2,0,0,1,.21.75c0,.27-.19.36-.77.37v.21h2.82v-.21m-5.43-2.64,1.28-3.05,1.28,3.05H65.16" />
    </g>
    <path
       id="path4071"
       class="cls-9"
       d="M23.49,97c.53-.9-1.57-4.1-1.84-5.3a1.7,1.7,0,0,1-.06-.31,4.55,4.55,0,0,1,0-.52,4.64,4.64,0,0,1,.13-.91.33.33,0,0,0,.16-.6l.21-.69a9.11,9.11,0,0,1,.6-1.44c.32-.61.71-1.18,1.09-1.76.12-.18.25-.36.38-.53h.1a.6.6,0,0,0,.61-.6.5.5,0,0,0-.06-.24c.15-.18.3-.37.46-.54a27.32,27.32,0,0,1,2.13-2c.81-.75,1.67-1.43,2.53-2.1,1-.8,2.12-1.51,3.21-2.22s2.08-1.31,3.13-2l.15,0a.61.61,0,0,0,0-1.21.61.61,0,0,0-.61.6.6.6,0,0,0,.44.58l-.29.17c-1.29.77-2.56,1.55-3.82,2.36-1.09.71-2.19,1.42-3.22,2.23-.87.67-1.72,1.36-2.53,2.1-.62.56-1.24,1.12-1.82,1.72a.65.65,0,0,0-.31-.08.61.61,0,0,0-.61.6.62.62,0,0,0,.12.36,16.5,16.5,0,0,0-1,1.36,17.75,17.75,0,0,0-1.09,1.76,2.92,2.92,0,0,0-.14.31c0-.61.1-1.22.18-1.83a16.57,16.57,0,0,1,.52-2.52,15.31,15.31,0,0,1,.83-2.2A13,13,0,0,0,23.89,80c.05-.12.09-.25.14-.37a.36.36,0,0,1,0-.09c.43-.79.88-1.56,1.33-2.33l.09-.14.51-.7c.5-.64,1-1.25,1.54-1.87.68-.78,1.4-1.52,2.13-2.25s1.67-1.62,2.53-2.41,1.87-1.65,2.8-2.49l3-2.63c1.12-1,2.21-2,3.28-3,.58-.55,1.14-1.1,1.7-1.65a10.71,10.71,0,0,0,1.68-1.33c1.11-.94,2.23-1.86,3.39-2.74a15.89,15.89,0,0,1,2.27-1.56l.5-.22a.52.52,0,0,0,0,.18.61.61,0,1,0,1.21,0,.59.59,0,0,0-.15-.39c2.23-.16,2.69-.49.27-.33a1.82,1.82,0,0,0-.57.13h-.16a.59.59,0,0,0-.53.33,21.16,21.16,0,0,0-3.41,2.21c-1.15.87-2.27,1.8-3.37,2.74-.46.39-.76.66-.94.83l1.72-1.73c1.25-1.26,2.43-2.58,3.58-3.93.71-.85,1.4-1.73,2.06-2.61a.62.62,0,0,0,.47.22.6.6,0,0,0,.6-.61.6.6,0,0,0-.36-.55c.3-.41.6-.81.89-1.22A56.29,56.29,0,0,0,55.55,44a35.88,35.88,0,0,0,2.78-6.24,54,54,0,0,0,1.13-5.8c.37-2.33-.21-2-.58.34a53.82,53.82,0,0,1-1.13,5.79A35.92,35.92,0,0,1,55,44.3c-.08.15-.17.29-.26.44a.32.32,0,0,0-.32-.26.34.34,0,1,0,0,.67l.11,0a52.87,52.87,0,0,1-3,4.63l-.6.84a.6.6,0,0,0-.55.59.5.5,0,0,0,0,.12c-.82,1.1-1.65,2.17-2.53,3.22-1.15,1.35-2.32,2.67-3.57,3.93S41.9,60.85,40.68,62s-2.17,2-3.29,3-2,1.75-3,2.64-1.87,1.66-2.8,2.49S30,71.6,29.23,72.37a.35.35,0,0,0-.16-.2c.3-.31.6-.61.91-.91,1-.94,2-1.85,3-2.8,1.18-1.11,2.33-2.25,3.47-3.4a39.09,39.09,0,0,0,3.62-4.2,47.71,47.71,0,0,0,3.29-5.4,35.94,35.94,0,0,0,2.65-6.11,41.51,41.51,0,0,0,1.36-7,54.93,54.93,0,0,0,.08-6,.61.61,0,0,0,.2-.45.6.6,0,0,0-.24-.48c0-.25,0-.49,0-.74,0-.42,0-.83,0-1.25-.09-2.35-.66-2-.57.33,0,.42,0,.83,0,1.25,0,.11,0,.22,0,.33a.59.59,0,0,0,0,1.13c0,1,.05,2.07.05,3.11a.59.59,0,0,0-.23,0,.6.6,0,0,0-.61.6.61.61,0,0,0,.61.61.78.78,0,0,0,.21,0c0,.66,0,1.34-.1,2-.19,1.51-.42,3-.74,4.51,0-.71,0-1.42,0-2.13a49.81,49.81,0,0,0-.37-5,26.23,26.23,0,0,0-.68-3.4A10.84,10.84,0,0,0,44.48,35a1.56,1.56,0,0,0-.26-.45c-1.91-1.71-2.55-1.32-.63.37.14.11.18.29.27.43A9.86,9.86,0,0,1,44.43,37a26.14,26.14,0,0,1,.7,3.39c.22,1.68.33,3.36.39,5.05,0,.93,0,1.87,0,2.81a7,7,0,0,0,0,1.22,1.55,1.55,0,0,0-.07.23c-.39,1.15-.82,2.28-1.31,3.39a.61.61,0,1,0-.52.91l.12,0c-.3.62-.61,1.23-.94,1.83a46.5,46.5,0,0,1-3.3,5.41,39.09,39.09,0,0,1-3.62,4.2c-1.14,1.15-2.29,2.3-3.48,3.41-1,.94-2,1.86-3,2.8l-.52.52a.34.34,0,0,0-.28.28,19.78,19.78,0,0,0-1.76,2c-.67.94-1.33,1.89-1.91,2.89-.21.3-.42.6-.61.92s-.41.65-.58,1a6.43,6.43,0,0,0-.32.71v0c-.16.3-.33.61-.48.92s-.4.84-.58,1.26a1.55,1.55,0,0,1,0-.21,18.09,18.09,0,0,1,.5-1.74c.24-.68.52-1.34.81-2l1.06-2.43c.49-1.1,1-2.17,1.57-3.23.69-1.31,1.3-2.66,1.88-4,.69-1.66,1.37-3.32,2.06-5s1.41-3.43,2.07-5.16a.33.33,0,0,0,.25-.32.32.32,0,0,0-.06-.2c.65-1.82,1.24-3.66,1.8-5.51C35,50.2,35.52,48,36,45.83a42.61,42.61,0,0,0,.51-7.74c-.08-2.63-.38-5.25-.7-7.87-.2-1.57-.44-3.14-.68-4.71a5.23,5.23,0,0,0-.36-1.39.71.71,0,0,0,.2,0,.61.61,0,0,0,.6-.61.61.61,0,0,0-1.21,0,.63.63,0,0,0,.17.42,3.7,3.7,0,0,0,0,1.88c.11.69.21,1.39.32,2.08a.38.38,0,0,0-.24-.08.33.33,0,1,0,0,.66.34.34,0,0,0,.3-.18q.16,1.11.3,2.22c0,.19.05.38.07.57a.6.6,0,0,0-.27-.07.61.61,0,1,0,.39,1.06c.25,2.1.46,4.2.53,6.31a42.8,42.8,0,0,1-.53,7.75c-.44,2.2-1,4.37-1.65,6.52-.52,1.7-1.06,3.4-1.66,5.08a.31.31,0,0,0-.16.29.25.25,0,0,0,0,.12l-.13.34q-1,2.7-2.13,5.36-1,2.48-2.08,5c-.58,1.35-1.19,2.7-1.88,4-.54,1.07-1.09,2.14-1.57,3.23-.36.81-.72,1.63-1.07,2.44s-.58,1.33-.81,2a16.61,16.61,0,0,0-.51,1.74c-.1.49-.21,1-.3,1.49,0,.22-.08.43-.13.65-.26,1.06-.29,1.6-.19,1.68s-.05.36-.07.55a18.73,18.73,0,0,0-.2,2.13c0,.33,0,.66,0,1s-.15.49-.21.74l-.06.3h-3c2,.58,3.55.41,5.86,6.18Zm.58-4.67a.34.34,0,1,0,0-.67.34.34,0,0,0,0,.67Zm-4.63-1.69a.61.61,0,0,0,.61-.61.61.61,0,1,0-.61.61Zm3.27-.73a.62.62,0,0,0,.61-.61.61.61,0,0,0-.61-.6.6.6,0,0,0-.6.6A.6.6,0,0,0,22.71,89.91Zm-4.26-1.7a.33.33,0,0,0,.33-.33.34.34,0,0,0-.67,0A.34.34,0,0,0,18.45,88.21ZM20,87.67A.34.34,0,0,0,20,87a.34.34,0,0,0,0,.67ZM25.67,87a.62.62,0,0,0,.61-.61.6.6,0,0,0-.61-.6.6.6,0,0,0-.6.6A.61.61,0,0,0,25.67,87Zm1.42-1a.33.33,0,0,0,0-.66.33.33,0,0,0,0,.66Zm-8.31-.66a.61.61,0,1,0-.61-.6A.6.6,0,0,0,18.78,85.25Zm1.39-1.75a.61.61,0,0,0,.6-.61.6.6,0,0,0-.6-.6.6.6,0,0,0-.61.6A.62.62,0,0,0,20.17,83.5ZM28,83.25a.33.33,0,0,0,.34-.33.34.34,0,0,0-.67,0A.33.33,0,0,0,28,83.25Zm4.39-.54a.61.61,0,1,0,0-1.21.61.61,0,1,0,0,1.21ZM25.92,82a.6.6,0,0,0,.6-.6.61.61,0,1,0-1.21,0A.6.6,0,0,0,25.92,82Zm2.37-.15s.71-.46,1.82-1.28c.48-.35.94-.71,1.44-1a22.34,22.34,0,0,1,2.21-1.17l.47-.21a.58.58,0,0,0-.15.38.61.61,0,1,0,1.21,0,.59.59,0,0,0-.57-.59c.53-.23,1.06-.47,1.6-.67s1.21-.49,1.82-.72l.77-.29c2.39-.92,3-1.28.63-.37l-.79.3-1.82.72c-.86.34-1.72.72-2.56,1.1A31.44,31.44,0,0,0,31,79.88c-.51.3-1,.67-1.45,1-.86.64-1.23.93-1.21.93Zm-8.42-.63a.61.61,0,0,0,.6-.61.61.61,0,0,0-1.21,0A.61.61,0,0,0,19.87,81.2Zm13.21-.67a.33.33,0,1,0-.33-.33A.33.33,0,0,0,33.08,80.53Zm-11-.85a.6.6,0,0,0,.6-.6.61.61,0,0,0-1.21,0A.6.6,0,0,0,22.11,79.68Zm3.26-.18a.6.6,0,0,0,.6-.6.6.6,0,0,0-.6-.61.61.61,0,0,0-.6.61A.6.6,0,0,0,25.37,79.5ZM17.17,79a.33.33,0,0,0,.33-.33.32.32,0,0,0-.33-.33.33.33,0,0,0-.33.33A.33.33,0,0,0,17.17,79Zm21.11-1.15a.34.34,0,1,0-.33-.33A.34.34,0,0,0,38.28,77.87Zm-7.22-.06a.61.61,0,1,0-.61-.61A.6.6,0,0,0,31.06,77.81Zm10.67-.54a.34.34,0,1,0,0-.67h0a.63.63,0,0,0,.17-.42.6.6,0,0,0-.6-.61.61.61,0,1,0,0,1.21l.17,0a.33.33,0,0,0,.28.51Zm2.09-1.4a.61.61,0,1,0-.61-.6A.61.61,0,0,0,43.82,75.87Zm-20.62,0a.61.61,0,1,0-.61-.6A.6.6,0,0,0,23.2,75.87ZM28,75.81a.61.61,0,1,0,0-1.21.61.61,0,0,0,0,1.21Zm17.39-.06a.33.33,0,1,0-.33-.33A.33.33,0,0,0,45.36,75.75Zm-13-.42A.34.34,0,1,0,32,75,.33.33,0,0,0,32.36,75.33Zm-5.54-.4.6-.85a15.24,15.24,0,0,1,1.21-1.45.38.38,0,0,0,.2.15c-.65.66-1.3,1.32-1.9,2l-.11.12ZM38.33,74l2-1.1,1.5-.82.17,0a.61.61,0,0,0,.58-.45l2.07-1.18-2.07,1.16a.51.51,0,0,0,0-.13.61.61,0,1,0-.8.57c-.16.09-.35.2-.48.26L38.33,74Zm7.76-.08a.34.34,0,1,0-.33-.34A.34.34,0,0,0,46.09,73.94ZM23,73a.61.61,0,0,0,.61-.61.58.58,0,0,0,0-.18h.07a.34.34,0,0,0,.33-.34.34.34,0,0,0-.33-.34.35.35,0,0,0-.34.33.61.61,0,0,0-.3-.08A.61.61,0,0,0,23,73ZM21,73a.34.34,0,1,0-.33-.33A.34.34,0,0,0,21,73Zm4.21-2.3a.6.6,0,0,0,.6-.6.61.61,0,0,0-.6-.61.62.62,0,0,0-.61.61A.61.61,0,0,0,25.19,70.67Zm25.56-.12a.33.33,0,0,0,.33-.33.33.33,0,0,0-.33-.33.32.32,0,0,0-.33.33A.33.33,0,0,0,50.75,70.55Zm-5.91-.21.91-.52a44.11,44.11,0,0,0,4.35-2.93c.7-.54,1.39-1.11,2-1.7a.6.6,0,0,0,1.16-.2.62.62,0,0,0-.34-.56c.48-.45.94-.9,1.4-1.37s.67-.69,1-1.05l0,0c1-.88,2-1.75,2.9-2.65l0,0a.61.61,0,0,0,1.21-.09.61.61,0,0,0-.54-.6,13.4,13.4,0,0,0,1.51-1.85c.57-.84,1.13-1.69,1.68-2.54s1.08-1.71,1.61-2.57c.3-.51.6-1,.89-1.52,0,0,0,.08,0,.12a.61.61,0,1,0,.6-.6.63.63,0,0,0-.42.17c.08-.15.17-.29.24-.44a10.83,10.83,0,0,0,.63-1.44,5.37,5.37,0,0,1,.21-.56c.14-.27.25-.51.35-.7a.61.61,0,0,0,.5-.6.62.62,0,0,0-.36-.56.31.31,0,0,0,.24-.31.33.33,0,0,0-.33-.34.34.34,0,0,0-.33.34.33.33,0,0,0,.15.27.61.61,0,0,0-.24,1.15c-.17.29-.37.65-.6,1.11a5.42,5.42,0,0,0-.22.56,10.59,10.59,0,0,1-.61,1.43c-.4.78-.85,1.52-1.3,2.27s-1.06,1.72-1.61,2.57-1.11,1.7-1.68,2.54a11,11,0,0,1-1.24,1.56.59.59,0,0,0-.29.33l-.68.69c-.55.52-1.1,1-1.66,1.53.78-.95,1.5-1.95,2.2-3a25.37,25.37,0,0,0,2.92-5.76l.09-.31a.62.62,0,0,0,.6.49.61.61,0,0,0,0-1.22.65.65,0,0,0-.41.16,27.91,27.91,0,0,0,1-6,27.45,27.45,0,0,0-.24-6.21c-.5-3.85-1.45-3.31-1,.54a27.57,27.57,0,0,1,.24,6.22A26.15,26.15,0,0,1,60.19,53a25.17,25.17,0,0,1-2.92,5.76,37.16,37.16,0,0,1-3.43,4.38c-.72.63-1.44,1.27-2.17,1.89-.52.47-1.08.89-1.62,1.33-1.91,1.52-1.31,1.17.6-.35.49-.4,1-.78,1.48-1.2v0a36.9,36.9,0,0,1-3,2.58,40.92,40.92,0,0,1-4.27,2.88Zm-3.35-.15a.34.34,0,1,0-.33-.33A.34.34,0,0,0,41.49,70.19Zm6.06-.25a.33.33,0,0,0,.26-.33.33.33,0,0,0-.33-.33.33.33,0,0,0,0,.66A.16.16,0,0,0,47.55,69.94Zm-13.41-.18a.61.61,0,0,0,.61-.6.6.6,0,0,0-.61-.6.6.6,0,0,0-.6.6A.6.6,0,0,0,34.14,69.76ZM36,69.58a.33.33,0,1,0-.34-.33A.33.33,0,0,0,36,69.58Zm8.77-1.51a.34.34,0,1,0-.33-.33A.33.33,0,0,0,44.76,68.07Zm3-.18a.61.61,0,1,0,0-1.21.61.61,0,0,0,0,1.21ZM26.4,67.64A.6.6,0,0,0,27,67a.62.62,0,0,0-.61-.61.61.61,0,0,0-.61.61A.6.6,0,0,0,26.4,67.64ZM55,67a.33.33,0,1,0-.33-.33A.33.33,0,0,0,55,67Zm-21.32-.12a.61.61,0,0,0,0-1.21.61.61,0,0,0,0,1.21Zm-9-1a.34.34,0,0,0,.34-.33.34.34,0,0,0-.67,0A.33.33,0,0,0,24.67,65.89Zm24.41-.06a.61.61,0,1,0,0-1.21.61.61,0,0,0,0,1.21Zm-21.71-.6a.6.6,0,0,0,.6-.61.61.61,0,0,0-.26-.5.27.27,0,0,0,0-.13.34.34,0,0,0-.67,0,.3.3,0,0,0,0,.1.61.61,0,0,0,.29,1.14Zm13.06-.55a.6.6,0,0,0,.6-.6.6.6,0,0,0-.6-.61.61.61,0,0,0-.6.61A.6.6,0,0,0,40.43,64.68Zm-11.14-.22c.14,0,.42-.69.65-1.94s.47-2.54.61-3.82a36,36,0,0,0,.21-4.76,28.24,28.24,0,0,0-.34-3.55A23.89,23.89,0,0,0,30,48a7.25,7.25,0,0,0-.29-.9c-1-2.33-1.7-2-.62.36a7.11,7.11,0,0,1,.29.89c.2.78.33,1.58.45,2.37a27.92,27.92,0,0,1,.35,3.54A34.25,34.25,0,0,1,30,59c-.14,1.28-.37,2.55-.6,3.82-.21,1.1-.19,1.61-.07,1.6Zm12.93,0a.33.33,0,1,0-.34-.33A.33.33,0,0,0,42.22,64.44ZM32.3,64.2a.33.33,0,0,0,.33-.33.34.34,0,0,0-.67,0A.34.34,0,0,0,32.3,64.2Zm4-1.09a.61.61,0,0,0,0-1.21.61.61,0,1,0,0,1.21Zm16.88-.49a.6.6,0,0,0,.6-.6.61.61,0,1,0-.6.6Zm6.8-1.39a.33.33,0,1,0-.33-.33A.33.33,0,0,0,59.94,61.23ZM48.42,58.39a.61.61,0,1,0-.6-.6A.6.6,0,0,0,48.42,58.39Zm6.44-1a.34.34,0,0,0,.34-.33.34.34,0,0,0-.34-.33.33.33,0,0,0-.34.33A.34.34,0,0,0,54.86,57.42ZM25.43,57a.61.61,0,1,0,0-1.21.61.61,0,0,0,0,1.21Zm15.31-.24a.61.61,0,1,0-.61-.61A.6.6,0,0,0,40.74,56.76ZM64.05,56a.33.33,0,0,0,.34-.33.34.34,0,0,0-.67,0A.33.33,0,0,0,64.05,56Zm-.75-.48a.61.61,0,1,0-.61-.6A.6.6,0,0,0,63.3,55.55Zm-18.82-.18a.61.61,0,0,0,.61-.61.61.61,0,1,0-1.21,0A.6.6,0,0,0,44.48,55.37Zm-10-.67a.61.61,0,1,0-.6-.6A.6.6,0,0,0,34.5,54.7Zm-6.32-2.6a.34.34,0,1,0-.33-.34A.34.34,0,0,0,28.18,52.1ZM31.66,52a.61.61,0,1,0,0-1.21.61.61,0,0,0,0,1.21Zm26.67-.18a.61.61,0,1,0-.6-.61A.61.61,0,0,0,58.33,51.8Zm-22.95-.61a.33.33,0,1,0,0-.66.33.33,0,1,0,0,.66Zm8.38-2.54a.61.61,0,0,0,0-1.21.61.61,0,1,0,0,1.21Zm7.14-.06a.6.6,0,0,0,.6-.6.61.61,0,0,0-.6-.61.6.6,0,0,0-.6.61A.6.6,0,0,0,50.9,48.59Zm12.58-.66a.61.61,0,0,0,0-1.21.61.61,0,1,0,0,1.21Zm-30.24-.49a.6.6,0,0,0,.6-.6.61.61,0,0,0-1.21,0A.6.6,0,0,0,33.24,47.44Zm15.36-.06a.61.61,0,0,0,.61-.6.62.62,0,0,0-.61-.61.61.61,0,0,0-.61.61A.6.6,0,0,0,48.6,47.38ZM36.47,46.05a.33.33,0,1,0,0-.66.33.33,0,1,0,0,.66Zm-8.71-1a.33.33,0,1,0-.34-.33A.33.33,0,0,0,27.76,45.08Zm22-.12a.33.33,0,1,0-.34-.33A.33.33,0,0,0,49.72,45Zm9.7-.54a.61.61,0,0,0,.61-.61.61.61,0,0,0-1.21,0A.61.61,0,0,0,59.42,44.42Zm-16.05-.24a.34.34,0,0,0,0-.67.34.34,0,1,0,0,.67Zm23.77-.55a.33.33,0,0,0,.33-.33.34.34,0,0,0-.67,0A.33.33,0,0,0,67.14,43.63Zm-23-.12a.61.61,0,0,0,0-1.21.61.61,0,0,0,0,1.21Zm9.68-.18a.61.61,0,0,0,0-1.21.61.61,0,1,0,0,1.21ZM58,42.48a.33.33,0,1,0-.34-.33A.33.33,0,0,0,58,42.48Zm9-.18a.61.61,0,1,0-.61-.6A.6.6,0,0,0,67,42.3Zm-32,0a.34.34,0,0,0-.07-.67.34.34,0,0,0,0,.67Zm27.81-1a.33.33,0,0,0,.33-.34.34.34,0,0,0-.33-.34.34.34,0,0,0-.33.34A.34.34,0,0,0,62.78,41.34Zm-24.22-.61a.61.61,0,0,0,.6-.61.6.6,0,0,0-.6-.6.61.61,0,0,0-.61.6A.62.62,0,0,0,38.56,40.73ZM59,40.25a.34.34,0,0,0,0-.67.34.34,0,1,0,0,.67Zm-10-.85a.62.62,0,0,0,.61-.61s0,0,0,0a.41.41,0,0,0,.16,0,.33.33,0,0,0,.33-.33.33.33,0,0,0-.65-.09.63.63,0,0,0-.44-.18.6.6,0,0,0-.6.6.61.61,0,0,0,.6.61Zm6.51-.73a.33.33,0,0,0,.33-.33.34.34,0,0,0-.67,0A.34.34,0,0,0,55.59,38.67Zm10.28-.12a.33.33,0,0,0,.33-.33.32.32,0,0,0-.33-.33.33.33,0,0,0-.33.33A.33.33,0,0,0,65.87,38.55Zm-2.57-.06a.61.61,0,1,0-.61-.6A.6.6,0,0,0,63.3,38.49ZM38,38.31a.61.61,0,1,0-.61-.61A.6.6,0,0,0,38,38.31Zm5.14-.66a.61.61,0,0,0,.6-.61.6.6,0,0,0-.6-.6.61.61,0,0,0-.57.39.33.33,0,0,0,0,.51.59.59,0,0,0,.52.31ZM56.7,37.1a.61.61,0,1,0-.6-.61A.61.61,0,0,0,56.7,37.1Zm-22.32-.61a.6.6,0,0,0,.61-.6.61.61,0,1,0-1.21,0A.6.6,0,0,0,34.38,36.49Zm10.2-1.87a.34.34,0,0,0,0-.67.34.34,0,1,0,0,.67ZM65,34.5a.34.34,0,1,0-.33-.33A.33.33,0,0,0,65,34.5Zm-27.64-.06A.34.34,0,1,0,37,34.1.34.34,0,0,0,37.32,34.44ZM60.72,33a.33.33,0,1,0-.33-.33A.34.34,0,0,0,60.72,33ZM62,32.56a.61.61,0,1,0-.61-.61A.6.6,0,0,0,62,32.56Zm-21.75-.73a.33.33,0,0,0,.34-.33.34.34,0,0,0-.67,0A.33.33,0,0,0,40.28,31.83ZM43,31.59a.6.6,0,0,0,.6-.6.61.61,0,1,0-1.21,0A.6.6,0,0,0,43,31.59Zm-5.21-1a.6.6,0,0,0,.61-.6.6.6,0,0,0-.61-.6.61.61,0,0,0-.61.6A.6.6,0,0,0,37.83,30.62Zm17.45-.17a.34.34,0,0,0,.33-.34.33.33,0,0,0-.66,0A.34.34,0,0,0,55.28,30.45Zm-7.83-.07a.6.6,0,0,0,.6-.6.6.6,0,0,0-.6-.6.59.59,0,0,0-.6.6A.6.6,0,0,0,47.45,30.38Zm10.43-.6a.34.34,0,0,0,0-.67.34.34,0,0,0,0,.67ZM46.21,28.39a.33.33,0,0,0,.33-.33.33.33,0,1,0-.66,0A.33.33,0,0,0,46.21,28.39Zm-13-.18a.61.61,0,0,0,.61-.61.61.61,0,0,0-1.21,0A.61.61,0,0,0,33.23,28.21ZM56,26.76a.34.34,0,0,0,0-.67.34.34,0,0,0,0,.67Zm2.15-.43a.61.61,0,1,0-.61-.6A.6.6,0,0,0,58.16,26.33Zm-25.75-.91a.33.33,0,1,0-.33-.33A.34.34,0,0,0,32.41,25.42Zm25.77-1.26a.34.34,0,1,0,0-.67.34.34,0,0,0,0,.67Zm-16.63-.92a.33.33,0,0,0,.33-.33.33.33,0,1,0-.66,0A.33.33,0,0,0,41.55,23.24ZM33,21.61a.33.33,0,0,0,.33-.33A.32.32,0,0,0,33,21a.33.33,0,0,0-.33.33A.33.33,0,0,0,33,21.61Zm1.69-1.21a.33.33,0,1,0,0-.66.33.33,0,0,0,0,.66Z" />
    <g
       id="use4335">
      <g
         id="g74291">
        <path
           id="path74246"
           class="cls-10"
           d="M58.48,58.36A16.28,16.28,0,1,1,42.2,42.07,16.28,16.28,0,0,1,58.48,58.36Z" />
        <path
           id="path74271"
           class="cls-11"
           d="M42.19,46.26a68.55,68.55,0,0,0,5,6.46,67.53,67.53,0,0,0,5.74,5.66A65.65,65.65,0,0,0,47.2,64a66.55,66.55,0,0,0-4.92,6.43,69.2,69.2,0,0,0-5-6.48,66.6,66.6,0,0,0-5.78-5.68,65.9,65.9,0,0,0,5.73-5.6,66.63,66.63,0,0,0,5-6.41Z" />
      </g>
    </g>
  </g>
</svg>
