<?xml version="1.0" encoding="UTF-8" standalone="no"?>
<svg
   id="svg2"
   viewBox="0 0 84 119"
   version="1.1"
   sodipodi:docname="KD.svg"
   inkscape:version="1.3.2 (091e20e, 2023-11-25, custom)"
   xmlns:inkscape="http://www.inkscape.org/namespaces/inkscape"
   xmlns:sodipodi="http://sodipodi.sourceforge.net/DTD/sodipodi-0.dtd"
   xmlns:xlink="http://www.w3.org/1999/xlink"
   xmlns="http://www.w3.org/2000/svg"
   xmlns:svg="http://www.w3.org/2000/svg">
  <sodipodi:namedview
     id="namedview6"
     pagecolor="#ffffff"
     bordercolor="#000000"
     borderopacity="0.25"
     inkscape:showpageshadow="2"
     inkscape:pageopacity="0.0"
     inkscape:pagecheckerboard="0"
     inkscape:deskcolor="#d1d1d1"
     inkscape:zoom="15.285714"
     inkscape:cx="41.96729"
     inkscape:cy="59.5"
     inkscape:window-width="3840"
     inkscape:window-height="2054"
     inkscape:window-x="-11"
     inkscape:window-y="-11"
     inkscape:window-maximized="1"
     inkscape:current-layer="svg2" />
  <defs
     id="defs6">
    <style
       id="style1">
      .cls-1 {
        filter: url(#filter63625-2-4);
      }

      .cls-2 {
        stroke: #000;
        fill: url(#linear-gradient);
      }

      .cls-2, .cls-6 {
        stroke-miterlimit: 10;
        stroke-width: 0.23px;
      }

      .cls-3 {
        fill: url(#linear-gradient-2);
      }

      .cls-4 {
        opacity: 0.47;
        fill: url(#radial-gradient);
      }

      .cls-4, .cls-5, .cls-7 {
        isolation: isolate;
      }

      .cls-5 {
        opacity: 0.4;
        fill: url(#radial-gradient-2);
      }

      .cls-6 {
        fill: none;
      }

      .cls-11, .cls-6 {
        stroke: #fff;
      }

      .cls-7 {
        opacity: 0.45;
        fill: url(#radial-gradient-3);
      }

      .cls-10, .cls-12, .cls-8 {
        stroke: #c8c8c8;
      }

      .cls-12, .cls-8 {
        stroke-linejoin: round;
      }

      .cls-8 {
        stroke-width: 0.17px;
        fill: url(#linear-gradient-3);
      }

      .cls-9 {
        fill: url(#radial-gradient-4);
      }

      .cls-10, .cls-11 {
        stroke-width: 0.49px;
      }

      .cls-10 {
        fill-rule: evenodd;
        fill: url(#linear-gradient-4);
      }

      .cls-11 {
        fill: url(#linear-gradient-5);
      }

      .cls-12 {
        stroke-width: 0.35px;
        fill: url(#linear-gradient-6);
      }
    </style>
    <filter
       id="filter63625-2-4"
       name="filter63625-2-4"
       x="-0.12863863"
       y="-0.090976911"
       width="1.2572773"
       height="1.1819538">
      <feGaussianBlur
         result="feGaussianBlur63627-6-6"
         stdDeviation="3.76"
         id="feGaussianBlur1" />
    </filter>
    <linearGradient
       id="linear-gradient"
       x1="-1171.9"
       y1="-2449.46"
       x2="-1162.42"
       y2="-1934.95"
       gradientTransform="matrix(0.23, 0, 0, -0.23, 307.76, -519.33)"
       gradientUnits="userSpaceOnUse">
      <stop
         offset="0"
         stop-color="#f3f3f3"
         id="stop1" />
      <stop
         offset="1"
         stop-color="#8f8f8f"
         id="stop2" />
    </linearGradient>
    <linearGradient
       id="linear-gradient-2"
       x1="-1655.67"
       y1="-2218.11"
       x2="-1523.38"
       y2="-2655.82"
       gradientTransform="matrix(0.24, 0, 0, -0.24, 424.25, -507.98)"
       gradientUnits="userSpaceOnUse">
      <stop
         offset="0"
         stop-color="#590000"
         id="stop3" />
      <stop
         offset="1"
         stop-color="#bf0303"
         id="stop4" />
    </linearGradient>
    <radialGradient
       id="radial-gradient"
       cx="-38.53"
       cy="6300.07"
       r="58.68"
       gradientTransform="matrix(-0.23, 0, 0, 0.21, 7.06, -1203.41)"
       gradientUnits="userSpaceOnUse">
      <stop
         offset="0"
         stop-color="#fff"
         id="stop5" />
      <stop
         offset="1"
         stop-color="#fff"
         stop-opacity="0"
         id="stop6" />
    </radialGradient>
    <radialGradient
       id="radial-gradient-2"
       cx="-1205.69"
       cy="-1397.07"
       r="63.15"
       gradientTransform="matrix(0.23, 0, 0, -0.36, 340.57, -479.83)"
       xlink:href="#radial-gradient" />
    <radialGradient
       id="radial-gradient-3"
       cx="-504.65"
       cy="666.32"
       r="26.74"
       gradientTransform="matrix(0.84, 0, 0, -1.48, 464.66, 1046.76)"
       xlink:href="#radial-gradient" />
    <linearGradient
       id="linear-gradient-3"
       x1="-4404.31"
       y1="-13034.75"
       x2="-4404.31"
       y2="-12977.6"
       gradientTransform="matrix(0.06, 0, 0, -0.06, 265.97, -662.27)"
       xlink:href="#linear-gradient" />
    <radialGradient
       id="radial-gradient-4"
       cx="-235.52"
       cy="1235.03"
       r="25.37"
       gradientTransform="matrix(0.83, 0.56, 2.15, -3.16, -2435.04, 4121.7)"
       xlink:href="#radial-gradient" />
    <linearGradient
       id="linear-gradient-4"
       x1="-1278.35"
       y1="-2818"
       x2="-1278.35"
       y2="-2577.47"
       gradientTransform="matrix(0.24, 0, 0, -0.24, 344.67, -580.24)"
       xlink:href="#linear-gradient" />
    <linearGradient
       id="linear-gradient-5"
       x1="-807.94"
       y1="-2553.27"
       x2="-807.94"
       y2="-2506.54"
       gradientTransform="matrix(0.24, 0, 0, -0.24, 257.78, -579.43)"
       xlink:href="#linear-gradient" />
    <linearGradient
       id="linear-gradient-6"
       x1="-2805.63"
       y1="-5793.9"
       x2="-2805.63"
       y2="-5736.78"
       gradientTransform="matrix(0.12, 0, 0, -0.12, 350.97, -672.83)"
       xlink:href="#linear-gradient" />
  </defs>
  <title
     id="title6">King of Diamonds</title>
  <g
     id="king_diamond"
     data-name="king diamond">
    <g
       id="use72919">
      <g
         id="g70507">
        <rect
           id="rect70511"
           class="cls-2"
           x="7.15"
           y="9.42"
           width="70.15"
           height="99.19"
           rx="3.88"
           ry="3.88" />
        <rect
           id="rect6073"
           class="cls-3"
           x="10.61"
           y="12.88"
           width="63.24"
           height="92.26"
           rx="1.29"
           ry="1.29" />
        <rect
           id="rect70515"
           class="cls-4"
           x="10.61"
           y="80.86"
           width="26.55"
           height="24.28"
           rx="0.98"
           ry="0.98" />
        <rect
           id="rect70517"
           class="cls-5"
           x="45.27"
           y="12.88"
           width="28.57"
           height="45.27"
           rx="1.04"
           ry="1.04" />
        <path
           id="path70519"
           class="cls-6"
           d="M25.57,101.12H70.29V27.51M58.72,16.91H14.16V90.09" />
        <path
           id="path70521"
           class="cls-7"
           d="M64.6,59c0,21.89-10,39.64-22.38,39.64S19.84,80.9,19.84,59s10-39.64,22.38-39.64S64.6,37.12,64.6,59Z" />
      </g>
    </g>
    <g
       id="use74156">
      <path
         id="path74110"
         class="cls-8"
         d="M17.57,93.81A18.4,18.4,0,0,0,19,95.68a19.34,19.34,0,0,0,1.66,1.65A18.14,18.14,0,0,0,19,99a19.76,19.76,0,0,0-1.43,1.86,20.23,20.23,0,0,0-1.45-1.88,20.32,20.32,0,0,0-1.67-1.65,19.78,19.78,0,0,0,1.66-1.62,20.9,20.9,0,0,0,1.44-1.86Z" />
    </g>
    <path
       id="path7082"
       class="cls-9"
       d="M23.35,97.88c.53-.9-1.57-4.1-1.84-5.3a1.7,1.7,0,0,1-.06-.31,3,3,0,0,1,0-.52,4.64,4.64,0,0,1,.13-.91.33.33,0,0,0,.16-.6l.21-.69a9.11,9.11,0,0,1,.6-1.44c.32-.61.71-1.18,1.09-1.76l.37-.53h.11a.6.6,0,0,0,.61-.6.65.65,0,0,0-.06-.24c.15-.18.3-.37.45-.54a29.36,29.36,0,0,1,2.14-2c.81-.75,1.67-1.43,2.53-2.1,1-.8,2.12-1.51,3.21-2.22s2.08-1.31,3.13-2l.15,0a.61.61,0,0,0,0-1.21.61.61,0,0,0-.61.6.6.6,0,0,0,.44.58l-.3.17c-1.28.77-2.55,1.55-3.81,2.36-1.09.71-2.19,1.42-3.22,2.23-.87.67-1.72,1.36-2.53,2.1-.62.56-1.24,1.12-1.83,1.72a.58.58,0,0,0-.3-.08.61.61,0,0,0-.61.6.62.62,0,0,0,.12.36c-.36.44-.7.89-1,1.36a19.74,19.74,0,0,0-1.08,1.76l-.15.31c0-.61.11-1.22.19-1.83a16.57,16.57,0,0,1,.52-2.52,15.31,15.31,0,0,1,.83-2.2,13,13,0,0,0,.87-1.63c.05-.12.09-.25.14-.37l0-.09c.44-.79.89-1.56,1.34-2.33l.09-.14.51-.7c.5-.64,1-1.25,1.54-1.87.68-.78,1.4-1.52,2.12-2.25s1.68-1.62,2.54-2.41,1.87-1.65,2.8-2.49l3-2.63c1.12-1,2.21-2,3.28-3l1.7-1.65a10.71,10.71,0,0,0,1.68-1.33c1.11-.94,2.23-1.86,3.39-2.74a15.89,15.89,0,0,1,2.27-1.56l.5-.22a.52.52,0,0,0,0,.18.61.61,0,0,0,.6.61.6.6,0,0,0,.6-.61.58.58,0,0,0-.14-.39c2.23-.16,2.69-.49.27-.33a1.82,1.82,0,0,0-.57.13h-.16a.59.59,0,0,0-.53.33,21.16,21.16,0,0,0-3.41,2.21C46.14,58,45,59,43.93,59.9c-.46.39-.76.66-.94.83L44.71,59c1.25-1.26,2.43-2.58,3.58-3.93.71-.85,1.39-1.73,2.06-2.61a.62.62,0,0,0,.47.22.6.6,0,0,0,.6-.61.6.6,0,0,0-.36-.55c.3-.41.6-.81.89-1.22a56.29,56.29,0,0,0,3.46-5.45,35.88,35.88,0,0,0,2.78-6.24,54,54,0,0,0,1.13-5.8c.37-2.33-.21-2-.58.34a53.82,53.82,0,0,1-1.13,5.79,35.92,35.92,0,0,1-2.79,6.24c-.08.15-.18.29-.26.44a.33.33,0,1,0-.33.41l.12,0a52.87,52.87,0,0,1-3,4.63l-.6.84a.6.6,0,0,0-.55.59.5.5,0,0,0,0,.12c-.82,1.1-1.65,2.17-2.53,3.22-1.15,1.35-2.33,2.67-3.58,3.93s-2.36,2.39-3.58,3.54-2.17,2-3.3,3-2,1.75-3,2.64S32.39,70.19,31.45,71s-1.6,1.46-2.36,2.23a.35.35,0,0,0-.16-.2c.3-.31.6-.61.91-.91,1-.94,2-1.85,3-2.8,1.18-1.11,2.33-2.25,3.47-3.4A39.09,39.09,0,0,0,40,61.74a46.23,46.23,0,0,0,3.28-5.4,35.64,35.64,0,0,0,2.66-6.11,41.51,41.51,0,0,0,1.36-7,54.93,54.93,0,0,0,.08-6,.61.61,0,0,0,.2-.45.6.6,0,0,0-.24-.48c0-.25,0-.49,0-.74,0-.42,0-.83,0-1.25-.09-2.35-.66-2-.57.33,0,.42,0,.83,0,1.25,0,.11,0,.22,0,.33a.59.59,0,0,0-.39.56.6.6,0,0,0,.43.57c0,1,0,2.07,0,3.11A.6.6,0,0,0,46,41a.61.61,0,0,0,.6.61.78.78,0,0,0,.22,0c0,.66,0,1.34-.1,2-.19,1.51-.42,3-.74,4.51,0-.71,0-1.42,0-2.13a49.81,49.81,0,0,0-.37-5,26.23,26.23,0,0,0-.68-3.4,12,12,0,0,0-.57-1.66,1.38,1.38,0,0,0-.27-.45c-1.9-1.71-2.54-1.32-.62.37a1.73,1.73,0,0,1,.27.43,9.86,9.86,0,0,1,.57,1.66,27.92,27.92,0,0,1,.7,3.39c.22,1.68.33,3.36.39,5,0,.93,0,1.87,0,2.81a7.87,7.87,0,0,0,0,1.22,1.55,1.55,0,0,0-.07.23c-.39,1.15-.82,2.28-1.31,3.39a.61.61,0,0,0-.53-.3.6.6,0,0,0-.6.6.61.61,0,0,0,.6.61l.12,0c-.29.62-.6,1.23-.94,1.83a45.09,45.09,0,0,1-3.29,5.41,39.09,39.09,0,0,1-3.62,4.2c-1.14,1.15-2.29,2.3-3.48,3.41-1,.94-2,1.86-3.05,2.8l-.51.52a.34.34,0,0,0-.28.28,19.78,19.78,0,0,0-1.76,2c-.67.94-1.33,1.89-1.91,2.89-.21.3-.42.6-.61.92a10,10,0,0,0-.58,1,6.43,6.43,0,0,0-.32.71v0c-.16.3-.33.61-.48.92s-.4.84-.58,1.26a1.55,1.55,0,0,1,0-.21,18.09,18.09,0,0,1,.5-1.74c.24-.68.52-1.34.81-2l1.06-2.43c.49-1.1,1-2.17,1.57-3.23.69-1.31,1.3-2.66,1.88-4,.69-1.66,1.37-3.32,2.06-5s1.41-3.43,2.07-5.16a.33.33,0,0,0,.25-.32.32.32,0,0,0-.06-.2c.65-1.82,1.24-3.66,1.8-5.51.65-2.15,1.21-4.32,1.65-6.52A42.61,42.61,0,0,0,36.33,39c-.08-2.63-.38-5.25-.7-7.87-.2-1.57-.44-3.14-.68-4.71A5.23,5.23,0,0,0,34.59,25a.65.65,0,0,0,.19,0,.61.61,0,0,0,.61-.61.61.61,0,0,0-1.21,0,.59.59,0,0,0,.17.42,3.7,3.7,0,0,0,0,1.88c.11.69.21,1.39.32,2.08a.38.38,0,0,0-.24-.08.33.33,0,1,0,0,.66.34.34,0,0,0,.3-.18q.16,1.11.3,2.22c0,.19.05.38.07.57a.6.6,0,1,0-.27,1.14.61.61,0,0,0,.39-.15c.25,2.1.46,4.2.53,6.31a42.8,42.8,0,0,1-.53,7.75c-.44,2.2-1,4.37-1.65,6.52-.52,1.7-1.06,3.4-1.66,5.08a.31.31,0,0,0-.16.29.25.25,0,0,0,0,.12c-.05.11-.09.23-.13.34q-1,2.7-2.14,5.36-1,2.47-2.07,5c-.58,1.35-1.19,2.7-1.88,4C25,74.81,24.48,75.88,24,77c-.36.81-.72,1.63-1.07,2.44s-.58,1.33-.82,2-.37,1.14-.5,1.74-.21,1-.3,1.49c0,.22-.08.43-.14.65-.25,1.06-.28,1.6-.18,1.68s0,.36-.07.55a18.73,18.73,0,0,0-.2,2.13c0,.33,0,.66,0,1s-.15.49-.21.74l-.06.3h-3c2,.58,3.56.41,5.87,6.18Zm.58-4.67a.34.34,0,0,0,0-.67.34.34,0,0,0,0,.67ZM19.3,91.52a.61.61,0,0,0,.61-.61.61.61,0,1,0-.61.61Zm3.27-.73a.62.62,0,0,0,.61-.61.61.61,0,0,0-.61-.6.6.6,0,0,0-.6.6A.6.6,0,0,0,22.57,90.79Zm-4.27-1.7a.34.34,0,0,0,.34-.33.34.34,0,0,0-.67,0A.33.33,0,0,0,18.3,89.09Zm1.52-.54a.34.34,0,1,0-.34-.34A.34.34,0,0,0,19.82,88.55Zm5.71-.72a.62.62,0,0,0,.61-.61.6.6,0,0,0-.61-.6.6.6,0,0,0-.6.6A.61.61,0,0,0,25.53,87.83Zm1.42-1a.33.33,0,1,0-.33-.33A.33.33,0,0,0,27,86.79Zm-8.31-.66a.61.61,0,1,0-.61-.6A.6.6,0,0,0,18.64,86.13ZM20,84.38a.61.61,0,0,0,.6-.61.6.6,0,0,0-.6-.6.6.6,0,0,0-.61.6A.62.62,0,0,0,20,84.38Zm7.83-.25a.33.33,0,0,0,.34-.33.34.34,0,0,0-.67,0A.33.33,0,0,0,27.86,84.13Zm4.39-.54a.61.61,0,1,0-.61-.61A.6.6,0,0,0,32.25,83.59Zm-6.47-.73a.6.6,0,0,0,.6-.6.61.61,0,1,0-1.21,0A.6.6,0,0,0,25.78,82.86Zm2.37-.15s.71-.46,1.82-1.28c.48-.35.94-.71,1.44-1a22.34,22.34,0,0,1,2.21-1.17l.46-.21a.63.63,0,0,0-.14.38.61.61,0,1,0,1.21,0,.59.59,0,0,0-.57-.59c.53-.23,1.06-.47,1.6-.67s1.21-.49,1.81-.72l.78-.29c2.39-.92,3-1.28.62-.37l-.78.3-1.82.72c-.87.34-1.72.72-2.56,1.1a32.55,32.55,0,0,0-3.43,1.87c-.5.3-1,.67-1.44,1a13.37,13.37,0,0,0-1.21.93Zm-8.42-.63a.61.61,0,0,0,.6-.61.61.61,0,0,0-1.21,0A.61.61,0,0,0,19.73,82.08Zm13.21-.67a.33.33,0,1,0-.33-.33A.33.33,0,0,0,32.94,81.41Zm-11-.85a.6.6,0,0,0,.6-.6.61.61,0,0,0-1.21,0A.6.6,0,0,0,22,80.56Zm3.26-.18a.6.6,0,0,0,.6-.6.6.6,0,0,0-.6-.61.62.62,0,0,0-.61.61A.61.61,0,0,0,25.23,80.38ZM17,79.9a.33.33,0,0,0,.33-.33.32.32,0,0,0-.33-.33.33.33,0,0,0-.33.33A.33.33,0,0,0,17,79.9Zm21.11-1.15a.34.34,0,0,0,0-.67.34.34,0,0,0,0,.67Zm-7.22-.06a.61.61,0,1,0-.61-.61A.6.6,0,0,0,30.92,78.69Zm10.67-.54a.34.34,0,1,0,0-.67h0a.6.6,0,0,0-.42-1,.61.61,0,1,0,0,1.21l.17,0a.33.33,0,0,0,.28.51Zm2.09-1.4a.61.61,0,1,0-.61-.6A.6.6,0,0,0,43.68,76.75Zm-20.62,0a.61.61,0,1,0-.61-.6A.6.6,0,0,0,23.06,76.75Zm4.77-.06a.61.61,0,1,0,0-1.21.61.61,0,0,0,0,1.21Zm17.39-.06a.33.33,0,1,0-.33-.33A.33.33,0,0,0,45.22,76.63Zm-13-.42a.34.34,0,0,0,0-.67.34.34,0,0,0,0,.67Zm-5.54-.4.6-.85a16.79,16.79,0,0,1,1.2-1.45.41.41,0,0,0,.21.15c-.65.66-1.3,1.32-1.9,2l-.11.12Zm11.5-.91,2-1.1,1.5-.82.16,0a.6.6,0,0,0,.58-.45l2.08-1.18-2.07,1.16a.51.51,0,0,0,0-.13.61.61,0,1,0-.8.57l-.48.26-3,1.67ZM46,74.82a.34.34,0,0,0,0-.67.34.34,0,0,0,0,.67Zm-23.14-.91a.61.61,0,0,0,.61-.61.58.58,0,0,0,0-.18h.06a.34.34,0,0,0,.34-.34.34.34,0,0,0-.67,0,.61.61,0,0,0-.3-.08.61.61,0,0,0,0,1.21Zm-2-.06a.34.34,0,0,0,0-.67.34.34,0,0,0,0,.67Zm4.21-2.3a.6.6,0,0,0,.6-.6.61.61,0,0,0-.6-.61.62.62,0,0,0-.61.61A.61.61,0,0,0,25.05,71.55Zm25.56-.12a.33.33,0,0,0,.33-.33.34.34,0,0,0-.67,0A.34.34,0,0,0,50.61,71.43Zm-5.91-.21.91-.52A45.33,45.33,0,0,0,50,67.77c.7-.54,1.38-1.11,2-1.7a.6.6,0,0,0,1.16-.2.62.62,0,0,0-.34-.56c.48-.45.94-.9,1.4-1.37s.67-.69,1-1l0,0c1-.88,2-1.75,2.9-2.65l0-.05a.61.61,0,0,0,1.21-.09.61.61,0,0,0-.54-.6,13.4,13.4,0,0,0,1.51-1.85c.57-.84,1.13-1.69,1.68-2.54s1.08-1.71,1.61-2.57c.3-.51.6-1,.89-1.52a.49.49,0,0,0,0,.12.6.6,0,0,0,.6.61.61.61,0,1,0,0-1.21.63.63,0,0,0-.42.17c.08-.15.17-.29.24-.44a10.83,10.83,0,0,0,.63-1.44,5.37,5.37,0,0,1,.21-.56c.14-.27.25-.51.34-.7a.61.61,0,0,0,.51-.6.62.62,0,0,0-.36-.56.31.31,0,0,0,.24-.31.33.33,0,1,0-.66,0,.33.33,0,0,0,.15.27.61.61,0,0,0-.24,1.15c-.18.29-.37.65-.6,1.11a5.42,5.42,0,0,0-.22.56,10.59,10.59,0,0,1-.61,1.43c-.4.78-.85,1.52-1.3,2.27S62,54.57,61.45,55.42s-1.11,1.7-1.68,2.54a11,11,0,0,1-1.24,1.56.59.59,0,0,0-.29.33l-.68.69c-.55.52-1.1,1-1.66,1.53.78-1,1.5-2,2.19-3A24.58,24.58,0,0,0,61,53.35c0-.1.07-.21.1-.31a.62.62,0,0,0,.6.49.61.61,0,0,0,0-1.22.65.65,0,0,0-.41.16,27.91,27.91,0,0,0,1-6,27.45,27.45,0,0,0-.24-6.21c-.5-3.85-1.45-3.31-1,.54a27.57,27.57,0,0,1,.24,6.22,26.15,26.15,0,0,1-1.28,6.85,25.17,25.17,0,0,1-2.92,5.76,37.16,37.16,0,0,1-3.43,4.38c-.72.63-1.44,1.27-2.17,1.89-.52.47-1.08.89-1.62,1.33-1.91,1.52-1.31,1.17.6-.35.49-.4,1-.78,1.48-1.2a.08.08,0,0,0,0,0,36.9,36.9,0,0,1-3,2.58,40.92,40.92,0,0,1-4.27,2.88Zm-3.35-.15a.34.34,0,0,0,0-.67.34.34,0,0,0,0,.67Zm6-.25a.36.36,0,1,0-.06,0S47.38,70.83,47.4,70.82ZM34,70.64a.61.61,0,0,0,.61-.6.6.6,0,0,0-.61-.6.6.6,0,0,0-.6.6A.6.6,0,0,0,34,70.64Zm1.84-.18a.33.33,0,1,0-.33-.33A.34.34,0,0,0,35.84,70.46ZM44.62,69a.34.34,0,0,0,0-.67.34.34,0,0,0,0,.67Zm3-.18a.61.61,0,1,0,0-1.21.61.61,0,0,0,0,1.21Zm-21.35-.25a.6.6,0,0,0,.61-.6.62.62,0,0,0-.61-.61.61.61,0,0,0-.61.61A.6.6,0,0,0,26.26,68.52Zm28.64-.6a.33.33,0,1,0,0-.66.33.33,0,1,0,0,.66ZM33.58,67.8a.61.61,0,1,0-.61-.61A.6.6,0,0,0,33.58,67.8Zm-9-1a.33.33,0,0,0,.33-.33.32.32,0,0,0-.33-.33.33.33,0,0,0-.33.33A.33.33,0,0,0,24.53,66.77Zm24.41-.06a.61.61,0,1,0,0-1.21.61.61,0,0,0,0,1.21Zm-21.71-.6a.6.6,0,0,0,.6-.61.61.61,0,0,0-.26-.5.51.51,0,0,0,0-.13.34.34,0,0,0-.67,0,.3.3,0,0,0,0,.1.61.61,0,0,0,.29,1.14Zm13.06-.55a.6.6,0,0,0,.6-.6.6.6,0,0,0-.6-.61.62.62,0,0,0-.61.61A.61.61,0,0,0,40.29,65.56Zm-11.14-.22c.14,0,.42-.69.65-1.94s.47-2.54.61-3.82a36,36,0,0,0,.21-4.76,30.24,30.24,0,0,0-.34-3.55,23.89,23.89,0,0,0-.44-2.36,7.25,7.25,0,0,0-.29-.9c-1-2.33-1.7-1.95-.62.36a5.73,5.73,0,0,1,.28.89,21.54,21.54,0,0,1,.46,2.37A27.92,27.92,0,0,1,30,55.17a35.88,35.88,0,0,1-.2,4.75c-.14,1.28-.37,2.55-.61,3.82-.2,1.1-.18,1.61-.06,1.6Zm12.92,0a.33.33,0,1,0-.33-.33A.34.34,0,0,0,42.07,65.32Zm-9.91-.24a.33.33,0,0,0,.33-.33.34.34,0,0,0-.67,0A.34.34,0,0,0,32.16,65.08Zm4-1.09a.61.61,0,0,0,0-1.21.61.61,0,1,0,0,1.21ZM53,63.5a.6.6,0,0,0,.6-.6.61.61,0,1,0-.6.6Zm6.8-1.39a.33.33,0,1,0-.33-.33A.33.33,0,0,0,59.8,62.11ZM48.28,59.27a.61.61,0,1,0-.61-.6A.6.6,0,0,0,48.28,59.27Zm6.44-1a.34.34,0,0,0,.34-.33.34.34,0,0,0-.34-.33.33.33,0,0,0-.34.33A.34.34,0,0,0,54.72,58.3Zm-29.43-.42a.61.61,0,1,0,0-1.21.61.61,0,0,0,0,1.21Zm15.31-.24A.61.61,0,1,0,40,57,.6.6,0,0,0,40.6,57.64Zm23.31-.73a.33.33,0,0,0,.34-.33.34.34,0,0,0-.67,0A.33.33,0,0,0,63.91,56.91Zm-.75-.48a.61.61,0,1,0-.61-.6A.6.6,0,0,0,63.16,56.43Zm-18.82-.18a.61.61,0,0,0,.61-.61.61.61,0,1,0-1.21,0A.6.6,0,0,0,44.34,56.25Zm-10-.67a.61.61,0,1,0-.6-.6A.6.6,0,0,0,34.36,55.58ZM28,53a.34.34,0,1,0-.33-.34A.34.34,0,0,0,28,53Zm3.48-.12a.61.61,0,1,0,0-1.21.61.61,0,0,0,0,1.21Zm26.67-.18a.61.61,0,1,0-.6-.61A.61.61,0,0,0,58.19,52.68Zm-22.94-.61a.33.33,0,1,0-.34-.33A.33.33,0,0,0,35.25,52.07Zm8.37-2.54a.61.61,0,0,0,0-1.21.61.61,0,0,0,0,1.21Zm7.14-.06a.61.61,0,0,0,.61-.6.62.62,0,0,0-.61-.61.6.6,0,0,0-.6.61A.6.6,0,0,0,50.76,49.47Zm12.58-.66a.61.61,0,0,0,0-1.21.61.61,0,1,0,0,1.21ZM33.1,48.32a.6.6,0,0,0,.6-.6.61.61,0,0,0-1.21,0A.6.6,0,0,0,33.1,48.32Zm15.36-.06a.61.61,0,0,0,.61-.6.61.61,0,0,0-1.22,0A.61.61,0,0,0,48.46,48.26ZM36.33,46.93a.33.33,0,1,0,0-.66.33.33,0,1,0,0,.66Zm-8.71-1a.33.33,0,1,0,0-.66.33.33,0,1,0,0,.66Zm22-.12a.33.33,0,1,0-.34-.33A.33.33,0,0,0,49.58,45.84Zm9.7-.54a.61.61,0,0,0,.61-.61.61.61,0,0,0-1.21,0A.61.61,0,0,0,59.28,45.3Zm-16.05-.24a.34.34,0,0,0,0-.67.34.34,0,0,0,0,.67ZM67,44.51a.33.33,0,0,0,.33-.33.33.33,0,0,0-.33-.33.33.33,0,0,0-.33.33A.32.32,0,0,0,67,44.51Zm-23-.12a.61.61,0,1,0-.61-.6A.6.6,0,0,0,44,44.39Zm9.67-.18a.61.61,0,1,0-.6-.61A.6.6,0,0,0,53.66,44.21Zm4.15-.85a.33.33,0,1,0-.34-.33A.33.33,0,0,0,57.81,43.36Zm9-.18a.61.61,0,0,0,0-1.21.61.61,0,1,0,0,1.21Zm-32,0a.37.37,0,1,0-.07,0Zm27.81-1a.34.34,0,0,0,.34-.34.34.34,0,1,0-.67,0A.34.34,0,0,0,62.64,42.22Zm-24.22-.61A.6.6,0,0,0,39,41a.6.6,0,0,0-.6-.6.61.61,0,0,0-.61.6A.62.62,0,0,0,38.42,41.61Zm20.48-.48a.34.34,0,0,0,0-.67.34.34,0,1,0,0,.67Zm-10-.85a.61.61,0,0,0,.61-.61s0,0,0,0a.41.41,0,0,0,.16,0,.33.33,0,0,0,.33-.33A.33.33,0,0,0,49.7,39a.33.33,0,0,0-.32.24.63.63,0,0,0-.44-.18.6.6,0,0,0-.6.6A.61.61,0,0,0,48.94,40.28Zm6.51-.73a.33.33,0,0,0,.33-.33.34.34,0,0,0-.67,0A.34.34,0,0,0,55.45,39.55Zm10.28-.12a.34.34,0,0,0,.34-.33.34.34,0,0,0-.67,0A.33.33,0,0,0,65.73,39.43Zm-2.57-.06a.61.61,0,1,0-.61-.6A.61.61,0,0,0,63.16,39.37Zm-25.28-.18a.61.61,0,1,0-.61-.61A.6.6,0,0,0,37.88,39.19ZM43,38.53a.62.62,0,0,0,.61-.61.61.61,0,0,0-1.18-.21.33.33,0,0,0,0,.51A.62.62,0,0,0,43,38.53ZM56.56,38a.61.61,0,1,0-.6-.61A.61.61,0,0,0,56.56,38Zm-22.32-.61a.6.6,0,0,0,.61-.6.61.61,0,1,0-1.21,0A.6.6,0,0,0,34.24,37.37Zm10.2-1.87a.34.34,0,0,0,0-.67.34.34,0,0,0,0,.67Zm20.38-.12a.34.34,0,1,0-.33-.33A.33.33,0,0,0,64.82,35.38Zm-27.64-.06a.34.34,0,1,0-.34-.34A.34.34,0,0,0,37.18,35.32Zm23.41-1.4a.33.33,0,1,0-.34-.33A.33.33,0,0,0,60.59,33.92Zm1.3-.48a.61.61,0,0,0,0-1.21.61.61,0,0,0,0,1.21Zm-21.74-.73a.33.33,0,0,0,.33-.33.34.34,0,0,0-.67,0A.33.33,0,0,0,40.15,32.71Zm2.75-.24a.6.6,0,0,0,.6-.6.61.61,0,1,0-1.21,0A.6.6,0,0,0,42.9,32.47Zm-5.21-1a.6.6,0,0,0,.61-.6.61.61,0,0,0-1.21,0A.6.6,0,0,0,37.69,31.5Zm17.45-.17a.34.34,0,0,0,.34-.34.34.34,0,0,0-.67,0A.34.34,0,0,0,55.14,31.33Zm-7.83-.07a.61.61,0,0,0,.61-.6.6.6,0,0,0-.61-.6.6.6,0,0,0-.6.6A.6.6,0,0,0,47.31,31.26Zm10.43-.6a.34.34,0,1,0,0-.67.34.34,0,0,0,0,.67ZM46.07,29.27a.33.33,0,0,0,.33-.33.33.33,0,0,0-.66,0A.33.33,0,0,0,46.07,29.27Zm-13-.18a.61.61,0,0,0,.6-.61.61.61,0,0,0-1.21,0A.61.61,0,0,0,33.1,29.09Zm22.77-1.45a.34.34,0,1,0-.33-.33A.33.33,0,0,0,55.87,27.64ZM58,27.21A.61.61,0,0,0,58,26a.61.61,0,1,0,0,1.21ZM32.28,26.3a.33.33,0,0,0,0-.66.33.33,0,0,0,0,.66ZM58.05,25a.34.34,0,0,0,0-.67.34.34,0,0,0,0,.67Zm-16.64-.92a.32.32,0,0,0,.33-.33.33.33,0,0,0-.33-.33.33.33,0,0,0-.33.33A.33.33,0,0,0,41.41,24.12Zm-8.52-1.63a.33.33,0,0,0,.33-.33.34.34,0,0,0-.67,0A.34.34,0,0,0,32.89,22.49Zm1.69-1.21a.33.33,0,1,0-.34-.33A.33.33,0,0,0,34.58,21.28Z" />
    <g
       id="use81516">
      <path
         id="path72951"
         class="cls-10"
         d="M34.22,26.19c-1.49,0-2.66.42-3,1.53-.93,3.14,1.62,4.55,4.31,6.1h-.39a.78.78,0,0,0-.77.77V36.1a.77.77,0,0,0,.74.77,9,9,0,0,0-2.23,2.36C30,43.64,29.43,47.7,31,51.76a90.83,90.83,0,0,1,2.86,8.72,1.35,1.35,0,0,1-1.19,1.67c-1.08.12-1.08,1.31-1.31,1.91S30,65.37,30.14,66s-1.07.48-2.15,1A9.34,9.34,0,0,0,25,70c-.6,1-1.07,2.26,3.94,3.46S42.32,90.32,44.47,91.75s7.76-.12,6.92-2.62S48,80.64,47.74,80.05s.13-1.48,1.1-4,.55-2.36.5-2.74.47-.76.47-1S49,71.31,48.71,71s-1.31-1.48-1.52-1.74.21-.59.47-.75A6.74,6.74,0,0,0,49,66.71c.34-.67.76-.84,1.69-1.18a21.87,21.87,0,0,1,3.51-1,2.79,2.79,0,0,0,2.49-1.43,3.57,3.57,0,0,0-.47-2.79c-.17-.29-.08-.34-.08-.51a1.06,1.06,0,0,1,.38-.59c.17-.12.21-.42.12-.8a.86.86,0,0,0-.46-.55,1.22,1.22,0,0,0,.51-.8c.16-.63,0-1,.08-1.31s.84-.17,1.22-.21A2.73,2.73,0,0,0,59.22,55a1.08,1.08,0,0,0,.25-1,12.09,12.09,0,0,0-.84-2,14,14,0,0,0-1.48-2.53c-.63-.8-.34-1-.34-1.73a6.63,6.63,0,0,0-.67-2.61A8.42,8.42,0,0,1,55.51,43a11.71,11.71,0,0,0-1.06-2.61c.28.16.52-.2.64-1s-.79-1.64-2.47-2.49a.76.76,0,0,0,.64-.76V34.59a.77.77,0,0,0-.77-.77h-.21c2.69-1.55,5.24-3,4.31-6.1-.35-1.16-1.61-1.56-3.21-1.53a13.07,13.07,0,0,0-2.4.29,4.28,4.28,0,0,0-1.6-.29,6.42,6.42,0,0,0-2.61.82c-.22-.62-.63-.84-.88-.82-.43,0-1,.76-1.35,1.48a.95.95,0,0,0-1.26,0c-.41-.75-1-1.5-1.39-1.48-.24,0-.63.24-.83.83a6.27,6.27,0,0,0-2.75-.83,4.38,4.38,0,0,0-1.44.29,13.49,13.49,0,0,0-2.65-.29Zm1.64,1a1.34,1.34,0,0,0-.23.53c-.5,2.9,1.29,4.57,3,6.1H36.21c-1.67-1.78-4.73-5.53-1.92-6.39a5.73,5.73,0,0,1,1.57-.24Zm3.66,0a4.33,4.33,0,0,1,1.42.34s0,.11,0,.16C40.49,27.52,40,27.35,39.52,27.19Zm8.78,0c-.49.16-1,.33-1.4.5a.88.88,0,0,0,0-.16,4.33,4.33,0,0,1,1.42-.34Zm3.67,0a5.85,5.85,0,0,1,1.57.24c2.8.86-.26,4.61-1.93,6.39H49.22c1.68-1.53,3.47-3.2,3-6.1a1.32,1.32,0,0,0-.22-.53Zm-2.49.25c1.52.82,0,4.39-.95,6.38H45.91a13.46,13.46,0,0,0,1-5.66,22.38,22.38,0,0,1,2.56-.72Zm-11.14,0a22.38,22.38,0,0,1,2.56.72,13.46,13.46,0,0,0,1,5.66H39.29c-1-2-2.46-5.55-.95-6.38Zm7.26.76a.09.09,0,0,1,.06,0c-.21.1-.4.19-.56.28l.5-.31Zm-3.12.15.24.16-.26-.14,0,0Zm3.47.17c.47.81.06,3.52-.29,5.3h-3.4c-.23-1.72-.47-4.31,0-5.16.44.17.78.31,1,.37a1,1,0,0,0,.7.31,1,1,0,0,0,.7-.31c.25-.08.72-.27,1.34-.51Z" />
    </g>
    <path
       id="use81652"
       class="cls-11"
       d="M66.94,17.57h.3c.35,0,.49.12.49.35s-.27.6-.91,1.19l-2,1.87V18.61c0-.84.12-1,1.06-1v-.22H62.54v.22c.9.07,1,.22,1,1v5c0,1-.12,1.11-1,1.17V25h3.27v-.22c-.9-.06-1-.2-1-1V21.6l.3-.25,1.23,1.22a5.57,5.57,0,0,1,1.51,2c0,.16-.17.25-.49.26H67V25h3.54v-.22c-.6,0-.76-.13-1.82-1.25L66,20.66l2.2-2.19c.79-.75,1-.84,1.77-.9v-.22h-3v.22" />
    <g
       id="use81676">
      <path
         id="path23428"
         class="cls-12"
         d="M22.43,19.28a41.4,41.4,0,0,0,3,3.89,39,39,0,0,0,3.46,3.41A39.26,39.26,0,0,0,25.45,30a40.94,40.94,0,0,0-3,3.87,42.48,42.48,0,0,0-3-3.9A38.58,38.58,0,0,0,16,26.52a40.24,40.24,0,0,0,3.45-3.38,41.72,41.72,0,0,0,3-3.86Z" />
    </g>
  </g>
</svg>
