<?xml version="1.0" encoding="UTF-8" standalone="no"?>
<svg
   id="svg2"
   viewBox="0 0 70.380005 99.420006"
   version="1.1"
   sodipodi:docname="DQ.svg"
   inkscape:version="1.3.2 (091e20e, 2023-11-25, custom)"
   width="70.380005"
   height="99.420006"
   xmlns:inkscape="http://www.inkscape.org/namespaces/inkscape"
   xmlns:sodipodi="http://sodipodi.sourceforge.net/DTD/sodipodi-0.dtd"
   xmlns:xlink="http://www.w3.org/1999/xlink"
   xmlns="http://www.w3.org/2000/svg"
   xmlns:svg="http://www.w3.org/2000/svg"
   xmlns:rdf="http://www.w3.org/1999/02/22-rdf-syntax-ns#"
   xmlns:cc="http://creativecommons.org/ns#"
   xmlns:dc="http://purl.org/dc/elements/1.1/">
  <sodipodi:namedview
     id="namedview6"
     pagecolor="#ffffff"
     bordercolor="#000000"
     borderopacity="0.25"
     inkscape:showpageshadow="2"
     inkscape:pageopacity="0.0"
     inkscape:pagecheckerboard="0"
     inkscape:deskcolor="#d1d1d1"
     inkscape:zoom="15.285714"
     inkscape:cx="34.90187"
     inkscape:cy="50.210281"
     inkscape:window-width="3840"
     inkscape:window-height="2054"
     inkscape:window-x="-11"
     inkscape:window-y="-11"
     inkscape:window-maximized="1"
     inkscape:current-layer="svg2" />
  <defs
     id="defs6">
    <style
       id="style1">
      .cls-1 {
        filter: url(#filter63625-2-4);
      }

      .cls-2 {
        stroke: #000;
        fill: url(#linear-gradient);
      }

      .cls-2, .cls-6 {
        stroke-miterlimit: 10;
        stroke-width: 0.23px;
      }

      .cls-3 {
        fill: url(#linear-gradient-2);
      }

      .cls-4 {
        opacity: 0.47;
        fill: url(#radial-gradient);
      }

      .cls-4, .cls-5, .cls-7 {
        isolation: isolate;
      }

      .cls-5 {
        opacity: 0.4;
        fill: url(#radial-gradient-2);
      }

      .cls-6 {
        fill: none;
      }

      .cls-11, .cls-6 {
        stroke: #fff;
      }

      .cls-7 {
        opacity: 0.45;
        fill: url(#radial-gradient-3);
      }

      .cls-10, .cls-12, .cls-8 {
        stroke: #c8c8c8;
      }

      .cls-12, .cls-8 {
        stroke-linejoin: round;
      }

      .cls-8 {
        stroke-width: 0.17px;
        fill: url(#linear-gradient-3);
      }

      .cls-9 {
        fill: url(#radial-gradient-4);
      }

      .cls-10 {
        stroke-width: 0.4px;
        fill-rule: evenodd;
        fill: url(#linear-gradient-4);
      }

      .cls-11 {
        stroke-width: 0.49px;
        fill: url(#linear-gradient-5);
      }

      .cls-12 {
        stroke-width: 0.35px;
        fill: url(#linear-gradient-6);
      }
    </style>
    <filter
       id="filter63625-2-4"
       name="filter63625-2-4"
       x="-0.12863863"
       y="-0.090976909"
       width="1.2572773"
       height="1.1819538">
      <feGaussianBlur
         result="feGaussianBlur63627-6-6"
         stdDeviation="3.76"
         id="feGaussianBlur1" />
    </filter>
    <linearGradient
       id="linear-gradient"
       x1="-1209.39"
       y1="-2449.3101"
       x2="-1199.9"
       y2="-1934.79"
       gradientTransform="matrix(0.23,0,0,-0.23,316.24,-519.29)"
       gradientUnits="userSpaceOnUse">
      <stop
         offset="0"
         stop-color="#f3f3f3"
         id="stop1" />
      <stop
         offset="1"
         stop-color="#8f8f8f"
         id="stop2" />
    </linearGradient>
    <linearGradient
       id="linear-gradient-2"
       x1="-1685.61"
       y1="-2217.96"
       x2="-1553.33"
       y2="-2655.6699"
       gradientTransform="matrix(0.24,0,0,-0.24,431.4,-507.94)"
       gradientUnits="userSpaceOnUse">
      <stop
         offset="0"
         stop-color="#590000"
         id="stop3" />
      <stop
         offset="1"
         stop-color="#bf0303"
         id="stop4" />
    </linearGradient>
    <radialGradient
       id="radial-gradient"
       cx="216.36"
       cy="6299.96"
       r="58.68"
       gradientTransform="matrix(-0.23,0,0,0.21,64.71,-1203.39)"
       gradientUnits="userSpaceOnUse">
      <stop
         offset="0"
         stop-color="#fff"
         id="stop5" />
      <stop
         offset="1"
         stop-color="#fff"
         stop-opacity="0"
         id="stop6" />
    </radialGradient>
    <radialGradient
       id="radial-gradient-2"
       cx="-1243.1801"
       cy="-1396.96"
       r="63.150002"
       gradientTransform="matrix(0.23,0,0,-0.36,349.05,-479.79)"
       xlink:href="#radial-gradient" />
    <radialGradient
       id="radial-gradient-3"
       cx="-435.45001"
       cy="666.35999"
       r="26.74"
       gradientTransform="matrix(0.84,0,0,-1.48,406.74,1046.83)"
       xlink:href="#radial-gradient" />
    <linearGradient
       id="linear-gradient-3"
       x1="-4881.8999"
       y1="-13034.22"
       x2="-4881.8999"
       y2="-12977.08"
       gradientTransform="matrix(0.06,0,0,-0.06,292.7,-662.24)"
       xlink:href="#linear-gradient" />
    <radialGradient
       id="radial-gradient-4"
       cx="-154.19"
       cy="1230.2"
       r="25.370001"
       gradientTransform="matrix(0.83,0.56,2.15,-3.16,-2491.97,4060.76)"
       xlink:href="#radial-gradient" />
    <linearGradient
       id="linear-gradient-4"
       x1="-1318.37"
       y1="-2797.54"
       x2="-1318.37"
       y2="-2620.6201"
       gradientTransform="matrix(0.24,0,0,-0.24,353.87,-582.59)"
       xlink:href="#linear-gradient" />
    <linearGradient
       id="linear-gradient-5"
       x1="-842.58002"
       y1="-2558.6399"
       x2="-842.58002"
       y2="-2511.9299"
       gradientTransform="matrix(0.24,0,0,-0.24,264.92,-580.64)"
       xlink:href="#linear-gradient" />
    <linearGradient
       id="linear-gradient-6"
       x1="-2979.3101"
       y1="-5793.6299"
       x2="-2979.3101"
       y2="-5736.5098"
       gradientTransform="matrix(0.12,0,0,-0.12,371.34,-673.29)"
       xlink:href="#linear-gradient" />
    <linearGradient
       inkscape:collect="always"
       xlink:href="#linear-gradient"
       id="linearGradient1"
       gradientUnits="userSpaceOnUse"
       gradientTransform="matrix(0.23,0,0,-0.23,316.24,-519.29)"
       x1="-1209.39"
       y1="-2449.3101"
       x2="-1199.9"
       y2="-1934.79" />
    <radialGradient
       inkscape:collect="always"
       xlink:href="#radial-gradient"
       id="radialGradient1"
       gradientUnits="userSpaceOnUse"
       gradientTransform="matrix(-0.23,0,0,0.21,64.71,-1203.39)"
       cx="216.36"
       cy="6299.96"
       r="58.68" />
  </defs>
  <title
     id="title6">Five of Diamonds</title>
  <g
     id="queen_diamond"
     data-name="queen diamond"
     transform="translate(-7.0350001,-9.3050001)">
    <g
       id="use72915">
      <g
         id="g70507">
        <rect
           id="rect70511"
           class="cls-2"
           x="7.1500001"
           y="9.4200001"
           width="70.150002"
           height="99.190002"
           rx="3.8800001"
           ry="3.8800001"
           style="fill:url(#linearGradient1)" />
        <rect
           id="rect6073"
           class="cls-3"
           x="10.61"
           y="12.88"
           width="63.240002"
           height="92.260002"
           rx="1.29"
           ry="1.29"
           style="fill:url(#linear-gradient-2)" />
        <rect
           id="rect70515"
           class="cls-4"
           x="10.61"
           y="80.860001"
           width="26.549999"
           height="24.280001"
           rx="0.98000002"
           ry="0.98000002"
           style="fill:url(#radialGradient1)" />
        <rect
           id="rect70517"
           class="cls-5"
           x="45.27"
           y="12.88"
           width="28.57"
           height="45.27"
           rx="1.04"
           ry="1.04"
           style="fill:url(#radial-gradient-2)" />
        <path
           id="path70519"
           class="cls-6"
           d="M 25.57,101.12 H 70.29 V 27.51 M 58.72,16.91 H 14.16 v 73.18" />
        <path
           id="path70521"
           class="cls-7"
           d="m 64.6,59 c 0,21.89 -10,39.64 -22.38,39.64 C 29.84,98.64 19.84,80.9 19.84,59 c 0,-21.9 10,-39.64 22.38,-39.64 12.38,0 22.38,17.76 22.38,39.64 z"
           style="fill:url(#radial-gradient-3)" />
      </g>
    </g>
    <g
       id="use74154">
      <path
         id="path74110"
         class="cls-8"
         d="m 17.36,93.81 a 18.4,18.4 0 0 0 1.44,1.87 19.34,19.34 0 0 0 1.66,1.65 18.14,18.14 0 0 0 -1.65,1.67 19.76,19.76 0 0 0 -1.43,1.86 20.23,20.23 0 0 0 -1.45,-1.88 20.32,20.32 0 0 0 -1.67,-1.65 19.78,19.78 0 0 0 1.66,-1.62 20.9,20.9 0 0 0 1.44,-1.86 z"
         style="fill:url(#linear-gradient-3)" />
    </g>
    <path
       id="path7078"
       class="cls-9"
       d="m 23.35,97.88 c 0.53,-0.9 -1.57,-4.1 -1.84,-5.3 a 1.7,1.7 0 0 1 -0.06,-0.31 3,3 0 0 1 0,-0.52 4.64,4.64 0 0 1 0.13,-0.91 0.33,0.33 0 0 0 0.16,-0.6 l 0.21,-0.69 a 9.11,9.11 0 0 1 0.6,-1.44 c 0.32,-0.61 0.71,-1.18 1.09,-1.76 l 0.37,-0.53 h 0.11 a 0.6,0.6 0 0 0 0.61,-0.6 0.65,0.65 0 0 0 -0.06,-0.24 c 0.15,-0.18 0.3,-0.37 0.45,-0.54 a 29.36,29.36 0 0 1 2.14,-2 c 0.81,-0.75 1.67,-1.43 2.53,-2.1 1,-0.8 2.12,-1.51 3.21,-2.22 1.09,-0.71 2.08,-1.31 3.13,-2 h 0.15 a 0.61,0.61 0 0 0 0,-1.21 0.61,0.61 0 0 0 -0.61,0.6 0.6,0.6 0 0 0 0.44,0.58 l -0.3,0.17 c -1.28,0.77 -2.55,1.55 -3.81,2.36 -1.09,0.71 -2.19,1.42 -3.22,2.23 -0.87,0.67 -1.72,1.36 -2.53,2.1 -0.62,0.56 -1.24,1.12 -1.83,1.72 a 0.58,0.58 0 0 0 -0.3,-0.08 0.61,0.61 0 0 0 -0.61,0.6 0.62,0.62 0 0 0 0.12,0.36 c -0.36,0.44 -0.7,0.89 -1,1.36 a 19.74,19.74 0 0 0 -1.08,1.76 l -0.15,0.31 c 0,-0.61 0.11,-1.22 0.19,-1.83 a 16.57,16.57 0 0 1 0.52,-2.52 15.31,15.31 0 0 1 0.83,-2.2 13,13 0 0 0 0.87,-1.63 c 0.05,-0.12 0.09,-0.25 0.14,-0.37 v -0.09 c 0.44,-0.79 0.89,-1.56 1.34,-2.33 l 0.09,-0.14 0.51,-0.7 c 0.5,-0.64 1,-1.25 1.54,-1.87 0.68,-0.78 1.4,-1.52 2.12,-2.25 0.72,-0.73 1.68,-1.62 2.54,-2.41 0.86,-0.79 1.87,-1.65 2.8,-2.49 l 3,-2.63 c 1.12,-1 2.21,-2 3.28,-3 l 1.7,-1.65 a 10.71,10.71 0 0 0 1.68,-1.33 c 1.11,-0.94 2.23,-1.86 3.39,-2.74 a 15.89,15.89 0 0 1 2.27,-1.56 l 0.5,-0.22 a 0.52,0.52 0 0 0 0,0.18 0.61,0.61 0 0 0 0.6,0.61 0.6,0.6 0 0 0 0.6,-0.61 0.58,0.58 0 0 0 -0.14,-0.39 c 2.23,-0.16 2.69,-0.49 0.27,-0.33 a 1.82,1.82 0 0 0 -0.57,0.13 h -0.16 a 0.59,0.59 0 0 0 -0.53,0.33 21.16,21.16 0 0 0 -3.41,2.21 C 46.14,58 45,59 43.93,59.9 c -0.46,0.39 -0.76,0.66 -0.94,0.83 L 44.71,59 c 1.25,-1.26 2.43,-2.58 3.58,-3.93 0.71,-0.85 1.39,-1.73 2.06,-2.61 a 0.62,0.62 0 0 0 0.47,0.22 0.6,0.6 0 0 0 0.6,-0.61 0.6,0.6 0 0 0 -0.36,-0.55 c 0.3,-0.41 0.6,-0.81 0.89,-1.22 a 56.29,56.29 0 0 0 3.46,-5.45 35.88,35.88 0 0 0 2.78,-6.24 54,54 0 0 0 1.13,-5.8 c 0.37,-2.33 -0.21,-2 -0.58,0.34 a 53.82,53.82 0 0 1 -1.13,5.79 35.92,35.92 0 0 1 -2.79,6.24 c -0.08,0.15 -0.18,0.29 -0.26,0.44 a 0.33,0.33 0 1 0 -0.33,0.41 h 0.12 a 52.87,52.87 0 0 1 -3,4.63 l -0.6,0.84 a 0.6,0.6 0 0 0 -0.55,0.59 0.5,0.5 0 0 0 0,0.12 c -0.82,1.1 -1.65,2.17 -2.53,3.22 -1.15,1.35 -2.33,2.67 -3.58,3.93 -1.25,1.26 -2.36,2.39 -3.58,3.54 -1.22,1.15 -2.17,2 -3.3,3 -1.13,1 -2,1.75 -3,2.64 -1,0.89 -1.82,1.65 -2.76,2.46 -0.94,0.81 -1.6,1.46 -2.36,2.23 a 0.35,0.35 0 0 0 -0.16,-0.2 c 0.3,-0.31 0.6,-0.61 0.91,-0.91 1,-0.94 2,-1.85 3,-2.8 1.18,-1.11 2.33,-2.25 3.47,-3.4 a 39.09,39.09 0 0 0 3.69,-4.18 46.23,46.23 0 0 0 3.28,-5.4 36,36 0 0 0 2.66,-6.11 41.51,41.51 0 0 0 1.36,-7 54.93,54.93 0 0 0 0.08,-6 0.61,0.61 0 0 0 0.2,-0.45 0.6,0.6 0 0 0 -0.24,-0.48 c 0,-0.25 0,-0.49 0,-0.74 0,-0.42 0,-0.83 0,-1.25 -0.09,-2.35 -0.66,-2 -0.57,0.33 0,0.42 0,0.83 0,1.25 0,0.11 0,0.22 0,0.33 a 0.59,0.59 0 0 0 -0.39,0.56 0.6,0.6 0 0 0 0.43,0.57 c 0,1 0,2.07 0,3.11 A 0.6,0.6 0 0 0 46,41 a 0.61,0.61 0 0 0 0.6,0.61 0.78,0.78 0 0 0 0.22,0 c 0,0.66 0,1.34 -0.1,2 -0.19,1.51 -0.42,3 -0.75,4.51 0,-0.71 0,-1.42 0,-2.13 a 49.81,49.81 0 0 0 -0.37,-5 28,28 0 0 0 -0.68,-3.4 12,12 0 0 0 -0.57,-1.66 1.38,1.38 0 0 0 -0.27,-0.45 c -1.9,-1.71 -2.54,-1.32 -0.62,0.37 a 1.73,1.73 0 0 1 0.27,0.43 9.86,9.86 0 0 1 0.57,1.66 27.92,27.92 0 0 1 0.7,3.39 c 0.22,1.68 0.33,3.36 0.39,5 0,0.93 0,1.87 0,2.81 a 7.87,7.87 0 0 0 0,1.22 1.55,1.55 0 0 0 -0.07,0.23 c -0.39,1.15 -0.82,2.28 -1.31,3.39 a 0.61,0.61 0 0 0 -0.53,-0.3 0.6,0.6 0 0 0 -0.6,0.6 0.61,0.61 0 0 0 0.6,0.61 h 0.12 c -0.29,0.62 -0.6,1.23 -0.94,1.83 a 45.09,45.09 0 0 1 -3.29,5.41 39.09,39.09 0 0 1 -3.62,4.2 c -1.14,1.15 -2.29,2.3 -3.48,3.41 -1,0.94 -2,1.86 -3.05,2.8 l -0.51,0.52 a 0.33,0.33 0 0 0 -0.28,0.28 19.78,19.78 0 0 0 -1.76,2 c -0.67,0.94 -1.33,1.89 -1.91,2.89 -0.22,0.3 -0.42,0.6 -0.61,0.92 a 10,10 0 0 0 -0.58,1 6.43,6.43 0 0 0 -0.32,0.71 v 0 c -0.16,0.3 -0.33,0.61 -0.48,0.92 -0.15,0.31 -0.4,0.84 -0.58,1.26 a 1.55,1.55 0 0 1 0,-0.21 18.09,18.09 0 0 1 0.5,-1.74 c 0.24,-0.68 0.52,-1.34 0.81,-2 l 1.06,-2.43 c 0.49,-1.1 1,-2.17 1.57,-3.23 0.69,-1.31 1.3,-2.66 1.88,-4 0.69,-1.66 1.37,-3.32 2.06,-5 0.69,-1.68 1.41,-3.43 2.07,-5.16 a 0.33,0.33 0 0 0 0.25,-0.32 0.32,0.32 0 0 0 -0.06,-0.2 c 0.65,-1.82 1.24,-3.66 1.8,-5.51 0.65,-2.15 1.21,-4.32 1.65,-6.52 A 42.61,42.61 0 0 0 36.33,39 c -0.08,-2.63 -0.38,-5.25 -0.7,-7.87 -0.2,-1.57 -0.44,-3.14 -0.68,-4.71 A 5.23,5.23 0 0 0 34.59,25 a 0.65,0.65 0 0 0 0.19,0 0.61,0.61 0 0 0 0.61,-0.61 0.61,0.61 0 0 0 -1.21,0 0.59,0.59 0 0 0 0.17,0.42 3.7,3.7 0 0 0 0,1.88 c 0.11,0.69 0.21,1.39 0.32,2.08 a 0.38,0.38 0 0 0 -0.24,-0.08 0.33,0.33 0 1 0 0,0.66 0.34,0.34 0 0 0 0.3,-0.18 q 0.16,1.11 0.3,2.22 c 0,0.19 0.05,0.38 0.07,0.57 a 0.6,0.6 0 1 0 -0.27,1.14 0.61,0.61 0 0 0 0.39,-0.15 c 0.25,2.1 0.46,4.2 0.53,6.31 a 42.8,42.8 0 0 1 -0.53,7.75 c -0.44,2.2 -1,4.37 -1.65,6.52 -0.52,1.7 -1.06,3.4 -1.66,5.08 a 0.31,0.31 0 0 0 -0.16,0.29 0.25,0.25 0 0 0 0,0.12 c -0.05,0.11 -0.09,0.23 -0.13,0.34 q -1,2.7 -2.14,5.36 c -0.69,1.65 -1.37,3.31 -2.07,5 -0.58,1.35 -1.19,2.7 -1.88,4 C 25,74.81 24.48,75.88 24,77 c -0.36,0.81 -0.72,1.63 -1.07,2.44 -0.35,0.81 -0.58,1.33 -0.82,2 -0.24,0.67 -0.37,1.14 -0.5,1.74 -0.13,0.6 -0.21,1 -0.3,1.49 0,0.22 -0.08,0.43 -0.14,0.65 -0.25,1.06 -0.28,1.6 -0.18,1.68 0.1,0.08 0,0.36 -0.07,0.55 a 18.73,18.73 0 0 0 -0.2,2.13 c 0,0.33 0,0.66 0,1 0,0.34 -0.15,0.49 -0.21,0.74 l -0.06,0.3 h -3 c 2,0.58 3.56,0.41 5.87,6.18 z m 0.58,-4.67 a 0.34,0.34 0 0 0 0,-0.67 0.34,0.34 0 0 0 0,0.67 z M 19.3,91.52 a 0.61,0.61 0 0 0 0.61,-0.61 0.61,0.61 0 1 0 -0.61,0.61 z m 3.27,-0.73 a 0.62,0.62 0 0 0 0.61,-0.61 0.61,0.61 0 0 0 -0.61,-0.6 0.6,0.6 0 0 0 -0.6,0.6 0.6,0.6 0 0 0 0.6,0.61 z m -4.27,-1.7 a 0.34,0.34 0 0 0 0.34,-0.33 0.34,0.34 0 0 0 -0.67,0 0.33,0.33 0 0 0 0.33,0.33 z m 1.52,-0.54 a 0.34,0.34 0 1 0 -0.34,-0.34 0.34,0.34 0 0 0 0.34,0.34 z m 5.71,-0.72 a 0.62,0.62 0 0 0 0.61,-0.61 0.6,0.6 0 0 0 -0.61,-0.6 0.6,0.6 0 0 0 -0.6,0.6 0.61,0.61 0 0 0 0.6,0.61 z m 1.42,-1 A 0.33,0.33 0 1 0 26.62,86.5 0.33,0.33 0 0 0 27,86.79 Z m -8.31,-0.66 a 0.61,0.61 0 1 0 -0.61,-0.6 0.6,0.6 0 0 0 0.61,0.56 z M 20,84.38 a 0.61,0.61 0 0 0 0.6,-0.61 0.6,0.6 0 0 0 -0.6,-0.6 0.6,0.6 0 0 0 -0.61,0.6 0.62,0.62 0 0 0 0.61,0.61 z m 7.83,-0.25 a 0.33,0.33 0 0 0 0.34,-0.33 0.34,0.34 0 0 0 -0.67,0 0.33,0.33 0 0 0 0.36,0.33 z m 4.39,-0.54 a 0.61,0.61 0 1 0 -0.61,-0.61 0.6,0.6 0 0 0 0.64,0.61 z m -6.47,-0.73 a 0.6,0.6 0 0 0 0.6,-0.6 0.61,0.61 0 1 0 -1.21,0 0.6,0.6 0 0 0 0.64,0.6 z m 2.37,-0.15 c 0,0 0.71,-0.46 1.82,-1.28 0.48,-0.35 0.94,-0.71 1.44,-1 a 22.34,22.34 0 0 1 2.21,-1.17 l 0.46,-0.21 a 0.63,0.63 0 0 0 -0.14,0.38 0.61,0.61 0 1 0 1.21,0 0.59,0.59 0 0 0 -0.57,-0.59 c 0.53,-0.23 1.06,-0.47 1.6,-0.67 0.54,-0.2 1.21,-0.49 1.81,-0.72 l 0.78,-0.29 c 2.39,-0.92 3,-1.28 0.62,-0.37 l -0.78,0.3 -1.82,0.72 c -0.87,0.34 -1.72,0.72 -2.56,1.1 a 32.55,32.55 0 0 0 -3.43,1.87 c -0.5,0.3 -1,0.67 -1.44,1 a 13.37,13.37 0 0 0 -1.21,0.93 z M 19.7,82.08 a 0.61,0.61 0 0 0 0.6,-0.61 0.61,0.61 0 0 0 -1.21,0 0.61,0.61 0 0 0 0.64,0.61 z m 13.21,-0.67 a 0.33,0.33 0 1 0 -0.33,-0.33 0.33,0.33 0 0 0 0.36,0.33 z m -11,-0.85 a 0.6,0.6 0 0 0 0.6,-0.6 0.61,0.61 0 0 0 -1.21,0 0.6,0.6 0 0 0 0.7,0.6 z m 3.26,-0.18 a 0.6,0.6 0 0 0 0.6,-0.6 0.6,0.6 0 0 0 -0.6,-0.61 0.62,0.62 0 0 0 -0.61,0.61 0.61,0.61 0 0 0 0.67,0.6 z M 17,79.9 A 0.33,0.33 0 0 0 17.33,79.57 0.32,0.32 0 0 0 17,79.24 0.33,0.33 0 0 0 16.67,79.57 0.33,0.33 0 0 0 17,79.9 Z m 21.11,-1.15 a 0.34,0.34 0 0 0 0,-0.67 0.34,0.34 0 0 0 0,0.67 z m -7.22,-0.06 a 0.61,0.61 0 1 0 -0.61,-0.61 0.6,0.6 0 0 0 0.64,0.61 z m 10.67,-0.54 a 0.34,0.34 0 1 0 0,-0.67 v 0 a 0.6,0.6 0 0 0 -0.42,-1 0.61,0.61 0 1 0 0,1.21 h 0.17 a 0.33,0.33 0 0 0 0.28,0.51 z m 2.09,-1.4 a 0.61,0.61 0 1 0 -0.61,-0.6 0.6,0.6 0 0 0 0.64,0.6 z m -20.62,0 a 0.61,0.61 0 1 0 -0.61,-0.6 0.6,0.6 0 0 0 0.64,0.6 z m 4.77,-0.06 a 0.61,0.61 0 1 0 0,-1.21 0.61,0.61 0 0 0 0,1.21 z m 17.39,-0.06 a 0.33,0.33 0 1 0 -0.33,-0.33 0.33,0.33 0 0 0 0.36,0.33 z m -13,-0.42 a 0.34,0.34 0 0 0 0,-0.67 0.34,0.34 0 0 0 0,0.67 z m -5.54,-0.4 0.6,-0.85 a 16.79,16.79 0 0 1 1.2,-1.45 0.41,0.41 0 0 0 0.21,0.15 c -0.65,0.66 -1.3,1.32 -1.9,2 l -0.11,0.12 z m 11.5,-0.91 2,-1.1 1.5,-0.82 h 0.16 a 0.6,0.6 0 0 0 0.58,-0.45 l 2.08,-1.18 -2.07,1.16 a 0.51,0.51 0 0 0 0,-0.13 0.61,0.61 0 1 0 -0.8,0.57 l -0.48,0.26 -2.93,1.69 z M 46,74.82 a 0.34,0.34 0 0 0 0,-0.67 0.34,0.34 0 0 0 0,0.67 z M 22.86,73.91 a 0.61,0.61 0 0 0 0.61,-0.61 0.58,0.58 0 0 0 0,-0.18 h 0.06 a 0.34,0.34 0 0 0 0.34,-0.34 0.34,0.34 0 0 0 -0.67,0 0.61,0.61 0 0 0 -0.3,-0.08 0.61,0.61 0 0 0 0,1.21 z m -2,-0.06 a 0.34,0.34 0 0 0 0,-0.67 0.34,0.34 0 0 0 0,0.67 z m 4.21,-2.3 a 0.6,0.6 0 0 0 0.6,-0.6 0.61,0.61 0 0 0 -0.6,-0.61 0.62,0.62 0 0 0 -0.61,0.61 0.61,0.61 0 0 0 0.59,0.6 z m 25.56,-0.12 a 0.33,0.33 0 0 0 0.33,-0.33 0.34,0.34 0 0 0 -0.67,0 0.34,0.34 0 0 0 0.32,0.33 z M 44.72,71.22 45.63,70.7 A 45.33,45.33 0 0 0 50,67.77 c 0.7,-0.54 1.38,-1.11 2,-1.7 a 0.6,0.6 0 0 0 1.16,-0.2 0.62,0.62 0 0 0 -0.34,-0.56 c 0.48,-0.45 0.94,-0.9 1.4,-1.37 0.46,-0.47 0.66,-0.69 1,-1 v 0 c 1,-0.88 2,-1.75 2.9,-2.65 v -0.05 a 0.61,0.61 0 0 0 1.21,-0.09 0.61,0.61 0 0 0 -0.54,-0.6 13.4,13.4 0 0 0 1.51,-1.85 c 0.57,-0.84 1.13,-1.69 1.68,-2.54 0.55,-0.85 1.08,-1.71 1.61,-2.57 0.3,-0.51 0.6,-1 0.89,-1.52 0,0 0,0.08 0,0.12 a 0.6,0.6 0 0 0 0.6,0.61 0.61,0.61 0 1 0 0,-1.21 0.63,0.63 0 0 0 -0.42,0.17 c 0.08,-0.15 0.17,-0.29 0.24,-0.44 a 10.83,10.83 0 0 0 0.63,-1.44 5.37,5.37 0 0 1 0.21,-0.56 c 0.14,-0.27 0.25,-0.51 0.34,-0.7 a 0.61,0.61 0 0 0 0.51,-0.6 0.62,0.62 0 0 0 -0.36,-0.56 0.31,0.31 0 0 0 0.24,-0.31 0.33,0.33 0 1 0 -0.66,0 0.33,0.33 0 0 0 0.15,0.27 0.61,0.61 0 0 0 -0.24,1.15 c -0.18,0.29 -0.37,0.65 -0.6,1.11 a 5.42,5.42 0 0 0 -0.22,0.56 10.59,10.59 0 0 1 -0.61,1.43 c -0.4,0.78 -0.85,1.52 -1.3,2.27 -0.45,0.75 -0.99,1.63 -1.54,2.48 -0.55,0.85 -1.11,1.7 -1.68,2.54 a 11,11 0 0 1 -1.24,1.56 0.59,0.59 0 0 0 -0.29,0.33 l -0.68,0.69 c -0.55,0.52 -1.1,1 -1.66,1.53 0.78,-1 1.5,-2 2.19,-3 A 24.58,24.58 0 0 0 61,53.35 c 0,-0.1 0.07,-0.21 0.1,-0.31 a 0.61,0.61 0 1 0 0.6,-0.73 0.63,0.63 0 0 0 -0.41,0.16 27.91,27.91 0 0 0 1,-6 27.45,27.45 0 0 0 -0.24,-6.21 c -0.5,-3.85 -1.45,-3.31 -1,0.54 a 28.16,28.16 0 0 1 0.24,6.22 26.15,26.15 0 0 1 -1.28,6.85 25.17,25.17 0 0 1 -2.92,5.76 38.24,38.24 0 0 1 -3.43,4.38 c -0.72,0.63 -1.44,1.27 -2.17,1.89 -0.52,0.47 -1.08,0.89 -1.62,1.33 -1.91,1.52 -1.31,1.17 0.6,-0.35 0.49,-0.4 1,-0.78 1.48,-1.2 a 36.9,36.9 0 0 1 -3,2.58 40.92,40.92 0 0 1 -4.27,2.88 z m -3.35,-0.15 a 0.34,0.34 0 0 0 0,-0.67 0.34,0.34 0 0 0 0,0.67 z m 6,-0.25 a 0.36,0.36 0 1 0 -0.06,0 c 0,0 0.07,0.01 0.09,0 z M 34,70.64 a 0.61,0.61 0 0 0 0.61,-0.6 0.6,0.6 0 0 0 -0.61,-0.6 0.6,0.6 0 0 0 -0.6,0.6 0.6,0.6 0 0 0 0.6,0.6 z m 1.84,-0.18 a 0.33,0.33 0 1 0 -0.33,-0.33 0.34,0.34 0 0 0 0.33,0.33 z M 44.62,69 A 0.34,0.34 0 1 0 44.29,68.67 0.33,0.33 0 0 0 44.62,69 Z m 3,-0.18 a 0.61,0.61 0 1 0 0,-1.21 0.61,0.61 0 0 0 0,1.21 z M 26.27,68.57 a 0.6,0.6 0 0 0 0.61,-0.6 0.62,0.62 0 0 0 -0.61,-0.61 0.61,0.61 0 0 0 -0.61,0.61 0.6,0.6 0 0 0 0.6,0.55 z m 28.64,-0.6 a 0.33,0.33 0 1 0 0,-0.66 0.33,0.33 0 1 0 0,0.66 z M 33.58,67.8 a 0.61,0.61 0 1 0 -0.61,-0.61 0.6,0.6 0 0 0 0.61,0.61 z m -9,-1 a 0.33,0.33 0 0 0 0.33,-0.33 0.32,0.32 0 0 0 -0.33,-0.33 0.33,0.33 0 0 0 -0.33,0.33 0.33,0.33 0 0 0 0.28,0.3 z m 24.41,-0.06 a 0.61,0.61 0 1 0 0,-1.21 0.61,0.61 0 0 0 0,1.21 z m -21.71,-0.6 a 0.6,0.6 0 0 0 0.6,-0.61 0.61,0.61 0 0 0 -0.26,-0.5 0.51,0.51 0 0 0 0,-0.13 0.34,0.34 0 0 0 -0.67,0 0.3,0.3 0 0 0 0,0.1 0.61,0.61 0 0 0 0.29,1.14 z m 13.06,-0.55 a 0.6,0.6 0 0 0 0.6,-0.6 0.6,0.6 0 0 0 -0.6,-0.61 0.62,0.62 0 0 0 -0.61,0.61 0.61,0.61 0 0 0 0.56,0.57 z M 29.2,65.37 c 0.14,0 0.42,-0.69 0.65,-1.94 0.23,-1.25 0.47,-2.54 0.61,-3.82 a 36,36 0 0 0 0.21,-4.76 30.24,30.24 0 0 0 -0.34,-3.55 23.89,23.89 0 0 0 -0.44,-2.36 7.25,7.25 0 0 0 -0.29,-0.9 c -1,-2.33 -1.7,-1.95 -0.62,0.36 a 5.73,5.73 0 0 1 0.28,0.89 21.54,21.54 0 0 1 0.46,2.37 27.92,27.92 0 0 1 0.28,3.51 35.88,35.88 0 0 1 -0.2,4.75 c -0.14,1.28 -0.37,2.55 -0.61,3.82 -0.2,1.1 -0.18,1.61 -0.06,1.6 z m 12.92,0 a 0.33,0.33 0 1 0 -0.33,-0.33 0.34,0.34 0 0 0 0.28,0.28 z m -9.91,-0.24 a 0.33,0.33 0 0 0 0.33,-0.33 0.34,0.34 0 0 0 -0.67,0 0.34,0.34 0 0 0 0.29,0.28 z m 4,-1.09 a 0.61,0.61 0 0 0 0,-1.21 0.61,0.61 0 1 0 0,1.21 z M 53,63.5 a 0.6,0.6 0 0 0 0.6,-0.6 0.61,0.61 0 1 0 -0.6,0.6 z m 6.8,-1.39 a 0.33,0.33 0 1 0 -0.33,-0.33 0.33,0.33 0 0 0 0.33,0.33 z M 48.28,59.27 a 0.61,0.61 0 1 0 -0.61,-0.6 0.6,0.6 0 0 0 0.61,0.6 z m 6.44,-1 a 0.34,0.34 0 0 0 0.34,-0.33 0.34,0.34 0 0 0 -0.34,-0.33 0.33,0.33 0 0 0 -0.34,0.33 0.34,0.34 0 0 0 0.34,0.36 z M 25.29,57.85 a 0.61,0.61 0 1 0 0,-1.21 0.61,0.61 0 0 0 0,1.21 z M 40.6,57.61 A 0.61,0.61 0 1 0 40,57 a 0.6,0.6 0 0 0 0.6,0.64 z m 23.31,-0.73 a 0.33,0.33 0 0 0 0.34,-0.33 0.34,0.34 0 0 0 -0.67,0 0.33,0.33 0 0 0 0.33,0.36 z M 63.16,56.4 a 0.61,0.61 0 1 0 -0.61,-0.6 0.6,0.6 0 0 0 0.61,0.63 z M 44.34,56.22 a 0.61,0.61 0 0 0 0.61,-0.61 0.61,0.61 0 1 0 -1.21,0 0.6,0.6 0 0 0 0.6,0.64 z m -10,-0.67 a 0.61,0.61 0 1 0 0,-1.21 0.61,0.61 0 0 0 0,1.21 z M 28,53 A 0.34,0.34 0 1 0 27.67,52.66 0.34,0.34 0 0 0 28,53 Z m 3.48,-0.12 a 0.61,0.61 0 1 0 0,-1.21 0.61,0.61 0 0 0 0,1.21 z M 58.15,52.7 a 0.61,0.61 0 1 0 -0.6,-0.61 0.61,0.61 0 0 0 0.64,0.59 z M 35.2,52.09 a 0.33,0.33 0 1 0 0,-0.66 0.33,0.33 0 1 0 0,0.66 z m 8.38,-2.54 a 0.61,0.61 0 0 0 0,-1.21 0.61,0.61 0 1 0 0,1.21 z m 7.14,-0.06 a 0.6,0.6 0 0 0 0.6,-0.6 0.61,0.61 0 1 0 -1.21,0 0.6,0.6 0 0 0 0.65,0.58 z M 63.3,48.83 a 0.61,0.61 0 0 0 0,-1.21 0.61,0.61 0 1 0 0,1.21 z M 33.05,48.34 a 0.6,0.6 0 0 0 0.61,-0.6 0.61,0.61 0 1 0 -0.61,0.6 z m 15.37,-0.06 a 0.61,0.61 0 0 0 0.61,-0.6 0.62,0.62 0 0 0 -0.61,-0.61 0.61,0.61 0 0 0 -0.61,0.61 0.6,0.6 0 0 0 0.65,0.58 z M 36.33,46.93 a 0.33,0.33 0 0 0 0,-0.66 0.33,0.33 0 1 0 0,0.66 z m -8.72,-1 A 0.33,0.33 0 1 0 27.28,45.6 0.34,0.34 0 0 0 27.61,46 Z m 22,-0.12 a 0.33,0.33 0 1 0 -0.33,-0.33 0.34,0.34 0 0 0 0.29,0.36 z m 9.71,-0.54 a 0.61,0.61 0 0 0 0.61,-0.61 0.61,0.61 0 0 0 -1.21,0 0.61,0.61 0 0 0 0.56,0.64 z M 43.27,45.03 a 0.34,0.34 0 0 0 0,-0.67 0.34,0.34 0 1 0 0,0.67 z M 67,44.51 a 0.33,0.33 0 0 0 0.33,-0.33 0.34,0.34 0 0 0 -0.67,0 0.33,0.33 0 0 0 0.34,0.33 z M 44,44.39 a 0.61,0.61 0 0 0 0,-1.21 0.61,0.61 0 0 0 0,1.21 z m 9.68,-0.18 a 0.61,0.61 0 0 0 0,-1.21 0.61,0.61 0 1 0 0,1.21 z m 4.15,-0.85 a 0.33,0.33 0 1 0 -0.34,-0.33 0.33,0.33 0 0 0 0.32,0.33 z m 9,-0.18 a 0.61,0.61 0 1 0 -0.61,-0.6 0.6,0.6 0 0 0 0.63,0.6 z m -32,0 a 0.34,0.34 0 0 0 -0.07,-0.67 0.34,0.34 0 1 0 0,0.67 z m 27.81,-1 a 0.33,0.33 0 0 0 0.33,-0.34 0.34,0.34 0 0 0 -0.33,-0.34 0.34,0.34 0 0 0 -0.33,0.34 0.34,0.34 0 0 0 0.33,0.38 z M 38.42,41.57 A 0.61,0.61 0 0 0 39,41 0.6,0.6 0 0 0 38.4,40.4 0.61,0.61 0 0 0 37.79,41 a 0.62,0.62 0 0 0 0.63,0.61 z m 20.47,-0.48 a 0.34,0.34 0 1 0 -0.33,-0.33 0.34,0.34 0 0 0 0.33,0.37 z m -10,-0.85 a 0.62,0.62 0 0 0 0.61,-0.61 c 0,0 0,0 0,0 a 0.41,0.41 0 0 0 0.16,0 0.33,0.33 0 0 0 0.33,-0.33 0.33,0.33 0 0 0 -0.65,-0.09 0.63,0.63 0 0 0 -0.44,-0.18 0.6,0.6 0 0 0 -0.6,0.6 0.61,0.61 0 0 0 0.64,0.65 z m 6.5,-0.73 a 0.34,0.34 0 0 0 0.34,-0.33 0.34,0.34 0 0 0 -0.67,0 0.33,0.33 0 0 0 0.38,0.37 z m 10.29,-0.12 a 0.33,0.33 0 0 0 0.33,-0.33 0.32,0.32 0 0 0 -0.33,-0.33 0.33,0.33 0 0 0 -0.33,0.33 0.33,0.33 0 0 0 0.38,0.37 z m -2.57,-0.06 a 0.61,0.61 0 1 0 -0.61,-0.6 0.6,0.6 0 0 0 0.66,0.64 z M 37.83,39.15 a 0.61,0.61 0 1 0 -0.61,-0.61 0.6,0.6 0 0 0 0.66,0.65 z M 43,38.53 a 0.61,0.61 0 0 0 0.6,-0.61 0.6,0.6 0 0 0 -1.17,-0.21 0.33,0.33 0 0 0 0,0.51 0.59,0.59 0 0 0 0.52,0.31 z M 56.56,38 a 0.61,0.61 0 1 0 0,-1.21 0.61,0.61 0 0 0 0,1.21 z M 34.24,37.39 a 0.6,0.6 0 0 0 0.61,-0.6 0.62,0.62 0 0 0 -0.61,-0.61 0.61,0.61 0 0 0 -0.6,0.61 0.6,0.6 0 0 0 0.6,0.58 z m 10.2,-1.87 a 0.34,0.34 0 0 0 0,-0.67 0.34,0.34 0 1 0 0,0.67 z M 64.82,35.4 a 0.34,0.34 0 1 0 -0.33,-0.33 0.33,0.33 0 0 0 0.33,0.31 z M 37.18,35.34 A 0.34,0.34 0 1 0 36.84,35 a 0.34,0.34 0 0 0 0.34,0.32 z m 23.4,-1.4 a 0.33,0.33 0 1 0 -0.33,-0.33 0.34,0.34 0 0 0 0.33,0.31 z m 1.31,-0.48 a 0.61,0.61 0 1 0 -0.61,-0.61 0.6,0.6 0 0 0 0.61,0.59 z M 40.14,32.73 a 0.33,0.33 0 0 0 0.34,-0.33 0.34,0.34 0 0 0 -0.34,-0.33 0.34,0.34 0 0 0 -0.34,0.33 0.34,0.34 0 0 0 0.34,0.31 z m 2.75,-0.24 a 0.6,0.6 0 0 0 0.61,-0.6 0.61,0.61 0 1 0 -1.21,0 0.6,0.6 0 0 0 0.6,0.58 z m -5.2,-1 a 0.6,0.6 0 0 0 0.61,-0.6 0.61,0.61 0 0 0 -1.22,0 0.6,0.6 0 0 0 0.61,0.61 z m 17.45,-0.17 a 0.34,0.34 0 0 0 0.33,-0.34 0.33,0.33 0 1 0 -0.66,0 0.34,0.34 0 0 0 0.33,0.35 z m -7.83,-0.07 a 0.6,0.6 0 0 0 0.6,-0.6 0.61,0.61 0 0 0 -1.21,0 0.6,0.6 0 0 0 0.61,0.61 z m 10.43,-0.6 a 0.34,0.34 0 1 0 -0.33,-0.34 0.34,0.34 0 0 0 0.33,0.35 z M 46.07,29.27 a 0.33,0.33 0 0 0 0.33,-0.33 0.33,0.33 0 0 0 -0.33,-0.33 0.32,0.32 0 0 0 -0.33,0.33 0.33,0.33 0 0 0 0.33,0.33 z m -13,-0.18 a 0.6,0.6 0 0 0 0.6,-0.61 0.6,0.6 0 0 0 -0.6,-0.6 0.6,0.6 0 0 0 -0.6,0.6 0.61,0.61 0 0 0 0.62,0.61 z m 22.78,-1.45 a 0.34,0.34 0 0 0 0,-0.67 0.34,0.34 0 1 0 0,0.67 z M 58,27.21 a 0.61,0.61 0 1 0 -0.61,-0.6 0.6,0.6 0 0 0 0.61,0.6 z M 32.27,26.3 a 0.33,0.33 0 1 0 -0.33,-0.33 0.34,0.34 0 0 0 0.33,0.33 z M 58,25 A 0.34,0.34 0 1 0 58,24.33 0.34,0.34 0 0 0 58,25 Z M 41.37,24.08 a 0.33,0.33 0 0 0 0.33,-0.33 0.33,0.33 0 0 0 -0.33,-0.33 0.33,0.33 0 0 0 -0.33,0.33 0.32,0.32 0 0 0 0.37,0.37 z m -8.53,-1.63 a 0.33,0.33 0 0 0 0.33,-0.33 0.32,0.32 0 0 0 -0.33,-0.33 0.33,0.33 0 0 0 -0.33,0.33 0.33,0.33 0 0 0 0.37,0.37 z m 1.69,-1.21 a 0.33,0.33 0 0 0 0,-0.66 0.33,0.33 0 0 0 0,0.66 z"
       style="fill:url(#radial-gradient-4)" />
    <g
       id="use81508">
      <path
         id="path72947"
         class="cls-10"
         d="m 47.93,27.44 c 0,0 -0.06,0 -0.11,0.32 -0.05,0.32 0,2.7 -0.1,3.21 L 45.14,31.4 45,30.79 h 0.21 a 0.23,0.23 0 0 0 0.21,-0.25 0.23,0.23 0 0 0 -0.25,-0.21 v 0 h -0.29 c -0.16,-0.48 -0.33,-0.93 -0.43,-0.91 -0.1,0.02 -0.13,0.49 -0.13,1 l -0.46,0.06 a 0.25,0.25 0 0 0 -0.19,0.14 0.26,0.26 0 0 0 0,0.24 0.23,0.23 0 0 0 0.22,0.08 l 0.41,-0.05 c 0,0.36 0,0.66 0,0.66 l -3.13,0.51 c 0,0 -0.08,-0.25 -0.19,-0.57 h 0.28 a 0.25,0.25 0 0 0 0,-0.5 v 0 h -0.39 c -0.2,-0.53 -0.44,-1.07 -0.58,-1 C 40.15,30.06 40,30.54 40,31.1 h -0.42 a 0.24,0.24 0 0 0 -0.17,0.4 0.23,0.23 0 0 0 0.23,0.09 H 40 c 0,0.36 0,0.64 0,0.64 l -3.21,0.52 -0.16,-0.58 h 0.26 A 0.24,0.24 0 0 0 37.1,31.92 0.25,0.25 0 0 0 36.84,31.7 v 0 H 36.5 c -0.16,-0.49 -0.35,-1 -0.45,-1 -0.1,0 -0.13,0.52 -0.13,1 l -0.39,0.06 a 0.23,0.23 0 0 0 -0.19,0.14 0.24,0.24 0 0 0 0,0.23 0.24,0.24 0 0 0 0.22,0.09 h 0.34 c 0,0.35 0,0.62 0,0.62 l -2.46,0.41 c -0.26,-0.44 -0.66,-1.14 -0.81,-1.43 -0.15,-0.29 -0.17,-0.29 -0.19,-0.28 -0.02,0.01 0,0 0,0 l 0.35,2.2 0.39,1.11 c 0.1,0.63 0.56,1.08 0.87,1 h 0.16 a 4.12,4.12 0 0 1 -0.84,0.38 c -1.52,0.54 -1.3,1.51 -2.27,2.16 -0.97,0.65 -2.34,4.53 -2.66,8.61 -0.32,4.08 1.41,7.47 3.46,8.34 a 3.39,3.39 0 0 1 2.28,2.81 c 0.21,0.65 0.43,1.52 1.08,1.73 0.65,0.21 0.76,0 0.32,0.76 -0.44,0.76 -1.19,1 -2.49,2.28 -1.3,1.28 -2.16,4.22 -2.7,4 -0.54,-0.22 -1.19,0.54 -1.74,1.19 -0.55,0.65 -3,3.36 -3.46,5.2 -0.46,1.84 5.3,-1.41 11.15,8 5.85,9.41 19.39,10.99 19.39,8.93 0,-2.06 -6.58,-12.1 -7.48,-13.59 a 45.33,45.33 0 0 1 -2.92,-5.46 c -0.57,-1.49 -1,-1.9 -0.95,-2.28 a 52.23,52.23 0 0 1 3.25,-5.36 18.44,18.44 0 0 1 2.6,-3.33 c 0.52,-0.32 4,-0.43 4.47,-0.49 a 2.35,2.35 0 0 0 1.76,-0.81 2.17,2.17 0 0 0 0.24,-2.14 2.8,2.8 0 0 1 -0.35,-1.43 c 0,-0.57 0.27,-0.71 0.4,-0.79 A 1,1 0 0 0 57,53.78 c 0,-0.3 -0.44,-0.49 -0.46,-0.6 -0.02,-0.11 0.43,-0.41 0.43,-0.68 a 9.36,9.36 0 0 0 -0.13,-1 1.63,1.63 0 0 1 0.24,-1.17 c 0.11,-0.19 0.84,-0.43 1.3,-0.78 a 1.38,1.38 0 0 0 0.6,-1.3 c -0.09,-0.46 -0.9,-1 -1.33,-1.41 -0.43,-0.41 -1.33,-1.14 -1.9,-1.54 a 2,2 0 0 1 -0.67,-0.71 h 0.15 c 0.15,0 0.43,0.06 0.32,0 -0.11,-0.06 -0.14,0 -0.27,0 -0.13,0 -0.06,-0.12 0,-0.15 0.06,-0.03 0.4,-0.22 0.26,-0.17 -0.14,0.05 -0.23,0 -0.17,-0.1 A 0.86,0.86 0 0 1 55.54,44 0.75,0.75 0 0 0 55.28,44.19 c 0,0 0.07,-0.21 0.14,-0.29 a 0.36,0.36 0 0 0 -0.15,0.18 0.61,0.61 0 0 1 -0.34,0.31 c -0.07,-0.15 -0.16,-0.33 -0.26,-0.56 -0.14,-0.49 0,-0.45 0.15,-0.76 0.15,-0.31 0.23,-0.34 0,-0.65 a 4.66,4.66 0 0 1 -0.46,-1.19 c -0.11,-0.34 0.39,0.39 0.46,0.65 a 4.12,4.12 0 0 0 -0.1,-2.35 8,8 0 0 0 -6.39,-5.74 h -0.31 a 1.2,1.2 0 0 0 0.44,-1.25 V 31.43 L 48,27.46 v 0 z m 7.52,16.39 v 0 c 0,0 0.03,-0.04 0,0 z"
         style="fill:url(#linear-gradient-4)" />
    </g>
    <path
       id="use81660"
       class="cls-11"
       d="m 69.52,26.43 a 3.88,3.88 0 0 1 -3.19,-1.76 3.21,3.21 0 0 0 1.74,-0.81 4,4 0 0 0 1.3,-3.11 3.8,3.8 0 1 0 -7.58,0 4,4 0 0 0 1,2.83 3.36,3.36 0 0 0 1.64,1 l 0.55,0.64 a 5.2,5.2 0 0 0 4,1.41 h 0.48 v -0.21 m -3.91,-9.26 a 2.25,2.25 0 0 1 1.44,0.58 4.07,4.07 0 0 1 1,3 4.89,4.89 0 0 1 -0.8,2.86 2.27,2.27 0 0 1 -1.67,0.74 2.22,2.22 0 0 1 -1.49,-0.57 4.22,4.22 0 0 1 -1,-3.06 4.57,4.57 0 0 1 0.81,-2.78 2.18,2.18 0 0 1 1.69,-0.75"
       style="fill:url(#linear-gradient-5)" />
    <g
       id="use81678">
      <path
         id="path23428"
         class="cls-12"
         d="m 22.46,18.79 a 41.4,41.4 0 0 0 3,3.89 39,39 0 0 0 3.46,3.41 39.26,39.26 0 0 0 -3.43,3.39 40.94,40.94 0 0 0 -3,3.87 42.48,42.48 0 0 0 -3,-3.9 A 38.58,38.58 0 0 0 16,26 a 40.24,40.24 0 0 0 3.45,-3.38 41.72,41.72 0 0 0 3,-3.86 z"
         style="fill:url(#linear-gradient-6)" />
    </g>
  </g>
  <metadata
     id="metadata1">
    <rdf:RDF>
      <cc:Work
         rdf:about="">
        <dc:title>Queen of Diamonds</dc:title>
      </cc:Work>
    </rdf:RDF>
  </metadata>
</svg>
