<?xml version="1.0" encoding="UTF-8" standalone="no"?>
<svg
   id="svg2"
   viewBox="0 0 70.380005 99.420006"
   version="1.1"
   sodipodi:docname="2H.svg"
   inkscape:version="1.3.2 (091e20e, 2023-11-25, custom)"
   width="70.380005"
   height="99.420006"
   xmlns:inkscape="http://www.inkscape.org/namespaces/inkscape"
   xmlns:sodipodi="http://sodipodi.sourceforge.net/DTD/sodipodi-0.dtd"
   xmlns:xlink="http://www.w3.org/1999/xlink"
   xmlns="http://www.w3.org/2000/svg"
   xmlns:svg="http://www.w3.org/2000/svg"
   xmlns:rdf="http://www.w3.org/1999/02/22-rdf-syntax-ns#"
   xmlns:cc="http://creativecommons.org/ns#"
   xmlns:dc="http://purl.org/dc/elements/1.1/">
  <sodipodi:namedview
     id="namedview6"
     pagecolor="#ffffff"
     bordercolor="#000000"
     borderopacity="0.25"
     inkscape:showpageshadow="2"
     inkscape:pageopacity="0.0"
     inkscape:pagecheckerboard="0"
     inkscape:deskcolor="#d1d1d1"
     inkscape:zoom="15.285714"
     inkscape:cx="34.96729"
     inkscape:cy="50.275702"
     inkscape:window-width="3840"
     inkscape:window-height="2054"
     inkscape:window-x="-11"
     inkscape:window-y="-11"
     inkscape:window-maximized="1"
     inkscape:current-layer="svg2" />
  <defs
     id="defs6">
    <style
       id="style1">
      .cls-1 {
        filter: url(#filter63625-2);
      }

      .cls-2 {
        stroke: #000;
        fill: url(#linear-gradient);
      }

      .cls-2, .cls-6 {
        stroke-miterlimit: 10;
        stroke-width: 0.23px;
      }

      .cls-3 {
        fill: url(#linear-gradient-2);
      }

      .cls-4 {
        opacity: 0.47;
        fill: url(#radial-gradient);
      }

      .cls-10, .cls-12, .cls-4, .cls-5 {
        isolation: isolate;
      }

      .cls-5 {
        opacity: 0.4;
        fill: url(#radial-gradient-2);
      }

      .cls-6 {
        fill: none;
      }

      .cls-6, .cls-8 {
        stroke: #fff;
      }

      .cls-11, .cls-13, .cls-7 {
        stroke: #c8c8c8;
        stroke-linejoin: round;
        stroke-width: 1px;
      }

      .cls-7 {
        fill: url(#linear-gradient-3);
      }

      .cls-8 {
        stroke-width: 0.49px;
        fill: url(#linear-gradient-4);
      }

      .cls-9 {
        fill: url(#radial-gradient-3);
      }

      .cls-10, .cls-12 {
        opacity: 0.4;
      }

      .cls-10 {
        fill: url(#radial-gradient-4);
      }

      .cls-11 {
        fill: url(#linear-gradient-5);
      }

      .cls-12 {
        fill: url(#radial-gradient-5);
      }

      .cls-13 {
        fill: url(#linear-gradient-6);
      }
    </style>
    <filter
       id="filter63625-2"
       name="filter63625-2"
       x="-0.12863863"
       y="-0.090976909"
       width="1.2572773"
       height="1.1819538">
      <feGaussianBlur
         result="feGaussianBlur63627-6"
         stdDeviation="3.76"
         id="feGaussianBlur1" />
    </filter>
    <linearGradient
       id="linear-gradient"
       x1="-1317.88"
       y1="-1964.6"
       x2="-1308.4"
       y2="-1450.09"
       gradientTransform="matrix(0.23,0,0,-0.23,340.77,-409.74)"
       gradientUnits="userSpaceOnUse">
      <stop
         offset="0"
         stop-color="#f3f3f3"
         id="stop1" />
      <stop
         offset="1"
         stop-color="#8f8f8f"
         id="stop2" />
    </linearGradient>
    <linearGradient
       id="linear-gradient-2"
       x1="-1736.45"
       y1="-1743.14"
       x2="-1604.17"
       y2="-2180.8501"
       gradientTransform="matrix(0.24,0,0,-0.24,443.65,-396.48)"
       gradientUnits="userSpaceOnUse">
      <stop
         offset="0"
         stop-color="#590000"
         id="stop3" />
      <stop
         offset="1"
         stop-color="#bf0303"
         id="stop4" />
    </linearGradient>
    <radialGradient
       id="radial-gradient"
       cx="2343.46"
       cy="6313.8901"
       r="58.68"
       gradientTransform="matrix(-0.23,0,0,0.21,546.1,-1207.28)"
       gradientUnits="userSpaceOnUse">
      <stop
         offset="0"
         stop-color="#fff"
         id="stop5" />
      <stop
         offset="1"
         stop-color="#fff"
         stop-opacity="0"
         id="stop6" />
    </radialGradient>
    <radialGradient
       id="radial-gradient-2"
       cx="-1302.99"
       cy="-995.26001"
       r="63.150002"
       gradientTransform="matrix(0.23,0,0,-0.36,369.96,-336.79)"
       xlink:href="#radial-gradient" />
    <linearGradient
       id="linear-gradient-3"
       x1="-8682.4297"
       y1="-11895.18"
       x2="-8682.4297"
       y2="-11832.06"
       gradientTransform="matrix(0.05,0,0,-0.06,478.65,-597.84)"
       xlink:href="#linear-gradient" />
    <linearGradient
       id="linear-gradient-4"
       x1="142.63"
       y1="1040.54"
       x2="140.64999"
       y2="1041.92"
       gradientTransform="matrix(1,0,0,-1,-73.89,1061.32)"
       xlink:href="#linear-gradient" />
    <radialGradient
       id="radial-gradient-3"
       cx="617.37"
       cy="1463.87"
       r="25.370001"
       gradientTransform="matrix(0.83,0.56,2.15,-3.16,-3632.14,4365.64)"
       xlink:href="#radial-gradient" />
    <radialGradient
       id="radial-gradient-4"
       cx="-431.98001"
       cy="-607.81"
       r="26.74"
       gradientTransform="matrix(0.37,0,0,-0.37,200.4,-148.6)"
       xlink:href="#radial-gradient" />
    <linearGradient
       id="linear-gradient-5"
       x1="-4194.7402"
       y1="-5105.8301"
       x2="-4194.7402"
       y2="-5042.7402"
       gradientTransform="matrix(0.11,0,0,-0.12,504.89,-541.52)"
       xlink:href="#linear-gradient" />
    <radialGradient
       id="radial-gradient-5"
       cx="-431.98001"
       cy="-607.81"
       r="26.74"
       gradientTransform="matrix(0.37,0,0,-0.37,200.75,-181.78)"
       xlink:href="#radial-gradient" />
    <linearGradient
       id="linear-gradient-6"
       x1="-4194.77"
       y1="-5105.8301"
       x2="-4194.77"
       y2="-5042.7402"
       gradientTransform="matrix(0.11,0,0,-0.12,504.9,-575.67)"
       xlink:href="#linear-gradient" />
    <linearGradient
       inkscape:collect="always"
       xlink:href="#linear-gradient"
       id="linearGradient1"
       gradientUnits="userSpaceOnUse"
       gradientTransform="matrix(0.23,0,0,-0.23,340.77,-409.74)"
       x1="-1317.88"
       y1="-1964.6"
       x2="-1308.4"
       y2="-1450.09" />
    <radialGradient
       inkscape:collect="always"
       xlink:href="#radial-gradient"
       id="radialGradient1"
       gradientUnits="userSpaceOnUse"
       gradientTransform="matrix(-0.23,0,0,0.21,546.1,-1207.28)"
       cx="2343.46"
       cy="6313.8901"
       r="58.68" />
  </defs>
  <title
     id="title6">Three of Hearts</title>
  <g
     id="_2_heart"
     data-name="2_heart"
     transform="translate(-7.0249999,-9.2149999)">
    <g
       id="use70719">
      <g
         id="g65535">
        <rect
           id="rect65539"
           class="cls-2"
           x="7.1399999"
           y="9.3299999"
           width="70.150002"
           height="99.190002"
           rx="3.97"
           ry="3.97"
           style="fill:url(#linearGradient1)" />
        <rect
           id="rect65541"
           class="cls-3"
           x="10.74"
           y="12"
           width="63.240002"
           height="92.260002"
           rx="1.29"
           ry="1.29"
           style="fill:url(#linear-gradient-2)" />
        <rect
           id="rect65543"
           class="cls-4"
           x="10.84"
           y="79.849998"
           width="26.549999"
           height="24.280001"
           rx="1.04"
           ry="1.04"
           style="fill:url(#radialGradient1)" />
        <rect
           id="rect65545"
           class="cls-5"
           x="44.799999"
           y="11.87"
           width="29.280001"
           height="45.27"
           style="fill:url(#radial-gradient-2)" />
        <path
           id="path65547"
           class="cls-6"
           d="M 25.71,100.24 H 70.42 V 26.63 M 58.85,16 H 14.3 v 73.21" />
      </g>
    </g>
    <g
       id="use74134">
      <g
         id="g74112">
        <path
           id="path74114"
           class="cls-7"
           d="m 14.76,94.8 a 2,2 0 0 1 0.63,-2.45 1.53,1.53 0 0 1 2,0.94 2.46,2.46 0 0 1 0.19,0.81 2.47,2.47 0 0 1 0.2,-0.81 1.53,1.53 0 0 1 2,-0.94 2.07,2.07 0 0 1 0.63,2.45 c -0.54,1.6 -2.15,2.52 -2.87,4.37 -0.59,-1.84 -2.23,-2.8 -2.86,-4.37 z"
           style="fill:url(#linear-gradient-3)" />
      </g>
    </g>
    <g
       id="use4012">
      <path
         id="text3914"
         class="cls-8"
         d="m 70.56,21.89 -0.14,-0.06 c -0.41,0.63 -0.55,0.73 -1,0.73 h -2.7 l 1.86,-1.95 a 4,4 0 0 0 1.42,-2.74 2,2 0 0 0 -2,-2 2.15,2.15 0 0 0 -1.6,0.69 2.91,2.91 0 0 0 -0.71,1.52 l 0.23,0.05 c 0.45,-1.08 0.85,-1.44 1.61,-1.44 a 1.48,1.48 0 0 1 1.47,1.6 4.55,4.55 0 0 1 -1.44,2.89 l -2,2.09 v 0.14 H 70 l 0.61,-1.52"
         style="fill:url(#linear-gradient-4)" />
    </g>
    <path
       id="path4047"
       class="cls-9"
       d="m 23.49,97 c 0.53,-0.9 -1.57,-4.1 -1.84,-5.3 0,-0.1 0,-0.21 -0.06,-0.31 a 4.55,4.55 0 0 1 0,-0.52 5.54,5.54 0 0 1 0.13,-0.91 0.33,0.33 0 0 0 0.16,-0.6 l 0.21,-0.69 a 10.15,10.15 0 0 1 0.6,-1.44 c 0.32,-0.61 0.71,-1.18 1.09,-1.76 0.12,-0.18 0.25,-0.36 0.38,-0.53 h 0.1 a 0.6,0.6 0 0 0 0.61,-0.6 0.64,0.64 0 0 0 0,-0.24 c 0.14,-0.18 0.3,-0.37 0.45,-0.54 a 27.32,27.32 0 0 1 2.13,-2 c 0.81,-0.75 1.67,-1.43 2.53,-2.1 1,-0.8 2.12,-1.51 3.21,-2.22 1.09,-0.71 2.08,-1.32 3.14,-2 h 0.14 a 0.61,0.61 0 1 0 -0.6,-0.61 0.59,0.59 0 0 0 0.43,0.58 l -0.29,0.17 c -1.29,0.77 -2.56,1.55 -3.81,2.36 -1.1,0.71 -2.2,1.42 -3.23,2.23 -0.86,0.67 -1.72,1.36 -2.53,2.1 -0.62,0.56 -1.24,1.12 -1.82,1.72 a 0.65,0.65 0 0 0 -0.31,-0.08 0.6,0.6 0 0 0 -0.6,0.6 0.56,0.56 0 0 0 0.12,0.36 14.61,14.61 0 0 0 -1,1.36 17.75,17.75 0 0 0 -1.09,1.76 c -0.05,0.1 -0.09,0.2 -0.14,0.31 0,-0.61 0.1,-1.22 0.18,-1.83 a 16.57,16.57 0 0 1 0.52,-2.52 15.31,15.31 0 0 1 0.83,-2.2 11.79,11.79 0 0 0 0.87,-1.63 2.79,2.79 0 0 0 0.14,-0.37 v -0.09 c 0.43,-0.79 0.88,-1.56 1.33,-2.33 l 0.09,-0.14 c 0.17,-0.24 0.34,-0.47 0.52,-0.7 0.49,-0.64 1,-1.25 1.54,-1.87 0.67,-0.78 1.4,-1.52 2.12,-2.25 0.72,-0.73 1.67,-1.62 2.54,-2.41 L 35,67.29 c 1,-0.88 2,-1.76 3,-2.63 1,-0.87 2.21,-2 3.29,-3 L 43,60 a 10.31,10.31 0 0 0 1.69,-1.33 c 1.1,-0.94 2.23,-1.86 3.38,-2.74 a 17.11,17.11 0 0 1 2.27,-1.56 l 0.5,-0.22 a 1,1 0 0 0 0,0.18 0.61,0.61 0 1 0 1.21,0 0.59,0.59 0 0 0 -0.15,-0.39 c 2.24,-0.16 2.7,-0.49 0.27,-0.33 a 1.89,1.89 0 0 0 -0.57,0.13 h -0.15 a 0.59,0.59 0 0 0 -0.54,0.33 21.16,21.16 0 0 0 -3.41,2.21 c -1.15,0.87 -2.27,1.8 -3.37,2.74 -0.46,0.39 -0.76,0.66 -0.93,0.83 0.57,-0.58 1.15,-1.15 1.71,-1.73 1.25,-1.26 2.43,-2.58 3.58,-3.93 0.71,-0.85 1.4,-1.73 2.07,-2.61 a 0.62,0.62 0 0 0 0.46,0.22 0.6,0.6 0 0 0 0.6,-0.61 0.58,0.58 0 0 0 -0.36,-0.55 c 0.3,-0.41 0.6,-0.81 0.89,-1.22 a 54.44,54.44 0 0 0 3.4,-5.42 36.69,36.69 0 0 0 2.79,-6.24 56.54,56.54 0 0 0 1.12,-5.8 c 0.37,-2.33 -0.21,-2 -0.58,0.34 a 56.35,56.35 0 0 1 -1.12,5.79 36.73,36.73 0 0 1 -2.76,6.2 c -0.08,0.15 -0.17,0.29 -0.26,0.44 a 0.32,0.32 0 0 0 -0.32,-0.26 0.34,0.34 0 0 0 0,0.67 h 0.11 c -0.92,1.58 -1.9,3.14 -3,4.63 l -0.61,0.84 a 0.6,0.6 0 0 0 -0.55,0.59 0.5,0.5 0 0 0 0,0.12 c -0.82,1.1 -1.65,2.17 -2.53,3.22 -1.14,1.35 -2.32,2.67 -3.57,3.93 -1.25,1.26 -2.37,2.36 -3.59,3.53 -1.22,1.17 -2.17,2 -3.29,3 -1.12,1 -2,1.75 -3,2.64 -1,0.89 -1.86,1.66 -2.8,2.49 -0.94,0.83 -1.59,1.46 -2.36,2.23 a 0.32,0.32 0 0 0 -0.16,-0.2 c 0.3,-0.31 0.6,-0.61 0.91,-0.91 1,-0.94 2,-1.85 3,-2.8 1.18,-1.11 2.34,-2.25 3.48,-3.4 a 40.16,40.16 0 0 0 3.61,-4.2 47.71,47.71 0 0 0 3.29,-5.4 35.94,35.94 0 0 0 2.65,-6.11 41.51,41.51 0 0 0 1.36,-7 54.93,54.93 0 0 0 0.08,-6 0.59,0.59 0 0 0 0.21,-0.45 0.63,0.63 0 0 0 -0.24,-0.48 v -0.74 c 0,-0.42 0,-0.83 0,-1.25 -0.08,-2.35 -0.66,-2 -0.57,0.33 0,0.42 0,0.83 0,1.25 0,0.11 0,0.22 0,0.33 a 0.59,0.59 0 0 0 -0.39,0.56 0.6,0.6 0 0 0 0.42,0.57 c 0,1 0.06,2.07 0.05,3.11 a 0.59,0.59 0 0 0 -0.23,-0.05 0.6,0.6 0 0 0 -0.61,0.6 0.61,0.61 0 0 0 0.61,0.61 0.78,0.78 0 0 0 0.21,0 c 0,0.66 0,1.34 -0.1,2 -0.19,1.51 -0.42,3 -0.74,4.51 0,-0.71 0,-1.42 0,-2.13 -0.06,-1.69 -0.16,-3.37 -0.38,-5 A 26.23,26.23 0 0 0 45.01,36.71 12,12 0 0 0 44.49,35 1.86,1.86 0 0 0 44.22,34.55 c -1.91,-1.71 -2.55,-1.32 -0.62,0.37 0.13,0.11 0.17,0.29 0.26,0.43 a 10.88,10.88 0 0 1 0.58,1.65 27.89,27.89 0 0 1 0.69,3.39 c 0.22,1.68 0.33,3.36 0.39,5 0,0.93 0,1.87 0,2.81 a 7,7 0 0 0 0,1.22 c 0,0.07 0,0.15 -0.07,0.23 -0.39,1.15 -0.82,2.28 -1.31,3.39 a 0.6,0.6 0 0 0 -1.12,0.3 0.6,0.6 0 0 0 0.6,0.61 h 0.12 c -0.3,0.62 -0.61,1.23 -0.94,1.83 a 46.5,46.5 0 0 1 -3.3,5.41 39.09,39.09 0 0 1 -3.62,4.2 c -1.14,1.15 -2.29,2.3 -3.48,3.41 -1,0.94 -2,1.86 -3,2.8 -0.18,0.17 -0.35,0.34 -0.52,0.52 a 0.33,0.33 0 0 0 -0.27,0.28 17.59,17.59 0 0 0 -1.76,2 32.06,32.06 0 0 0 -1.91,2.89 c -0.22,0.3 -0.43,0.6 -0.62,0.92 -0.19,0.32 -0.41,0.65 -0.58,1 -0.17,0.35 -0.24,0.46 -0.32,0.71 v 0 c -0.17,0.3 -0.34,0.61 -0.49,0.92 -0.15,0.31 -0.39,0.84 -0.58,1.26 0,-0.07 0,-0.14 0,-0.21 a 18.09,18.09 0 0 1 0.5,-1.74 c 0.24,-0.68 0.53,-1.34 0.81,-2 0.28,-0.66 0.71,-1.62 1.07,-2.43 0.48,-1.1 1,-2.17 1.57,-3.23 0.68,-1.31 1.29,-2.66 1.87,-4 l 2.06,-5 q 1.09,-2.56 2.07,-5.16 a 0.33,0.33 0 0 0 0.25,-0.32 0.32,0.32 0 0 0 -0.06,-0.2 c 0.66,-1.82 1.24,-3.66 1.8,-5.51 C 35,50.19 35.52,48 36,45.82 a 43.54,43.54 0 0 0 0.52,-7.74 c -0.08,-2.63 -0.39,-5.25 -0.71,-7.87 -0.2,-1.57 -0.44,-3.14 -0.68,-4.71 a 5.79,5.79 0 0 0 -0.35,-1.39 0.58,0.58 0 0 0 0.19,0 0.62,0.62 0 0 0 0.61,-0.61 0.6,0.6 0 0 0 -0.61,-0.6 0.59,0.59 0 0 0 -0.6,0.6 0.58,0.58 0 0 0 0.16,0.41 3.76,3.76 0 0 0 0,1.89 c 0.11,0.69 0.22,1.39 0.32,2.08 a 0.38,0.38 0 0 0 -0.23,-0.08 0.33,0.33 0 1 0 0,0.66 0.32,0.32 0 0 0 0.29,-0.18 c 0.11,0.74 0.21,1.48 0.31,2.22 0,0.19 0,0.38 0.07,0.57 A 0.68,0.68 0 0 0 35,31 a 0.61,0.61 0 1 0 0.39,1.06 c 0.25,2.1 0.47,4.2 0.53,6.31 a 41.91,41.91 0 0 1 -0.53,7.75 66.89,66.89 0 0 1 -1.65,6.52 c -0.52,1.7 -1.06,3.4 -1.66,5.08 a 0.31,0.31 0 0 0 -0.16,0.29 0.5,0.5 0 0 0 0,0.12 c 0,0.11 -0.08,0.23 -0.13,0.34 q -1,2.7 -2.13,5.36 l -2.07,5 c -0.59,1.35 -1.2,2.7 -1.88,4 -0.54,1.07 -1.09,2.14 -1.58,3.23 -0.36,0.81 -0.72,1.63 -1.07,2.44 -0.35,0.81 -0.57,1.33 -0.81,2 a 16.58,16.58 0 0 0 -0.5,1.74 c -0.11,0.49 -0.22,1 -0.31,1.49 0,0.22 -0.08,0.43 -0.13,0.65 -0.26,1.06 -0.28,1.6 -0.19,1.68 0.09,0.08 -0.05,0.36 -0.07,0.55 a 18.73,18.73 0 0 0 -0.2,2.13 v 1 c -0.08,0.25 -0.15,0.49 -0.21,0.74 0,0.1 0,0.2 0,0.3 h -3 c 2,0.58 3.55,0.41 5.86,6.18 z m 0.59,-4.67 a 0.34,0.34 0 1 0 -0.34,-0.34 0.34,0.34 0 0 0 0.34,0.33 z m -4.64,-1.69 a 0.61,0.61 0 0 0 0.61,-0.61 0.61,0.61 0 1 0 -0.61,0.61 z m 3.27,-0.73 a 0.62,0.62 0 0 0 0.61,-0.61 0.61,0.61 0 0 0 -0.61,-0.6 0.6,0.6 0 0 0 -0.6,0.6 0.61,0.61 0 0 0 0.6,0.6 z m -4.26,-1.7 a 0.33,0.33 0 0 0 0.33,-0.33 0.33,0.33 0 0 0 -0.33,-0.33 0.32,0.32 0 0 0 -0.33,0.33 0.33,0.33 0 0 0 0.33,0.32 z M 20,87.66 A 0.34,0.34 0 1 0 19.67,87.32 0.34,0.34 0 0 0 20,87.66 Z m 5.71,-0.72 a 0.61,0.61 0 0 0 0.61,-0.61 0.61,0.61 0 0 0 -1.21,0 0.61,0.61 0 0 0 0.56,0.61 z m 1.42,-1 a 0.33,0.33 0 1 0 -0.33,-0.33 0.34,0.34 0 0 0 0.29,0.29 z m -8.31,-0.66 a 0.61,0.61 0 1 0 -0.61,-0.6 0.61,0.61 0 0 0 0.57,0.56 z m 1.39,-1.75 a 0.6,0.6 0 0 0 0.6,-0.61 0.59,0.59 0 0 0 -0.6,-0.6 0.6,0.6 0 0 0 -0.61,0.6 0.62,0.62 0 0 0 0.57,0.57 z M 28,83.24 a 0.33,0.33 0 0 0 0.33,-0.33 0.34,0.34 0 0 0 -0.67,0 0.33,0.33 0 0 0 0.34,0.33 z m 4.38,-0.54 a 0.61,0.61 0 1 0 -0.61,-0.61 0.61,0.61 0 0 0 0.62,0.61 z M 25.92,82 a 0.6,0.6 0 0 0 0.6,-0.6 0.61,0.61 0 0 0 -0.6,-0.61 0.62,0.62 0 0 0 -0.61,0.61 0.61,0.61 0 0 0 0.61,0.6 z m 2.37,-0.15 c 0,0 0.71,-0.46 1.82,-1.28 0.48,-0.35 0.94,-0.71 1.45,-1 a 20.89,20.89 0 0 1 2.2,-1.17 l 0.47,-0.21 a 0.57,0.57 0 0 0 -0.14,0.38 0.6,0.6 0 0 0 0.6,0.61 0.61,0.61 0 0 0 0.61,-0.61 0.6,0.6 0 0 0 -0.58,-0.59 c 0.53,-0.23 1.06,-0.47 1.6,-0.67 0.54,-0.2 1.21,-0.49 1.82,-0.72 l 0.78,-0.29 c 2.38,-0.92 3,-1.28 0.62,-0.37 l -0.79,0.3 -1.81,0.72 c -0.87,0.34 -1.72,0.72 -2.57,1.1 a 31.44,31.44 0 0 0 -3.37,1.82 16.25,16.25 0 0 0 -1.44,1 c -0.87,0.64 -1.24,0.93 -1.22,0.93 z m -8.42,-0.63 a 0.62,0.62 0 0 0 0.61,-0.61 0.61,0.61 0 0 0 -0.61,-0.6 0.6,0.6 0 0 0 -0.61,0.6 0.61,0.61 0 0 0 0.61,0.58 z m 13.21,-0.67 a 0.33,0.33 0 1 0 0,-0.66 0.33,0.33 0 1 0 0,0.66 z m -11,-0.86 a 0.61,0.61 0 0 0 0,-1.21 0.61,0.61 0 1 0 0,1.21 z m 3.27,-0.18 a 0.61,0.61 0 0 0 0,-1.21 0.61,0.61 0 1 0 0,1.21 z M 17.18,79 a 0.34,0.34 0 0 0 0,-0.67 0.34,0.34 0 0 0 0,0.67 z m 21.11,-1.15 a 0.34,0.34 0 1 0 -0.33,-0.34 0.34,0.34 0 0 0 0.33,0.34 z m -7.23,-0.06 a 0.6,0.6 0 0 0 0.6,-0.61 0.6,0.6 0 0 0 -0.6,-0.6 0.6,0.6 0 0 0 -0.6,0.6 0.61,0.61 0 0 0 0.6,0.61 z m 10.68,-0.55 a 0.33,0.33 0 0 0 0.33,-0.33 0.33,0.33 0 0 0 -0.33,-0.33 v 0 a 0.6,0.6 0 0 0 -0.42,-1 0.61,0.61 0 1 0 0,1.21 h 0.17 a 0.34,0.34 0 0 0 -0.05,0.17 0.33,0.33 0 0 0 0.33,0.33 z m 2.08,-1.39 a 0.61,0.61 0 1 0 -0.6,-0.61 0.61,0.61 0 0 0 0.6,0.61 z m -20.62,0 a 0.61,0.61 0 0 0 0,-1.21 0.61,0.61 0 1 0 0,1.21 z M 28,75.79 a 0.61,0.61 0 1 0 -0.6,-0.6 0.6,0.6 0 0 0 0.6,0.6 z M 45.4,75.73 A 0.33,0.33 0 1 0 45,75.4 a 0.33,0.33 0 0 0 0.37,0.33 z m -13,-0.42 A 0.34,0.34 0 1 0 32,75 a 0.34,0.34 0 0 0 0.36,0.31 z m -5.53,-0.4 c 0.2,-0.29 0.39,-0.57 0.6,-0.85 a 16.79,16.79 0 0 1 1.2,-1.45 0.41,0.41 0 0 0 0.21,0.15 c -0.65,0.66 -1.3,1.32 -1.91,2 a 1.47,1.47 0 0 1 -0.1,0.13 z M 38.33,74 l 2,-1.1 1.49,-0.82 h 0.17 a 0.6,0.6 0 0 0 0.58,-0.45 l 2.08,-1.19 -2.07,1.17 a 0.57,0.57 0 0 0 0,-0.13 0.6,0.6 0 0 0 -0.6,-0.61 0.61,0.61 0 0 0 -0.2,1.18 l -0.47,0.26 c -1,0.55 -2,1.11 -3,1.67 z m 7.76,-0.09 a 0.33,0.33 0 0 0 0.34,-0.33 0.34,0.34 0 0 0 -0.67,0 0.33,0.33 0 0 0 0.33,0.33 z M 23,73 a 0.61,0.61 0 0 0 0.61,-0.61 0.57,0.57 0 0 0 0,-0.18 h 0.06 A 0.33,0.33 0 0 0 24,71.88 0.33,0.33 0 1 0 23.34,71.88 0.65,0.65 0 0 0 23,71.8 0.61,0.61 0 0 0 23,73 Z m -2,0 A 0.34,0.34 0 1 0 20.67,72.66 0.34,0.34 0 0 0 21,73 Z m 4.21,-2.3 a 0.61,0.61 0 1 0 -0.61,-0.6 0.6,0.6 0 0 0 0.6,0.55 z m 25.55,-0.12 a 0.34,0.34 0 1 0 -0.33,-0.33 0.34,0.34 0 0 0 0.32,0.28 z m -5.9,-0.21 0.9,-0.52 a 43,43 0 0 0 4.35,-2.93 c 0.71,-0.55 1.39,-1.11 2,-1.7 a 0.61,0.61 0 0 0 0.57,0.39 0.6,0.6 0 0 0 0.6,-0.6 0.61,0.61 0 0 0 -0.35,-0.55 c 0.48,-0.45 1,-0.9 1.41,-1.37 0.41,-0.47 0.66,-0.69 1,-1 1,-0.88 1.94,-1.75 2.89,-2.66 0,0 0,0 0.05,0 a 0.6,0.6 0 0 0 0.6,0.52 0.60101997,0.60101997 0 0 0 0.07,-1.2 12.64,12.64 0 0 0 1.5,-1.85 c 0.58,-0.84 1.14,-1.69 1.69,-2.54 0.55,-0.85 1.08,-1.71 1.6,-2.58 0.3,-0.5 0.61,-1 0.9,-1.51 a 0.49,0.49 0 0 0 0,0.12 0.6,0.6 0 0 0 0.6,0.61 0.61,0.61 0 0 0 0,-1.21 0.57,0.57 0 0 0 -0.42,0.17 l 0.24,-0.45 a 12.1,12.1 0 0 0 0.62,-1.43 5.37,5.37 0 0 1 0.21,-0.56 c 0.14,-0.27 0.26,-0.51 0.35,-0.71 a 0.59,0.59 0 0 0 0.51,-0.59 0.6,0.6 0 0 0 -0.37,-0.56 0.32,0.32 0 0 0 0.25,-0.32 0.34,0.34 0 1 0 -0.52,0.28 0.61,0.61 0 0 0 -0.57,0.6 0.59,0.59 0 0 0 0.34,0.54 c -0.18,0.3 -0.38,0.66 -0.61,1.12 a 5.37,5.37 0 0 0 -0.21,0.56 12.1,12.1 0 0 1 -0.62,1.43 c -0.39,0.77 -0.85,1.52 -1.3,2.27 -0.45,0.75 -1.06,1.72 -1.6,2.57 -0.54,0.85 -1.11,1.7 -1.68,2.54 a 12.49,12.49 0 0 1 -1.24,1.56 0.61,0.61 0 0 0 -0.3,0.33 l -0.68,0.69 c -0.54,0.52 -1.09,1 -1.65,1.53 0.77,-1 1.5,-2 2.19,-3 a 24.71,24.71 0 0 0 2.92,-5.75 c 0,-0.1 0.06,-0.21 0.1,-0.31 a 0.62,0.62 0 0 0 0.59,0.49 0.6,0.6 0 0 0 0.6,-0.61 0.6,0.6 0 0 0 -0.6,-0.61 0.62,0.62 0 0 0 -0.41,0.16 27.29,27.29 0 0 0 1,-6 26.89,26.89 0 0 0 -0.24,-6.21 c -0.49,-3.86 -1.44,-3.31 -0.95,0.54 a 27.56,27.56 0 0 1 0.23,6.22 25.83,25.83 0 0 1 -1.23,6.72 24.77,24.77 0 0 1 -2.92,5.76 37.16,37.16 0 0 1 -3.43,4.38 L 51.68,65 c -0.52,0.46 -1.08,0.89 -1.63,1.32 -1.9,1.53 -1.3,1.18 0.6,-0.34 0.5,-0.4 1,-0.78 1.48,-1.2 a 39.13,39.13 0 0 1 -3,2.58 40.92,40.92 0 0 1 -4.27,2.88 z m -3.35,-0.15 a 0.34,0.34 0 1 0 -0.33,-0.33 0.33,0.33 0 0 0 0.32,0.28 z m 6,-0.25 a 0.34,0.34 0 0 0 0.27,-0.33 0.34,0.34 0 0 0 -0.67,0 0.34,0.34 0 0 0 0.34,0.33 z m -13.4,-0.18 a 0.61,0.61 0 1 0 -0.61,-0.6 0.6,0.6 0 0 0 0.65,0.55 z M 36,69.56 A 0.34,0.34 0 1 0 35.67,69.23 0.33,0.33 0 0 0 36,69.56 Z m 8.77,-1.51 a 0.34,0.34 0 1 0 0,-0.67 0.34,0.34 0 0 0 0,0.67 z m 3,-0.18 a 0.6,0.6 0 0 0 0.6,-0.61 0.61,0.61 0 1 0 -0.6,0.61 z M 26.4,67.62 A 0.6,0.6 0 0 0 27,67 0.61,0.61 0 1 0 25.79,67 0.6,0.6 0 0 0 26.4,67.62 Z M 55,67 A 0.33,0.33 0 1 0 54.67,66.67 0.34,0.34 0 0 0 55,67 Z M 33.72,66.9 a 0.61,0.61 0 1 0 -0.6,-0.61 0.61,0.61 0 0 0 0.6,0.61 z m -9,-1 a 0.34,0.34 0 1 0 -0.33,-0.33 0.33,0.33 0 0 0 0.29,0.3 z m 24.41,-0.06 a 0.61,0.61 0 1 0 -0.61,-0.61 0.6,0.6 0 0 0 0.57,0.58 z M 27.37,65.2 a 0.59,0.59 0 0 0 0.6,-0.6 0.6,0.6 0 0 0 -0.26,-0.5 0.27,0.27 0 0 0 0,-0.13 0.33,0.33 0 1 0 -0.66,0 0.3,0.3 0 0 0 0,0.1 0.62,0.62 0 0 0 -0.33,0.53 0.6,0.6 0 0 0 0.65,0.6 z m 13.07,-0.54 a 0.6,0.6 0 0 0 0.6,-0.6 0.61,0.61 0 0 0 -0.6,-0.61 0.62,0.62 0 0 0 -0.61,0.61 0.61,0.61 0 0 0 0.61,0.6 z M 29.3,64.44 c 0.14,0 0.41,-0.7 0.65,-1.94 0.24,-1.24 0.46,-2.54 0.61,-3.82 a 36,36 0 0 0 0.21,-4.76 30.24,30.24 0 0 0 -0.34,-3.55 C 30.3,49.58 30.18,48.79 29.98,48.01 a 7.2,7.2 0 0 0 -0.28,-0.9 c -1.05,-2.33 -1.71,-2 -0.62,0.36 a 7.06,7.06 0 0 1 0.28,0.89 24,24 0 0 1 0.46,2.36 30.26,30.26 0 0 1 0.35,3.55 A 36,36 0 0 1 30,59 c -0.14,1.28 -0.37,2.55 -0.61,3.82 -0.21,1.1 -0.19,1.61 -0.06,1.6 z m 12.92,0 a 0.34,0.34 0 1 0 -0.33,-0.33 0.33,0.33 0 0 0 0.33,0.31 z m -9.95,-0.25 a 0.34,0.34 0 1 0 -0.33,-0.33 0.33,0.33 0 0 0 0.33,0.31 z m 4,-1.09 a 0.61,0.61 0 1 0 -0.61,-0.61 0.6,0.6 0 0 0 0.58,0.59 z m 16.87,-0.49 a 0.59,0.59 0 0 0 0.6,-0.6 0.6,0.6 0 0 0 -0.6,-0.61 0.61,0.61 0 0 0 -0.6,0.61 0.6,0.6 0 0 0 0.57,0.58 z m 6.8,-1.39 a 0.34,0.34 0 0 0 0.34,-0.33 0.34,0.34 0 0 0 -0.67,0 0.33,0.33 0 0 0 0.3,0.31 z M 48.39,58.36 a 0.61,0.61 0 1 0 0,-1.21 0.61,0.61 0 0 0 0,1.21 z m 6.44,-1 a 0.34,0.34 0 1 0 -0.33,-0.33 0.34,0.34 0 0 0 0.33,0.36 z M 25.41,57 A 0.61,0.61 0 1 0 24.8,56.39 0.6,0.6 0 0 0 25.41,57 Z m 15.3,-0.25 a 0.59,0.59 0 0 0 0.6,-0.6 0.6,0.6 0 0 0 -0.6,-0.6 0.61,0.61 0 0 0 -0.61,0.6 0.6,0.6 0 0 0 0.61,0.57 z M 64,56 A 0.33,0.33 0 1 0 63.67,55.67 0.33,0.33 0 0 0 64,56 Z m -0.76,-0.48 a 0.61,0.61 0 1 0 -0.61,-0.61 0.61,0.61 0 0 0 0.64,0.61 z M 44.43,55.34 a 0.61,0.61 0 1 0 0,-1.22 0.61,0.61 0 0 0 0,1.22 z m -10,-0.67 a 0.61,0.61 0 1 0 -0.6,-0.6 0.6,0.6 0 0 0 0.65,0.6 z m -6.32,-2.6 a 0.34,0.34 0 1 0 -0.34,-0.34 0.34,0.34 0 0 0 0.39,0.34 z M 31.63,52 a 0.61,0.61 0 1 0 -0.6,-0.61 0.61,0.61 0 0 0 0.6,0.61 z m 26.68,-0.18 a 0.62,0.62 0 0 0 0.61,-0.61 0.61,0.61 0 0 0 -0.61,-0.6 0.61,0.61 0 0 0 0,1.21 z m -23,-0.61 a 0.33,0.33 0 0 0 0.33,-0.33 0.33,0.33 0 0 0 -0.33,-0.33 0.34,0.34 0 0 0 -0.34,0.33 0.34,0.34 0 0 0 0.39,0.28 z m 8.38,-2.54 a 0.61,0.61 0 1 0 -0.61,-0.61 0.6,0.6 0 0 0 0.66,0.56 z m 7.13,-0.06 a 0.61,0.61 0 1 0 0,-1.21 0.61,0.61 0 0 0 0,1.21 z m 12.59,-0.67 a 0.6,0.6 0 0 0 0.6,-0.6 0.61,0.61 0 1 0 -0.6,0.6 z M 33.16,47.46 a 0.61,0.61 0 0 0 0,-1.21 0.61,0.61 0 1 0 0,1.21 z M 48.52,47.4 a 0.61,0.61 0 1 0 0,-1.21 0.61,0.61 0 1 0 0,1.21 z M 36.45,46 a 0.33,0.33 0 0 0 0.33,-0.33 0.34,0.34 0 0 0 -0.67,0 0.34,0.34 0 0 0 0.34,0.33 z m -8.72,-1 a 0.33,0.33 0 1 0 0,-0.66 0.33,0.33 0 1 0 0,0.66 z m 22,-0.12 a 0.33,0.33 0 1 0 -0.33,-0.33 0.33,0.33 0 0 0 0.29,0.38 z m 9.71,-0.54 a 0.62,0.62 0 0 0 0.61,-0.61 0.61,0.61 0 0 0 -0.61,-0.6 0.6,0.6 0 0 0 -0.6,0.6 0.6,0.6 0 0 0 0.56,0.66 z M 43.38,44.1 a 0.34,0.34 0 0 0 0,-0.67 0.34,0.34 0 0 0 0,0.67 z m 23.77,-0.55 a 0.33,0.33 0 1 0 0,-0.66 0.33,0.33 0 1 0 0,0.66 z m -23,-0.12 a 0.61,0.61 0 1 0 -0.61,-0.61 0.6,0.6 0 0 0 0.56,0.66 z m 9.68,-0.18 a 0.61,0.61 0 0 0 0.6,-0.61 0.61,0.61 0 0 0 -1.21,0 0.61,0.61 0 0 0 0.56,0.66 z m 4.14,-0.85 a 0.33,0.33 0 0 0 0.33,-0.33 0.33,0.33 0 1 0 -0.66,0 0.33,0.33 0 0 0 0.28,0.38 z m 9,-0.18 a 0.61,0.61 0 0 0 0,-1.21 0.61,0.61 0 0 0 0,1.21 z m -32,0 a 0.35,0.35 0 0 0 0.26,-0.34 0.33,0.33 0 0 0 -0.33,-0.33 0.34,0.34 0 0 0 0,0.67 z m 27.82,-1 a 0.33,0.33 0 0 0 0.33,-0.33 0.34,0.34 0 1 0 -0.67,0 0.33,0.33 0 0 0 0.31,0.41 z m -24.22,-0.6 a 0.61,0.61 0 0 0 0.6,-0.61 0.61,0.61 0 0 0 -1.21,0 0.61,0.61 0 0 0 0.58,0.69 z M 59,40.22 a 0.34,0.34 0 0 0 0.33,-0.34 0.33,0.33 0 1 0 -0.66,0 0.34,0.34 0 0 0 0.33,0.34 z m -9.95,-0.85 a 0.61,0.61 0 0 0 0.6,-0.61 v 0 a 0.26,0.26 0 0 0 0.15,0 0.33,0.33 0 0 0 0.33,-0.33 0.32,0.32 0 0 0 -0.33,-0.33 0.33,0.33 0 0 0 -0.32,0.24 0.61,0.61 0 0 0 -1,0.42 0.61,0.61 0 0 0 0.61,0.61 z m 6.5,-0.73 a 0.34,0.34 0 1 0 -0.33,-0.33 0.33,0.33 0 0 0 0.34,0.33 z m 10.29,-0.12 a 0.34,0.34 0 0 0 0,-0.67 0.34,0.34 0 1 0 0,0.67 z m -2.58,-0.06 a 0.61,0.61 0 1 0 -0.6,-0.61 0.61,0.61 0 0 0 0.61,0.61 z M 38,38.28 a 0.61,0.61 0 0 0 0.6,-0.61 0.6,0.6 0 0 0 -0.6,-0.6 0.61,0.61 0 0 0 -0.61,0.6 0.62,0.62 0 0 0 0.61,0.61 z m 5.14,-0.67 a 0.61,0.61 0 0 0 0.61,-0.6 0.61,0.61 0 0 0 -1.18,-0.21 0.32,0.32 0 0 0 -0.09,0.23 0.35,0.35 0 0 0 0.14,0.28 0.61,0.61 0 0 0 0.52,0.3 z m 13.55,-0.54 a 0.61,0.61 0 0 0 0,-1.21 0.61,0.61 0 0 0 0,1.21 z M 34.37,36.46 a 0.6,0.6 0 0 0 0.6,-0.6 0.61,0.61 0 0 0 -0.6,-0.61 0.6,0.6 0 0 0 -0.6,0.61 0.6,0.6 0 0 0 0.59,0.6 z m 10.19,-1.87 a 0.34,0.34 0 0 0 0,-0.67 0.34,0.34 0 0 0 0,0.67 z m 20.38,-0.12 a 0.34,0.34 0 1 0 -0.33,-0.33 0.34,0.34 0 0 0 0.32,0.33 z M 37.29,34.4 a 0.33,0.33 0 0 0 0.33,-0.33 0.33,0.33 0 0 0 -0.66,0 0.33,0.33 0 0 0 0.33,0.33 z M 60.7,33 A 0.33,0.33 0 1 0 60.37,32.67 0.33,0.33 0 0 0 60.7,33 Z M 62,32.52 a 0.61,0.61 0 1 0 0,-1.21 0.61,0.61 0 0 0 0,1.21 z M 40.26,31.8 a 0.33,0.33 0 0 0 0,-0.66 0.33,0.33 0 1 0 0,0.66 z M 43,31.56 a 0.6,0.6 0 0 0 0.6,-0.6 0.61,0.61 0 0 0 -0.6,-0.61 0.62,0.62 0 0 0 -0.61,0.61 0.6,0.6 0 0 0 0.61,0.6 z m -5.2,-1 a 0.6,0.6 0 0 0 0.6,-0.6 0.61,0.61 0 1 0 -1.21,0 0.6,0.6 0 0 0 0.62,0.63 z m 17.45,-0.17 a 0.34,0.34 0 0 0 0.33,-0.34 0.34,0.34 0 0 0 -0.67,0 0.34,0.34 0 0 0 0.35,0.37 z m -7.84,-0.07 a 0.61,0.61 0 1 0 -0.6,-0.6 0.6,0.6 0 0 0 0.61,0.63 z m 10.44,-0.6 a 0.34,0.34 0 1 0 -0.34,-0.34 0.34,0.34 0 0 0 0.35,0.37 z M 46.18,28.36 a 0.34,0.34 0 0 0 0.34,-0.33 0.32,0.32 0 0 0 -0.34,-0.33 0.33,0.33 0 0 0 -0.33,0.33 0.33,0.33 0 0 0 0.33,0.33 z m -13,-0.18 a 0.61,0.61 0 0 0 0.6,-0.61 0.6,0.6 0 0 0 -0.6,-0.6 0.6,0.6 0 0 0 -0.61,0.6 0.62,0.62 0 0 0 0.64,0.61 z M 56,26.73 a 0.34,0.34 0 0 0 0,-0.67 0.34,0.34 0 0 0 0,0.67 z m 2.15,-0.43 a 0.61,0.61 0 0 0 0,-1.21 0.61,0.61 0 1 0 0,1.21 z M 32.41,25.39 a 0.33,0.33 0 0 0 0.33,-0.33 0.33,0.33 0 0 0 -0.66,0 0.33,0.33 0 0 0 0.31,0.33 z m 25.77,-1.27 a 0.33,0.33 0 0 0 0.33,-0.33 0.33,0.33 0 1 0 -0.66,0 0.33,0.33 0 0 0 0.31,0.33 z M 41.54,23.21 a 0.33,0.33 0 1 0 -0.33,-0.33 0.34,0.34 0 0 0 0.31,0.33 z M 33,21.58 a 0.34,0.34 0 0 0 0,-0.67 0.34,0.34 0 1 0 0,0.67 z m 1.69,-1.21 A 0.33,0.33 0 0 0 35,20 a 0.34,0.34 0 0 0 -0.67,0 0.34,0.34 0 0 0 0.36,0.37 z"
       style="fill:url(#radial-gradient-3)" />
    <path
       id="path4351"
       class="cls-10"
       d="m 51.68,74.46 a 9.82,9.82 0 1 1 -9.81,-9.81 9.82,9.82 0 0 1 9.81,9.81 z"
       style="fill:url(#radial-gradient-4)" />
    <g
       id="g4353">
      <path
         id="path4355"
         class="cls-11"
         d="m 36.29,73.59 c -0.75,-1.89 -0.22,-4.27 1.31,-5.07 1.53,-0.8 3.42,0.06 4.23,1.93 a 5.43,5.43 0 0 1 0.41,1.7 4.93,4.93 0 0 1 0.41,-1.7 c 0.8,-1.87 2.7,-2.74 4.23,-1.93 1.53,0.81 1.95,3.15 1.3,5.07 -1.11,3.32 -4.46,5.24 -5.94,9.07 -1.23,-3.81 -4.65,-5.8 -6,-9.07 z"
         style="fill:url(#linear-gradient-5)" />
    </g>
    <g
       id="use4223">
      <path
         id="path4411"
         class="cls-12"
         d="M 52,41.29 A 9.82,9.82 0 1 1 42.19,31.47 9.81,9.81 0 0 1 52,41.29 Z"
         style="fill:url(#radial-gradient-5)" />
      <g
         id="g4413">
        <path
           id="path4415"
           class="cls-13"
           d="m 36.29,39.43 c -0.75,-1.88 -0.22,-4.27 1.31,-5.07 1.53,-0.8 3.42,0.06 4.23,1.93 a 5.56,5.56 0 0 1 0.41,1.7 5,5 0 0 1 0.41,-1.7 c 0.8,-1.87 2.7,-2.73 4.23,-1.93 1.53,0.8 1.95,3.16 1.3,5.07 -1.11,3.32 -4.46,5.25 -5.94,9.08 -1.23,-3.81 -4.65,-5.81 -6,-9.08 z"
           style="fill:url(#linear-gradient-6)" />
      </g>
    </g>
  </g>
  <metadata
     id="metadata1">
    <rdf:RDF>
      <cc:Work
         rdf:about="">
        <dc:title>Two of Hearts</dc:title>
      </cc:Work>
    </rdf:RDF>
  </metadata>
</svg>
