<?xml version="1.0" encoding="UTF-8" standalone="no"?>
<svg
   id="svg2"
   viewBox="0 0 84 119"
   version="1.1"
   sodipodi:docname="4H.svg"
   inkscape:version="1.3.2 (091e20e, 2023-11-25, custom)"
   xmlns:inkscape="http://www.inkscape.org/namespaces/inkscape"
   xmlns:sodipodi="http://sodipodi.sourceforge.net/DTD/sodipodi-0.dtd"
   xmlns:xlink="http://www.w3.org/1999/xlink"
   xmlns="http://www.w3.org/2000/svg"
   xmlns:svg="http://www.w3.org/2000/svg">
  <sodipodi:namedview
     id="namedview6"
     pagecolor="#ffffff"
     bordercolor="#000000"
     borderopacity="0.25"
     inkscape:showpageshadow="2"
     inkscape:pageopacity="0.0"
     inkscape:pagecheckerboard="0"
     inkscape:deskcolor="#d1d1d1"
     inkscape:zoom="15.285714"
     inkscape:cx="41.96729"
     inkscape:cy="59.5"
     inkscape:window-width="3840"
     inkscape:window-height="2054"
     inkscape:window-x="-11"
     inkscape:window-y="-11"
     inkscape:window-maximized="1"
     inkscape:current-layer="svg2" />
  <defs
     id="defs6">
    <style
       id="style1">
      .cls-1 {
        filter: url(#filter63625-2);
      }

      .cls-2 {
        stroke: #000;
        fill: url(#linear-gradient);
      }

      .cls-2, .cls-6 {
        stroke-miterlimit: 10;
        stroke-width: 0.23px;
      }

      .cls-3 {
        fill: url(#linear-gradient-2);
      }

      .cls-4 {
        opacity: 0.47;
        fill: url(#radial-gradient);
      }

      .cls-10, .cls-12, .cls-14, .cls-16, .cls-4, .cls-5 {
        isolation: isolate;
      }

      .cls-5 {
        opacity: 0.4;
        fill: url(#radial-gradient-2);
      }

      .cls-6 {
        fill: none;
      }

      .cls-6, .cls-8 {
        stroke: #fff;
      }

      .cls-11, .cls-13, .cls-15, .cls-17, .cls-7 {
        stroke: #c8c8c8;
        stroke-linejoin: round;
        stroke-width: 1px;
      }

      .cls-7 {
        fill: url(#linear-gradient-3);
      }

      .cls-8 {
        stroke-width: 0.49px;
        fill: url(#linear-gradient-4);
      }

      .cls-9 {
        fill: url(#radial-gradient-3);
      }

      .cls-10, .cls-12, .cls-14, .cls-16 {
        opacity: 0.4;
      }

      .cls-10 {
        fill: url(#radial-gradient-4);
      }

      .cls-11 {
        fill: url(#linear-gradient-5);
      }

      .cls-12 {
        fill: url(#radial-gradient-5);
      }

      .cls-13 {
        fill: url(#linear-gradient-6);
      }

      .cls-14 {
        fill: url(#radial-gradient-6);
      }

      .cls-15 {
        fill: url(#linear-gradient-7);
      }

      .cls-16 {
        fill: url(#radial-gradient-7);
      }

      .cls-17 {
        fill: url(#linear-gradient-8);
      }
    </style>
    <filter
       id="filter63625-2"
       name="filter63625-2"
       x="-0.12863863"
       y="-0.090976911"
       width="1.2572773"
       height="1.1819538">
      <feGaussianBlur
         result="feGaussianBlur63627-6"
         stdDeviation="3.76"
         id="feGaussianBlur1" />
    </filter>
    <linearGradient
       id="linear-gradient"
       x1="-1330.2"
       y1="-1953.4"
       x2="-1320.72"
       y2="-1438.89"
       gradientTransform="matrix(0.23, 0, 0, -0.23, 343.55, -407.21)"
       gradientUnits="userSpaceOnUse">
      <stop
         offset="0"
         stop-color="#f3f3f3"
         id="stop1" />
      <stop
         offset="1"
         stop-color="#8f8f8f"
         id="stop2" />
    </linearGradient>
    <linearGradient
       id="linear-gradient-2"
       x1="-1758.03"
       y1="-1732.34"
       x2="-1625.75"
       y2="-2170.05"
       gradientTransform="matrix(0.24, 0, 0, -0.24, 448.8, -393.93)"
       gradientUnits="userSpaceOnUse">
      <stop
         offset="0"
         stop-color="#590000"
         id="stop3" />
      <stop
         offset="1"
         stop-color="#bf0303"
         id="stop4" />
    </linearGradient>
    <radialGradient
       id="radial-gradient"
       cx="1972.02"
       cy="6305.97"
       r="58.68"
       gradientTransform="matrix(-0.23, 0, 0, 0.21, 462.08, -1205.64)"
       gradientUnits="userSpaceOnUse">
      <stop
         offset="0"
         stop-color="#fff"
         id="stop5" />
      <stop
         offset="1"
         stop-color="#fff"
         stop-opacity="0"
         id="stop6" />
    </radialGradient>
    <radialGradient
       id="radial-gradient-2"
       cx="-1319.65"
       cy="-987.43"
       r="63.15"
       gradientTransform="matrix(0.23, 0, 0, -0.36, 373.82, -333.99)"
       xlink:href="#radial-gradient" />
    <linearGradient
       id="linear-gradient-3"
       x1="-8109.4"
       y1="-11857.74"
       x2="-8109.4"
       y2="-11794.62"
       gradientTransform="matrix(0.05, 0, 0, -0.06, 447.3, -595.66)"
       xlink:href="#linear-gradient" />
    <linearGradient
       id="linear-gradient-4"
       x1="20.85"
       y1="1043.68"
       x2="21.13"
       y2="1046.62"
       gradientTransform="matrix(1, 0, 0, -1, 47.25, 1064.98)"
       xlink:href="#linear-gradient" />
    <radialGradient
       id="radial-gradient-3"
       cx="457.93"
       cy="1472.35"
       r="25.37"
       gradientTransform="matrix(0.83, 0.56, 2.15, -3.16, -3518.45, 4482.04)"
       xlink:href="#radial-gradient" />
    <radialGradient
       id="radial-gradient-4"
       cx="-513.19"
       cy="-600.11"
       r="26.74"
       gradientTransform="matrix(0.37, 0, 0, -0.37, 247.05, -135.14)"
       xlink:href="#radial-gradient" />
    <linearGradient
       id="linear-gradient-5"
       x1="-4018.42"
       y1="-5086.74"
       x2="-4018.42"
       y2="-5023.64"
       gradientTransform="matrix(0.11, 0, 0, -0.12, 501.94, -529.54)"
       xlink:href="#linear-gradient" />
    <radialGradient
       id="radial-gradient-5"
       cx="-513.19"
       cy="-600.11"
       r="26.74"
       gradientTransform="matrix(0.37, 0, 0, -0.37, 214.06, -135.14)"
       xlink:href="#radial-gradient" />
    <linearGradient
       id="linear-gradient-6"
       x1="-4018.42"
       y1="-5086.74"
       x2="-4018.42"
       y2="-5023.64"
       gradientTransform="matrix(0.11, 0, 0, -0.12, 468.95, -529.54)"
       xlink:href="#linear-gradient" />
    <radialGradient
       id="radial-gradient-6"
       cx="-513.19"
       cy="-600.11"
       r="26.74"
       gradientTransform="matrix(0.37, 0, 0, -0.37, 247.05, -188.61)"
       xlink:href="#radial-gradient" />
    <linearGradient
       id="linear-gradient-7"
       x1="-4018.42"
       y1="-5086.74"
       x2="-4018.42"
       y2="-5023.64"
       gradientTransform="matrix(0.11, 0, 0, -0.12, 501.94, -583.01)"
       xlink:href="#linear-gradient" />
    <radialGradient
       id="radial-gradient-7"
       cx="-513.19"
       cy="-600.11"
       r="26.74"
       gradientTransform="matrix(0.37, 0, 0, -0.37, 214.06, -188.61)"
       xlink:href="#radial-gradient" />
    <linearGradient
       id="linear-gradient-8"
       x1="-4018.42"
       y1="-5086.74"
       x2="-4018.42"
       y2="-5023.64"
       gradientTransform="matrix(0.11, 0, 0, -0.12, 468.95, -583.01)"
       xlink:href="#linear-gradient" />
  </defs>
  <title
     id="title6">Four of Hearts</title>
  <g
     id="_4_heart"
     data-name="4_heart">
    <g
       id="use70727">
      <g
         id="g65535">
        <rect
           id="rect65539"
           class="cls-2"
           x="7.14"
           y="9.33"
           width="70.15"
           height="99.19"
           rx="3.97"
           ry="3.97" />
        <rect
           id="rect65541"
           class="cls-3"
           x="10.74"
           y="12"
           width="63.24"
           height="92.26"
           rx="1.29"
           ry="1.29" />
        <rect
           id="rect65543"
           class="cls-4"
           x="10.84"
           y="79.85"
           width="26.55"
           height="24.28"
           rx="1.04"
           ry="1.04" />
        <rect
           id="rect65545"
           class="cls-5"
           x="44.8"
           y="11.87"
           width="29.28"
           height="45.27" />
        <path
           id="path65547"
           class="cls-6"
           d="M25.71,100.24H70.42V26.63M58.85,16H14.29V89.21" />
      </g>
    </g>
    <g
       id="use74138">
      <g
         id="g74112">
        <path
           id="path74114"
           class="cls-7"
           d="M13.84,94.8a2,2,0,0,1,.63-2.45,1.53,1.53,0,0,1,2,.94,2.46,2.46,0,0,1,.19.81,2.47,2.47,0,0,1,.2-.81,1.53,1.53,0,0,1,2-.94,2.06,2.06,0,0,1,.63,2.45c-.54,1.6-2.15,2.52-2.87,4.37-.59-1.84-2.23-2.8-2.86-4.37Z" />
      </g>
    </g>
    <g
       id="use3993">
      <path
         id="text3922"
         class="cls-8"
         d="M70.66,20.86H69.52V15.93H69l-3.49,4.93v.71h3.12v1.86h.85V21.57h1.14v-.71m-2,0H66l2.66-3.8v3.8" />
    </g>
    <path
       id="path4055"
       class="cls-9"
       d="M23.49,97c.53-.9-1.57-4.1-1.84-5.3,0-.1,0-.21-.06-.31s0-.35,0-.52a5.54,5.54,0,0,1,.13-.91.33.33,0,0,0,.16-.6l.21-.69a9.15,9.15,0,0,1,.61-1.44,18.88,18.88,0,0,1,1.08-1.76c.12-.18.25-.36.38-.53h.1a.6.6,0,0,0,.61-.6.64.64,0,0,0,0-.24c.14-.18.3-.37.45-.54a27.32,27.32,0,0,1,2.13-2c.81-.75,1.67-1.43,2.53-2.1,1-.8,2.12-1.51,3.21-2.22s2.08-1.32,3.14-2l.15,0a.61.61,0,1,0-.61-.61.59.59,0,0,0,.44.58l-.3.17c-1.28.77-2.56,1.55-3.81,2.36-1.1.71-2.19,1.42-3.23,2.23-.86.67-1.72,1.36-2.53,2.1-.62.56-1.24,1.12-1.82,1.72a.62.62,0,0,0-.31-.08.6.6,0,0,0-.6.6.56.56,0,0,0,.12.36,16.62,16.62,0,0,0-1,1.36,17.75,17.75,0,0,0-1.09,1.76c-.05.1-.09.2-.14.31,0-.61.1-1.22.18-1.83a15.47,15.47,0,0,1,.53-2.52,15.27,15.27,0,0,1,.82-2.2,11.79,11.79,0,0,0,.87-1.63,2.79,2.79,0,0,0,.14-.37l0-.09c.43-.79.88-1.56,1.34-2.33a1,1,0,0,1,.08-.14c.17-.24.34-.47.52-.7.49-.64,1-1.25,1.54-1.87.67-.78,1.4-1.52,2.12-2.25s1.67-1.62,2.54-2.41,1.87-1.65,2.8-2.49,2-1.76,3-2.63,2.21-2,3.29-3L43,60a10.31,10.31,0,0,0,1.69-1.33c1.1-.94,2.23-1.86,3.38-2.74a17.11,17.11,0,0,1,2.27-1.56l.51-.22a.53.53,0,0,0,0,.18.61.61,0,1,0,1.21,0,.59.59,0,0,0-.15-.39c2.24-.16,2.7-.49.28-.33a1.88,1.88,0,0,0-.58.13h-.15a.59.59,0,0,0-.54.33,21.16,21.16,0,0,0-3.41,2.21c-1.15.87-2.27,1.8-3.37,2.74-.46.39-.76.66-.93.83l1.72-1.73c1.24-1.26,2.43-2.58,3.57-3.93.71-.85,1.4-1.73,2.07-2.61a.62.62,0,0,0,.46.22.6.6,0,0,0,.6-.61.58.58,0,0,0-.36-.55c.3-.41.6-.81.89-1.22A54.44,54.44,0,0,0,55.55,44a35.92,35.92,0,0,0,2.79-6.24,56.54,56.54,0,0,0,1.12-5.8c.37-2.33-.21-2-.58.34a53.79,53.79,0,0,1-1.12,5.79A37.49,37.49,0,0,1,55,44.29l-.27.44a.32.32,0,0,0-.32-.26.34.34,0,0,0,0,.67l.11,0c-.92,1.58-1.9,3.14-3,4.63l-.61.84a.6.6,0,0,0-.54.59.49.49,0,0,0,0,.12c-.81,1.1-1.65,2.17-2.52,3.22-1.15,1.35-2.33,2.67-3.58,3.93S41.9,60.83,40.68,62s-2.17,2-3.29,3-2,1.75-3,2.64L31.6,70.13c-.8.73-1.61,1.46-2.37,2.23a.32.32,0,0,0-.16-.2c.3-.31.61-.61.91-.91,1-.94,2-1.85,3-2.8,1.18-1.11,2.34-2.25,3.48-3.4a39,39,0,0,0,3.61-4.2,46.3,46.3,0,0,0,3.29-5.4,35.94,35.94,0,0,0,2.65-6.11,41.51,41.51,0,0,0,1.36-7,54.93,54.93,0,0,0,.08-6,.59.59,0,0,0,.21-.45.63.63,0,0,0-.24-.48c0-.25,0-.49,0-.74,0-.42,0-.83,0-1.25-.08-2.35-.66-2-.57.33,0,.42,0,.83,0,1.25,0,.11,0,.22,0,.33a.59.59,0,0,0-.39.56.6.6,0,0,0,.42.57c0,1,.06,2.07.05,3.11a.59.59,0,0,0-.23-.05.6.6,0,0,0-.61.6.61.61,0,0,0,.61.61.78.78,0,0,0,.21,0c0,.66,0,1.34-.1,2-.19,1.51-.42,3-.74,4.51,0-.71,0-1.42,0-2.13-.06-1.69-.16-3.37-.38-5a26.23,26.23,0,0,0-.68-3.4A10.8,10.8,0,0,0,44.49,35a1.86,1.86,0,0,0-.27-.45c-1.91-1.71-2.55-1.32-.62.37a1.73,1.73,0,0,1,.27.43A12,12,0,0,1,44.44,37a26.11,26.11,0,0,1,.69,3.39,47.48,47.48,0,0,1,.39,5c0,.93,0,1.87,0,2.81a7,7,0,0,0,0,1.22c0,.07,0,.15-.07.23-.39,1.15-.82,2.28-1.31,3.39a.6.6,0,0,0-1.12.3.6.6,0,0,0,.6.61l.12,0c-.3.62-.6,1.23-.94,1.83a46.5,46.5,0,0,1-3.3,5.41,39.09,39.09,0,0,1-3.62,4.2c-1.14,1.15-2.29,2.3-3.47,3.41-1,.94-2.05,1.86-3.05,2.8-.18.17-.35.34-.52.52a.33.33,0,0,0-.27.28,17.59,17.59,0,0,0-1.76,2,32.06,32.06,0,0,0-1.91,2.89c-.22.3-.43.6-.62.92s-.41.65-.58,1-.24.46-.32.71v0c-.17.3-.33.61-.49.92s-.39.84-.58,1.26c0-.07,0-.14,0-.21.13-.59.32-1.16.5-1.74s.53-1.34.81-2,.71-1.62,1.07-2.43c.48-1.1,1-2.17,1.57-3.23.68-1.31,1.29-2.66,1.87-4,.7-1.66,1.38-3.32,2.07-5s1.41-3.43,2.06-5.16a.33.33,0,0,0,.25-.32.32.32,0,0,0-.06-.2c.66-1.82,1.24-3.66,1.8-5.51A66.89,66.89,0,0,0,36,45.82a43.54,43.54,0,0,0,.52-7.74c-.08-2.63-.39-5.25-.71-7.87-.2-1.57-.43-3.14-.68-4.71a5.79,5.79,0,0,0-.35-1.39.58.58,0,0,0,.19,0,.62.62,0,0,0,.61-.61.6.6,0,0,0-.61-.6.59.59,0,0,0-.6.6.58.58,0,0,0,.16.41,3.76,3.76,0,0,0,0,1.89c.11.69.22,1.39.32,2.08a.38.38,0,0,0-.23-.08.33.33,0,1,0,0,.66.32.32,0,0,0,.29-.18c.11.74.21,1.48.31,2.22,0,.19,0,.38.07.57A.68.68,0,0,0,35,31a.61.61,0,1,0,0,1.21.59.59,0,0,0,.39-.15c.25,2.1.47,4.2.53,6.31a41.91,41.91,0,0,1-.53,7.75,66.89,66.89,0,0,1-1.65,6.52c-.52,1.7-1.06,3.4-1.66,5.08a.31.31,0,0,0-.16.29.5.5,0,0,0,0,.12c0,.11-.08.23-.13.34q-1,2.7-2.13,5.36l-2.07,5c-.59,1.35-1.2,2.7-1.88,4-.54,1.07-1.09,2.14-1.58,3.23-.36.81-.72,1.63-1.07,2.44s-.57,1.33-.81,2a16.58,16.58,0,0,0-.5,1.74c-.11.49-.22,1-.31,1.49,0,.22-.08.43-.13.65-.26,1.06-.28,1.6-.18,1.68s-.06.36-.08.55a18.73,18.73,0,0,0-.2,2.13v1c-.08.25-.15.49-.21.74,0,.1,0,.2,0,.3h-3c2,.58,3.55.41,5.86,6.18Zm.59-4.67a.34.34,0,1,0-.34-.34A.34.34,0,0,0,24.08,92.32Zm-4.63-1.69a.61.61,0,0,0,.6-.61.61.61,0,1,0-1.21,0A.61.61,0,0,0,19.45,90.63Zm3.26-.73a.61.61,0,0,0,.61-.61.61.61,0,0,0-1.21,0A.61.61,0,0,0,22.71,89.9Zm-4.26-1.7a.33.33,0,0,0,.33-.33.33.33,0,0,0-.33-.33.32.32,0,0,0-.33.33A.33.33,0,0,0,18.45,88.2ZM20,87.66A.34.34,0,0,0,20,87a.34.34,0,0,0,0,.67Zm5.71-.72a.61.61,0,0,0,.61-.61.61.61,0,0,0-1.21,0A.61.61,0,0,0,25.67,86.94Zm1.43-1a.33.33,0,1,0-.34-.33A.33.33,0,0,0,27.1,85.9Zm-8.32-.66a.61.61,0,1,0-.61-.6A.61.61,0,0,0,18.78,85.24Zm1.39-1.75a.6.6,0,0,0,.6-.61.59.59,0,0,0-.6-.6.6.6,0,0,0-.6.6A.61.61,0,0,0,20.17,83.49ZM28,83.24a.33.33,0,0,0,.33-.33.34.34,0,0,0-.67,0A.33.33,0,0,0,28,83.24Zm4.38-.54a.61.61,0,1,0-.61-.61A.61.61,0,0,0,32.39,82.7ZM25.92,82a.6.6,0,0,0,.6-.6.6.6,0,0,0-.6-.61.62.62,0,0,0-.61.61A.61.61,0,0,0,25.92,82Zm2.37-.15s.71-.46,1.82-1.28c.48-.35.94-.71,1.45-1a22,22,0,0,1,2.2-1.17l.47-.21a.57.57,0,0,0-.14.38.6.6,0,0,0,.6.61.61.61,0,0,0,.61-.61.6.6,0,0,0-.58-.59c.53-.23,1.06-.47,1.6-.67s1.21-.49,1.82-.72l.78-.29c2.38-.92,3-1.28.62-.37l-.79.3-1.81.72c-.87.34-1.72.72-2.57,1.1A31.44,31.44,0,0,0,31,79.87a16.25,16.25,0,0,0-1.44,1c-.87.64-1.24.93-1.22.93Zm-8.42-.63a.62.62,0,0,0,.61-.61.61.61,0,0,0-1.22,0A.62.62,0,0,0,19.87,81.19Zm13.21-.67a.33.33,0,1,0-.33-.33A.34.34,0,0,0,33.08,80.52Zm-11-.85a.6.6,0,0,0,.6-.6.6.6,0,0,0-.6-.6.6.6,0,0,0-.61.6A.61.61,0,0,0,22.11,79.67Zm3.27-.18a.6.6,0,0,0,.6-.6.61.61,0,1,0-1.21,0A.6.6,0,0,0,25.38,79.49ZM17.18,79a.33.33,0,0,0,.33-.33.34.34,0,0,0-.67,0A.34.34,0,0,0,17.18,79Zm21.11-1.15a.34.34,0,1,0-.34-.34A.34.34,0,0,0,38.29,77.86Zm-7.23-.06a.61.61,0,0,0,0-1.21.61.61,0,1,0,0,1.21Zm10.68-.54a.34.34,0,0,0,0-.67h0a.6.6,0,0,0,.18-.42.61.61,0,1,0-.61.6l.17,0a.33.33,0,0,0,.29.51Zm2.08-1.4a.61.61,0,1,0,0-1.21.61.61,0,1,0,0,1.21Zm-20.62,0a.61.61,0,0,0,0-1.21.61.61,0,1,0,0,1.21ZM28,75.8a.61.61,0,1,0-.6-.6A.6.6,0,0,0,28,75.8Zm17.39-.06a.33.33,0,1,0-.33-.33A.34.34,0,0,0,45.36,75.74Zm-13-.42a.34.34,0,0,0,0-.67.34.34,0,0,0,0,.67Zm-5.53-.4c.2-.28.39-.57.6-.85a15.13,15.13,0,0,1,1.2-1.45.34.34,0,0,0,.2.15c-.65.66-1.29,1.32-1.9,2l-.1.12ZM38.33,74l2-1.1,1.49-.82.17,0a.6.6,0,0,0,.58-.45l2.08-1.18-2.07,1.16a.53.53,0,0,0,0-.13.6.6,0,0,0-.6-.61.61.61,0,0,0-.2,1.18l-.47.26C40.29,72.89,39.31,73.45,38.33,74Zm7.76-.08a.34.34,0,0,0,0-.67.34.34,0,0,0,0,.67ZM23,73a.61.61,0,0,0,.61-.61.58.58,0,0,0,0-.18h.07a.34.34,0,0,0,.33-.34.34.34,0,0,0-.33-.34.33.33,0,0,0-.33.33.65.65,0,0,0-.31-.08A.61.61,0,0,0,23,73ZM21,73a.34.34,0,0,0,0-.67A.34.34,0,1,0,21,73Zm4.2-2.3a.6.6,0,0,0,.6-.6.6.6,0,0,0-.6-.61.61.61,0,0,0-.6.61A.6.6,0,0,0,25.19,70.66Zm25.56-.12a.33.33,0,0,0,.33-.33.33.33,0,1,0-.66,0A.33.33,0,0,0,50.75,70.54Zm-5.9-.21.9-.52a44.11,44.11,0,0,0,4.35-2.93c.71-.54,1.39-1.11,2-1.7a.62.62,0,0,0,.57.4.6.6,0,0,0,.6-.6.61.61,0,0,0-.35-.56c.48-.45,1-.9,1.41-1.37s.66-.69,1-1l0,0c1-.88,2-1.75,2.9-2.65l0-.05a.61.61,0,0,0,.61.51.6.6,0,0,0,.07-1.2,12.64,12.64,0,0,0,1.5-1.85c.57-.84,1.14-1.69,1.68-2.54s1.09-1.71,1.61-2.57c.3-.51.61-1,.9-1.52a.5.5,0,0,0,0,.12.61.61,0,1,0,.19-.43l.24-.44a12.25,12.25,0,0,0,.62-1.44,5.37,5.37,0,0,1,.21-.56c.14-.27.26-.51.35-.7a.61.61,0,0,0,.14-1.16.32.32,0,0,0,.25-.31.34.34,0,1,0-.67,0,.33.33,0,0,0,.15.27.6.6,0,0,0-.57.6.62.62,0,0,0,.34.55c-.18.29-.38.65-.61,1.11a5.37,5.37,0,0,0-.21.56,12.1,12.1,0,0,1-.62,1.43c-.4.78-.85,1.52-1.3,2.27s-1.06,1.72-1.6,2.57-1.12,1.7-1.69,2.54a11,11,0,0,1-1.23,1.56.57.57,0,0,0-.3.33l-.68.69c-.54.52-1.1,1-1.65,1.53.77-1,1.49-2,2.19-3a25,25,0,0,0,2.92-5.76c0-.1.06-.21.1-.31a.6.6,0,1,0,.59-.73.65.65,0,0,0-.41.16,27.8,27.8,0,0,0,1-6,26.89,26.89,0,0,0-.24-6.21c-.5-3.85-1.44-3.31-.95.54a28.16,28.16,0,0,1,.23,6.22A25.75,25.75,0,0,1,60.19,53a24.77,24.77,0,0,1-2.92,5.76,37.16,37.16,0,0,1-3.43,4.38c-.72.63-1.44,1.27-2.16,1.89-.53.47-1.08.89-1.63,1.33-1.91,1.52-1.31,1.17.6-.35.5-.4,1-.78,1.48-1.2,0,0,0,0,0,0a36.76,36.76,0,0,1-3,2.58,42,42,0,0,1-4.27,2.88Zm-3.35-.15a.34.34,0,0,0,0-.67.34.34,0,1,0,0,.67Zm6-.25a.34.34,0,0,0,.27-.33.34.34,0,1,0-.34.33Zm-13.41-.18a.6.6,0,0,0,.61-.6.61.61,0,1,0-.61.6ZM36,69.57a.33.33,0,1,0-.33-.33A.33.33,0,0,0,36,69.57Zm8.77-1.51a.34.34,0,1,0-.33-.33A.34.34,0,0,0,44.76,68.06Zm3-.18a.61.61,0,1,0-.6-.61A.61.61,0,0,0,47.75,67.88ZM26.4,67.63A.6.6,0,0,0,27,67a.61.61,0,0,0-.61-.61.62.62,0,0,0-.61.61A.6.6,0,0,0,26.4,67.63ZM55,67a.33.33,0,0,0,0-.66A.33.33,0,0,0,55,67Zm-21.32-.12a.61.61,0,1,0,0-1.21.61.61,0,0,0,0,1.21Zm-9-1a.33.33,0,0,0,.33-.33.34.34,0,0,0-.67,0A.34.34,0,0,0,24.68,65.88Zm24.4-.06a.61.61,0,1,0-.6-.6A.6.6,0,0,0,49.08,65.82Zm-21.71-.6a.6.6,0,0,0,.6-.61.61.61,0,0,0-.26-.5.27.27,0,0,0,0-.13.33.33,0,1,0-.66,0,.3.3,0,0,0,0,.1.62.62,0,0,0-.33.53A.61.61,0,0,0,27.37,65.22Zm13.07-.55a.6.6,0,0,0,.6-.6.61.61,0,1,0-1.21,0A.6.6,0,0,0,40.44,64.67Zm-11.15-.22c.15,0,.42-.69.66-1.94s.46-2.54.6-3.82a34.41,34.41,0,0,0,.22-4.76,32.54,32.54,0,0,0-.34-3.55c-.13-.79-.25-1.58-.45-2.36a7.2,7.2,0,0,0-.28-.9c-1.05-2.33-1.71-1.95-.62.36a7.06,7.06,0,0,1,.28.89c.21.78.33,1.58.46,2.37a29.87,29.87,0,0,1,.34,3.54A35.87,35.87,0,0,1,30,59c-.14,1.28-.37,2.55-.61,3.82-.21,1.1-.19,1.61-.07,1.6Zm12.93,0a.33.33,0,1,0-.33-.33A.33.33,0,0,0,42.22,64.43Zm-9.92-.24a.33.33,0,0,0,.33-.33.33.33,0,1,0-.66,0A.33.33,0,0,0,32.3,64.19Zm4-1.09a.61.61,0,1,0-.61-.61A.6.6,0,0,0,36.27,63.1Zm16.87-.49a.59.59,0,0,0,.6-.6.6.6,0,0,0-.6-.6.61.61,0,0,0-.61.6A.6.6,0,0,0,53.14,62.61Zm6.8-1.39a.33.33,0,1,0-.33-.33A.34.34,0,0,0,59.94,61.22ZM48.42,58.38a.61.61,0,1,0,0-1.21.61.61,0,0,0,0,1.21Zm6.44-1a.34.34,0,0,0,.34-.33.34.34,0,0,0-.34-.33.33.33,0,0,0-.33.33A.33.33,0,0,0,54.86,57.41ZM25.43,57a.61.61,0,1,0-.6-.6A.6.6,0,0,0,25.43,57Zm15.31-.24a.61.61,0,0,0,0-1.21.61.61,0,1,0,0,1.21ZM64.06,56a.33.33,0,0,0,.33-.33.33.33,0,0,0-.33-.33.33.33,0,0,0-.33.33A.32.32,0,0,0,64.06,56Zm-.76-.48a.61.61,0,1,0,0-1.21.61.61,0,1,0,0,1.21Zm-18.81-.18a.61.61,0,0,0,.61-.61.62.62,0,0,0-.61-.61.6.6,0,0,0-.6.61A.6.6,0,0,0,44.49,55.36Zm-10-.67a.61.61,0,1,0-.6-.6A.6.6,0,0,0,34.5,54.69Zm-6.32-2.6a.34.34,0,1,0,0-.67.34.34,0,0,0,0,.67ZM31.66,52a.61.61,0,1,0-.6-.6A.6.6,0,0,0,31.66,52Zm26.68-.18a.61.61,0,1,0,0-1.21.61.61,0,0,0,0,1.21Zm-23-.61a.33.33,0,1,0-.34-.33A.33.33,0,0,0,35.39,51.18Zm8.38-2.54a.61.61,0,1,0-.61-.6A.6.6,0,0,0,43.77,48.64Zm7.13-.06a.61.61,0,0,0,.61-.6.62.62,0,0,0-.61-.61.61.61,0,0,0-.6.61A.6.6,0,0,0,50.9,48.58Zm12.58-.66a.61.61,0,1,0-.6-.61A.61.61,0,0,0,63.48,47.92Zm-30.24-.49a.6.6,0,0,0,.6-.6.61.61,0,0,0-1.21,0A.6.6,0,0,0,33.24,47.43Zm15.36-.06a.6.6,0,0,0,.61-.6.61.61,0,0,0-.61-.61.62.62,0,0,0-.61.61A.61.61,0,0,0,48.6,47.37ZM36.48,46a.33.33,0,1,0-.34-.33A.33.33,0,0,0,36.48,46Zm-8.72-1a.33.33,0,1,0,0-.66.33.33,0,1,0,0,.66Zm22-.12a.33.33,0,1,0-.33-.33A.33.33,0,0,0,49.72,45Zm9.71-.54a.61.61,0,0,0,.6-.61.6.6,0,0,0-.6-.6.6.6,0,0,0-.6.6A.6.6,0,0,0,59.43,44.41Zm-16.06-.24a.34.34,0,1,0-.33-.33A.33.33,0,0,0,43.37,44.17Zm23.77-.55a.33.33,0,0,0,.33-.33.33.33,0,0,0-.66,0A.33.33,0,0,0,67.14,43.62Zm-23-.12a.61.61,0,1,0-.61-.6A.6.6,0,0,0,44.13,43.5Zm9.68-.18a.61.61,0,1,0-.61-.61A.6.6,0,0,0,53.81,43.32ZM58,42.47a.33.33,0,1,0-.33-.33A.33.33,0,0,0,58,42.47Zm9-.18a.61.61,0,0,0,0-1.21.61.61,0,1,0,0,1.21Zm-32,0a.37.37,0,1,0-.07,0Zm27.82-1a.34.34,0,0,0,.33-.34.34.34,0,1,0-.67,0A.34.34,0,0,0,62.79,41.33Zm-24.23-.61a.6.6,0,0,0,.6-.61.6.6,0,0,0-.6-.6.6.6,0,0,0-.6.6A.61.61,0,0,0,38.56,40.72ZM59,40.24a.34.34,0,1,0-.33-.33A.33.33,0,0,0,59,40.24Zm-10-.85a.61.61,0,0,0,.61-.61v0a.34.34,0,0,0,.48-.3.33.33,0,0,0-.33-.33.33.33,0,0,0-.32.24.63.63,0,0,0-.44-.18.6.6,0,0,0-.6.6.61.61,0,0,0,.6.61Zm6.51-.73a.33.33,0,0,0,.33-.33.33.33,0,0,0-.33-.33.32.32,0,0,0-.33.33A.33.33,0,0,0,55.59,38.66Zm10.29-.12a.33.33,0,0,0,.33-.33.34.34,0,0,0-.67,0A.34.34,0,0,0,65.88,38.54Zm-2.58-.06a.61.61,0,1,0,0-1.21.61.61,0,1,0,0,1.21ZM38,38.3a.61.61,0,0,0,0-1.21.61.61,0,1,0,0,1.21Zm5.14-.66a.62.62,0,0,0,.61-.61.61.61,0,0,0-1.18-.21.33.33,0,0,0,0,.51.62.62,0,0,0,.52.31Zm13.55-.55a.61.61,0,1,0-.61-.61A.6.6,0,0,0,56.71,37.09Zm-22.32-.61a.6.6,0,0,0,.6-.6.61.61,0,1,0-1.21,0A.6.6,0,0,0,34.39,36.48Zm10.19-1.87a.34.34,0,1,0-.33-.33A.33.33,0,0,0,44.58,34.61ZM65,34.49a.34.34,0,1,0-.33-.33A.34.34,0,0,0,65,34.49Zm-27.64-.06a.34.34,0,1,0-.33-.34A.34.34,0,0,0,37.32,34.43ZM60.73,33a.33.33,0,1,0,0-.66.33.33,0,0,0,0,.66Zm1.3-.48a.61.61,0,1,0,0-1.21.61.61,0,0,0,0,1.21Zm-21.74-.73a.33.33,0,0,0,.33-.33.34.34,0,0,0-.67,0A.33.33,0,0,0,40.29,31.82ZM43,31.58a.6.6,0,0,0,.6-.6.61.61,0,1,0-1.21,0A.6.6,0,0,0,43,31.58Zm-5.21-1a.6.6,0,0,0,.61-.6.61.61,0,0,0-1.21,0A.6.6,0,0,0,37.83,30.61Zm17.45-.17a.34.34,0,0,0,.34-.34.34.34,0,0,0-.67,0A.34.34,0,0,0,55.28,30.44Zm-7.83-.07a.61.61,0,0,0,.61-.6.6.6,0,0,0-.61-.6.6.6,0,0,0-.6.6A.6.6,0,0,0,47.45,30.37Zm10.43-.6a.34.34,0,1,0,0-.67.34.34,0,0,0,0,.67ZM46.21,28.38a.33.33,0,0,0,.33-.33.32.32,0,0,0-.33-.33.33.33,0,0,0-.33.33A.33.33,0,0,0,46.21,28.38Zm-13-.18a.61.61,0,0,0,.6-.61.61.61,0,0,0-1.21,0A.61.61,0,0,0,33.24,28.2ZM56,26.75a.34.34,0,1,0-.33-.33A.33.33,0,0,0,56,26.75Zm2.15-.43a.61.61,0,0,0,0-1.21.61.61,0,1,0,0,1.21Zm-25.74-.91a.33.33,0,0,0,0-.66.33.33,0,0,0,0,.66Zm25.77-1.26a.34.34,0,0,0,0-.67.34.34,0,0,0,0,.67Zm-16.68-1a.33.33,0,1,0,0-.66.33.33,0,0,0,0,.66ZM33,21.56a.34.34,0,0,0,0-.67.34.34,0,0,0,0,.67Zm1.69-1.21a.34.34,0,0,0,0-.67.34.34,0,0,0,0,.67Z" />
    <g
       id="use4225">
      <path
         id="path4423"
         class="cls-10"
         d="M68.52,85.1a9.81,9.81,0,1,1-9.81-9.82A9.81,9.81,0,0,1,68.52,85.1Z" />
      <g
         id="g4425">
        <path
           id="path4427"
           class="cls-11"
           d="M52.78,83.24c-.75-1.88-.22-4.27,1.31-5.07s3.42.06,4.23,1.93a5.56,5.56,0,0,1,.41,1.7,5.29,5.29,0,0,1,.41-1.7c.8-1.87,2.7-2.73,4.23-1.93s1.95,3.16,1.31,5.07c-1.12,3.32-4.47,5.25-6,9.08-1.23-3.81-4.65-5.81-5.95-9.08Z" />
      </g>
    </g>
    <g
       id="use4243">
      <path
         id="path4495"
         class="cls-12"
         d="M35.53,85.1a9.81,9.81,0,1,1-9.81-9.82A9.81,9.81,0,0,1,35.53,85.1Z" />
      <g
         id="g4497">
        <path
           id="path4499"
           class="cls-13"
           d="M19.79,83.24C19,81.36,19.57,79,21.1,78.17s3.42.06,4.23,1.93a5.56,5.56,0,0,1,.41,1.7,5.29,5.29,0,0,1,.41-1.7c.8-1.87,2.7-2.73,4.23-1.93s1.95,3.16,1.31,5.07c-1.12,3.32-4.47,5.25-6,9.08-1.23-3.81-4.65-5.81-5.95-9.08Z" />
      </g>
    </g>
    <g
       id="use4247">
      <path
         id="path4519"
         class="cls-14"
         d="M68.52,31.63a9.81,9.81,0,1,1-9.81-9.82A9.81,9.81,0,0,1,68.52,31.63Z" />
      <g
         id="g4521">
        <path
           id="path4523"
           class="cls-15"
           d="M52.78,29.77c-.75-1.88-.22-4.27,1.31-5.07s3.42.06,4.23,1.93a5.56,5.56,0,0,1,.41,1.7,5.29,5.29,0,0,1,.41-1.7c.8-1.87,2.7-2.73,4.23-1.93s1.95,3.16,1.31,5.07c-1.12,3.32-4.47,5.25-6,9.08C57.5,35,54.08,33,52.78,29.77Z" />
      </g>
    </g>
    <g
       id="use4299">
      <path
         id="path4807"
         class="cls-16"
         d="M35.53,31.63a9.81,9.81,0,1,1-9.81-9.82A9.81,9.81,0,0,1,35.53,31.63Z" />
      <g
         id="g4809">
        <path
           id="path4811"
           class="cls-17"
           d="M19.79,29.77c-.75-1.88-.22-4.27,1.31-5.07s3.42.06,4.23,1.93a5.56,5.56,0,0,1,.41,1.7,5.29,5.29,0,0,1,.41-1.7c.8-1.87,2.7-2.73,4.23-1.93s1.95,3.16,1.31,5.07c-1.12,3.32-4.47,5.25-6,9.08C24.51,35,21.09,33,19.79,29.77Z" />
      </g>
    </g>
  </g>
</svg>
