<?xml version="1.0" encoding="UTF-8" standalone="no"?>
<svg
   id="svg2"
   viewBox="0 0 84 119"
   version="1.1"
   sodipodi:docname="6H.svg"
   inkscape:version="1.3.2 (091e20e, 2023-11-25, custom)"
   xmlns:inkscape="http://www.inkscape.org/namespaces/inkscape"
   xmlns:sodipodi="http://sodipodi.sourceforge.net/DTD/sodipodi-0.dtd"
   xmlns:xlink="http://www.w3.org/1999/xlink"
   xmlns="http://www.w3.org/2000/svg"
   xmlns:svg="http://www.w3.org/2000/svg">
  <sodipodi:namedview
     id="namedview6"
     pagecolor="#ffffff"
     bordercolor="#000000"
     borderopacity="0.25"
     inkscape:showpageshadow="2"
     inkscape:pageopacity="0.0"
     inkscape:pagecheckerboard="0"
     inkscape:deskcolor="#d1d1d1"
     inkscape:zoom="15.285714"
     inkscape:cx="41.96729"
     inkscape:cy="59.5"
     inkscape:window-width="3840"
     inkscape:window-height="2054"
     inkscape:window-x="-11"
     inkscape:window-y="-11"
     inkscape:window-maximized="1"
     inkscape:current-layer="svg2" />
  <defs
     id="defs6">
    <style
       id="style1">
      .cls-1 {
        filter: url(#filter63625-2);
      }

      .cls-2 {
        stroke: #000;
        fill: url(#linear-gradient);
      }

      .cls-2, .cls-6 {
        stroke-miterlimit: 10;
        stroke-width: 0.23px;
      }

      .cls-3 {
        fill: url(#linear-gradient-2);
      }

      .cls-4 {
        opacity: 0.47;
        fill: url(#radial-gradient);
      }

      .cls-10, .cls-12, .cls-14, .cls-16, .cls-18, .cls-20, .cls-4, .cls-5 {
        isolation: isolate;
      }

      .cls-5 {
        opacity: 0.4;
        fill: url(#radial-gradient-2);
      }

      .cls-6 {
        fill: none;
      }

      .cls-6, .cls-8 {
        stroke: #fff;
      }

      .cls-11, .cls-13, .cls-15, .cls-17, .cls-19, .cls-21, .cls-7 {
        stroke: #c8c8c8;
        stroke-linejoin: round;
        stroke-width: 1px;
      }

      .cls-7 {
        fill: url(#linear-gradient-3);
      }

      .cls-8 {
        stroke-width: 0.49px;
        fill: url(#linear-gradient-4);
      }

      .cls-9 {
        fill: url(#radial-gradient-3);
      }

      .cls-10, .cls-12, .cls-14, .cls-16, .cls-18, .cls-20 {
        opacity: 0.4;
      }

      .cls-10 {
        fill: url(#radial-gradient-4);
      }

      .cls-11 {
        fill: url(#linear-gradient-5);
      }

      .cls-12 {
        fill: url(#radial-gradient-5);
      }

      .cls-13 {
        fill: url(#linear-gradient-6);
      }

      .cls-14 {
        fill: url(#radial-gradient-6);
      }

      .cls-15 {
        fill: url(#linear-gradient-7);
      }

      .cls-16 {
        fill: url(#radial-gradient-7);
      }

      .cls-17 {
        fill: url(#linear-gradient-8);
      }

      .cls-18 {
        fill: url(#radial-gradient-8);
      }

      .cls-19 {
        fill: url(#linear-gradient-9);
      }

      .cls-20 {
        fill: url(#radial-gradient-9);
      }

      .cls-21 {
        fill: url(#linear-gradient-10);
      }
    </style>
    <filter
       id="filter63625-2"
       name="filter63625-2"
       x="-0.12863863"
       y="-0.090976911"
       width="1.2572773"
       height="1.1819538">
      <feGaussianBlur
         result="feGaussianBlur63627-6"
         stdDeviation="3.76"
         id="feGaussianBlur1" />
    </filter>
    <linearGradient
       id="linear-gradient"
       x1="-1297.44"
       y1="-1938.95"
       x2="-1287.95"
       y2="-1424.43"
       gradientTransform="matrix(0.23, 0, 0, -0.23, 336.14, -403.94)"
       gradientUnits="userSpaceOnUse">
      <stop
         offset="0"
         stop-color="#f3f3f3"
         id="stop1" />
      <stop
         offset="1"
         stop-color="#8f8f8f"
         id="stop2" />
    </linearGradient>
    <linearGradient
       id="linear-gradient-2"
       x1="-1737.54"
       y1="-1718.4"
       x2="-1605.25"
       y2="-2156.12"
       gradientTransform="matrix(0.24, 0, 0, -0.24, 443.91, -390.63)"
       gradientUnits="userSpaceOnUse">
      <stop
         offset="0"
         stop-color="#590000"
         id="stop3" />
      <stop
         offset="1"
         stop-color="#bf0303"
         id="stop4" />
    </linearGradient>
    <radialGradient
       id="radial-gradient"
       cx="1529.13"
       cy="6295.75"
       r="58.68"
       gradientTransform="matrix(-0.23, 0, 0, 0.21, 361.9, -1203.52)"
       gradientUnits="userSpaceOnUse">
      <stop
         offset="0"
         stop-color="#fff"
         id="stop5" />
      <stop
         offset="1"
         stop-color="#fff"
         stop-opacity="0"
         id="stop6" />
    </radialGradient>
    <radialGradient
       id="radial-gradient-2"
       cx="-1292.63"
       cy="-977.32"
       r="63.15"
       gradientTransform="matrix(0.23, 0, 0, -0.36, 367.56, -330.36)"
       xlink:href="#radial-gradient" />
    <linearGradient
       id="linear-gradient-3"
       x1="-7301.36"
       y1="-11809.41"
       x2="-7301.36"
       y2="-11746.29"
       gradientTransform="matrix(0.05, 0, 0, -0.06, 405.52, -592.83)"
       xlink:href="#linear-gradient" />
    <linearGradient
       id="linear-gradient-4"
       x1="-103.96"
       y1="1048.74"
       x2="-103.96"
       y2="1051.67"
       gradientTransform="matrix(1, 0, 0, -1, 172.11, 1069.82)"
       xlink:href="#linear-gradient" />
    <radialGradient
       id="radial-gradient-3"
       cx="295.87"
       cy="1483.5"
       r="25.37"
       gradientTransform="matrix(0.83, 0.56, 2.15, -3.16, -3408.33, 4608.34)"
       xlink:href="#radial-gradient" />
    <radialGradient
       id="radial-gradient-4"
       cx="-571.67"
       cy="-590.18"
       r="26.74"
       gradientTransform="matrix(0.37, 0, 0, -0.37, 235.52, -128.35)"
       xlink:href="#radial-gradient" />
    <linearGradient
       id="linear-gradient-5"
       x1="-3735.76"
       y1="-5062.08"
       x2="-3735.76"
       y2="-4998.99"
       gradientTransform="matrix(0.11, 0, 0, -0.12, 437.77, -523.4)"
       xlink:href="#linear-gradient" />
    <radialGradient
       id="radial-gradient-5"
       cx="-571.67"
       cy="-590.18"
       r="26.74"
       gradientTransform="matrix(0.37, 0, 0, -0.37, 235.52, -189.06)"
       xlink:href="#radial-gradient" />
    <linearGradient
       id="linear-gradient-6"
       x1="-3735.76"
       y1="-5062.08"
       x2="-3735.76"
       y2="-4998.99"
       gradientTransform="matrix(0.11, 0, 0, -0.12, 437.77, -584.11)"
       xlink:href="#linear-gradient" />
    <radialGradient
       id="radial-gradient-6"
       cx="-571.67"
       cy="-590.18"
       r="26.74"
       gradientTransform="matrix(0.37, 0, 0, -0.37, 268.51, -128.35)"
       xlink:href="#radial-gradient" />
    <linearGradient
       id="linear-gradient-7"
       x1="-3735.76"
       y1="-5062.08"
       x2="-3735.76"
       y2="-4998.99"
       gradientTransform="matrix(0.11, 0, 0, -0.12, 470.76, -523.4)"
       xlink:href="#linear-gradient" />
    <radialGradient
       id="radial-gradient-7"
       cx="-571.67"
       cy="-590.18"
       r="26.74"
       gradientTransform="matrix(0.37, 0, 0, -0.37, 268.51, -158.24)"
       xlink:href="#radial-gradient" />
    <linearGradient
       id="linear-gradient-8"
       x1="-3735.76"
       y1="-5062.08"
       x2="-3735.76"
       y2="-4998.99"
       gradientTransform="matrix(0.11, 0, 0, -0.12, 470.76, -553.29)"
       xlink:href="#linear-gradient" />
    <radialGradient
       id="radial-gradient-8"
       cx="-571.67"
       cy="-590.18"
       r="26.74"
       gradientTransform="matrix(0.37, 0, 0, -0.37, 268.51, -189.06)"
       xlink:href="#radial-gradient" />
    <linearGradient
       id="linear-gradient-9"
       x1="-3735.76"
       y1="-5062.08"
       x2="-3735.76"
       y2="-4998.99"
       gradientTransform="matrix(0.11, 0, 0, -0.12, 470.76, -584.11)"
       xlink:href="#linear-gradient" />
    <radialGradient
       id="radial-gradient-9"
       cx="-571.67"
       cy="-590.18"
       r="26.74"
       gradientTransform="matrix(0.37, 0, 0, -0.37, 235.52, -158.24)"
       xlink:href="#radial-gradient" />
    <linearGradient
       id="linear-gradient-10"
       x1="-3735.76"
       y1="-5062.08"
       x2="-3735.76"
       y2="-4998.99"
       gradientTransform="matrix(0.11, 0, 0, -0.12, 437.77, -553.29)"
       xlink:href="#linear-gradient" />
  </defs>
  <title
     id="title6">Six of Hearts</title>
  <g
     id="_6_heart"
     data-name="6_heart">
    <g
       id="use70735">
      <g
         id="g65535">
        <rect
           id="rect65539"
           class="cls-2"
           x="7.14"
           y="9.33"
           width="70.15"
           height="99.19"
           rx="3.97"
           ry="3.97" />
        <rect
           id="rect65541"
           class="cls-3"
           x="10.74"
           y="12"
           width="63.24"
           height="92.26"
           rx="1.29"
           ry="1.29" />
        <rect
           id="rect65543"
           class="cls-4"
           x="10.84"
           y="79.85"
           width="26.55"
           height="24.28"
           rx="1.04"
           ry="1.04" />
        <rect
           id="rect65545"
           class="cls-5"
           x="44.8"
           y="11.87"
           width="29.28"
           height="45.27" />
        <path
           id="path65547"
           class="cls-6"
           d="M25.71,100.24H70.42V26.63M58.85,16H14.29V89.21" />
      </g>
    </g>
    <g
       id="use74142">
      <g
         id="g74112">
        <path
           id="path74114"
           class="cls-7"
           d="M15,94.8a2,2,0,0,1,.63-2.45,1.53,1.53,0,0,1,2,.94,2.46,2.46,0,0,1,.19.81,2.47,2.47,0,0,1,.2-.81,1.53,1.53,0,0,1,2-.94,2.06,2.06,0,0,1,.63,2.45c-.54,1.6-2.15,2.52-2.87,4.37-.59-1.84-2.23-2.8-2.86-4.37Z" />
      </g>
    </g>
    <g
       id="use3977">
      <path
         id="text3940"
         class="cls-8"
         d="M70.31,15.83a4.81,4.81,0,0,0-2.72.89,4.3,4.3,0,0,0-1.85,3.6,4.05,4.05,0,0,0,.78,2.5,2.22,2.22,0,0,0,1.71.75A2.35,2.35,0,0,0,70.56,21a2.06,2.06,0,0,0-2.09-2.32,2.31,2.31,0,0,0-1.42.5A3.82,3.82,0,0,1,70.33,16l0-.18m-2.26,3.35c1,0,1.51.8,1.51,2.18,0,1.22-.44,1.9-1.21,1.9-1,0-1.58-1-1.58-2.76,0-.57.09-.88.31-1a1.62,1.62,0,0,1,1-.28" />
    </g>
    <path
       id="path4063"
       class="cls-9"
       d="M23.49,97c.53-.9-1.57-4.1-1.84-5.3,0-.1,0-.21-.06-.31s0-.35,0-.52a5.54,5.54,0,0,1,.13-.91.33.33,0,0,0,.16-.6l.21-.69a9.15,9.15,0,0,1,.61-1.44,18.88,18.88,0,0,1,1.08-1.76c.12-.18.25-.36.38-.53h.1a.6.6,0,0,0,.61-.6.64.64,0,0,0,0-.24c.14-.18.3-.37.45-.54a27.32,27.32,0,0,1,2.13-2c.81-.75,1.67-1.43,2.53-2.1,1-.8,2.12-1.51,3.21-2.22s2.08-1.32,3.14-2l.15,0a.61.61,0,1,0-.61-.61.59.59,0,0,0,.44.58l-.3.17c-1.28.77-2.56,1.55-3.81,2.36-1.1.71-2.19,1.42-3.23,2.23-.86.67-1.72,1.36-2.53,2.1-.62.56-1.24,1.12-1.82,1.72a.62.62,0,0,0-.31-.08.6.6,0,0,0-.6.6.56.56,0,0,0,.12.36,16.62,16.62,0,0,0-1,1.36,17.75,17.75,0,0,0-1.09,1.76c-.05.1-.09.2-.14.31,0-.61.1-1.22.18-1.83a15.47,15.47,0,0,1,.53-2.52,15.27,15.27,0,0,1,.82-2.2,11.79,11.79,0,0,0,.87-1.63,2.79,2.79,0,0,0,.14-.37l0-.09c.43-.79.88-1.56,1.34-2.33a1,1,0,0,1,.08-.14c.17-.24.34-.47.52-.7.49-.64,1-1.25,1.54-1.87.67-.78,1.4-1.52,2.12-2.25s1.67-1.62,2.54-2.41,1.87-1.65,2.8-2.49,2-1.76,3-2.63,2.21-2,3.29-3L43,60a10.31,10.31,0,0,0,1.69-1.33c1.1-.94,2.23-1.86,3.38-2.74a17.11,17.11,0,0,1,2.27-1.56l.51-.22a.53.53,0,0,0,0,.18.61.61,0,1,0,1.21,0,.59.59,0,0,0-.15-.39c2.24-.16,2.7-.49.28-.33a1.88,1.88,0,0,0-.58.13h-.15a.59.59,0,0,0-.54.33,21.16,21.16,0,0,0-3.41,2.21c-1.15.87-2.27,1.8-3.37,2.74-.46.39-.76.66-.93.83l1.72-1.73c1.24-1.26,2.43-2.58,3.57-3.93.71-.85,1.4-1.73,2.07-2.61a.62.62,0,0,0,.46.22.6.6,0,0,0,.6-.61.58.58,0,0,0-.36-.55c.3-.41.6-.81.89-1.22A54.44,54.44,0,0,0,55.55,44a35.92,35.92,0,0,0,2.79-6.24,56.54,56.54,0,0,0,1.12-5.8c.37-2.33-.21-2-.58.34a53.79,53.79,0,0,1-1.12,5.79A37.49,37.49,0,0,1,55,44.29l-.27.44a.32.32,0,0,0-.32-.26.34.34,0,0,0,0,.67l.11,0c-.92,1.58-1.9,3.14-3,4.63l-.61.84a.6.6,0,0,0-.54.59.49.49,0,0,0,0,.12c-.81,1.1-1.65,2.17-2.52,3.22-1.15,1.35-2.33,2.67-3.58,3.93S41.9,60.83,40.68,62s-2.17,2-3.29,3-2,1.75-3,2.64L31.6,70.13c-.8.73-1.61,1.46-2.37,2.23a.32.32,0,0,0-.16-.2c.3-.31.61-.61.91-.91,1-.94,2-1.85,3-2.8,1.18-1.11,2.34-2.25,3.48-3.4a39,39,0,0,0,3.61-4.2,46.3,46.3,0,0,0,3.29-5.4,35.94,35.94,0,0,0,2.65-6.11,41.51,41.51,0,0,0,1.36-7,54.93,54.93,0,0,0,.08-6,.59.59,0,0,0,.21-.45.63.63,0,0,0-.24-.48c0-.25,0-.49,0-.74,0-.42,0-.83,0-1.25-.08-2.35-.66-2-.57.33,0,.42,0,.83,0,1.25,0,.11,0,.22,0,.33a.59.59,0,0,0-.39.56.6.6,0,0,0,.42.57c0,1,.06,2.07.05,3.11a.59.59,0,0,0-.23-.05.6.6,0,0,0-.61.6.61.61,0,0,0,.61.61.78.78,0,0,0,.21,0c0,.66,0,1.34-.1,2-.19,1.51-.42,3-.74,4.51,0-.71,0-1.42,0-2.13-.06-1.69-.16-3.37-.38-5a26.23,26.23,0,0,0-.68-3.4A10.8,10.8,0,0,0,44.49,35a1.86,1.86,0,0,0-.27-.45c-1.91-1.71-2.55-1.32-.62.37a1.73,1.73,0,0,1,.27.43A12,12,0,0,1,44.44,37a26.11,26.11,0,0,1,.69,3.39,47.48,47.48,0,0,1,.39,5c0,.93,0,1.87,0,2.81a7,7,0,0,0,0,1.22c0,.07,0,.15-.07.23-.39,1.15-.82,2.28-1.31,3.39a.6.6,0,0,0-1.12.3.6.6,0,0,0,.6.61l.12,0c-.3.62-.6,1.23-.94,1.83a46.5,46.5,0,0,1-3.3,5.41,39.09,39.09,0,0,1-3.62,4.2c-1.14,1.15-2.29,2.3-3.47,3.41-1,.94-2.05,1.86-3.05,2.8-.18.17-.35.34-.52.52a.33.33,0,0,0-.27.28,17.59,17.59,0,0,0-1.76,2,32.06,32.06,0,0,0-1.91,2.89c-.22.3-.43.6-.62.92s-.41.65-.58,1-.24.46-.32.71v0c-.17.3-.33.61-.49.92s-.39.84-.58,1.26c0-.07,0-.14,0-.21.13-.59.32-1.16.5-1.74s.53-1.34.81-2,.71-1.62,1.07-2.43c.48-1.1,1-2.17,1.57-3.23.68-1.31,1.29-2.66,1.87-4,.7-1.66,1.38-3.32,2.07-5s1.41-3.43,2.06-5.16a.33.33,0,0,0,.25-.32.32.32,0,0,0-.06-.2c.66-1.82,1.24-3.66,1.8-5.51A66.89,66.89,0,0,0,36,45.82a43.54,43.54,0,0,0,.52-7.74c-.08-2.63-.39-5.25-.71-7.87-.2-1.57-.43-3.14-.68-4.71a5.79,5.79,0,0,0-.35-1.39.58.58,0,0,0,.19,0,.62.62,0,0,0,.61-.61.6.6,0,0,0-.61-.6.59.59,0,0,0-.6.6.58.58,0,0,0,.16.41,3.76,3.76,0,0,0,0,1.89c.11.69.22,1.39.32,2.08a.38.38,0,0,0-.23-.08.33.33,0,1,0,0,.66.32.32,0,0,0,.29-.18c.11.74.21,1.48.31,2.22,0,.19,0,.38.07.57A.68.68,0,0,0,35,31a.61.61,0,1,0,0,1.21.59.59,0,0,0,.39-.15c.25,2.1.47,4.2.53,6.31a41.91,41.91,0,0,1-.53,7.75,66.89,66.89,0,0,1-1.65,6.52c-.52,1.7-1.06,3.4-1.66,5.08a.31.31,0,0,0-.16.29.5.5,0,0,0,0,.12c0,.11-.08.23-.13.34q-1,2.7-2.13,5.36l-2.07,5c-.59,1.35-1.2,2.7-1.88,4-.54,1.07-1.09,2.14-1.58,3.23-.36.81-.72,1.63-1.07,2.44s-.57,1.33-.81,2a16.58,16.58,0,0,0-.5,1.74c-.11.49-.22,1-.31,1.49,0,.22-.08.43-.13.65-.26,1.06-.28,1.6-.18,1.68s-.06.36-.08.55a18.73,18.73,0,0,0-.2,2.13v1c-.08.25-.15.49-.21.74,0,.1,0,.2,0,.3h-3c2,.58,3.55.41,5.86,6.18Zm.59-4.67a.34.34,0,1,0-.34-.34A.34.34,0,0,0,24.08,92.32Zm-4.63-1.69a.61.61,0,0,0,.6-.61.61.61,0,1,0-1.21,0A.61.61,0,0,0,19.45,90.63Zm3.26-.73a.61.61,0,0,0,.61-.61.61.61,0,0,0-1.21,0A.61.61,0,0,0,22.71,89.9Zm-4.26-1.7a.33.33,0,0,0,.33-.33.33.33,0,0,0-.33-.33.32.32,0,0,0-.33.33A.33.33,0,0,0,18.45,88.2ZM20,87.66A.34.34,0,0,0,20,87a.34.34,0,0,0,0,.67Zm5.71-.72a.61.61,0,0,0,.61-.61.61.61,0,0,0-1.21,0A.61.61,0,0,0,25.67,86.94Zm1.43-1a.33.33,0,1,0-.34-.33A.33.33,0,0,0,27.1,85.9Zm-8.32-.66a.61.61,0,1,0-.61-.6A.61.61,0,0,0,18.78,85.24Zm1.39-1.75a.6.6,0,0,0,.6-.61.59.59,0,0,0-.6-.6.6.6,0,0,0-.6.6A.61.61,0,0,0,20.17,83.49ZM28,83.24a.33.33,0,0,0,.33-.33.34.34,0,0,0-.67,0A.33.33,0,0,0,28,83.24Zm4.38-.54a.61.61,0,1,0-.61-.61A.61.61,0,0,0,32.39,82.7ZM25.92,82a.6.6,0,0,0,.6-.6.6.6,0,0,0-.6-.61.62.62,0,0,0-.61.61A.61.61,0,0,0,25.92,82Zm2.37-.15s.71-.46,1.82-1.28c.48-.35.94-.71,1.45-1a22,22,0,0,1,2.2-1.17l.47-.21a.57.57,0,0,0-.14.38.6.6,0,0,0,.6.61.61.61,0,0,0,.61-.61.6.6,0,0,0-.58-.59c.53-.23,1.06-.47,1.6-.67s1.21-.49,1.82-.72l.78-.29c2.38-.92,3-1.28.62-.37l-.79.3-1.81.72c-.87.34-1.72.72-2.57,1.1A31.44,31.44,0,0,0,31,79.87a16.25,16.25,0,0,0-1.44,1c-.87.64-1.24.93-1.22.93Zm-8.42-.63a.62.62,0,0,0,.61-.61.61.61,0,0,0-1.22,0A.62.62,0,0,0,19.87,81.19Zm13.21-.67a.33.33,0,1,0-.33-.33A.34.34,0,0,0,33.08,80.52Zm-11-.86a.61.61,0,1,0-.6-.61A.6.6,0,0,0,22.11,79.66Zm3.27-.18a.61.61,0,0,0,0-1.21.61.61,0,1,0,0,1.21ZM17.18,79a.34.34,0,0,0,0-.67.34.34,0,0,0,0,.67Zm21.11-1.15a.34.34,0,1,0-.33-.34A.34.34,0,0,0,38.29,77.85Zm-7.23-.06a.6.6,0,0,0,.6-.61.6.6,0,0,0-.6-.6.6.6,0,0,0-.6.6A.61.61,0,0,0,31.06,77.79Zm10.68-.55a.33.33,0,0,0,.33-.33.33.33,0,0,0-.33-.33h0a.6.6,0,0,0-.42-1,.61.61,0,1,0,0,1.21l.17,0a.34.34,0,0,0-.05.17.33.33,0,0,0,.33.33Zm2.09-1.39a.61.61,0,1,0-.61-.61A.6.6,0,0,0,43.83,75.85Zm-20.63,0a.61.61,0,0,0,0-1.21.61.61,0,1,0,0,1.21ZM28,75.79a.61.61,0,1,0-.6-.6A.6.6,0,0,0,28,75.79Zm17.4-.06A.33.33,0,1,0,45,75.4.33.33,0,0,0,45.37,75.73Zm-13-.42A.34.34,0,1,0,32,75,.34.34,0,0,0,32.36,75.31Zm-5.53-.4.6-.85a16.79,16.79,0,0,1,1.2-1.45.41.41,0,0,0,.21.15c-.65.66-1.3,1.32-1.9,2l-.11.13ZM38.33,74l2-1.1,1.49-.82.17,0a.6.6,0,0,0,.58-.45c.7-.39,1.39-.79,2.08-1.19l-2.07,1.17a.57.57,0,0,0,0-.13.6.6,0,0,0-.6-.61.61.61,0,0,0-.2,1.18l-.47.26C40.29,72.88,39.31,73.44,38.33,74Zm7.77-.09a.33.33,0,0,0,.33-.33.34.34,0,0,0-.67,0A.33.33,0,0,0,46.1,73.91ZM23,73a.6.6,0,0,0,.6-.61.57.57,0,0,0,0-.18h.06a.32.32,0,0,0,.33-.33.34.34,0,0,0-.33-.34.34.34,0,0,0-.33.33.61.61,0,0,0-.3-.08A.61.61,0,1,0,23,73ZM21,73a.34.34,0,1,0-.33-.34A.34.34,0,0,0,21,73Zm4.21-2.3a.61.61,0,1,0-.61-.6A.6.6,0,0,0,25.2,70.65Zm25.55-.12a.34.34,0,1,0-.33-.33A.34.34,0,0,0,50.75,70.53Zm-5.9-.21.91-.52a44,44,0,0,0,4.34-2.93c.71-.55,1.39-1.11,2-1.7a.61.61,0,0,0,.57.39.6.6,0,0,0,.6-.6.61.61,0,0,0-.35-.55c.48-.45,1-.9,1.41-1.37s.66-.69,1-1a.1.1,0,0,1,0,0c1-.88,1.94-1.75,2.9-2.66l0,0a.6.6,0,0,0,.6.52.6.6,0,0,0,.07-1.2,13.4,13.4,0,0,0,1.51-1.85c.57-.84,1.13-1.69,1.68-2.54s1.08-1.71,1.6-2.58c.31-.5.61-1,.9-1.51a.49.49,0,0,0,0,.12.6.6,0,0,0,.6.61.61.61,0,1,0,0-1.21.57.57,0,0,0-.42.17l.24-.45a12.1,12.1,0,0,0,.62-1.43,5.37,5.37,0,0,1,.21-.56c.15-.27.26-.51.35-.71a.59.59,0,0,0,.51-.59.6.6,0,0,0-.37-.56.32.32,0,0,0,.25-.32.33.33,0,0,0-.33-.33.33.33,0,0,0-.33.33.35.35,0,0,0,.14.28.61.61,0,0,0-.57.6.59.59,0,0,0,.34.54c-.18.3-.38.66-.61,1.12a5.37,5.37,0,0,0-.21.56,12,12,0,0,1-.61,1.43c-.4.77-.86,1.52-1.31,2.27s-1.06,1.72-1.6,2.57-1.11,1.7-1.68,2.54a12.49,12.49,0,0,1-1.24,1.56.61.61,0,0,0-.3.33l-.68.69c-.54.52-1.09,1-1.65,1.53.78-1,1.5-2,2.19-3a24.71,24.71,0,0,0,2.92-5.75c0-.1.07-.21.1-.31a.62.62,0,0,0,.59.49.61.61,0,0,0,.61-.61.61.61,0,0,0-.61-.61.62.62,0,0,0-.41.16,27.29,27.29,0,0,0,1-6,26.89,26.89,0,0,0-.24-6.21c-.49-3.86-1.44-3.31-.95.54a27.56,27.56,0,0,1,.23,6.22A25.83,25.83,0,0,1,60.19,53a24.77,24.77,0,0,1-2.92,5.76,37.16,37.16,0,0,1-3.43,4.38L51.68,65c-.52.46-1.08.89-1.63,1.32-1.9,1.53-1.3,1.18.61-.34.49-.4,1-.78,1.47-1.2v0c-1,.9-2,1.77-3,2.58a40.92,40.92,0,0,1-4.27,2.88Zm-3.35-.15a.34.34,0,1,0-.33-.33A.33.33,0,0,0,41.5,70.17Zm6-.25a.34.34,0,0,0,.27-.33.33.33,0,0,0-.33-.33.32.32,0,0,0-.33.33.33.33,0,0,0,.33.33Zm-13.4-.18a.61.61,0,1,0-.6-.6A.6.6,0,0,0,34.15,69.74ZM36,69.56a.34.34,0,0,0,0-.67.34.34,0,0,0,0,.67Zm8.78-1.51a.34.34,0,1,0-.34-.34A.34.34,0,0,0,44.77,68.05Zm3-.18a.6.6,0,0,0,.6-.61.61.61,0,0,0-.6-.61.6.6,0,0,0-.6.61A.6.6,0,0,0,47.76,67.87ZM26.4,67.62A.6.6,0,0,0,27,67a.61.61,0,1,0-1.21,0A.6.6,0,0,0,26.4,67.62ZM55.05,67a.33.33,0,1,0-.34-.33A.33.33,0,0,0,55.05,67ZM33.72,66.9a.61.61,0,1,0-.6-.61A.61.61,0,0,0,33.72,66.9Zm-9-1a.34.34,0,1,0-.33-.33A.33.33,0,0,0,24.68,65.87Zm24.41-.06a.61.61,0,1,0-.61-.61A.6.6,0,0,0,49.09,65.81ZM27.37,65.2a.59.59,0,0,0,.6-.6.6.6,0,0,0-.26-.5.27.27,0,0,0,0-.13.33.33,0,0,0-.33-.34.34.34,0,0,0-.33.34.3.3,0,0,0,0,.1.61.61,0,0,0-.32.53A.6.6,0,0,0,27.37,65.2Zm13.07-.54a.6.6,0,0,0,.6-.6.61.61,0,0,0-.6-.61.62.62,0,0,0-.61.61A.61.61,0,0,0,40.44,64.66ZM29.3,64.44c.14,0,.41-.7.65-1.94s.46-2.54.61-3.82a36,36,0,0,0,.21-4.76,30.24,30.24,0,0,0-.34-3.55c-.13-.79-.25-1.58-.45-2.36a5.85,5.85,0,0,0-.28-.9c-1.05-2.33-1.71-2-.62.36a7.06,7.06,0,0,1,.28.89,24,24,0,0,1,.46,2.36,30.26,30.26,0,0,1,.35,3.55A36,36,0,0,1,30,59c-.14,1.28-.37,2.55-.61,3.82-.21,1.1-.19,1.61-.06,1.6Zm12.92,0a.34.34,0,0,0,0-.67.34.34,0,0,0,0,.67Zm-9.92-.24a.34.34,0,0,0,0-.67.34.34,0,0,0,0,.67Zm4-1.09a.61.61,0,0,0,0-1.21.61.61,0,1,0,0,1.21Zm16.87-.49a.6.6,0,0,0,.61-.6.61.61,0,1,0-1.21,0A.6.6,0,0,0,53.14,62.6ZM60,61.21a.33.33,0,0,0,.33-.33.34.34,0,0,0-.67,0A.34.34,0,0,0,60,61.21ZM48.42,58.37a.61.61,0,1,0-.6-.6A.6.6,0,0,0,48.42,58.37Zm6.44-1a.34.34,0,1,0-.33-.33A.34.34,0,0,0,54.86,57.4ZM25.44,57a.61.61,0,1,0,0-1.21.61.61,0,0,0,0,1.21Zm15.3-.25a.6.6,0,0,0,.61-.6.61.61,0,0,0-1.21,0A.6.6,0,0,0,40.74,56.73ZM64,56a.33.33,0,0,0,.34-.33.34.34,0,0,0-.67,0A.33.33,0,0,0,64,56Zm-.75-.48a.61.61,0,1,0-.61-.6A.6.6,0,0,0,63.27,55.52Zm-18.82-.18a.61.61,0,0,0,.61-.61.61.61,0,1,0-1.21,0A.6.6,0,0,0,44.45,55.34Zm-10-.67a.61.61,0,1,0,0-1.21.61.61,0,0,0,0,1.21Zm-6.32-2.6a.34.34,0,1,0-.33-.34A.34.34,0,0,0,28.15,52.07ZM31.63,52a.61.61,0,1,0,0-1.21.61.61,0,0,0,0,1.21Zm26.67-.18a.61.61,0,1,0-.6-.61A.61.61,0,0,0,58.3,51.77Zm-22.95-.61a.33.33,0,1,0,0-.66.33.33,0,1,0,0,.66Zm8.38-2.54a.61.61,0,0,0,0-1.21.61.61,0,1,0,0,1.21Zm7.14-.06a.61.61,0,1,0-.61-.6A.6.6,0,0,0,50.87,48.56Zm12.58-.67a.6.6,0,0,0,.6-.6.6.6,0,0,0-.6-.6.61.61,0,0,0-.61.6A.6.6,0,0,0,63.45,47.89ZM33.2,47.41a.6.6,0,0,0,.61-.6.61.61,0,1,0-.61.6Zm15.37-.06a.61.61,0,0,0,.61-.6.62.62,0,0,0-.61-.61.61.61,0,0,0-.61.61A.6.6,0,0,0,48.57,47.35ZM36.44,46a.33.33,0,0,0,0-.66.33.33,0,1,0,0,.66Zm-8.72-1a.33.33,0,1,0-.33-.33A.34.34,0,0,0,27.72,45.05Zm22-.12a.33.33,0,1,0-.33-.33A.34.34,0,0,0,49.68,44.93Zm9.71-.54a.61.61,0,0,0,.61-.61.61.61,0,0,0-1.21,0A.61.61,0,0,0,59.39,44.39Zm-16-.24a.34.34,0,0,0,0-.67.34.34,0,1,0,0,.67Zm23.77-.55a.33.33,0,1,0-.34-.33A.33.33,0,0,0,67.11,43.6Zm-23-.12a.61.61,0,0,0,0-1.21.61.61,0,0,0,0,1.21Zm9.68-.18a.61.61,0,0,0,0-1.21.61.61,0,1,0,0,1.21Zm4.15-.85a.33.33,0,1,0-.34-.33A.33.33,0,0,0,57.92,42.45Zm9-.18a.61.61,0,1,0-.61-.6A.6.6,0,0,0,67,42.27Zm-32,0a.34.34,0,0,0,.26-.34.34.34,0,0,0-.67,0,.34.34,0,0,0,.34.34Zm27.81-1a.33.33,0,0,0,.33-.34.34.34,0,0,0-.33-.34.34.34,0,0,0-.33.34A.34.34,0,0,0,62.75,41.31ZM38.53,40.7a.61.61,0,0,0,.6-.61.6.6,0,0,0-.6-.6.61.61,0,0,0-.61.6A.62.62,0,0,0,38.53,40.7ZM59,40.22a.34.34,0,1,0,0-.67.34.34,0,0,0,0,.67Zm-10-.85a.62.62,0,0,0,.61-.61s0,0,0,0a.41.41,0,0,0,.16,0,.33.33,0,0,0,.33-.33.33.33,0,0,0-.65-.09.63.63,0,0,0-.44-.18.6.6,0,0,0-.6.6.61.61,0,0,0,.6.61Zm6.5-.73a.34.34,0,0,0,.34-.33.34.34,0,0,0-.67,0A.33.33,0,0,0,55.55,38.64Zm10.29-.12a.33.33,0,0,0,.33-.33.32.32,0,0,0-.33-.33.33.33,0,0,0-.33.33A.33.33,0,0,0,65.84,38.52Zm-2.57-.06a.61.61,0,1,0-.61-.6A.6.6,0,0,0,63.27,38.46ZM38,38.28a.61.61,0,1,0-.61-.61A.6.6,0,0,0,38,38.28Zm5.14-.66a.61.61,0,0,0,.6-.61.6.6,0,0,0-1.17-.21.33.33,0,0,0,0,.51.59.59,0,0,0,.52.31Zm13.54-.55a.61.61,0,0,0,.61-.61.61.61,0,1,0-.61.61Zm-22.32-.61a.6.6,0,0,0,.61-.6.61.61,0,1,0-1.21,0A.6.6,0,0,0,34.35,36.46Zm10.2-1.87a.34.34,0,0,0,0-.67.34.34,0,1,0,0,.67Zm20.38-.12a.34.34,0,1,0-.33-.33A.33.33,0,0,0,64.93,34.47Zm-27.64-.06a.34.34,0,1,0-.34-.34A.34.34,0,0,0,37.29,34.41ZM60.69,33a.33.33,0,1,0-.33-.33A.34.34,0,0,0,60.69,33Zm1.3-.48a.61.61,0,1,0-.6-.61A.61.61,0,0,0,62,32.53ZM40.25,31.8a.33.33,0,1,0,0-.66.33.33,0,1,0,0,.66ZM43,31.56a.6.6,0,0,0,.61-.6.61.61,0,1,0-1.21,0A.6.6,0,0,0,43,31.56Zm-5.2-1a.6.6,0,0,0,.61-.6.61.61,0,0,0-1.22,0A.6.6,0,0,0,37.8,30.59Zm17.45-.17a.34.34,0,0,0,.33-.34.33.33,0,0,0-.66,0A.34.34,0,0,0,55.25,30.42Zm-7.83-.07a.6.6,0,0,0,.6-.6.6.6,0,0,0-.6-.6.59.59,0,0,0-.6.6A.6.6,0,0,0,47.42,30.35Zm10.43-.6a.34.34,0,1,0-.33-.34A.34.34,0,0,0,57.85,29.75ZM46.18,28.36a.33.33,0,0,0,.33-.33.33.33,0,0,0-.33-.33.32.32,0,0,0-.33.33A.33.33,0,0,0,46.18,28.36Zm-13-.18a.6.6,0,0,0,.6-.61.59.59,0,0,0-.6-.6.6.6,0,0,0-.6.6A.61.61,0,0,0,33.2,28.18ZM56,26.73a.34.34,0,1,0-.34-.34A.34.34,0,0,0,56,26.73Zm2.15-.43a.61.61,0,1,0-.61-.61A.6.6,0,0,0,58.13,26.3Zm-25.75-.91a.34.34,0,0,0,.34-.33.34.34,0,0,0-.67,0A.33.33,0,0,0,32.38,25.39Zm25.77-1.26a.34.34,0,1,0,0-.67.34.34,0,0,0,0,.67Zm-16.63-.92a.33.33,0,0,0,0-.66.33.33,0,1,0,0,.66ZM33,21.58a.33.33,0,0,0,.33-.33.32.32,0,0,0-.33-.33.33.33,0,0,0-.33.33A.33.33,0,0,0,33,21.58Zm1.69-1.21a.33.33,0,0,0,0-.66.33.33,0,0,0,0,.66Z" />
    <g
       id="use4249">
      <path
         id="path4531"
         class="cls-10"
         d="M35.53,88.25a9.81,9.81,0,1,1-9.81-9.82A9.81,9.81,0,0,1,35.53,88.25Z" />
      <g
         id="g4533">
        <path
           id="path4535"
           class="cls-11"
           d="M19.79,86.39c-.75-1.88-.22-4.27,1.31-5.07s3.42.06,4.23,1.93a5.56,5.56,0,0,1,.41,1.7,5.29,5.29,0,0,1,.41-1.7c.81-1.87,2.7-2.73,4.23-1.93s1.95,3.16,1.31,5.07c-1.12,3.32-4.47,5.25-6,9.08-1.23-3.81-4.65-5.81-5.95-9.08Z" />
      </g>
    </g>
    <g
       id="use4255">
      <path
         id="path4555"
         class="cls-12"
         d="M35.53,27.54a9.81,9.81,0,1,1-9.81-9.82A9.81,9.81,0,0,1,35.53,27.54Z" />
      <g
         id="g4557">
        <path
           id="path4559"
           class="cls-13"
           d="M19.79,25.68c-.75-1.88-.22-4.27,1.31-5.07s3.42.06,4.23,1.93a5.56,5.56,0,0,1,.41,1.7,5.29,5.29,0,0,1,.41-1.7c.81-1.87,2.7-2.73,4.23-1.93s1.95,3.16,1.31,5.07c-1.12,3.32-4.47,5.25-6,9.08C24.51,31,21.09,29,19.79,25.68Z" />
      </g>
    </g>
    <g
       id="use4259">
      <path
         id="path4579"
         class="cls-14"
         d="M68.52,88.25a9.82,9.82,0,1,1-9.81-9.82A9.81,9.81,0,0,1,68.52,88.25Z" />
      <g
         id="g4581">
        <path
           id="path4583"
           class="cls-15"
           d="M52.78,86.39c-.75-1.88-.22-4.27,1.31-5.07s3.42.06,4.23,1.93a5.56,5.56,0,0,1,.41,1.7,5,5,0,0,1,.41-1.7c.8-1.87,2.7-2.73,4.23-1.93s1.95,3.16,1.3,5.07c-1.11,3.32-4.46,5.25-5.94,9.08-1.23-3.81-4.65-5.81-5.95-9.08Z" />
      </g>
    </g>
    <g
       id="use4261">
      <path
         id="path4591"
         class="cls-16"
         d="M68.52,58.36a9.82,9.82,0,1,1-9.81-9.82A9.81,9.81,0,0,1,68.52,58.36Z" />
      <g
         id="g4593">
        <path
           id="path4595"
           class="cls-17"
           d="M52.78,56.5c-.75-1.88-.22-4.27,1.31-5.07s3.42.06,4.23,1.93a5.56,5.56,0,0,1,.41,1.7,5,5,0,0,1,.41-1.7c.8-1.87,2.7-2.73,4.23-1.93s1.95,3.16,1.3,5.07c-1.11,3.32-4.46,5.25-5.94,9.08-1.23-3.81-4.65-5.81-5.95-9.08Z" />
      </g>
    </g>
    <g
       id="use4263">
      <path
         id="path4603"
         class="cls-18"
         d="M68.52,27.54a9.82,9.82,0,1,1-9.81-9.82A9.81,9.81,0,0,1,68.52,27.54Z" />
      <g
         id="g4605">
        <path
           id="path4607"
           class="cls-19"
           d="M52.78,25.68c-.75-1.88-.22-4.27,1.31-5.07s3.42.06,4.23,1.93a5.56,5.56,0,0,1,.41,1.7,5,5,0,0,1,.41-1.7c.8-1.87,2.7-2.73,4.23-1.93s1.95,3.16,1.3,5.07c-1.11,3.32-4.46,5.25-5.94,9.08C57.5,31,54.08,29,52.78,25.68Z" />
      </g>
    </g>
    <g
       id="use4273">
      <path
         id="path4663"
         class="cls-20"
         d="M35.53,58.36a9.81,9.81,0,1,1-9.81-9.82A9.81,9.81,0,0,1,35.53,58.36Z" />
      <g
         id="g4665">
        <path
           id="path4667"
           class="cls-21"
           d="M19.79,56.5c-.75-1.88-.22-4.27,1.31-5.07s3.42.06,4.23,1.93a5.56,5.56,0,0,1,.41,1.7,5.29,5.29,0,0,1,.41-1.7c.81-1.87,2.7-2.73,4.23-1.93s1.95,3.16,1.31,5.07c-1.12,3.32-4.47,5.25-6,9.08-1.23-3.81-4.65-5.81-5.95-9.08Z" />
      </g>
    </g>
  </g>
</svg>
