<?xml version="1.0" encoding="UTF-8" standalone="no"?>
<svg
   id="svg2"
   viewBox="0 0 70.380005 99.420006"
   version="1.1"
   sodipodi:docname="HA.svg"
   inkscape:version="1.3.2 (091e20e, 2023-11-25, custom)"
   width="70.380005"
   height="99.420006"
   xmlns:inkscape="http://www.inkscape.org/namespaces/inkscape"
   xmlns:sodipodi="http://sodipodi.sourceforge.net/DTD/sodipodi-0.dtd"
   xmlns:xlink="http://www.w3.org/1999/xlink"
   xmlns="http://www.w3.org/2000/svg"
   xmlns:svg="http://www.w3.org/2000/svg"
   xmlns:rdf="http://www.w3.org/1999/02/22-rdf-syntax-ns#"
   xmlns:cc="http://creativecommons.org/ns#"
   xmlns:dc="http://purl.org/dc/elements/1.1/">
  <sodipodi:namedview
     id="namedview6"
     pagecolor="#ffffff"
     bordercolor="#000000"
     borderopacity="0.25"
     inkscape:showpageshadow="2"
     inkscape:pageopacity="0.0"
     inkscape:pagecheckerboard="0"
     inkscape:deskcolor="#d1d1d1"
     inkscape:zoom="15.285714"
     inkscape:cx="34.96729"
     inkscape:cy="50.275702"
     inkscape:window-width="3840"
     inkscape:window-height="2054"
     inkscape:window-x="-11"
     inkscape:window-y="-11"
     inkscape:window-maximized="1"
     inkscape:current-layer="svg2" />
  <defs
     id="defs6">
    <style
       id="style1">
      .cls-1 {
        filter: url(#filter63625-2);
      }

      .cls-2 {
        stroke: #000;
        fill: url(#linear-gradient);
      }

      .cls-2, .cls-6 {
        stroke-miterlimit: 10;
        stroke-width: 0.23px;
      }

      .cls-3 {
        fill: url(#linear-gradient-2);
      }

      .cls-4 {
        opacity: 0.47;
        fill: url(#radial-gradient);
      }

      .cls-10, .cls-4, .cls-5 {
        isolation: isolate;
      }

      .cls-5 {
        opacity: 0.4;
        fill: url(#radial-gradient-2);
      }

      .cls-6 {
        fill: none;
      }

      .cls-6, .cls-8 {
        stroke: #fff;
      }

      .cls-11, .cls-7 {
        stroke: #c8c8c8;
        stroke-linejoin: round;
        stroke-width: 1px;
      }

      .cls-7 {
        fill: url(#linear-gradient-3);
      }

      .cls-8 {
        stroke-width: 0.49px;
        fill: url(#linear-gradient-4);
      }

      .cls-9 {
        fill: url(#radial-gradient-3);
      }

      .cls-10 {
        opacity: 0.4;
        fill: url(#radial-gradient-4);
      }

      .cls-11 {
        fill: url(#linear-gradient-5);
      }
    </style>
    <filter
       id="filter63625-2"
       name="filter63625-2"
       x="-0.12863863"
       y="-0.090976909"
       width="1.2572773"
       height="1.1819538">
      <feGaussianBlur
         result="feGaussianBlur63627-6"
         stdDeviation="3.76"
         id="feGaussianBlur1" />
    </filter>
    <linearGradient
       id="linear-gradient"
       x1="-1311.72"
       y1="-1987.88"
       x2="-1302.23"
       y2="-1473.37"
       gradientTransform="matrix(0.23,0,0,-0.23,339.37,-415.01)"
       gradientUnits="userSpaceOnUse">
      <stop
         offset="0"
         stop-color="#f3f3f3"
         id="stop1" />
      <stop
         offset="1"
         stop-color="#8f8f8f"
         id="stop2" />
    </linearGradient>
    <linearGradient
       id="linear-gradient-2"
       x1="-1725.66"
       y1="-1765.59"
       x2="-1593.38"
       y2="-2203.3"
       gradientTransform="matrix(0.24,0,0,-0.24,441.08,-401.79)"
       gradientUnits="userSpaceOnUse">
      <stop
         offset="0"
         stop-color="#590000"
         id="stop3" />
      <stop
         offset="1"
         stop-color="#bf0303"
         id="stop4" />
    </linearGradient>
    <radialGradient
       id="radial-gradient"
       cx="2529.1799"
       cy="6330.3501"
       r="58.68"
       gradientTransform="matrix(-0.23,0,0,0.21,588.11,-1210.68)"
       gradientUnits="userSpaceOnUse">
      <stop
         offset="0"
         stop-color="#fff"
         id="stop5" />
      <stop
         offset="1"
         stop-color="#fff"
         stop-opacity="0"
         id="stop6" />
    </radialGradient>
    <radialGradient
       id="radial-gradient-2"
       cx="-1294.66"
       cy="-1011.53"
       r="63.150002"
       gradientTransform="matrix(0.23,0,0,-0.36,368.03,-342.63)"
       xlink:href="#radial-gradient" />
    <linearGradient
       id="linear-gradient-3"
       x1="-8968.9297"
       y1="-11973.02"
       x2="-8968.9297"
       y2="-11909.9"
       gradientTransform="matrix(0.05,0,0,-0.06,493.33,-602.39)"
       xlink:href="#linear-gradient" />
    <linearGradient
       id="linear-gradient-4"
       x1="198.33"
       y1="1031.0699"
       x2="198.33"
       y2="1036.87"
       gradientTransform="matrix(1,0,0,-1,-131.47,1052.6)"
       xlink:href="#linear-gradient" />
    <radialGradient
       id="radial-gradient-3"
       cx="698.91998"
       cy="1455.66"
       r="25.370001"
       gradientTransform="matrix(0.83,0.56,2.15,-3.16,-3681.98,4293.86)"
       xlink:href="#radial-gradient" />
    <radialGradient
       id="radial-gradient-4"
       cx="162.17999"
       cy="263.10999"
       r="26.74"
       gradientTransform="matrix(0.64,0,0,-0.64,-60.94,225.74)"
       xlink:href="#radial-gradient" />
    <linearGradient
       id="linear-gradient-5"
       x1="-2440.77"
       y1="-2465.0701"
       x2="-2440.77"
       y2="-2402.02"
       gradientTransform="matrix(0.19,0,0,-0.21,508.91,-456.17)"
       xlink:href="#linear-gradient" />
    <linearGradient
       inkscape:collect="always"
       xlink:href="#linear-gradient"
       id="linearGradient1"
       gradientUnits="userSpaceOnUse"
       gradientTransform="matrix(0.23,0,0,-0.23,339.37,-415.01)"
       x1="-1311.72"
       y1="-1987.88"
       x2="-1302.23"
       y2="-1473.37" />
    <radialGradient
       inkscape:collect="always"
       xlink:href="#radial-gradient"
       id="radialGradient1"
       gradientUnits="userSpaceOnUse"
       gradientTransform="matrix(-0.23,0,0,0.21,588.11,-1210.68)"
       cx="2529.1799"
       cy="6330.3501"
       r="58.68" />
  </defs>
  <title
     id="title6">King of Hearts</title>
  <g
     id="_1_heart"
     data-name="1_heart"
     transform="translate(-7.0249999,-9.2149999)">
    <g
       id="use70755">
      <g
         id="g65535">
        <rect
           id="rect65539"
           class="cls-2"
           x="7.1399999"
           y="9.3299999"
           width="70.150002"
           height="99.190002"
           rx="3.97"
           ry="3.97"
           style="fill:url(#linearGradient1)" />
        <rect
           id="rect65541"
           class="cls-3"
           x="10.74"
           y="12"
           width="63.240002"
           height="92.260002"
           rx="1.29"
           ry="1.29"
           style="fill:url(#linear-gradient-2)" />
        <rect
           id="rect65543"
           class="cls-4"
           x="10.84"
           y="79.849998"
           width="26.549999"
           height="24.280001"
           rx="1.04"
           ry="1.04"
           style="fill:url(#radialGradient1)" />
        <rect
           id="rect65545"
           class="cls-5"
           x="44.799999"
           y="11.87"
           width="29.280001"
           height="45.27"
           style="fill:url(#radial-gradient-2)" />
        <path
           id="path65547"
           class="cls-6"
           d="M 25.71,100.24 H 70.42 V 26.63 M 58.85,16 H 14.3 v 73.21" />
      </g>
    </g>
    <g
       id="use74132">
      <g
         id="g74112">
        <path
           id="path74114"
           class="cls-7"
           d="m 14.22,94.8 a 2,2 0 0 1 0.63,-2.45 1.53,1.53 0 0 1 2,0.94 2.47,2.47 0 0 1 0.2,0.81 2.46,2.46 0 0 1 0.19,-0.81 1.53,1.53 0 0 1 2,-0.94 2.06,2.06 0 0 1 0.76,2.45 c -0.54,1.6 -2.15,2.52 -2.86,4.37 -0.59,-1.84 -2.24,-2.8 -2.87,-4.37 z"
           style="fill:url(#linear-gradient-3)" />
      </g>
    </g>
    <g
       id="use7057">
      <path
         id="text6966"
         class="cls-8"
         d="m 70.69,23 c -0.49,0 -0.61,-0.14 -1,-1 L 66.93,15.7 H 66.7 l -2.3,5.44 C 63.7,22.79 63.56,23 63,23 v 0.21 h 2.2 V 23 c -0.53,0 -0.76,-0.14 -0.76,-0.45 a 1.44,1.44 0 0 1 0.09,-0.44 l 0.51,-1.29 H 68 l 0.45,1.06 a 2.06,2.06 0 0 1 0.21,0.74 c 0,0.28 -0.19,0.37 -0.77,0.38 v 0.21 h 2.82 V 23 m -5.43,-2.64 1.28,-3.05 1.28,3.05 h -2.58"
         style="fill:url(#linear-gradient-4)" />
    </g>
    <path
       id="path4043"
       class="cls-9"
       d="m 23.49,97 c 0.53,-0.9 -1.57,-4.1 -1.84,-5.3 a 1.7,1.7 0 0 1 -0.06,-0.31 4.55,4.55 0 0 1 0,-0.52 4.64,4.64 0 0 1 0.13,-0.91 0.33,0.33 0 0 0 0.16,-0.6 l 0.21,-0.69 a 9.11,9.11 0 0 1 0.6,-1.44 c 0.32,-0.61 0.71,-1.18 1.09,-1.76 0.12,-0.18 0.25,-0.36 0.38,-0.53 h 0.1 a 0.6,0.6 0 0 0 0.61,-0.6 0.5,0.5 0 0 0 -0.06,-0.24 c 0.15,-0.18 0.3,-0.37 0.46,-0.54 a 27.32,27.32 0 0 1 2.13,-2 c 0.81,-0.75 1.67,-1.43 2.53,-2.1 1,-0.8 2.12,-1.51 3.21,-2.22 1.09,-0.71 2.08,-1.32 3.13,-2 h 0.15 a 0.61,0.61 0 0 0 0,-1.21 0.61,0.61 0 0 0 -0.61,0.6 0.6,0.6 0 0 0 0.44,0.58 l -0.29,0.17 c -1.29,0.77 -2.56,1.55 -3.82,2.36 -1.09,0.71 -2.19,1.42 -3.22,2.23 -0.87,0.67 -1.72,1.36 -2.53,2.1 -0.62,0.56 -1.24,1.12 -1.82,1.72 a 0.65,0.65 0 0 0 -0.31,-0.08 0.61,0.61 0 0 0 -0.61,0.6 0.62,0.62 0 0 0 0.12,0.36 16.5,16.5 0 0 0 -1,1.36 17.75,17.75 0 0 0 -1.09,1.76 2.92,2.92 0 0 0 -0.14,0.31 c 0,-0.61 0.1,-1.22 0.18,-1.83 a 16.57,16.57 0 0 1 0.52,-2.52 15.31,15.31 0 0 1 0.83,-2.2 13,13 0 0 0 0.87,-1.63 c 0.05,-0.12 0.09,-0.25 0.14,-0.37 a 0.36,0.36 0 0 1 0,-0.09 c 0.43,-0.79 0.88,-1.56 1.33,-2.33 l 0.09,-0.14 0.51,-0.7 c 0.5,-0.64 1,-1.25 1.54,-1.87 0.68,-0.78 1.4,-1.52 2.13,-2.25 0.73,-0.73 1.67,-1.62 2.53,-2.41 0.86,-0.79 1.87,-1.65 2.8,-2.49 l 3,-2.63 c 1.12,-1 2.21,-2 3.28,-3 0.58,-0.55 1.14,-1.1 1.7,-1.65 a 10.71,10.71 0 0 0 1.68,-1.33 c 1.11,-0.94 2.23,-1.86 3.39,-2.74 a 15.89,15.89 0 0 1 2.27,-1.56 l 0.5,-0.22 a 0.52,0.52 0 0 0 0,0.18 0.61,0.61 0 1 0 1.21,0 0.59,0.59 0 0 0 -0.15,-0.39 c 2.23,-0.16 2.69,-0.49 0.27,-0.33 a 1.82,1.82 0 0 0 -0.57,0.13 h -0.16 a 0.59,0.59 0 0 0 -0.53,0.33 21.16,21.16 0 0 0 -3.41,2.21 c -1.15,0.87 -2.27,1.8 -3.37,2.74 -0.46,0.39 -0.76,0.66 -0.94,0.83 l 1.72,-1.73 c 1.25,-1.26 2.43,-2.58 3.58,-3.93 0.71,-0.85 1.4,-1.73 2.06,-2.61 a 0.62,0.62 0 0 0 0.47,0.22 0.6,0.6 0 0 0 0.6,-0.61 0.6,0.6 0 0 0 -0.36,-0.55 c 0.3,-0.41 0.6,-0.81 0.89,-1.22 a 56.29,56.29 0 0 0 3.41,-5.41 35.88,35.88 0 0 0 2.78,-6.24 54,54 0 0 0 1.13,-5.8 c 0.37,-2.33 -0.21,-2 -0.58,0.34 a 53.82,53.82 0 0 1 -1.13,5.79 35.92,35.92 0 0 1 -2.75,6.2 c -0.08,0.15 -0.17,0.29 -0.26,0.44 a 0.32,0.32 0 0 0 -0.32,-0.26 0.34,0.34 0 1 0 0,0.67 h 0.11 a 52.87,52.87 0 0 1 -3,4.63 l -0.6,0.84 a 0.6,0.6 0 0 0 -0.55,0.59 0.5,0.5 0 0 0 0,0.12 c -0.82,1.1 -1.65,2.17 -2.53,3.22 -1.15,1.35 -2.32,2.67 -3.57,3.93 -1.25,1.26 -2.38,2.36 -3.6,3.53 -1.22,1.17 -2.17,2 -3.29,3 -1.12,1 -2,1.75 -3,2.64 -1,0.89 -1.87,1.66 -2.8,2.49 -0.93,0.83 -1.59,1.46 -2.36,2.23 a 0.35,0.35 0 0 0 -0.16,-0.2 c 0.3,-0.31 0.6,-0.61 0.91,-0.91 1,-0.94 2,-1.85 3,-2.8 1.18,-1.11 2.33,-2.25 3.47,-3.4 a 39.09,39.09 0 0 0 3.62,-4.2 47.71,47.71 0 0 0 3.29,-5.4 35.94,35.94 0 0 0 2.65,-6.11 41.51,41.51 0 0 0 1.36,-7 54.93,54.93 0 0 0 0.08,-6 0.61,0.61 0 0 0 0.2,-0.45 0.6,0.6 0 0 0 -0.24,-0.48 c 0,-0.25 0,-0.49 0,-0.74 0,-0.42 0,-0.83 0,-1.25 -0.09,-2.35 -0.66,-2 -0.57,0.33 0,0.42 0,0.83 0,1.25 0,0.11 0,0.22 0,0.33 a 0.59,0.59 0 0 0 0,1.13 c 0,1 0.05,2.07 0.05,3.11 a 0.59,0.59 0 0 0 -0.23,-0.05 0.6,0.6 0 0 0 -0.61,0.6 0.61,0.61 0 0 0 0.61,0.61 0.78,0.78 0 0 0 0.21,0 c 0,0.66 0,1.34 -0.1,2 -0.19,1.51 -0.42,3 -0.74,4.51 0,-0.71 0,-1.42 0,-2.13 a 49.81,49.81 0 0 0 -0.37,-5 26.23,26.23 0 0 0 -0.68,-3.4 10.84,10.84 0 0 0 -0.5,-1.71 1.56,1.56 0 0 0 -0.26,-0.45 c -1.91,-1.71 -2.55,-1.32 -0.63,0.37 0.14,0.11 0.18,0.29 0.27,0.43 a 9.86,9.86 0 0 1 0.57,1.65 26.14,26.14 0 0 1 0.7,3.39 c 0.22,1.68 0.33,3.36 0.39,5 0,0.93 0,1.87 0,2.81 a 7,7 0 0 0 0,1.22 1.55,1.55 0 0 0 -0.07,0.23 c -0.39,1.15 -0.82,2.28 -1.31,3.39 a 0.61,0.61 0 1 0 -0.52,0.91 h 0.12 c -0.3,0.62 -0.61,1.23 -0.94,1.83 a 46.5,46.5 0 0 1 -3.3,5.41 39.09,39.09 0 0 1 -3.62,4.2 c -1.14,1.15 -2.29,2.3 -3.48,3.41 -1,0.94 -2,1.86 -3,2.8 -0.18,0.17 -0.35,0.34 -0.52,0.52 a 0.34,0.34 0 0 0 -0.28,0.28 19.78,19.78 0 0 0 -1.76,2 c -0.67,0.94 -1.33,1.89 -1.91,2.89 -0.21,0.3 -0.42,0.6 -0.61,0.92 -0.19,0.32 -0.41,0.65 -0.58,1 a 6.43,6.43 0 0 0 -0.32,0.71 v 0 c -0.16,0.3 -0.33,0.61 -0.48,0.92 -0.15,0.31 -0.4,0.84 -0.58,1.26 a 1.55,1.55 0 0 1 0,-0.21 18.09,18.09 0 0 1 0.5,-1.74 c 0.24,-0.68 0.52,-1.34 0.81,-2 l 1.06,-2.43 c 0.49,-1.1 1,-2.17 1.57,-3.23 0.69,-1.31 1.3,-2.66 1.88,-4 0.69,-1.66 1.37,-3.32 2.06,-5 0.69,-1.68 1.41,-3.43 2.07,-5.16 a 0.33,0.33 0 0 0 0.25,-0.32 0.32,0.32 0 0 0 -0.06,-0.2 C 33.15,55.99 33.74,54.15 34.3,52.3 35,50.19 35.52,48 36,45.82 a 42.61,42.61 0 0 0 0.51,-7.74 c -0.08,-2.63 -0.38,-5.25 -0.7,-7.87 -0.2,-1.57 -0.44,-3.14 -0.68,-4.71 a 5.23,5.23 0 0 0 -0.36,-1.39 0.71,0.71 0 0 0 0.2,0 0.61,0.61 0 0 0 0.6,-0.61 0.61,0.61 0 1 0 -1,0.41 3.76,3.76 0 0 0 0,1.89 c 0.11,0.69 0.21,1.39 0.32,2.08 a 0.38,0.38 0 0 0 -0.24,-0.08 0.33,0.33 0 1 0 0,0.66 0.34,0.34 0 0 0 0.3,-0.18 q 0.16,1.11 0.3,2.22 c 0,0.19 0.05,0.38 0.07,0.57 A 0.6,0.6 0 0 0 35,31 a 0.61,0.61 0 1 0 0.39,1.06 c 0.25,2.1 0.46,4.2 0.53,6.31 a 42.8,42.8 0 0 1 -0.53,7.75 c -0.44,2.2 -1,4.37 -1.65,6.52 -0.52,1.7 -1.06,3.4 -1.66,5.08 a 0.31,0.31 0 0 0 -0.16,0.29 0.25,0.25 0 0 0 0,0.12 l -0.13,0.34 q -1,2.7 -2.13,5.36 -1,2.48 -2.08,5 c -0.58,1.35 -1.19,2.7 -1.88,4 -0.54,1.07 -1.09,2.14 -1.57,3.23 -0.36,0.81 -0.72,1.63 -1.07,2.44 -0.35,0.81 -0.58,1.33 -0.81,2 a 16.61,16.61 0 0 0 -0.51,1.74 c -0.1,0.49 -0.21,1 -0.3,1.49 0,0.22 -0.08,0.43 -0.13,0.65 -0.26,1.06 -0.29,1.6 -0.19,1.68 0.1,0.08 -0.05,0.36 -0.07,0.55 a 18.73,18.73 0 0 0 -0.2,2.13 c 0,0.33 0,0.66 0,1 0,0.34 -0.15,0.49 -0.21,0.74 l -0.06,0.3 h -3 c 2,0.58 3.55,0.41 5.86,6.18 z m 0.58,-4.67 a 0.34,0.34 0 1 0 0,-0.67 0.34,0.34 0 0 0 0,0.67 z m -4.63,-1.69 a 0.61,0.61 0 0 0 0.61,-0.61 0.61,0.61 0 1 0 -0.61,0.61 z m 3.27,-0.73 a 0.62,0.62 0 0 0 0.61,-0.61 0.61,0.61 0 0 0 -0.61,-0.6 0.6,0.6 0 0 0 -0.6,0.6 0.6,0.6 0 0 0 0.6,0.6 z m -4.26,-1.7 a 0.33,0.33 0 0 0 0.33,-0.33 0.34,0.34 0 0 0 -0.67,0 0.34,0.34 0 0 0 0.34,0.32 z M 20,87.66 a 0.34,0.34 0 0 0 0,-0.66 0.34,0.34 0 0 0 0,0.67 z m 5.71,-0.72 a 0.62,0.62 0 0 0 0.61,-0.61 0.6,0.6 0 0 0 -0.61,-0.6 0.6,0.6 0 0 0 -0.6,0.6 0.61,0.61 0 0 0 0.56,0.61 z m 1.42,-1 a 0.33,0.33 0 0 0 0,-0.66 0.33,0.33 0 0 0 0,0.66 z m -8.31,-0.66 a 0.61,0.61 0 1 0 -0.61,-0.6 0.6,0.6 0 0 0 0.57,0.56 z m 1.39,-1.75 a 0.61,0.61 0 0 0 0.6,-0.61 0.6,0.6 0 0 0 -0.6,-0.6 0.6,0.6 0 0 0 -0.61,0.6 0.62,0.62 0 0 0 0.57,0.57 z M 28,83.24 a 0.33,0.33 0 0 0 0.34,-0.33 0.34,0.34 0 0 0 -0.67,0 0.33,0.33 0 0 0 0.33,0.33 z m 4.39,-0.54 a 0.61,0.61 0 1 0 0,-1.21 0.61,0.61 0 1 0 0,1.21 z M 25.92,82 a 0.6,0.6 0 0 0 0.6,-0.6 0.61,0.61 0 1 0 -1.21,0 0.6,0.6 0 0 0 0.61,0.6 z m 2.37,-0.15 c 0,0 0.71,-0.46 1.82,-1.28 0.48,-0.35 0.94,-0.71 1.44,-1 a 22.34,22.34 0 0 1 2.21,-1.17 l 0.47,-0.21 a 0.58,0.58 0 0 0 -0.15,0.38 0.61,0.61 0 1 0 1.21,0 0.59,0.59 0 0 0 -0.57,-0.59 c 0.53,-0.23 1.06,-0.47 1.6,-0.67 0.54,-0.2 1.21,-0.49 1.82,-0.72 l 0.77,-0.29 c 2.39,-0.92 3,-1.28 0.63,-0.37 l -0.79,0.3 -1.82,0.72 c -0.86,0.34 -1.72,0.72 -2.56,1.1 A 31.44,31.44 0 0 0 31,79.87 c -0.51,0.3 -1,0.67 -1.45,1 -0.86,0.64 -1.23,0.93 -1.21,0.93 z m -8.42,-0.63 a 0.61,0.61 0 0 0 0.6,-0.61 0.61,0.61 0 0 0 -1.21,0 0.61,0.61 0 0 0 0.61,0.58 z m 13.21,-0.67 a 0.33,0.33 0 1 0 -0.33,-0.33 0.33,0.33 0 0 0 0.33,0.3 z m -11,-0.85 a 0.6,0.6 0 0 0 0.6,-0.6 0.61,0.61 0 0 0 -1.21,0 0.6,0.6 0 0 0 0.64,0.57 z m 3.26,-0.18 a 0.6,0.6 0 0 0 0.6,-0.6 0.6,0.6 0 0 0 -0.6,-0.61 0.61,0.61 0 0 0 -0.6,0.61 0.6,0.6 0 0 0 0.63,0.57 z M 17.17,79 a 0.33,0.33 0 0 0 0.33,-0.33 0.32,0.32 0 0 0 -0.33,-0.33 0.33,0.33 0 0 0 -0.33,0.33 0.33,0.33 0 0 0 0.33,0.33 z m 21.11,-1.15 a 0.34,0.34 0 1 0 0,-0.67 0.34,0.34 0 0 0 0,0.67 z m -7.22,-0.06 a 0.61,0.61 0 1 0 -0.61,-0.61 0.6,0.6 0 0 0 0.61,0.62 z m 10.67,-0.54 a 0.34,0.34 0 1 0 0,-0.67 v 0 a 0.63,0.63 0 0 0 0.17,-0.42 0.6,0.6 0 0 0 -0.6,-0.61 0.61,0.61 0 1 0 0,1.21 h 0.17 a 0.33,0.33 0 0 0 0.28,0.51 z m 2.09,-1.4 a 0.61,0.61 0 1 0 -0.61,-0.6 0.61,0.61 0 0 0 0.61,0.61 z m -20.62,0 a 0.61,0.61 0 1 0 -0.61,-0.6 0.6,0.6 0 0 0 0.61,0.61 z M 28,75.8 a 0.61,0.61 0 1 0 0,-1.21 0.61,0.61 0 0 0 0,1.21 z m 17.39,-0.06 a 0.33,0.33 0 1 0 -0.33,-0.33 0.33,0.33 0 0 0 0.3,0.33 z m -13,-0.42 A 0.34,0.34 0 1 0 32,75 a 0.33,0.33 0 0 0 0.36,0.32 z m -5.54,-0.4 0.6,-0.85 a 15.24,15.24 0 0 1 1.21,-1.45 0.34,0.34 0 0 0 0.2,0.15 c -0.65,0.66 -1.3,1.32 -1.9,2 l -0.11,0.12 z M 38.33,74 l 2,-1.1 1.5,-0.82 H 42 a 0.61,0.61 0 0 0 0.58,-0.45 l 2.07,-1.18 -2.07,1.16 a 0.51,0.51 0 0 0 0,-0.13 0.61,0.61 0 1 0 -0.8,0.57 c -0.16,0.09 -0.35,0.2 -0.48,0.26 z m 7.76,-0.08 a 0.34,0.34 0 1 0 -0.33,-0.34 0.34,0.34 0 0 0 0.33,0.35 z M 23,73 a 0.61,0.61 0 0 0 0.61,-0.61 0.58,0.58 0 0 0 0,-0.18 h 0.07 a 0.34,0.34 0 0 0 0.33,-0.34 0.34,0.34 0 0 0 -0.33,-0.34 0.35,0.35 0 0 0 -0.34,0.33 0.61,0.61 0 0 0 -0.3,-0.08 A 0.61032778,0.61032778 0 0 0 23,73 Z m -2,0 A 0.34,0.34 0 1 0 20.67,72.67 0.34,0.34 0 0 0 21,73 Z m 4.21,-2.3 a 0.6,0.6 0 0 0 0.6,-0.6 0.61,0.61 0 0 0 -0.6,-0.61 0.62,0.62 0 0 0 -0.61,0.61 0.61,0.61 0 0 0 0.59,0.56 z m 25.56,-0.12 a 0.33,0.33 0 0 0 0.33,-0.33 0.33,0.33 0 0 0 -0.33,-0.33 0.32,0.32 0 0 0 -0.33,0.33 0.33,0.33 0 0 0 0.31,0.29 z m -5.91,-0.21 0.91,-0.52 a 44.11,44.11 0 0 0 4.35,-2.93 c 0.7,-0.54 1.39,-1.11 2,-1.7 a 0.6,0.6 0 0 0 1.16,-0.2 0.62,0.62 0 0 0 -0.34,-0.56 c 0.48,-0.45 0.94,-0.9 1.4,-1.37 0.46,-0.47 0.67,-0.69 1,-1 v 0 c 1,-0.88 2,-1.75 2.9,-2.65 v -0.05 a 0.61,0.61 0 0 0 1.21,-0.09 0.61,0.61 0 0 0 -0.54,-0.6 13.4,13.4 0 0 0 1.51,-1.85 c 0.57,-0.84 1.13,-1.69 1.68,-2.54 0.55,-0.85 1.08,-1.71 1.61,-2.57 0.3,-0.51 0.6,-1 0.89,-1.52 0,0 0,0.08 0,0.12 a 0.61,0.61 0 1 0 0.6,-0.6 0.63,0.63 0 0 0 -0.42,0.17 c 0.08,-0.15 0.17,-0.29 0.24,-0.44 a 10.83,10.83 0 0 0 0.63,-1.44 5.37,5.37 0 0 1 0.21,-0.56 c 0.14,-0.27 0.25,-0.51 0.35,-0.7 a 0.61,0.61 0 0 0 0.5,-0.6 0.62,0.62 0 0 0 -0.36,-0.56 0.31,0.31 0 0 0 0.24,-0.31 0.33,0.33 0 0 0 -0.33,-0.34 0.34,0.34 0 0 0 -0.33,0.34 0.33,0.33 0 0 0 0.15,0.27 0.61,0.61 0 0 0 -0.24,1.15 c -0.17,0.29 -0.37,0.65 -0.6,1.11 a 5.42,5.42 0 0 0 -0.22,0.56 10.59,10.59 0 0 1 -0.61,1.43 c -0.4,0.78 -0.85,1.52 -1.3,2.27 -0.45,0.75 -1.06,1.72 -1.61,2.57 -0.55,0.85 -1.11,1.7 -1.68,2.54 a 11,11 0 0 1 -1.24,1.56 0.59,0.59 0 0 0 -0.29,0.33 l -0.68,0.69 c -0.55,0.52 -1.1,1 -1.66,1.53 0.78,-1 1.5,-2 2.2,-3 a 25.37,25.37 0 0 0 2.92,-5.76 l 0.09,-0.31 a 0.62,0.62 0 0 0 0.6,0.49 0.61,0.61 0 0 0 0,-1.22 0.65,0.65 0 0 0 -0.41,0.16 27.8,27.8 0 0 0 1,-6 27.45,27.45 0 0 0 -0.24,-6.21 c -0.5,-3.85 -1.45,-3.31 -1,0.54 a 27.57,27.57 0 0 1 0.24,6.22 26.15,26.15 0 0 1 -1.16,6.78 25.17,25.17 0 0 1 -2.92,5.76 37.16,37.16 0 0 1 -3.43,4.38 c -0.72,0.63 -1.44,1.27 -2.17,1.89 -0.52,0.47 -1.08,0.89 -1.62,1.33 -1.91,1.52 -1.31,1.17 0.6,-0.35 0.49,-0.4 1,-0.78 1.48,-1.2 v 0 a 36.9,36.9 0 0 1 -3,2.58 40.92,40.92 0 0 1 -4.27,2.88 z m -3.35,-0.15 a 0.34,0.34 0 1 0 -0.33,-0.33 0.34,0.34 0 0 0 0.31,0.29 z m 6.06,-0.25 a 0.33,0.33 0 0 0 0.26,-0.33 0.33,0.33 0 0 0 -0.33,-0.33 0.33,0.33 0 1 0 0,0.66 z M 34.16,69.79 a 0.61,0.61 0 0 0 0.61,-0.6 0.6,0.6 0 0 0 -0.61,-0.6 0.6,0.6 0 0 0 -0.6,0.6 0.6,0.6 0 0 0 0.58,0.56 z M 36,69.57 A 0.33,0.33 0 1 0 35.66,69.24 0.33,0.33 0 0 0 36,69.57 Z m 8.77,-1.51 a 0.34,0.34 0 1 0 -0.33,-0.33 0.33,0.33 0 0 0 0.32,0.33 z m 3,-0.18 a 0.61,0.61 0 1 0 0,-1.21 0.61,0.61 0 0 0 0,1.21 z M 26.4,67.63 A 0.6,0.6 0 0 0 27,67 0.62,0.62 0 0 0 26.39,66.39 0.61,0.61 0 0 0 25.78,67 0.6,0.6 0 0 0 26.4,67.63 Z M 55,67 A 0.33,0.33 0 1 0 54.67,66.67 0.33,0.33 0 0 0 55,67 Z M 33.68,66.88 a 0.61,0.61 0 0 0 0,-1.21 0.61,0.61 0 0 0 0,1.21 z m -9,-1 a 0.34,0.34 0 0 0 0.34,-0.33 0.34,0.34 0 0 0 -0.67,0 0.33,0.33 0 0 0 0.32,0.33 z m 24.41,-0.06 a 0.61,0.61 0 1 0 0,-1.21 0.61,0.61 0 0 0 0,1.21 z m -21.71,-0.6 a 0.6,0.6 0 0 0 0.6,-0.61 0.61,0.61 0 0 0 -0.26,-0.5 0.27,0.27 0 0 0 0,-0.13 0.34,0.34 0 0 0 -0.67,0 0.3,0.3 0 0 0 0,0.1 0.61,0.61 0 0 0 0.29,1.14 z m 13.06,-0.55 a 0.6,0.6 0 0 0 0.6,-0.6 0.6,0.6 0 0 0 -0.6,-0.61 0.61,0.61 0 0 0 -0.6,0.61 0.6,0.6 0 0 0 0.59,0.6 z M 29.3,64.45 c 0.14,0 0.42,-0.69 0.65,-1.94 0.23,-1.25 0.47,-2.54 0.61,-3.82 A 36,36 0 0 0 30.77,53.93 28.24,28.24 0 0 0 30.43,50.38 23.89,23.89 0 0 0 30,48 7.25,7.25 0 0 0 29.71,47.1 c -1,-2.33 -1.7,-1.95 -0.62,0.36 a 7.11,7.11 0 0 1 0.29,0.89 c 0.2,0.78 0.33,1.58 0.45,2.37 A 27.92,27.92 0 0 1 30.18,54.26 34.25,34.25 0 0 1 30,59 c -0.14,1.28 -0.37,2.55 -0.6,3.82 -0.21,1.1 -0.19,1.61 -0.07,1.6 z m 12.93,0 a 0.33,0.33 0 1 0 -0.34,-0.33 0.33,0.33 0 0 0 0.33,0.31 z m -9.92,-0.24 a 0.33,0.33 0 0 0 0.33,-0.33 0.34,0.34 0 0 0 -0.67,0 0.34,0.34 0 0 0 0.33,0.31 z m 4,-1.09 a 0.61,0.61 0 0 0 0,-1.21 0.61,0.61 0 1 0 0,1.21 z m 16.88,-0.49 a 0.6,0.6 0 0 0 0.6,-0.6 0.61,0.61 0 1 0 -0.6,0.6 z m 6.8,-1.39 a 0.33,0.33 0 1 0 -0.33,-0.33 0.33,0.33 0 0 0 0.28,0.31 z M 48.42,58.38 a 0.61,0.61 0 1 0 -0.6,-0.6 0.6,0.6 0 0 0 0.6,0.6 z m 6.44,-1 a 0.34,0.34 0 0 0 0.34,-0.33 0.34,0.34 0 0 0 -0.34,-0.33 0.33,0.33 0 0 0 -0.34,0.33 0.34,0.34 0 0 0 0.34,0.36 z M 25.43,57 a 0.61,0.61 0 1 0 0,-1.21 0.61,0.61 0 0 0 0,1.21 z m 15.31,-0.24 a 0.61,0.61 0 1 0 -0.61,-0.6 0.6,0.6 0 0 0 0.61,0.59 z M 64.05,56 a 0.33,0.33 0 0 0 0.34,-0.33 0.34,0.34 0 0 0 -0.67,0 0.33,0.33 0 0 0 0.33,0.33 z M 63.3,55.52 a 0.61,0.61 0 1 0 -0.61,-0.6 0.6,0.6 0 0 0 0.61,0.62 z M 44.48,55.34 a 0.61,0.61 0 0 0 0.61,-0.61 0.61,0.61 0 1 0 -1.21,0 0.6,0.6 0 0 0 0.6,0.63 z m -10,-0.67 a 0.61,0.61 0 1 0 -0.6,-0.6 0.6,0.6 0 0 0 0.62,0.62 z m -6.32,-2.6 a 0.34,0.34 0 1 0 -0.33,-0.34 0.34,0.34 0 0 0 0.35,0.36 z M 31.66,52 a 0.61,0.61 0 1 0 0,-1.21 0.61,0.61 0 0 0 0,1.21 z m 26.67,-0.18 a 0.61,0.61 0 1 0 -0.6,-0.61 0.61,0.61 0 0 0 0.6,0.58 z M 35.38,51.21 a 0.33,0.33 0 1 0 0,-0.66 0.33,0.33 0 1 0 0,0.66 z m 8.38,-2.54 a 0.61,0.61 0 0 0 0,-1.21 0.61,0.61 0 1 0 0,1.21 z m 7.14,-0.06 a 0.6,0.6 0 0 0 0.6,-0.6 0.61,0.61 0 0 0 -0.6,-0.61 0.6,0.6 0 0 0 -0.6,0.61 0.6,0.6 0 0 0 0.6,0.57 z m 12.58,-0.66 a 0.61,0.61 0 0 0 0,-1.21 0.61,0.61 0 1 0 0,1.21 z M 33.24,47.46 a 0.6,0.6 0 0 0 0.6,-0.6 0.61,0.61 0 0 0 -1.21,0 0.6,0.6 0 0 0 0.61,0.57 z M 48.6,47.4 a 0.61,0.61 0 0 0 0.61,-0.6 0.62,0.62 0 0 0 -0.61,-0.61 0.61,0.61 0 0 0 -0.61,0.61 0.6,0.6 0 0 0 0.61,0.57 z M 36.47,46 a 0.33,0.33 0 1 0 0,-0.66 0.33,0.33 0 1 0 0,0.66 z m -8.71,-1 a 0.33,0.33 0 1 0 -0.34,-0.33 0.33,0.33 0 0 0 0.34,0.4 z m 22,-0.12 a 0.33,0.33 0 1 0 -0.34,-0.33 0.33,0.33 0 0 0 0.3,0.45 z m 9.7,-0.54 A 0.61,0.61 0 0 0 60,43.8 a 0.61,0.61 0 0 0 -1.21,0 0.61,0.61 0 0 0 0.63,0.61 z M 43.41,44.1 a 0.34,0.34 0 0 0 0,-0.67 0.34,0.34 0 1 0 0,0.67 z m 23.77,-0.55 a 0.33,0.33 0 0 0 0.33,-0.33 0.34,0.34 0 0 0 -0.67,0 0.33,0.33 0 0 0 0.3,0.4 z m -23,-0.12 a 0.61,0.61 0 0 0 0,-1.21 0.61,0.61 0 0 0 0,1.21 z m 9.68,-0.18 a 0.61,0.61 0 0 0 0,-1.21 0.61,0.61 0 1 0 0,1.21 z M 58,42.47 A 0.33,0.33 0 1 0 57.66,42.14 0.33,0.33 0 0 0 58,42.47 Z m 9,-0.18 a 0.61,0.61 0 1 0 -0.61,-0.6 0.6,0.6 0 0 0 0.61,0.6 z m -32,0 a 0.34,0.34 0 0 0 -0.07,-0.67 0.34,0.34 0 0 0 0,0.67 z m 27.81,-1 a 0.33,0.33 0 0 0 0.33,-0.34 0.34,0.34 0 0 0 -0.33,-0.34 0.34,0.34 0 0 0 -0.33,0.34 0.34,0.34 0 0 0 0.3,0.38 z M 38.59,40.68 a 0.61,0.61 0 0 0 0.6,-0.61 0.6,0.6 0 0 0 -0.6,-0.6 0.61,0.61 0 0 0 -0.61,0.6 0.62,0.62 0 0 0 0.58,0.65 z M 59,40.24 a 0.34,0.34 0 0 0 0,-0.67 0.34,0.34 0 1 0 0,0.67 z M 49,39.39 a 0.62,0.62 0 0 0 0.61,-0.61 v 0 a 0.41,0.41 0 0 0 0.16,0 0.33,0.33 0 0 0 0.33,-0.33 0.33,0.33 0 0 0 -0.65,-0.09 0.63,0.63 0 0 0 -0.44,-0.18 0.6,0.6 0 0 0 -0.6,0.6 0.61,0.61 0 0 0 0.6,0.61 z m 6.51,-0.73 a 0.33,0.33 0 0 0 0.33,-0.33 0.34,0.34 0 0 0 -0.67,0 0.34,0.34 0 0 0 0.42,0.33 z m 10.28,-0.12 a 0.33,0.33 0 0 0 0.33,-0.33 0.32,0.32 0 0 0 -0.33,-0.33 0.33,0.33 0 0 0 -0.33,0.33 0.33,0.33 0 0 0 0.41,0.33 z m -2.57,-0.06 a 0.61,0.61 0 1 0 -0.61,-0.6 0.6,0.6 0 0 0 0.69,0.6 z M 38,38.3 A 0.61,0.61 0 1 0 37.39,37.69 0.6,0.6 0 0 0 38,38.3 Z m 5.14,-0.66 a 0.61,0.61 0 0 0 0.6,-0.61 0.6,0.6 0 0 0 -0.6,-0.6 0.61,0.61 0 0 0 -0.57,0.39 0.33,0.33 0 0 0 0,0.51 0.59,0.59 0 0 0 0.59,0.31 z m 13.54,-0.55 a 0.61,0.61 0 1 0 -0.6,-0.61 0.61,0.61 0 0 0 0.62,0.61 z M 34.36,36.48 a 0.6,0.6 0 0 0 0.61,-0.6 0.61,0.61 0 1 0 -1.21,0 0.6,0.6 0 0 0 0.62,0.6 z m 10.2,-1.87 a 0.34,0.34 0 0 0 0,-0.67 0.34,0.34 0 1 0 0,0.67 z M 65,34.49 A 0.34,0.34 0 1 0 64.67,34.16 0.33,0.33 0 0 0 65,34.49 Z M 37.36,34.43 a 0.34,0.34 0 1 0 -0.34,-0.34 0.34,0.34 0 0 0 0.3,0.34 z M 60.72,33 A 0.33,0.33 0 1 0 60.39,32.67 0.34,0.34 0 0 0 60.72,33 Z M 62,32.55 A 0.61,0.61 0 1 0 61.39,31.94 0.6,0.6 0 0 0 62,32.55 Z M 40.25,31.82 a 0.33,0.33 0 0 0 0.34,-0.33 0.34,0.34 0 0 0 -0.67,0 0.33,0.33 0 0 0 0.36,0.33 z M 43,31.58 a 0.6,0.6 0 0 0 0.6,-0.6 0.61,0.61 0 1 0 -1.21,0 0.6,0.6 0 0 0 0.61,0.6 z m -5.21,-1 a 0.6,0.6 0 0 0 0.61,-0.6 0.6,0.6 0 0 0 -0.61,-0.6 0.61,0.61 0 0 0 -0.61,0.6 0.6,0.6 0 0 0 0.65,0.63 z m 17.45,-0.17 a 0.34,0.34 0 0 0 0.33,-0.34 0.33,0.33 0 0 0 -0.66,0 0.34,0.34 0 0 0 0.37,0.37 z m -7.83,-0.07 a 0.6,0.6 0 0 0 0.6,-0.6 0.6,0.6 0 0 0 -0.6,-0.6 0.59,0.59 0 0 0 -0.6,0.6 0.6,0.6 0 0 0 0.64,0.63 z m 10.43,-0.6 a 0.34,0.34 0 0 0 0,-0.67 0.34,0.34 0 0 0 0,0.67 z M 46.21,28.38 a 0.33,0.33 0 0 0 0.33,-0.33 0.33,0.33 0 0 0 -0.66,0 0.33,0.33 0 0 0 0.33,0.33 z m -13,-0.18 a 0.61,0.61 0 0 0 0.61,-0.61 0.61,0.61 0 0 0 -1.21,0 0.61,0.61 0 0 0 0.62,0.61 z M 56,26.75 a 0.34,0.34 0 0 0 0,-0.67 0.34,0.34 0 0 0 0,0.67 z m 2.15,-0.43 a 0.61,0.61 0 1 0 -0.61,-0.6 0.6,0.6 0 0 0 0.62,0.6 z M 32.4,25.41 a 0.33,0.33 0 1 0 -0.33,-0.33 0.34,0.34 0 0 0 0.34,0.33 z m 25.77,-1.26 a 0.34,0.34 0 1 0 0,-0.67 0.34,0.34 0 0 0 0,0.67 z M 41.54,23.23 a 0.33,0.33 0 0 0 0.33,-0.33 0.33,0.33 0 0 0 -0.66,0 0.33,0.33 0 0 0 0.34,0.33 z M 33,21.6 A 0.33,0.33 0 0 0 33.33,21.27 0.32,0.32 0 0 0 33,20.94 0.33,0.33 0 0 0 32.67,21.27 0.33,0.33 0 0 0 33,21.6 Z m 1.69,-1.21 a 0.33,0.33 0 0 0 0,-0.66 0.33,0.33 0 0 0 0,0.66 z"
       style="fill:url(#radial-gradient-3)" />
    <g
       id="use4211">
      <path
         id="path4339"
         class="cls-10"
         d="m 59.25,58.36 a 17,17 0 1 1 -17,-17 17,17 0 0 1 17,17 z"
         style="fill:url(#radial-gradient-4)" />
      <g
         id="g4341">
        <path
           id="path4343"
           class="cls-11"
           d="m 32,55.15 c -1.3,-3.27 -0.38,-7.41 2.27,-8.8 2.65,-1.39 5.93,0.11 7.33,3.35 A 9.3,9.3 0 0 1 42.31,52.65 9,9 0 0 1 43,49.7 c 1.4,-3.24 4.68,-4.74 7.34,-3.35 2.66,1.39 3.38,5.47 2.26,8.8 C 50.67,60.9 44.86,64.24 42.29,70.88 40.14,64.27 34.22,60.81 32,55.15 Z"
           style="fill:url(#linear-gradient-5)" />
      </g>
    </g>
  </g>
  <metadata
     id="metadata1">
    <rdf:RDF>
      <cc:Work
         rdf:about="">
        <dc:title>Ace of Hearts</dc:title>
      </cc:Work>
    </rdf:RDF>
  </metadata>
</svg>
