<?xml version="1.0" encoding="UTF-8" standalone="no"?>
<svg
   id="svg2"
   viewBox="0 0 84 119"
   version="1.1"
   sodipodi:docname="JH.svg"
   inkscape:version="1.3.2 (091e20e, 2023-11-25, custom)"
   xmlns:inkscape="http://www.inkscape.org/namespaces/inkscape"
   xmlns:sodipodi="http://sodipodi.sourceforge.net/DTD/sodipodi-0.dtd"
   xmlns:xlink="http://www.w3.org/1999/xlink"
   xmlns="http://www.w3.org/2000/svg"
   xmlns:svg="http://www.w3.org/2000/svg">
  <sodipodi:namedview
     id="namedview6"
     pagecolor="#ffffff"
     bordercolor="#000000"
     borderopacity="0.25"
     inkscape:showpageshadow="2"
     inkscape:pageopacity="0.0"
     inkscape:pagecheckerboard="0"
     inkscape:deskcolor="#d1d1d1"
     inkscape:zoom="15.285714"
     inkscape:cx="41.96729"
     inkscape:cy="59.5"
     inkscape:window-width="3840"
     inkscape:window-height="2054"
     inkscape:window-x="-11"
     inkscape:window-y="-11"
     inkscape:window-maximized="1"
     inkscape:current-layer="svg2" />
  <defs
     id="defs6">
    <style
       id="style1">
      .cls-1 {
        filter: url(#filter63625-2-4);
      }

      .cls-2 {
        stroke: #000;
        fill: url(#linear-gradient);
      }

      .cls-2, .cls-6 {
        stroke-miterlimit: 10;
        stroke-width: 0.23px;
      }

      .cls-3 {
        fill: url(#linear-gradient-2);
      }

      .cls-4 {
        opacity: 0.47;
        fill: url(#radial-gradient);
      }

      .cls-4, .cls-5, .cls-7 {
        isolation: isolate;
      }

      .cls-5 {
        opacity: 0.4;
        fill: url(#radial-gradient-2);
      }

      .cls-6 {
        fill: none;
      }

      .cls-12, .cls-6 {
        stroke: #fff;
      }

      .cls-7 {
        opacity: 0.45;
        fill: url(#radial-gradient-3);
      }

      .cls-10, .cls-11, .cls-8 {
        stroke: #c8c8c8;
      }

      .cls-11, .cls-8 {
        stroke-linejoin: round;
        stroke-width: 1px;
      }

      .cls-8 {
        fill: url(#linear-gradient-3);
      }

      .cls-9 {
        fill: url(#radial-gradient-4);
      }

      .cls-10 {
        stroke-width: 0.38px;
        fill-rule: evenodd;
        fill: url(#linear-gradient-4);
      }

      .cls-11 {
        fill: url(#linear-gradient-5);
      }

      .cls-12 {
        stroke-width: 0.49px;
        fill: url(#linear-gradient-6);
      }
    </style>
    <filter
       id="filter63625-2-4"
       name="filter63625-2-4"
       x="-0.12863863"
       y="-0.090976911"
       width="1.2572773"
       height="1.1819538">
      <feGaussianBlur
         result="feGaussianBlur63627-6-6"
         stdDeviation="3.76"
         id="feGaussianBlur1" />
    </filter>
    <linearGradient
       id="linear-gradient"
       x1="-1207.34"
       y1="-1879.22"
       x2="-1197.85"
       y2="-1364.71"
       gradientTransform="matrix(0.23, 0, 0, -0.23, 315.77, -390.34)"
       gradientUnits="userSpaceOnUse">
      <stop
         offset="0"
         stop-color="#f3f3f3"
         id="stop1" />
      <stop
         offset="1"
         stop-color="#8f8f8f"
         id="stop2" />
    </linearGradient>
    <linearGradient
       id="linear-gradient-2"
       x1="-1678.66"
       y1="-1660.78"
       x2="-1546.37"
       y2="-2098.5"
       gradientTransform="matrix(0.24, 0, 0, -0.24, 429.74, -376.12)"
       gradientUnits="userSpaceOnUse">
      <stop
         offset="0"
         stop-color="#590000"
         id="stop3" />
      <stop
         offset="1"
         stop-color="#bf0303"
         id="stop4" />
    </linearGradient>
    <radialGradient
       id="radial-gradient"
       cx="408.61"
       cy="6255.03"
       r="58.68"
       gradientTransform="matrix(-0.23, 0, 0, 0.21, 108.2, -1194.09)"
       gradientUnits="userSpaceOnUse">
      <stop
         offset="0"
         stop-color="#fff"
         id="stop5" />
      <stop
         offset="1"
         stop-color="#fff"
         stop-opacity="0"
         id="stop6" />
    </radialGradient>
    <radialGradient
       id="radial-gradient-2"
       cx="-1241.13"
       cy="-935.3"
       r="63.15"
       gradientTransform="matrix(0.23, 0, 0, -0.36, 348.58, -314.29)"
       xlink:href="#radial-gradient" />
    <radialGradient
       id="radial-gradient-3"
       cx="-364"
       cy="987.48"
       r="26.74"
       gradientTransform="matrix(0.84, 0, 0, -1.48, 346.92, 1522.85)"
       xlink:href="#radial-gradient" />
    <linearGradient
       id="linear-gradient-3"
       x1="-5238.03"
       y1="-11611.81"
       x2="-5238.03"
       y2="-11548.69"
       gradientTransform="matrix(0.05, 0, 0, -0.06, 296.05, -579.76)"
       xlink:href="#linear-gradient" />
    <radialGradient
       id="radial-gradient-4"
       cx="-112.17"
       cy="1517.7"
       r="25.37"
       gradientTransform="matrix(0.83, 0.56, 2.15, -3.16, -3144.38, 4946.68)"
       xlink:href="#radial-gradient" />
    <linearGradient
       id="linear-gradient-4"
       x1="-1726.88"
       y1="-3632.55"
       x2="-1726.88"
       y2="-3403.82"
       gradientTransform="matrix(0.17, 0, 0, -0.17, 327.19, -522.5)"
       xlink:href="#linear-gradient" />
    <linearGradient
       id="linear-gradient-5"
       x1="-3009.62"
       y1="-4960.86"
       x2="-3009.62"
       y2="-4897.77"
       gradientTransform="matrix(0.11, 0, 0, -0.12, 354.53, -573.24)"
       xlink:href="#linear-gradient" />
    <linearGradient
       id="linear-gradient-6"
       x1="-149.72"
       y1="1069.21"
       x2="-149.78"
       y2="1073.09"
       gradientTransform="matrix(1, 0, 0, -1, 215.44, 1090.85)"
       xlink:href="#linear-gradient" />
  </defs>
  <title
     id="title6">Jack of Hearts</title>
  <g
     id="jack_heart"
     data-name="jack heart">
    <g
       id="use72909">
      <g
         id="g70507">
        <rect
           id="rect70511"
           class="cls-2"
           x="7.15"
           y="9.42"
           width="70.15"
           height="99.19"
           rx="3.88"
           ry="3.88" />
        <rect
           id="rect6073"
           class="cls-3"
           x="10.61"
           y="12.88"
           width="63.24"
           height="92.26"
           rx="1.29"
           ry="1.29" />
        <rect
           id="rect70515"
           class="cls-4"
           x="10.61"
           y="80.86"
           width="26.55"
           height="24.28"
           rx="0.98"
           ry="0.98" />
        <rect
           id="rect70517"
           class="cls-5"
           x="45.27"
           y="12.88"
           width="28.57"
           height="45.27"
           rx="1.04"
           ry="1.04" />
        <path
           id="path70519"
           class="cls-6"
           d="M25.57,101.12H70.29V27.51M58.72,16.91H14.16V90.09" />
        <path
           id="path70521"
           class="cls-7"
           d="M64.6,59c0,21.89-10,39.64-22.38,39.64S19.84,80.9,19.84,59s10-39.64,22.38-39.64S64.6,37.12,64.6,59Z" />
      </g>
    </g>
    <g
       id="use74150">
      <g
         id="g74112">
        <path
           id="path74114"
           class="cls-8"
           d="M15.06,96.33a2,2,0,0,1,.62-2.44,1.51,1.51,0,0,1,2,.93,2.47,2.47,0,0,1,.2.81,2.47,2.47,0,0,1,.2-.81,1.51,1.51,0,0,1,2-.93,2,2,0,0,1,.63,2.44c-.53,1.6-2.15,2.52-2.86,4.37-.59-1.84-2.24-2.8-2.86-4.37Z" />
      </g>
    </g>
    <path
       id="path7062"
       class="cls-9"
       d="M23.36,97.88c.53-.9-1.57-4.1-1.84-5.3a1.7,1.7,0,0,1-.06-.31,4.55,4.55,0,0,1,0-.52,4.64,4.64,0,0,1,.13-.91.33.33,0,0,0,.16-.6l.21-.69a9.11,9.11,0,0,1,.6-1.44c.32-.61.71-1.18,1.09-1.76l.37-.53h.11a.6.6,0,0,0,.61-.6.5.5,0,0,0-.06-.24c.15-.18.3-.37.45-.54a29.36,29.36,0,0,1,2.14-2c.81-.75,1.67-1.43,2.53-2.1,1-.8,2.12-1.51,3.21-2.22s2.08-1.31,3.13-2l.15,0a.61.61,0,0,0,0-1.21.61.61,0,0,0-.61.6.6.6,0,0,0,.44.58l-.3.17c-1.28.77-2.55,1.55-3.81,2.36-1.09.71-2.19,1.42-3.22,2.23-.87.67-1.72,1.36-2.53,2.1-.62.56-1.24,1.12-1.83,1.72a.58.58,0,0,0-.3-.08.61.61,0,0,0-.61.6.62.62,0,0,0,.12.36c-.36.44-.7.89-1,1.36A19.74,19.74,0,0,0,21.5,88.7l-.15.31c0-.61.11-1.22.19-1.83a16.57,16.57,0,0,1,.52-2.52,15.31,15.31,0,0,1,.83-2.2,13,13,0,0,0,.87-1.63c0-.12.09-.25.14-.37l0-.09c.44-.79.89-1.56,1.34-2.33l.09-.14.51-.7c.5-.64,1-1.25,1.54-1.87.68-.78,1.4-1.52,2.12-2.25s1.68-1.62,2.54-2.41,1.87-1.65,2.8-2.49l3-2.63c1.12-1,2.21-2,3.28-3l1.7-1.65a10.71,10.71,0,0,0,1.68-1.33c1.11-.94,2.23-1.86,3.39-2.74a15.89,15.89,0,0,1,2.27-1.56l.5-.22a.57.57,0,0,0,0,.18.61.61,0,0,0,.6.61.6.6,0,0,0,.6-.61.58.58,0,0,0-.14-.39c2.23-.16,2.69-.49.27-.33a1.82,1.82,0,0,0-.57.13h-.16a.59.59,0,0,0-.53.33,21.16,21.16,0,0,0-3.41,2.21C46.15,58,45,59,43.94,59.9c-.46.39-.76.66-.94.83L44.72,59c1.25-1.26,2.43-2.58,3.58-3.93.71-.85,1.39-1.73,2.06-2.61a.62.62,0,0,0,.47.22.6.6,0,0,0,.6-.61.6.6,0,0,0-.36-.55c.3-.41.6-.81.89-1.22a56.29,56.29,0,0,0,3.46-5.45,35.88,35.88,0,0,0,2.78-6.24,54,54,0,0,0,1.13-5.8c.37-2.33-.21-2-.58.34a53.82,53.82,0,0,1-1.13,5.79,35.92,35.92,0,0,1-2.79,6.24c-.08.15-.18.29-.26.44a.33.33,0,1,0-.33.41l.12,0a52.87,52.87,0,0,1-3,4.63l-.6.84a.6.6,0,0,0-.55.59.5.5,0,0,0,0,.12c-.82,1.1-1.65,2.17-2.53,3.22-1.15,1.35-2.33,2.67-3.58,3.93s-2.36,2.39-3.58,3.54-2.17,2-3.3,3-2,1.75-3,2.64S32.4,70.19,31.46,71s-1.6,1.46-2.36,2.23a.35.35,0,0,0-.16-.2c.3-.31.6-.61.91-.91,1-.94,2-1.85,3-2.8,1.18-1.11,2.33-2.25,3.47-3.4A39.09,39.09,0,0,0,40,61.74a46.23,46.23,0,0,0,3.28-5.4,36,36,0,0,0,2.66-6.11,41.51,41.51,0,0,0,1.36-7,54.93,54.93,0,0,0,.08-6,.61.61,0,0,0,.2-.45.6.6,0,0,0-.24-.48c0-.25,0-.49,0-.74,0-.42,0-.83,0-1.25-.09-2.35-.66-2-.57.33,0,.42,0,.83,0,1.25,0,.11,0,.22,0,.33a.59.59,0,0,0-.39.56.6.6,0,0,0,.43.57c0,1,0,2.07,0,3.11A.6.6,0,0,0,46,41a.61.61,0,0,0,.6.61.78.78,0,0,0,.22,0c0,.66-.05,1.34-.1,2-.19,1.51-.42,3-.74,4.51,0-.71,0-1.42,0-2.13a49.81,49.81,0,0,0-.37-5,28,28,0,0,0-.68-3.4,12,12,0,0,0-.57-1.66,1.38,1.38,0,0,0-.27-.45c-1.9-1.71-2.54-1.32-.62.37a1.73,1.73,0,0,1,.27.43,9.86,9.86,0,0,1,.57,1.66,27.92,27.92,0,0,1,.7,3.39c.22,1.68.33,3.36.39,5,0,.93,0,1.87,0,2.81a7.87,7.87,0,0,0,0,1.22,1.55,1.55,0,0,0-.07.23C45,51.71,44.52,52.84,44,54a.61.61,0,0,0-.53-.3.6.6,0,0,0-.6.6.61.61,0,0,0,.6.61l.12,0c-.29.62-.6,1.23-.94,1.83a45.09,45.09,0,0,1-3.29,5.41,39.09,39.09,0,0,1-3.62,4.2c-1.14,1.15-2.29,2.3-3.48,3.41-1,.94-2,1.86-3.05,2.8l-.51.52a.33.33,0,0,0-.28.28,19.78,19.78,0,0,0-1.76,2c-.67.94-1.33,1.89-1.91,2.89-.22.3-.42.6-.61.92a10,10,0,0,0-.58,1,6.43,6.43,0,0,0-.32.71v0c-.16.3-.33.61-.48.92s-.4.84-.58,1.26a1.55,1.55,0,0,1,0-.21,18.09,18.09,0,0,1,.5-1.74c.24-.68.52-1.34.81-2l1.06-2.43c.49-1.1,1-2.17,1.57-3.23.69-1.31,1.3-2.66,1.88-4,.69-1.66,1.37-3.32,2.06-5s1.41-3.43,2.07-5.16a.33.33,0,0,0,.25-.32.32.32,0,0,0-.06-.2c.65-1.82,1.24-3.66,1.8-5.51.65-2.15,1.21-4.32,1.65-6.52A42.61,42.61,0,0,0,36.34,39c-.08-2.63-.38-5.25-.7-7.87-.2-1.57-.44-3.14-.68-4.71A5.23,5.23,0,0,0,34.6,25a.65.65,0,0,0,.19,0,.61.61,0,0,0,.61-.61.61.61,0,0,0-1.21,0,.59.59,0,0,0,.17.42,3.7,3.7,0,0,0,0,1.88c.11.69.21,1.39.32,2.08a.38.38,0,0,0-.24-.08.33.33,0,0,0,0,.66.34.34,0,0,0,.3-.18q.16,1.11.3,2.22c0,.19,0,.38.07.57a.6.6,0,1,0-.27,1.14.61.61,0,0,0,.39-.15c.25,2.1.46,4.2.53,6.31a42.8,42.8,0,0,1-.53,7.75c-.44,2.2-1,4.37-1.65,6.52-.52,1.7-1.06,3.4-1.66,5.08a.31.31,0,0,0-.16.29.25.25,0,0,0,0,.12c-.05.11-.09.23-.13.34q-1,2.7-2.14,5.36-1,2.47-2.07,5c-.58,1.35-1.19,2.7-1.88,4C25,74.81,24.49,75.88,24,77c-.36.81-.72,1.63-1.07,2.44s-.58,1.33-.82,2-.37,1.14-.5,1.74-.21,1-.3,1.49c-.05.22-.08.43-.14.65-.25,1.06-.28,1.6-.18,1.68s-.05.36-.07.55a18.73,18.73,0,0,0-.2,2.13c0,.33,0,.66,0,1s-.15.49-.21.74l-.06.3h-3c2,.58,3.56.41,5.87,6.18Zm.58-4.67a.34.34,0,0,0,0-.67.34.34,0,0,0,0,.67Zm-4.63-1.69a.61.61,0,0,0,.61-.61.61.61,0,1,0-.61.61Zm3.27-.73a.62.62,0,0,0,.61-.61.61.61,0,0,0-.61-.6.6.6,0,0,0-.6.6A.6.6,0,0,0,22.58,90.79Zm-4.27-1.7a.34.34,0,0,0,.34-.33.34.34,0,0,0-.67,0A.33.33,0,0,0,18.31,89.09Zm1.52-.54a.34.34,0,1,0-.34-.34A.34.34,0,0,0,19.83,88.55Zm5.71-.72a.62.62,0,0,0,.61-.61.6.6,0,0,0-.61-.6.6.6,0,0,0-.6.6A.61.61,0,0,0,25.54,87.83Zm1.42-1a.33.33,0,1,0-.33-.33A.33.33,0,0,0,27,86.79Zm-8.31-.66a.61.61,0,1,0-.61-.6A.6.6,0,0,0,18.65,86.13ZM20,84.38a.61.61,0,0,0,.6-.61.6.6,0,0,0-.6-.6.6.6,0,0,0-.61.6A.62.62,0,0,0,20,84.38Zm7.83-.25a.33.33,0,0,0,.34-.33.34.34,0,0,0-.67,0A.33.33,0,0,0,27.87,84.13Zm4.39-.54a.61.61,0,1,0-.61-.61A.6.6,0,0,0,32.26,83.59Zm-6.47-.73a.6.6,0,0,0,.6-.6.61.61,0,1,0-1.21,0A.6.6,0,0,0,25.79,82.86Zm2.37-.15s.71-.46,1.82-1.28c.48-.35.94-.71,1.44-1a22.34,22.34,0,0,1,2.21-1.17l.46-.21a.63.63,0,0,0-.14.38.61.61,0,1,0,1.21,0,.59.59,0,0,0-.57-.59c.53-.23,1.06-.47,1.6-.67s1.21-.49,1.81-.72l.78-.29c2.39-.92,3-1.28.62-.37l-.78.3-1.82.72c-.87.34-1.72.72-2.56,1.1a32.55,32.55,0,0,0-3.43,1.87c-.5.3-1,.67-1.44,1a13.37,13.37,0,0,0-1.21.93Zm-8.42-.63a.61.61,0,0,0,.6-.61.61.61,0,0,0-1.21,0A.61.61,0,0,0,19.74,82.08ZM33,81.41a.33.33,0,1,0-.33-.33A.33.33,0,0,0,33,81.41Zm-11-.85a.6.6,0,0,0,.6-.6.61.61,0,0,0-1.21,0A.6.6,0,0,0,22,80.56Zm3.26-.18a.6.6,0,0,0,.6-.6.6.6,0,0,0-.6-.61.62.62,0,0,0-.61.61A.61.61,0,0,0,25.24,80.38ZM17,79.9a.33.33,0,0,0,.33-.33.32.32,0,0,0-.33-.33.33.33,0,0,0-.33.33A.33.33,0,0,0,17,79.9Zm21.11-1.15a.34.34,0,0,0,0-.67.34.34,0,0,0,0,.67Zm-7.22-.06a.61.61,0,1,0-.61-.61A.6.6,0,0,0,30.93,78.69Zm10.67-.54a.34.34,0,1,0,0-.67h0a.6.6,0,0,0-.42-1,.61.61,0,1,0,0,1.21l.17,0a.33.33,0,0,0,.28.51Zm2.09-1.4a.61.61,0,1,0-.61-.6A.6.6,0,0,0,43.69,76.75Zm-20.62,0a.61.61,0,1,0-.61-.6A.6.6,0,0,0,23.07,76.75Zm4.77-.06a.61.61,0,1,0,0-1.21.61.61,0,0,0,0,1.21Zm17.39-.06a.33.33,0,1,0-.33-.33A.33.33,0,0,0,45.23,76.63Zm-13-.42a.34.34,0,0,0,0-.67.34.34,0,0,0,0,.67Zm-5.54-.4.6-.85a16.79,16.79,0,0,1,1.2-1.45.41.41,0,0,0,.21.15c-.65.66-1.3,1.32-1.9,2l-.11.12Zm11.5-.91,2-1.1,1.5-.82.16,0a.6.6,0,0,0,.58-.45l2.08-1.18L42.4,72.53a.51.51,0,0,0,0-.13.61.61,0,1,0-.8.57l-.48.26L38.2,74.9ZM46,74.82a.34.34,0,0,0,0-.67.34.34,0,0,0,0,.67Zm-23.14-.91a.61.61,0,0,0,.61-.61.58.58,0,0,0,0-.18h.06a.34.34,0,0,0,.34-.34.34.34,0,0,0-.67,0,.61.61,0,0,0-.3-.08.61.61,0,0,0,0,1.21Zm-2-.06a.34.34,0,0,0,0-.67.34.34,0,0,0,0,.67Zm4.21-2.3a.6.6,0,0,0,.6-.6.61.61,0,0,0-.6-.61.62.62,0,0,0-.61.61A.61.61,0,0,0,25.06,71.55Zm25.56-.12A.33.33,0,0,0,51,71.1a.34.34,0,0,0-.67,0A.34.34,0,0,0,50.62,71.43Zm-5.91-.21.91-.52A45.33,45.33,0,0,0,50,67.77c.7-.54,1.38-1.11,2.05-1.7a.6.6,0,0,0,1.16-.2.62.62,0,0,0-.34-.56c.48-.45.94-.9,1.4-1.37s.67-.69,1-1l.05,0c1-.88,1.95-1.75,2.9-2.65l0-.05a.61.61,0,0,0,1.21-.09.61.61,0,0,0-.54-.6,13.4,13.4,0,0,0,1.51-1.85c.57-.84,1.13-1.69,1.68-2.54s1.08-1.71,1.61-2.57c.3-.51.6-1,.89-1.52,0,0,0,.08,0,.12a.6.6,0,0,0,.6.61.61.61,0,1,0,0-1.21.63.63,0,0,0-.42.17c.08-.15.17-.29.24-.44a10.83,10.83,0,0,0,.63-1.44,5.37,5.37,0,0,1,.21-.56c.14-.27.25-.51.34-.7a.61.61,0,0,0,.51-.6.62.62,0,0,0-.36-.56.31.31,0,0,0,.24-.31.33.33,0,1,0-.66,0,.33.33,0,0,0,.15.27.61.61,0,0,0-.24,1.15c-.18.29-.37.65-.6,1.11a5.42,5.42,0,0,0-.22.56,10.59,10.59,0,0,1-.61,1.43c-.4.78-.85,1.52-1.3,2.27S62,54.57,61.46,55.42s-1.11,1.7-1.68,2.54a11,11,0,0,1-1.24,1.56.59.59,0,0,0-.29.33l-.68.69c-.55.52-1.1,1-1.66,1.53.78-1,1.5-2,2.19-3A24.58,24.58,0,0,0,61,53.35c0-.1.07-.21.1-.31a.62.62,0,0,0,.6.49.61.61,0,0,0,0-1.22.63.63,0,0,0-.41.16,27.8,27.8,0,0,0,1-6,27.45,27.45,0,0,0-.24-6.21c-.5-3.85-1.45-3.31-1,.54a28.16,28.16,0,0,1,.24,6.22,26.15,26.15,0,0,1-1.28,6.85,25.17,25.17,0,0,1-2.92,5.76,38.24,38.24,0,0,1-3.43,4.38c-.72.63-1.44,1.27-2.17,1.89-.52.47-1.08.89-1.62,1.33-1.91,1.52-1.31,1.17.6-.35.49-.4,1-.78,1.48-1.2a.08.08,0,0,0,0,0,36.9,36.9,0,0,1-3,2.58,40.92,40.92,0,0,1-4.27,2.88Zm-3.35-.15a.34.34,0,0,0,0-.67.34.34,0,0,0,0,.67Zm6-.25a.36.36,0,1,0-.06,0S47.39,70.83,47.41,70.82ZM34,70.64a.61.61,0,0,0,.61-.6.6.6,0,0,0-.61-.6.6.6,0,0,0-.6.6A.6.6,0,0,0,34,70.64Zm1.84-.18a.33.33,0,1,0-.33-.33A.34.34,0,0,0,35.85,70.46ZM44.63,69a.34.34,0,1,0-.33-.33A.33.33,0,0,0,44.63,69Zm3-.18a.61.61,0,1,0,0-1.21.61.61,0,0,0,0,1.21Zm-21.35-.25a.6.6,0,0,0,.61-.6.62.62,0,0,0-.61-.61.61.61,0,0,0-.61.61A.6.6,0,0,0,26.27,68.52Zm28.64-.6a.33.33,0,0,0,0-.66.33.33,0,0,0,0,.66ZM33.59,67.8a.61.61,0,1,0-.61-.61A.6.6,0,0,0,33.59,67.8Zm-9.05-1a.34.34,0,0,0,.34-.33.34.34,0,0,0-.67,0A.33.33,0,0,0,24.54,66.77ZM49,66.71a.61.61,0,1,0,0-1.21.61.61,0,0,0,0,1.21Zm-21.71-.6a.6.6,0,0,0,.6-.61.61.61,0,0,0-.26-.5.51.51,0,0,0,0-.13.34.34,0,0,0-.67,0,.3.3,0,0,0,0,.1.61.61,0,0,0,.29,1.14Zm13.06-.55a.6.6,0,0,0,.6-.6.6.6,0,0,0-.6-.61.62.62,0,0,0-.61.61A.61.61,0,0,0,40.3,65.56Zm-11.17-.25c.14,0,.42-.69.65-1.94s.47-2.54.61-3.82a36,36,0,0,0,.21-4.76,28.24,28.24,0,0,0-.34-3.55,23.89,23.89,0,0,0-.44-2.36,7.2,7.2,0,0,0-.28-.9c-1.05-2.33-1.71-1.95-.63.36a5.78,5.78,0,0,1,.29.89c.2.78.33,1.58.46,2.37A29.87,29.87,0,0,1,30,55.14a34.25,34.25,0,0,1-.2,4.75c-.13,1.28-.37,2.55-.6,3.82-.21,1.1-.19,1.61-.07,1.6Zm12.93,0a.33.33,0,0,0,.33-.33.34.34,0,0,0-.67,0A.34.34,0,0,0,42.06,65.29Zm-9.92-.24a.33.33,0,0,0,.33-.33.33.33,0,0,0-.33-.33.32.32,0,0,0-.33.33A.33.33,0,0,0,32.14,65.05Zm4-1.09a.61.61,0,1,0-.6-.61A.6.6,0,0,0,36.1,64ZM53,63.47a.6.6,0,0,0,.6-.6.61.61,0,0,0-.6-.61.62.62,0,0,0-.61.61A.6.6,0,0,0,53,63.47Zm6.8-1.39a.33.33,0,0,0,.33-.33.33.33,0,0,0-.66,0A.33.33,0,0,0,59.78,62.08ZM48.26,59.24a.61.61,0,1,0,0-1.21.61.61,0,0,0,0,1.21Zm6.44-1a.34.34,0,0,0,.34-.33.34.34,0,0,0-.34-.33.32.32,0,0,0-.33.33A.33.33,0,0,0,54.7,58.27Zm-29.43-.42a.61.61,0,1,0-.6-.61A.61.61,0,0,0,25.27,57.85Zm15.31-.24a.61.61,0,0,0,0-1.21.61.61,0,1,0,0,1.21Zm23.32-.73a.33.33,0,0,0,.33-.33.34.34,0,0,0-.67,0A.33.33,0,0,0,63.9,56.88Zm-.76-.48a.61.61,0,1,0-.61-.6A.61.61,0,0,0,63.14,56.4Zm-18.81-.18a.6.6,0,0,0,.6-.61.61.61,0,1,0-.6.61Zm-10-.67a.61.61,0,1,0-.6-.6A.6.6,0,0,0,34.34,55.55ZM28,53a.34.34,0,0,0,.33-.34.32.32,0,0,0-.33-.33.33.33,0,0,0-.33.33A.34.34,0,0,0,28,53Zm3.48-.13a.61.61,0,0,0,.61-.6.62.62,0,0,0-.61-.61.61.61,0,0,0-.6.61A.6.6,0,0,0,31.49,52.83Zm26.68-.18a.61.61,0,1,0-.6-.6A.6.6,0,0,0,58.17,52.65Zm-23-.6a.34.34,0,1,0-.34-.34A.34.34,0,0,0,35.22,52.05Zm8.37-2.54a.6.6,0,0,0,.6-.61.6.6,0,0,0-.6-.6.6.6,0,0,0-.6.6A.61.61,0,0,0,43.59,49.51Zm7.14-.07a.6.6,0,0,0,.61-.6.62.62,0,0,0-.61-.61.6.6,0,0,0-.6.61A.59.59,0,0,0,50.73,49.44Zm12.58-.66a.61.61,0,0,0,0-1.21.61.61,0,1,0,0,1.21ZM33.07,48.3a.61.61,0,0,0,.6-.61.61.61,0,0,0-1.21,0A.61.61,0,0,0,33.07,48.3Zm15.36-.07a.6.6,0,0,0,.61-.6.61.61,0,0,0-1.22,0A.6.6,0,0,0,48.43,48.23ZM36.3,46.91a.34.34,0,1,0,0-.67.34.34,0,0,0,0,.67Zm-8.71-1a.34.34,0,1,0,0-.67.34.34,0,0,0,0,.67Zm22-.12a.34.34,0,0,0,0-.67.34.34,0,0,0,0,.67Zm9.7-.55a.61.61,0,1,0-.6-.61A.61.61,0,0,0,59.25,45.27ZM43.2,45a.33.33,0,1,0-.33-.33A.33.33,0,0,0,43.2,45ZM67,44.49a.34.34,0,0,0,0-.67.34.34,0,0,0,0,.67Zm-23-.12a.61.61,0,1,0-.61-.61A.61.61,0,0,0,44,44.37Zm9.67-.19a.61.61,0,1,0-.6-.6A.6.6,0,0,0,53.63,44.18Zm4.15-.84a.34.34,0,0,0,0-.67.34.34,0,0,0,0,.67Zm9-.19a.6.6,0,0,0,.6-.6.61.61,0,0,0-.6-.61.62.62,0,0,0-.61.61A.61.61,0,0,0,66.82,43.15Zm-32,0a.37.37,0,1,0-.07,0Zm27.84-1a.33.33,0,0,0,.33-.33.33.33,0,1,0-.66,0A.33.33,0,0,0,62.64,42.17Zm-24.22-.61a.61.61,0,1,0-.61-.6A.6.6,0,0,0,38.42,41.56Zm20.47-.48a.34.34,0,0,0,.34-.33.34.34,0,1,0-.67,0A.33.33,0,0,0,58.89,41.08Zm-10-.85a.61.61,0,0,0,.61-.6s0,0,0,0a.29.29,0,0,0,.16,0,.34.34,0,1,0-.32-.42.63.63,0,0,0-.44-.18.59.59,0,0,0-.6.6A.6.6,0,0,0,48.94,40.23Zm6.5-.72a.34.34,0,1,0,0-.67.34.34,0,0,0,0,.67Zm10.29-.12a.34.34,0,1,0-.33-.34A.34.34,0,0,0,65.73,39.39Zm-2.57-.07a.6.6,0,0,0,.6-.6.61.61,0,1,0-1.21,0A.6.6,0,0,0,63.16,39.32Zm-25.29-.17a.6.6,0,0,0,.6-.61.59.59,0,0,0-.6-.6.6.6,0,0,0-.6.6A.61.61,0,0,0,37.87,39.15ZM43,38.48a.61.61,0,1,0,0-1.21.6.6,0,0,0-.56.4.33.33,0,0,0-.1.23.33.33,0,0,0,.15.28A.58.58,0,0,0,43,38.48Zm13.55-.54a.62.62,0,0,0,.61-.61.6.6,0,0,0-.61-.6.6.6,0,0,0-.6.6A.61.61,0,0,0,56.56,37.94Zm-22.32-.61a.61.61,0,1,0,0-1.21.61.61,0,0,0,0,1.21Zm10.19-1.88a.33.33,0,0,0,.34-.33.34.34,0,0,0-.67,0A.33.33,0,0,0,44.43,35.45Zm20.39-.12a.33.33,0,0,0,.33-.33.33.33,0,0,0-.33-.33.33.33,0,0,0-.33.33A.32.32,0,0,0,64.82,35.33Zm-27.65-.06a.33.33,0,1,0-.33-.33A.34.34,0,0,0,37.17,35.27Zm23.41-1.39a.34.34,0,1,0-.33-.33A.34.34,0,0,0,60.58,33.88Zm1.3-.48a.61.61,0,0,0,.61-.61.61.61,0,0,0-1.21,0A.61.61,0,0,0,61.88,33.4Zm-21.74-.73a.34.34,0,0,0,0-.67.34.34,0,1,0,0,.67Zm2.75-.24a.61.61,0,0,0,0-1.21.61.61,0,1,0,0,1.21Zm-5.2-1a.61.61,0,0,0,.61-.6.61.61,0,0,0-1.22,0A.61.61,0,0,0,37.69,31.46Zm17.45-.18a.34.34,0,0,0,0-.67.34.34,0,0,0,0,.67Zm-7.84-.06a.61.61,0,1,0-.6-.61A.61.61,0,0,0,47.3,31.22Zm10.44-.61a.33.33,0,1,0-.33-.33A.33.33,0,0,0,57.74,30.61ZM46.07,29.23a.34.34,0,1,0-.34-.34A.34.34,0,0,0,46.07,29.23Zm-13-.19a.61.61,0,0,0,0-1.21.61.61,0,1,0,0,1.21Zm22.78-1.45a.33.33,0,1,0-.34-.33A.33.33,0,0,0,55.87,27.59ZM58,27.17a.61.61,0,0,0,.61-.61.61.61,0,0,0-1.21,0A.61.61,0,0,0,58,27.17Zm-25.74-.91a.34.34,0,1,0,0-.67.34.34,0,0,0,0,.67ZM58,25a.33.33,0,1,0-.33-.33A.34.34,0,0,0,58,25Zm-16.63-.91a.34.34,0,0,0,0-.67.34.34,0,1,0,0,.67Zm-8.53-1.63a.34.34,0,1,0-.33-.34A.34.34,0,0,0,32.88,22.45Zm1.69-1.21a.34.34,0,1,0-.33-.34A.34.34,0,0,0,34.57,21.24Z" />
    <g
       id="use81504">
      <path
         id="path72939"
         class="cls-10"
         d="M52.22,38.53a20.36,20.36,0,0,1,1.57,3.69A2,2,0,0,1,54,43.79,1.11,1.11,0,0,0,54,45.1c.4.62.51.59.75,1a6.54,6.54,0,0,0,.75,1.1,4.13,4.13,0,0,1,.88,1.2c.24.53.3.72.08,1s-.56.29-1.09.4a1.28,1.28,0,0,0-1.07.91,1.09,1.09,0,0,0,0,1c.14.35,0,.59-.13.65s-.59.13-.51.24.35.21.35.58-.19.38-.29.56-.4.62-.32.81A2.33,2.33,0,0,1,54.11,56a1.89,1.89,0,0,1-1,1.85,7.77,7.77,0,0,1-2.06.26,10.44,10.44,0,0,0-2.94.67,2.78,2.78,0,0,0-1.36,1.58,4.63,4.63,0,0,1-.91,1.73,5.79,5.79,0,0,0-1.47,1.79,7.92,7.92,0,0,0-1,3.1c0,1.26,0,1.29.21,1.53a4.9,4.9,0,0,0,.78,1.27c.75.61,1.17,1,1.06,2-.07.53-.34.91-.15,1.1a.78.78,0,0,1,.26.79c-.08,1.79,2,3.6,3,5,.27.53.95,1,.87,2.2l-.08,1.2a27.39,27.39,0,0,1,0,3.14c-.18,1.29-5.66-.77-10.46-4-6.44-4.38-11-13.64-10.32-15.08s.47-1.16.48-1.39c-.14-.4.37-.42.43-.72s-.05-.41.1-.48c.42-.13.5-.51.73-.84-.19-.37.09-.91.61-1.29a9.9,9.9,0,0,1-1-1.74c-.11-.49-.26-1.36-.26-1.36s-.11-1-.6-1.25-.12-.75-.12-.75,0-.49-.79-1-.42-1.1-.42-2.08S29.8,43.1,30.23,41s3-5.66,5.56-7.05,5.34-1.07,7.48-.86A18,18,0,0,1,50,34.76a7.93,7.93,0,0,1,3.42,3.31,8.27,8.27,0,0,1,1.18,4.28,5.15,5.15,0,0,0-2.38-3.82Z" />
    </g>
    <g
       id="use81686">
      <g
         id="g31534">
        <path
           id="path31538"
           class="cls-11"
           d="M16.65,24.28C15.9,22.4,16.42,20,18,19.21s3.43.06,4.24,1.93a5.27,5.27,0,0,1,.4,1.7,5.29,5.29,0,0,1,.41-1.7c.81-1.87,2.7-2.73,4.23-1.93s2,3.16,1.31,5.07c-1.11,3.32-4.46,5.25-5.95,9.08-1.22-3.81-4.64-5.81-5.94-9.08Z" />
      </g>
    </g>
    <path
       id="use4724"
       class="cls-12"
       d="M66.64,15.8c0-.81.12-.93,1-1v-.21H64.47v.21c.91.07,1,.19,1,1v5.14c0,.49-.14.73-.43.73s-.22-.09-.29-.37-.29-.56-.58-.56a.55.55,0,0,0-.54.55c0,.47.45.8,1.09.8,1.2,0,1.88-.8,1.88-2.19V15.8" />
  </g>
</svg>
