<?xml version="1.0" encoding="UTF-8" standalone="no"?>
<svg
   id="svg2"
   viewBox="0 0 84 119"
   version="1.1"
   sodipodi:docname="JS.svg"
   inkscape:version="1.3.2 (091e20e, 2023-11-25, custom)"
   xmlns:inkscape="http://www.inkscape.org/namespaces/inkscape"
   xmlns:sodipodi="http://sodipodi.sourceforge.net/DTD/sodipodi-0.dtd"
   xmlns:xlink="http://www.w3.org/1999/xlink"
   xmlns="http://www.w3.org/2000/svg"
   xmlns:svg="http://www.w3.org/2000/svg">
  <sodipodi:namedview
     id="namedview6"
     pagecolor="#ffffff"
     bordercolor="#000000"
     borderopacity="0.25"
     inkscape:showpageshadow="2"
     inkscape:pageopacity="0.0"
     inkscape:pagecheckerboard="0"
     inkscape:deskcolor="#d1d1d1"
     inkscape:zoom="15.285714"
     inkscape:cx="41.96729"
     inkscape:cy="59.5"
     inkscape:window-width="3840"
     inkscape:window-height="2054"
     inkscape:window-x="-11"
     inkscape:window-y="-11"
     inkscape:window-maximized="1"
     inkscape:current-layer="svg2" />
  <defs
     id="defs6">
    <style
       id="style1">
      .cls-1 {
        filter: url(#filter63625-2-3);
      }

      .cls-2 {
        stroke: #000;
        fill: url(#linear-gradient);
      }

      .cls-2, .cls-6 {
        stroke-miterlimit: 10;
        stroke-width: 0.23px;
      }

      .cls-3 {
        fill: url(#linear-gradient-2);
      }

      .cls-4 {
        opacity: 0.31;
        fill: url(#radial-gradient);
      }

      .cls-4, .cls-5, .cls-7 {
        isolation: isolate;
      }

      .cls-5 {
        opacity: 0.32;
        fill: url(#radial-gradient-2);
      }

      .cls-6 {
        fill: none;
      }

      .cls-11, .cls-6 {
        stroke: #fff;
      }

      .cls-7 {
        opacity: 0.32;
        fill: url(#radial-gradient-3);
      }

      .cls-10, .cls-12, .cls-8 {
        stroke: #c8c8c8;
      }

      .cls-12, .cls-8 {
        stroke-linejoin: round;
      }

      .cls-8 {
        stroke-width: 0.18px;
        fill: url(#linear-gradient-3);
      }

      .cls-9 {
        fill: url(#radial-gradient-4);
      }

      .cls-10 {
        stroke-width: 0.38px;
        fill-rule: evenodd;
        fill: url(#linear-gradient-4);
      }

      .cls-11 {
        stroke-width: 0.49px;
        fill: url(#linear-gradient-5);
      }

      .cls-12 {
        stroke-width: 0.37px;
        fill: url(#linear-gradient-6);
      }
    </style>
    <filter
       id="filter63625-2-3"
       name="filter63625-2-3"
       x="-0.12863863"
       y="-0.090976911"
       width="1.2572773"
       height="1.1819538">
      <feGaussianBlur
         result="feGaussianBlur63627-6-62"
         stdDeviation="3.76"
         id="feGaussianBlur1" />
    </filter>
    <linearGradient
       id="linear-gradient"
       x1="-1204.93"
       y1="-2167.44"
       x2="-1195.45"
       y2="-1652.93"
       gradientTransform="matrix(0.23, 0, 0, -0.23, 315.23, -455.54)"
       gradientUnits="userSpaceOnUse">
      <stop
         offset="0"
         stop-color="#f3f3f3"
         id="stop1" />
      <stop
         offset="1"
         stop-color="#8f8f8f"
         id="stop2" />
    </linearGradient>
    <linearGradient
       id="linear-gradient-2"
       x1="-1676.41"
       y1="-1942.43"
       x2="-1544.13"
       y2="-2380.15"
       gradientTransform="matrix(0.24, 0, 0, -0.24, 429.2, -442.75)"
       gradientUnits="userSpaceOnUse">
      <stop
         offset="0"
         id="stop3" />
      <stop
         offset="1"
         stop-color="#555753"
         id="stop4" />
    </linearGradient>
    <radialGradient
       id="radial-gradient"
       cx="404.79"
       cy="6279.74"
       r="58.68"
       gradientTransform="matrix(-0.23, 0, 0, 0.21, 107.34, -1199.21)"
       gradientUnits="userSpaceOnUse">
      <stop
         offset="0"
         stop-color="#fff"
         id="stop5" />
      <stop
         offset="1"
         stop-color="#fff"
         stop-opacity="0"
         id="stop6" />
    </radialGradient>
    <radialGradient
       id="radial-gradient-2"
       cx="-1238.72"
       cy="-1168.35"
       r="63.15"
       gradientTransform="matrix(0.23, 0, 0, -0.36, 348.04, -397.84)"
       xlink:href="#radial-gradient" />
    <radialGradient
       id="radial-gradient-3"
       cx="-363.87"
       cy="825.94"
       r="26.74"
       gradientTransform="matrix(0.84, 0, 0, -1.48, 346.81, 1283.38)"
       xlink:href="#radial-gradient" />
    <linearGradient
       id="linear-gradient-3"
       x1="-4489.5"
       y1="-12347.1"
       x2="-4489.5"
       y2="-12292.57"
       gradientTransform="matrix(0.06, 0, 0, -0.06, 292.85, -621.68)"
       xlink:href="#linear-gradient" />
    <radialGradient
       id="radial-gradient-4"
       cx="-93.3"
       cy="1371.76"
       r="25.37"
       gradientTransform="matrix(0.83, 0.56, 2.15, -3.16, -2846.46, 4474.4)"
       xlink:href="#radial-gradient" />
    <linearGradient
       id="linear-gradient-4"
       x1="-1723.32"
       y1="-3976.09"
       x2="-1723.32"
       y2="-3747.37"
       gradientTransform="matrix(0.17, 0, 0, -0.17, 326.59, -579.21)"
       xlink:href="#linear-gradient" />
    <linearGradient
       id="linear-gradient-5"
       x1="-883.48"
       y1="-2430.44"
       x2="-883.48"
       y2="-2383.71"
       gradientTransform="matrix(0.23, 0, 0, -0.23, 267.78, -525.4)"
       xlink:href="#linear-gradient" />
    <linearGradient
       id="linear-gradient-6"
       x1="-2571.42"
       y1="-5394.45"
       x2="-2571.42"
       y2="-5339.91"
       gradientTransform="matrix(0.13, 0, 0, -0.12, 350.65, -624.84)"
       xlink:href="#linear-gradient" />
  </defs>
  <title
     id="title6">Jack of Spades</title>
  <g
     id="jack_spade"
     data-name="jack spade">
    <g
       id="use72923">
      <g
         id="g70523">
        <rect
           id="rect70527"
           class="cls-2"
           x="7.15"
           y="9.42"
           width="70.15"
           height="99.19"
           rx="4.05"
           ry="4.05" />
        <rect
           id="rect6077"
           class="cls-3"
           x="10.61"
           y="12.88"
           width="63.24"
           height="92.26"
           rx="1.29"
           ry="1.29" />
        <rect
           id="rect70531"
           class="cls-4"
           x="10.61"
           y="80.86"
           width="26.55"
           height="24.28"
           rx="0.85"
           ry="0.85" />
        <rect
           id="rect70533"
           class="cls-5"
           x="45.27"
           y="12.88"
           width="28.57"
           height="45.27"
           rx="1.04"
           ry="1.04" />
        <path
           id="path70535"
           class="cls-6"
           d="M25.57,101.12H70.29V27.51M58.72,16.91H14.16V90.09" />
        <path
           id="path70537"
           class="cls-7"
           d="M64.6,59c0,21.89-10,39.64-22.38,39.64S19.83,80.9,19.83,59s10-39.64,22.39-39.64S64.6,37.12,64.6,59Z" />
      </g>
    </g>
    <g
       id="use74204">
      <path
         id="path74108"
         class="cls-8"
         d="M17.2,94.31c-.56,1.5-2.11,2.37-2.7,3.65a1.39,1.39,0,0,0,.59,1.9,1.5,1.5,0,0,0,1.81-.56v.2a2.66,2.66,0,0,1-.67,1.8h1.92a2.66,2.66,0,0,1-.71-1.84,2,2,0,0,1,0-.25,1.49,1.49,0,0,0,1.86.65A1.42,1.42,0,0,0,19.9,98c-.5-1.3-2-2.15-2.7-3.65Z" />
    </g>
    <path
       id="path7086"
       class="cls-9"
       d="M23.35,97.88c.53-.9-1.57-4.1-1.84-5.3a1.7,1.7,0,0,1-.06-.31,3,3,0,0,1,0-.52,4.63,4.63,0,0,1,.12-.91.32.32,0,0,0,.31-.33.32.32,0,0,0-.14-.27l.21-.69a9.11,9.11,0,0,1,.6-1.44c.32-.61.71-1.18,1.09-1.76l.37-.53h.11a.6.6,0,0,0,.61-.6.65.65,0,0,0-.06-.24c.15-.18.3-.37.45-.54a29.36,29.36,0,0,1,2.14-2c.81-.75,1.67-1.43,2.53-2.1,1-.8,2.12-1.51,3.21-2.22s2.08-1.31,3.13-2l.15,0a.61.61,0,0,0,0-1.21.61.61,0,0,0-.61.6.6.6,0,0,0,.44.58l-.3.17c-1.28.77-2.55,1.55-3.81,2.36-1.09.71-2.19,1.42-3.22,2.23-.87.67-1.72,1.36-2.53,2.1-.62.56-1.25,1.12-1.83,1.72a.61.61,0,0,0-.91.52.62.62,0,0,0,.12.36c-.36.44-.7.89-1,1.36a19.74,19.74,0,0,0-1.08,1.76l-.15.31c0-.61.11-1.22.19-1.83a16.57,16.57,0,0,1,.52-2.52,15.31,15.31,0,0,1,.83-2.2,13,13,0,0,0,.87-1.63c.05-.12.09-.25.14-.37l0-.09c.44-.79.89-1.56,1.34-2.33l.09-.14.51-.7c.49-.64,1-1.25,1.54-1.87.68-.78,1.4-1.52,2.12-2.25s1.68-1.62,2.54-2.41,1.87-1.65,2.8-2.49l3-2.63c1.12-1,2.21-2,3.28-3l1.7-1.65a10.71,10.71,0,0,0,1.68-1.33c1.11-.94,2.23-1.86,3.39-2.74a15.89,15.89,0,0,1,2.27-1.56l.5-.22a.58.58,0,0,0,0,.18.62.62,0,0,0,.61.61.6.6,0,0,0,.6-.61.58.58,0,0,0-.14-.39c2.23-.16,2.69-.49.27-.33a1.82,1.82,0,0,0-.57.13h-.16a.59.59,0,0,0-.53.33,21.16,21.16,0,0,0-3.41,2.21C46.14,58,45,59,43.93,59.9c-.46.39-.76.66-.94.83L44.71,59c1.25-1.26,2.43-2.58,3.58-3.93.71-.85,1.39-1.73,2.06-2.61a.62.62,0,0,0,.47.22.6.6,0,0,0,.6-.61.6.6,0,0,0-.36-.55c.3-.41.6-.81.89-1.22a56.29,56.29,0,0,0,3.46-5.45,36.64,36.64,0,0,0,2.78-6.24,54,54,0,0,0,1.13-5.8c.37-2.33-.21-2-.58.34a53.82,53.82,0,0,1-1.13,5.79,35.92,35.92,0,0,1-2.79,6.24c-.08.15-.18.29-.26.44a.33.33,0,1,0-.33.41l.12,0a52.87,52.87,0,0,1-3,4.63l-.6.84a.6.6,0,0,0-.55.59s0,.08,0,.12c-.81,1.1-1.64,2.17-2.52,3.22-1.15,1.35-2.33,2.67-3.58,3.93s-2.36,2.39-3.58,3.54-2.17,2-3.3,3-2,1.75-3,2.64S32.39,70.19,31.45,71s-1.6,1.46-2.36,2.23a.35.35,0,0,0-.16-.2l.9-.91c1-.94,2-1.85,3-2.8,1.19-1.11,2.34-2.25,3.48-3.4A39.09,39.09,0,0,0,40,61.74a46.23,46.23,0,0,0,3.28-5.4,36,36,0,0,0,2.66-6.11,41.51,41.51,0,0,0,1.36-7,57.54,57.54,0,0,0,.08-6,.61.61,0,0,0,.2-.45.6.6,0,0,0-.24-.48c0-.25,0-.49,0-.74,0-.42,0-.83,0-1.25-.09-2.35-.66-2-.57.33,0,.42,0,.83,0,1.25,0,.11,0,.22,0,.33a.59.59,0,0,0-.39.56.6.6,0,0,0,.43.57c0,1,0,2.07,0,3.11a.64.64,0,0,0-.24-.05.6.6,0,0,0-.6.6.61.61,0,0,0,.6.61.78.78,0,0,0,.22,0c0,.66,0,1.34-.1,2-.19,1.51-.42,3-.75,4.51,0-.71,0-1.42,0-2.13a49.81,49.81,0,0,0-.37-5,28,28,0,0,0-.68-3.4,12,12,0,0,0-.57-1.66,1.86,1.86,0,0,0-.27-.45c-1.9-1.71-2.54-1.32-.62.37a1.73,1.73,0,0,1,.27.43,12,12,0,0,1,.57,1.66,27.92,27.92,0,0,1,.7,3.39,50.24,50.24,0,0,1,.38,5c0,.93,0,1.87,0,2.81a7.87,7.87,0,0,0,0,1.22,1.55,1.55,0,0,0-.07.23c-.39,1.15-.82,2.28-1.31,3.39a.61.61,0,0,0-.53-.3.6.6,0,0,0-.6.6.61.61,0,0,0,.6.61l.12,0c-.29.62-.6,1.23-.94,1.83a45.09,45.09,0,0,1-3.29,5.41,39.09,39.09,0,0,1-3.62,4.2c-1.14,1.15-2.29,2.3-3.48,3.41-1,.94-2,1.86-3.05,2.8l-.51.52a.33.33,0,0,0-.28.28,19.78,19.78,0,0,0-1.76,2c-.67.94-1.33,1.89-1.91,2.89-.22.3-.42.6-.61.92a10,10,0,0,0-.58,1,6.43,6.43,0,0,0-.32.71v0l-.49.92c-.2.42-.39.84-.58,1.26,0-.07,0-.14.05-.21a18.09,18.09,0,0,1,.5-1.74c.24-.68.52-1.34.81-2l1.06-2.43c.49-1.1,1-2.17,1.57-3.23.69-1.31,1.3-2.66,1.88-4,.69-1.66,1.37-3.32,2.06-5s1.41-3.43,2.06-5.16a.33.33,0,0,0,.26-.32.32.32,0,0,0-.06-.2c.65-1.82,1.24-3.66,1.8-5.51.65-2.15,1.21-4.32,1.65-6.52A42.61,42.61,0,0,0,36.33,39c-.08-2.63-.38-5.25-.7-7.87-.2-1.57-.44-3.14-.68-4.71A5.23,5.23,0,0,0,34.59,25a.65.65,0,0,0,.19,0,.61.61,0,0,0,.61-.61.61.61,0,0,0-1.21,0,.59.59,0,0,0,.17.42,3.7,3.7,0,0,0,0,1.88c.11.69.21,1.39.31,2.08a.34.34,0,0,0-.23-.08.33.33,0,1,0,0,.66.34.34,0,0,0,.3-.18q.16,1.11.3,2.22c0,.19.05.38.07.57a.6.6,0,1,0-.27,1.14.61.61,0,0,0,.39-.15c.24,2.1.46,4.2.53,6.31a42.8,42.8,0,0,1-.53,7.75c-.44,2.2-1,4.37-1.65,6.52-.52,1.7-1.07,3.4-1.66,5.08a.32.32,0,0,0-.17.29.27.27,0,0,0,0,.12c-.05.11-.09.23-.13.34q-1,2.7-2.14,5.36c-.69,1.65-1.37,3.31-2.07,5-.58,1.35-1.19,2.7-1.88,4C25,74.81,24.48,75.88,24,77l-1.06,2.44c-.29.67-.58,1.33-.82,2s-.37,1.14-.5,1.74-.22,1-.3,1.49c0,.22-.08.43-.14.65-.25,1.06-.28,1.6-.18,1.68s0,.36-.07.55a21.33,21.33,0,0,0-.21,2.13c0,.33,0,.66,0,1s-.14.49-.2.74l-.06.3h-3c2,.58,3.56.41,5.87,6.18Zm.58-4.67a.34.34,0,0,0,0-.67.34.34,0,0,0,0,.67ZM19.3,91.52a.62.62,0,0,0,.61-.61.61.61,0,0,0-.61-.61.6.6,0,0,0-.6.61A.61.61,0,0,0,19.3,91.52Zm3.27-.73a.61.61,0,0,0,.6-.61.6.6,0,0,0-.6-.6.6.6,0,0,0-.6.6A.6.6,0,0,0,22.57,90.79Zm-4.27-1.7a.34.34,0,0,0,.34-.33.34.34,0,0,0-.67,0A.33.33,0,0,0,18.3,89.09Zm1.52-.54a.34.34,0,1,0-.34-.34A.34.34,0,0,0,19.82,88.55Zm5.71-.72a.62.62,0,0,0,.61-.61.6.6,0,0,0-.61-.6.6.6,0,0,0-.6.6A.61.61,0,0,0,25.53,87.83Zm1.42-1a.33.33,0,1,0-.33-.33A.33.33,0,0,0,27,86.79Zm-8.31-.66a.61.61,0,1,0-.61-.6A.6.6,0,0,0,18.64,86.13ZM20,84.38a.61.61,0,0,0,.6-.61.61.61,0,0,0-1.21,0A.61.61,0,0,0,20,84.38Zm7.83-.25a.32.32,0,0,0,.33-.33.33.33,0,0,0-.33-.33.33.33,0,0,0-.33.33A.33.33,0,0,0,27.86,84.13Zm4.39-.54a.61.61,0,1,0-.61-.61A.6.6,0,0,0,32.25,83.59Zm-6.47-.73a.6.6,0,0,0,.6-.6.61.61,0,1,0-1.21,0A.6.6,0,0,0,25.78,82.86Zm2.37-.15s.7-.46,1.82-1.28c.47-.35.94-.71,1.44-1a22.34,22.34,0,0,1,2.21-1.17l.46-.21a.63.63,0,0,0-.14.38.61.61,0,1,0,1.21,0,.59.59,0,0,0-.57-.59c.53-.23,1.06-.47,1.6-.67s1.21-.49,1.81-.72l.78-.29c2.39-.92,3-1.28.62-.37l-.78.3-1.82.72c-.87.34-1.72.72-2.56,1.1a32.55,32.55,0,0,0-3.43,1.87c-.5.3-1,.67-1.44,1A13.37,13.37,0,0,0,28.15,82.71Zm-8.43-.63a.61.61,0,0,0,.61-.61.61.61,0,0,0-1.21,0A.61.61,0,0,0,19.72,82.08Zm13.22-.67a.33.33,0,1,0-.33-.33A.33.33,0,0,0,32.94,81.41Zm-11-.85a.6.6,0,0,0,.6-.6.61.61,0,0,0-1.21,0A.6.6,0,0,0,22,80.56Zm3.26-.18a.6.6,0,0,0,.6-.6.6.6,0,0,0-.6-.61.62.62,0,0,0-.61.61A.61.61,0,0,0,25.23,80.38ZM17,79.9a.33.33,0,0,0,.33-.33.33.33,0,0,0-.66,0A.33.33,0,0,0,17,79.9Zm21.11-1.15a.34.34,0,0,0,0-.67.34.34,0,0,0,0,.67Zm-7.22-.06a.61.61,0,1,0-.61-.61A.6.6,0,0,0,30.92,78.69Zm10.67-.54a.34.34,0,0,0,0-.67h0a.6.6,0,0,0-.42-1,.61.61,0,1,0,0,1.21l.17,0a.33.33,0,0,0,.28.51Zm2.09-1.4a.61.61,0,1,0-.61-.6A.6.6,0,0,0,43.68,76.75Zm-20.62,0a.61.61,0,1,0-.61-.6A.6.6,0,0,0,23.06,76.75Zm4.77-.06a.61.61,0,0,0,.61-.6.62.62,0,0,0-.61-.61.6.6,0,0,0-.6.61A.6.6,0,0,0,27.83,76.69Zm17.39-.06a.33.33,0,1,0-.33-.33A.33.33,0,0,0,45.22,76.63Zm-13-.42a.34.34,0,0,0,0-.67.34.34,0,0,0,0,.67Zm-5.54-.4.6-.85a16.79,16.79,0,0,1,1.2-1.45.36.36,0,0,0,.21.15c-.65.66-1.3,1.32-1.9,2Zm11.5-.91,2-1.1L41.63,73l.17,0a.6.6,0,0,0,.58-.45l2.08-1.18-2.07,1.16a.51.51,0,0,0,0-.13.61.61,0,1,0-.8.57l-.48.26-3,1.67ZM46,74.82a.34.34,0,0,0,0-.67.34.34,0,0,0,0,.67Zm-23.14-.91a.61.61,0,0,0,.61-.61.58.58,0,0,0,0-.18h.06a.34.34,0,0,0,.34-.34.34.34,0,0,0-.34-.34.34.34,0,0,0-.33.33.61.61,0,0,0-.3-.08.61.61,0,0,0,0,1.21Zm-2-.06a.34.34,0,0,0,0-.67.34.34,0,0,0,0,.67Zm4.21-2.3a.6.6,0,0,0,.6-.6.61.61,0,1,0-1.21,0A.6.6,0,0,0,25.05,71.55Zm25.56-.12a.33.33,0,0,0,.33-.33.34.34,0,0,0-.67,0A.34.34,0,0,0,50.61,71.43Zm-5.91-.21.91-.52A45.33,45.33,0,0,0,50,67.77c.7-.54,1.38-1.11,2-1.7a.6.6,0,0,0,1.16-.2.62.62,0,0,0-.34-.56c.48-.44.94-.9,1.4-1.37s.66-.69,1-1l0,0c1-.88,2-1.75,2.9-2.65a.1.1,0,0,1,0-.05.6.6,0,0,0,.6.51.6.6,0,0,0,.07-1.2,13.4,13.4,0,0,0,1.51-1.85c.57-.84,1.13-1.69,1.68-2.54s1.08-1.71,1.61-2.57c.3-.51.6-1,.89-1.52a.49.49,0,0,0,0,.12.6.6,0,0,0,.6.61.61.61,0,1,0,0-1.21.63.63,0,0,0-.42.17c.08-.15.17-.29.24-.44a12.3,12.3,0,0,0,.63-1.44,5.37,5.37,0,0,1,.21-.56c.14-.27.25-.51.34-.7a.61.61,0,0,0,.51-.6.62.62,0,0,0-.36-.56.31.31,0,0,0,.24-.31.33.33,0,1,0-.66,0,.33.33,0,0,0,.15.27.61.61,0,0,0-.24,1.15c-.18.29-.37.65-.6,1.11a5.42,5.42,0,0,0-.22.56,10.59,10.59,0,0,1-.61,1.43c-.4.78-.85,1.52-1.3,2.27S62,54.57,61.45,55.42s-1.11,1.7-1.68,2.54a11,11,0,0,1-1.24,1.56.59.59,0,0,0-.29.33l-.68.69c-.55.52-1.1,1-1.66,1.53.78-1,1.5-2,2.19-3A25,25,0,0,0,61,53.35c0-.1.07-.21.1-.31a.61.61,0,1,0,.6-.73.63.63,0,0,0-.41.16,27.8,27.8,0,0,0,1-6,27.45,27.45,0,0,0-.24-6.21c-.5-3.85-1.45-3.31-1,.54a27.56,27.56,0,0,1,.23,6.22,25.74,25.74,0,0,1-1.27,6.85,25.17,25.17,0,0,1-2.92,5.76,39.38,39.38,0,0,1-3.43,4.38c-.72.63-1.44,1.27-2.17,1.89-.52.47-1.08.89-1.62,1.33-1.91,1.52-1.31,1.17.6-.35.49-.4,1-.78,1.48-1.2a.08.08,0,0,0,0,0,36.9,36.9,0,0,1-3,2.58,40.92,40.92,0,0,1-4.27,2.88Zm-3.35-.15a.34.34,0,0,0,0-.67.34.34,0,0,0,0,.67Zm6-.25a.36.36,0,1,0-.06,0S47.38,70.83,47.4,70.82ZM34,70.65a.62.62,0,0,0,.61-.61.6.6,0,0,0-.61-.6.59.59,0,0,0-.6.6A.6.6,0,0,0,34,70.65Zm1.84-.19a.33.33,0,1,0-.33-.33A.34.34,0,0,0,35.84,70.46ZM44.62,69a.34.34,0,0,0,0-.67.34.34,0,0,0,0,.67Zm3-.18a.61.61,0,1,0,0-1.21.61.61,0,0,0,0,1.21Zm-21.35-.25a.6.6,0,0,0,.6-.6.61.61,0,1,0-.6.6Zm28.64-.6a.33.33,0,1,0,0-.66.33.33,0,1,0,0,.66ZM33.57,67.8a.61.61,0,1,0-.6-.61A.61.61,0,0,0,33.57,67.8Zm-9-1a.33.33,0,0,0,.33-.33.32.32,0,0,0-.33-.33.33.33,0,0,0-.33.33A.33.33,0,0,0,24.53,66.77Zm24.41-.06a.61.61,0,0,0,.61-.6.6.6,0,0,0-.61-.6.59.59,0,0,0-.6.6A.6.6,0,0,0,48.94,66.71Zm-21.71-.6a.6.6,0,0,0,.6-.6.62.62,0,0,0-.26-.51.51.51,0,0,0,0-.13.34.34,0,0,0-.67,0,.3.3,0,0,0,0,.1.61.61,0,0,0-.32.54A.6.6,0,0,0,27.23,66.11Zm13.06-.55a.6.6,0,0,0,.6-.6.6.6,0,0,0-.6-.61.62.62,0,0,0-.61.61A.61.61,0,0,0,40.29,65.56Zm-11.14-.22c.14,0,.42-.69.65-1.94s.47-2.54.61-3.82a36,36,0,0,0,.21-4.76,30.24,30.24,0,0,0-.34-3.55,23.89,23.89,0,0,0-.44-2.36,7.25,7.25,0,0,0-.29-.9c-1-2.33-1.71-1.95-.62.36a5.53,5.53,0,0,1,.28.9,23.42,23.42,0,0,1,.46,2.36A27.92,27.92,0,0,1,30,55.17a35.88,35.88,0,0,1-.2,4.75c-.14,1.28-.37,2.55-.61,3.82-.2,1.1-.18,1.61-.06,1.6Zm12.92,0a.33.33,0,1,0-.33-.33A.34.34,0,0,0,42.07,65.32Zm-9.92-.24a.34.34,0,0,0,.34-.33.34.34,0,0,0-.67,0A.33.33,0,0,0,32.15,65.08Zm4-1.09a.61.61,0,0,0,0-1.21.61.61,0,1,0,0,1.21ZM53,63.5a.6.6,0,0,0,.6-.6.61.61,0,1,0-.6.6Zm6.8-1.39a.33.33,0,0,0,0-.66.33.33,0,0,0,0,.66ZM48.27,59.27a.61.61,0,1,0-.6-.6A.6.6,0,0,0,48.27,59.27Zm6.45-1a.33.33,0,0,0,.33-.33.34.34,0,0,0-.67,0A.34.34,0,0,0,54.72,58.3Zm-29.43-.42a.61.61,0,1,0,0-1.21.61.61,0,0,0,0,1.21Zm15.31-.24A.61.61,0,1,0,40,57,.6.6,0,0,0,40.6,57.64Zm23.31-.73a.33.33,0,0,0,.34-.33.34.34,0,0,0-.67,0A.33.33,0,0,0,63.91,56.91Zm-.75-.48a.61.61,0,1,0-.61-.6A.6.6,0,0,0,63.16,56.43Zm-18.82-.18a.61.61,0,0,0,.61-.61.61.61,0,1,0-1.21,0A.6.6,0,0,0,44.34,56.25Zm-10-.67a.61.61,0,1,0,0-1.21.61.61,0,0,0,0,1.21ZM28,53a.34.34,0,1,0-.33-.34A.34.34,0,0,0,28,53Zm3.48-.12a.61.61,0,1,0,0-1.21.61.61,0,0,0,0,1.21Zm26.67-.18a.61.61,0,1,0-.6-.61A.61.61,0,0,0,58.19,52.68Zm-22.95-.61a.33.33,0,1,0,0-.66.33.33,0,1,0,0,.66Zm8.38-2.54a.61.61,0,0,0,0-1.21.61.61,0,1,0,0,1.21Zm7.13-.06a.6.6,0,0,0,.61-.6.61.61,0,1,0-1.21,0A.6.6,0,0,0,50.75,49.47Zm12.59-.66a.61.61,0,0,0,0-1.21.61.61,0,1,0,0,1.21Zm-30.25-.49a.6.6,0,0,0,.6-.6.59.59,0,0,0-.6-.6.6.6,0,0,0-.6.6A.6.6,0,0,0,33.09,48.32Zm15.37-.06a.6.6,0,0,0,.6-.6.61.61,0,1,0-1.21,0A.6.6,0,0,0,48.46,48.26ZM36.33,46.93a.33.33,0,0,0,0-.66.33.33,0,1,0,0,.66Zm-8.72-1a.33.33,0,1,0-.33-.33A.34.34,0,0,0,27.61,46Zm22-.12a.33.33,0,1,0-.33-.33A.34.34,0,0,0,49.57,45.84Zm9.71-.54a.61.61,0,0,0,.61-.61.61.61,0,0,0-1.21,0A.61.61,0,0,0,59.28,45.3Zm-16.05-.24a.34.34,0,0,0,0-.67.34.34,0,1,0,0,.67ZM67,44.51a.33.33,0,0,0,.33-.33.34.34,0,0,0-.67,0A.33.33,0,0,0,67,44.51Zm-23-.12a.61.61,0,0,0,0-1.21.61.61,0,1,0,0,1.21Zm9.68-.18a.61.61,0,0,0,0-1.21.61.61,0,1,0,0,1.21Zm4.14-.85a.33.33,0,1,0-.33-.33A.34.34,0,0,0,57.8,43.36Zm9-.18a.61.61,0,1,0-.61-.6A.6.6,0,0,0,66.85,43.18Zm-32,0a.34.34,0,0,0-.07-.67.34.34,0,1,0,0,.67Zm27.81-1a.34.34,0,0,0,.33-.34.33.33,0,1,0-.66,0A.34.34,0,0,0,62.64,42.22Zm-24.22-.61A.61.61,0,0,0,39,41a.6.6,0,0,0-.6-.6.61.61,0,0,0-.61.6A.62.62,0,0,0,38.42,41.61Zm20.47-.48a.34.34,0,1,0-.33-.33A.34.34,0,0,0,58.89,41.13Zm-10-.85a.62.62,0,0,0,.61-.61s0,0,0,0a.41.41,0,0,0,.16,0,.33.33,0,1,0,0-.66.32.32,0,0,0-.32.24.63.63,0,0,0-.44-.18.6.6,0,0,0-.6.6.61.61,0,0,0,.6.61Zm6.5-.73a.34.34,0,0,0,.34-.33.34.34,0,0,0-.67,0A.33.33,0,0,0,55.44,39.55Zm10.29-.12a.33.33,0,0,0,.33-.33.33.33,0,0,0-.66,0A.33.33,0,0,0,65.73,39.43Zm-2.57-.06a.61.61,0,1,0-.61-.6A.6.6,0,0,0,63.16,39.37Zm-25.29-.18a.61.61,0,1,0-.6-.61A.61.61,0,0,0,37.87,39.19ZM43,38.53a.61.61,0,0,0,.61-.61.6.6,0,0,0-.61-.6.59.59,0,0,0-.56.39.33.33,0,0,0,0,.51A.59.59,0,0,0,43,38.53ZM56.56,38a.61.61,0,1,0,0-1.21.61.61,0,0,0,0,1.21Zm-22.32-.61a.6.6,0,0,0,.61-.6.62.62,0,0,0-.61-.61.61.61,0,0,0-.6.61A.6.6,0,0,0,34.24,37.37Zm10.2-1.87a.33.33,0,0,0,.33-.33.34.34,0,0,0-.67,0A.34.34,0,0,0,44.44,35.5Zm20.38-.12a.34.34,0,0,0,0-.67.34.34,0,0,0,0,.67Zm-27.65-.06a.34.34,0,1,0,0-.67.34.34,0,0,0,0,.67Zm23.41-1.4a.33.33,0,1,0-.33-.33A.34.34,0,0,0,60.58,33.92Zm1.3-.48a.61.61,0,1,0-.6-.61A.61.61,0,0,0,61.88,33.44Zm-21.74-.73a.33.33,0,0,0,.34-.33.34.34,0,0,0-.34-.33.34.34,0,0,0-.34.33A.34.34,0,0,0,40.14,32.71Zm2.75-.24a.59.59,0,0,0,.6-.6.6.6,0,0,0-.6-.61.61.61,0,0,0-.6.61A.6.6,0,0,0,42.89,32.47Zm-5.2-1a.61.61,0,1,0-.61-.61A.61.61,0,0,0,37.69,31.51Zm17.45-.18a.34.34,0,0,0,.33-.34.33.33,0,1,0-.66,0A.34.34,0,0,0,55.14,31.33Zm-7.83-.07a.6.6,0,0,0,.6-.6.61.61,0,0,0-1.21,0A.6.6,0,0,0,47.31,31.26Zm10.43-.6a.34.34,0,1,0-.33-.34A.34.34,0,0,0,57.74,30.66ZM46.07,29.27a.33.33,0,1,0,0-.66.33.33,0,0,0,0,.66Zm-13-.18a.6.6,0,0,0,.6-.61.6.6,0,0,0-.6-.6.6.6,0,0,0-.6.6A.61.61,0,0,0,33.09,29.09Zm22.78-1.45a.34.34,0,0,0,0-.67.34.34,0,1,0,0,.67ZM58,27.21a.61.61,0,1,0-.61-.6A.6.6,0,0,0,58,27.21ZM32.27,26.3a.33.33,0,1,0-.33-.33A.34.34,0,0,0,32.27,26.3ZM58,25a.34.34,0,1,0,0-.67A.34.34,0,0,0,58,25Zm-16.63-.92a.33.33,0,0,0,.33-.33.33.33,0,0,0-.33-.33.33.33,0,0,0-.33.33A.32.32,0,0,0,41.41,24.12Zm-8.53-1.63a.33.33,0,0,0,.33-.33.33.33,0,0,0-.66,0A.33.33,0,0,0,32.88,22.49Zm1.69-1.21a.33.33,0,1,0-.33-.33A.33.33,0,0,0,34.57,21.28Z" />
    <g
       id="use81502">
      <path
         id="path72939"
         class="cls-10"
         d="M52.21,38.54a20.36,20.36,0,0,1,1.57,3.69,2,2,0,0,1,.16,1.57A1.11,1.11,0,0,0,54,45.11c.4.62.51.59.75,1a6.54,6.54,0,0,0,.75,1.1,4.13,4.13,0,0,1,.88,1.2c.24.53.29.72.08,1s-.56.29-1.09.4a1.28,1.28,0,0,0-1.07.91,1.09,1.09,0,0,0,0,1c.14.35,0,.59-.13.65s-.59.13-.51.24.35.21.35.58-.19.38-.29.56-.4.62-.32.81A2.33,2.33,0,0,1,54.1,56a1.88,1.88,0,0,1-1,1.85,7.63,7.63,0,0,1-2,.26,10.44,10.44,0,0,0-2.94.67,2.78,2.78,0,0,0-1.36,1.58,4.63,4.63,0,0,1-.91,1.73,5.79,5.79,0,0,0-1.47,1.79,7.92,7.92,0,0,0-1,3.1c0,1.26,0,1.29.21,1.53a4.9,4.9,0,0,0,.78,1.27c.75.61,1.17,1,1.06,2-.08.53-.34.91-.15,1.1a.78.78,0,0,1,.26.79c-.08,1.79,2,3.6,3,5,.27.53.95,1,.87,2.2l-.08,1.2a27.39,27.39,0,0,1,0,3.14c-.18,1.29-5.66-.77-10.46-4-6.44-4.38-11-13.64-10.32-15.08s.47-1.16.48-1.39c-.14-.4.37-.42.43-.72s-.05-.41.09-.48c.43-.13.51-.51.74-.84-.19-.37.09-.91.61-1.29a9.9,9.9,0,0,1-1-1.74c-.11-.49-.26-1.36-.26-1.36s-.11-1-.61-1.25-.11-.75-.11-.75,0-.49-.79-1-.42-1.1-.42-2.08S29.79,43.11,30.22,41s3-5.66,5.56-7,5.34-1.07,7.48-.86A18,18,0,0,1,50,34.77a7.88,7.88,0,0,1,3.42,3.31,8.23,8.23,0,0,1,1.17,4.28,5.14,5.14,0,0,0-2.37-3.82Z" />
    </g>
    <path
       id="use81666"
       class="cls-11"
       d="M68.92,18.34c0-.81.12-.93,1-1v-.21H66.75v.21c.91.07,1,.19,1,1v5.13c0,.5-.14.74-.43.74s-.22-.09-.3-.37-.28-.57-.57-.57a.56.56,0,0,0-.55.56c0,.46.46.8,1.1.8,1.2,0,1.88-.8,1.88-2.19v-4.1" />
    <g
       id="use81700">
      <path
         id="path23436"
         class="cls-12"
         d="M22.56,18.4C21.4,21.51,18.18,23.32,17,26a2.88,2.88,0,0,0,1.24,3.93,3.08,3.08,0,0,0,3.74-1.16c0,.14,0,.28,0,.42a5.59,5.59,0,0,1-1.39,3.74h4a5.6,5.6,0,0,1-1.47-3.83,4.35,4.35,0,0,1,0-.51,3.1,3.1,0,0,0,3.86,1.34A3,3,0,0,0,28.17,26c-1.05-2.7-4.21-4.47-5.61-7.59Z" />
    </g>
  </g>
</svg>
