<?xml version="1.0" encoding="UTF-8" standalone="no"?>
<svg
   id="svg2"
   viewBox="0 0 70.380005 99.420006"
   version="1.1"
   sodipodi:docname="SJ.svg"
   inkscape:version="1.3.2 (091e20e, 2023-11-25, custom)"
   width="70.380005"
   height="99.420006"
   xmlns:inkscape="http://www.inkscape.org/namespaces/inkscape"
   xmlns:sodipodi="http://sodipodi.sourceforge.net/DTD/sodipodi-0.dtd"
   xmlns:xlink="http://www.w3.org/1999/xlink"
   xmlns="http://www.w3.org/2000/svg"
   xmlns:svg="http://www.w3.org/2000/svg"
   xmlns:rdf="http://www.w3.org/1999/02/22-rdf-syntax-ns#"
   xmlns:cc="http://creativecommons.org/ns#"
   xmlns:dc="http://purl.org/dc/elements/1.1/">
  <sodipodi:namedview
     id="namedview6"
     pagecolor="#ffffff"
     bordercolor="#000000"
     borderopacity="0.25"
     inkscape:showpageshadow="2"
     inkscape:pageopacity="0.0"
     inkscape:pagecheckerboard="0"
     inkscape:deskcolor="#d1d1d1"
     inkscape:zoom="15.285714"
     inkscape:cx="34.90187"
     inkscape:cy="50.210281"
     inkscape:window-width="3840"
     inkscape:window-height="2054"
     inkscape:window-x="-11"
     inkscape:window-y="-11"
     inkscape:window-maximized="1"
     inkscape:current-layer="svg2" />
  <defs
     id="defs6">
    <style
       id="style1">
      .cls-1 {
        filter: url(#filter63625-2-3);
      }

      .cls-2 {
        stroke: #000;
        fill: url(#linear-gradient);
      }

      .cls-2, .cls-6 {
        stroke-miterlimit: 10;
        stroke-width: 0.23px;
      }

      .cls-3 {
        fill: url(#linear-gradient-2);
      }

      .cls-4 {
        opacity: 0.31;
        fill: url(#radial-gradient);
      }

      .cls-4, .cls-5, .cls-7 {
        isolation: isolate;
      }

      .cls-5 {
        opacity: 0.32;
        fill: url(#radial-gradient-2);
      }

      .cls-6 {
        fill: none;
      }

      .cls-11, .cls-6 {
        stroke: #fff;
      }

      .cls-7 {
        opacity: 0.32;
        fill: url(#radial-gradient-3);
      }

      .cls-10, .cls-12, .cls-8 {
        stroke: #c8c8c8;
      }

      .cls-12, .cls-8 {
        stroke-linejoin: round;
      }

      .cls-8 {
        stroke-width: 0.18px;
        fill: url(#linear-gradient-3);
      }

      .cls-9 {
        fill: url(#radial-gradient-4);
      }

      .cls-10 {
        stroke-width: 0.38px;
        fill-rule: evenodd;
        fill: url(#linear-gradient-4);
      }

      .cls-11 {
        stroke-width: 0.49px;
        fill: url(#linear-gradient-5);
      }

      .cls-12 {
        stroke-width: 0.37px;
        fill: url(#linear-gradient-6);
      }
    </style>
    <filter
       id="filter63625-2-3"
       name="filter63625-2-3"
       x="-0.12863863"
       y="-0.090976909"
       width="1.2572773"
       height="1.1819538">
      <feGaussianBlur
         result="feGaussianBlur63627-6-62"
         stdDeviation="3.76"
         id="feGaussianBlur1" />
    </filter>
    <linearGradient
       id="linear-gradient"
       x1="-1204.9301"
       y1="-2167.4399"
       x2="-1195.45"
       y2="-1652.9301"
       gradientTransform="matrix(0.23,0,0,-0.23,315.23,-455.54)"
       gradientUnits="userSpaceOnUse">
      <stop
         offset="0"
         stop-color="#f3f3f3"
         id="stop1" />
      <stop
         offset="1"
         stop-color="#8f8f8f"
         id="stop2" />
    </linearGradient>
    <linearGradient
       id="linear-gradient-2"
       x1="-1676.41"
       y1="-1942.4301"
       x2="-1544.13"
       y2="-2380.1499"
       gradientTransform="matrix(0.24,0,0,-0.24,429.2,-442.75)"
       gradientUnits="userSpaceOnUse">
      <stop
         offset="0"
         id="stop3" />
      <stop
         offset="1"
         stop-color="#555753"
         id="stop4" />
    </linearGradient>
    <radialGradient
       id="radial-gradient"
       cx="404.79001"
       cy="6279.7402"
       r="58.68"
       gradientTransform="matrix(-0.23,0,0,0.21,107.34,-1199.21)"
       gradientUnits="userSpaceOnUse">
      <stop
         offset="0"
         stop-color="#fff"
         id="stop5" />
      <stop
         offset="1"
         stop-color="#fff"
         stop-opacity="0"
         id="stop6" />
    </radialGradient>
    <radialGradient
       id="radial-gradient-2"
       cx="-1238.72"
       cy="-1168.35"
       r="63.150002"
       gradientTransform="matrix(0.23,0,0,-0.36,348.04,-397.84)"
       xlink:href="#radial-gradient" />
    <radialGradient
       id="radial-gradient-3"
       cx="-363.87"
       cy="825.94"
       r="26.74"
       gradientTransform="matrix(0.84,0,0,-1.48,346.81,1283.38)"
       xlink:href="#radial-gradient" />
    <linearGradient
       id="linear-gradient-3"
       x1="-4489.5"
       y1="-12347.1"
       x2="-4489.5"
       y2="-12292.57"
       gradientTransform="matrix(0.06,0,0,-0.06,292.85,-621.68)"
       xlink:href="#linear-gradient" />
    <radialGradient
       id="radial-gradient-4"
       cx="-93.300003"
       cy="1371.76"
       r="25.370001"
       gradientTransform="matrix(0.83,0.56,2.15,-3.16,-2846.46,4474.4)"
       xlink:href="#radial-gradient" />
    <linearGradient
       id="linear-gradient-4"
       x1="-1723.3199"
       y1="-3976.0901"
       x2="-1723.3199"
       y2="-3747.3701"
       gradientTransform="matrix(0.17,0,0,-0.17,326.59,-579.21)"
       xlink:href="#linear-gradient" />
    <linearGradient
       id="linear-gradient-5"
       x1="-883.47998"
       y1="-2430.4399"
       x2="-883.47998"
       y2="-2383.71"
       gradientTransform="matrix(0.23,0,0,-0.23,267.78,-525.4)"
       xlink:href="#linear-gradient" />
    <linearGradient
       id="linear-gradient-6"
       x1="-2571.4199"
       y1="-5394.4502"
       x2="-2571.4199"
       y2="-5339.9102"
       gradientTransform="matrix(0.13,0,0,-0.12,350.65,-624.84)"
       xlink:href="#linear-gradient" />
    <linearGradient
       inkscape:collect="always"
       xlink:href="#linear-gradient"
       id="linearGradient1"
       gradientUnits="userSpaceOnUse"
       gradientTransform="matrix(0.23,0,0,-0.23,315.23,-455.54)"
       x1="-1204.9301"
       y1="-2167.4399"
       x2="-1195.45"
       y2="-1652.9301" />
    <radialGradient
       inkscape:collect="always"
       xlink:href="#radial-gradient"
       id="radialGradient1"
       gradientUnits="userSpaceOnUse"
       gradientTransform="matrix(-0.23,0,0,0.21,107.34,-1199.21)"
       cx="404.79001"
       cy="6279.7402"
       r="58.68" />
  </defs>
  <title
     id="title6">Jack of Spades</title>
  <g
     id="jack_spade"
     data-name="jack spade"
     transform="translate(-7.0350001,-9.3050001)">
    <g
       id="use72923">
      <g
         id="g70523">
        <rect
           id="rect70527"
           class="cls-2"
           x="7.1500001"
           y="9.4200001"
           width="70.150002"
           height="99.190002"
           rx="4.0500002"
           ry="4.0500002"
           style="fill:url(#linearGradient1)" />
        <rect
           id="rect6077"
           class="cls-3"
           x="10.61"
           y="12.88"
           width="63.240002"
           height="92.260002"
           rx="1.29"
           ry="1.29"
           style="fill:url(#linear-gradient-2)" />
        <rect
           id="rect70531"
           class="cls-4"
           x="10.61"
           y="80.860001"
           width="26.549999"
           height="24.280001"
           rx="0.85000002"
           ry="0.85000002"
           style="fill:url(#radialGradient1)" />
        <rect
           id="rect70533"
           class="cls-5"
           x="45.27"
           y="12.88"
           width="28.57"
           height="45.27"
           rx="1.04"
           ry="1.04"
           style="fill:url(#radial-gradient-2)" />
        <path
           id="path70535"
           class="cls-6"
           d="M 25.57,101.12 H 70.29 V 27.51 M 58.72,16.91 H 14.16 v 73.18" />
        <path
           id="path70537"
           class="cls-7"
           d="m 64.6,59 c 0,21.89 -10,39.64 -22.38,39.64 C 29.84,98.64 19.83,80.9 19.83,59 c 0,-21.9 10,-39.64 22.39,-39.64 12.39,0 22.38,17.76 22.38,39.64 z"
           style="fill:url(#radial-gradient-3)" />
      </g>
    </g>
    <g
       id="use74204">
      <path
         id="path74108"
         class="cls-8"
         d="m 17.2,94.31 c -0.56,1.5 -2.11,2.37 -2.7,3.65 a 1.39,1.39 0 0 0 0.59,1.9 1.5,1.5 0 0 0 1.81,-0.56 v 0.2 a 2.66,2.66 0 0 1 -0.67,1.8 h 1.92 a 2.66,2.66 0 0 1 -0.71,-1.84 2,2 0 0 1 0,-0.25 1.49,1.49 0 0 0 1.86,0.65 1.42,1.42 0 0 0 0.6,-1.86 c -0.5,-1.3 -2,-2.15 -2.7,-3.65 z"
         style="fill:url(#linear-gradient-3)" />
    </g>
    <path
       id="path7086"
       class="cls-9"
       d="m 23.35,97.88 c 0.53,-0.9 -1.57,-4.1 -1.84,-5.3 a 1.7,1.7 0 0 1 -0.06,-0.31 3,3 0 0 1 0,-0.52 4.63,4.63 0 0 1 0.12,-0.91 0.32,0.32 0 0 0 0.31,-0.33 0.32,0.32 0 0 0 -0.14,-0.27 l 0.21,-0.69 a 9.11,9.11 0 0 1 0.6,-1.44 c 0.32,-0.61 0.71,-1.18 1.09,-1.76 l 0.37,-0.53 h 0.11 a 0.6,0.6 0 0 0 0.61,-0.6 0.65,0.65 0 0 0 -0.06,-0.24 c 0.15,-0.18 0.3,-0.37 0.45,-0.54 a 29.36,29.36 0 0 1 2.14,-2 c 0.81,-0.75 1.67,-1.43 2.53,-2.1 1,-0.8 2.12,-1.51 3.21,-2.22 1.09,-0.71 2.08,-1.31 3.13,-2 h 0.15 a 0.61,0.61 0 0 0 0,-1.21 0.61,0.61 0 0 0 -0.61,0.6 0.6,0.6 0 0 0 0.44,0.58 l -0.3,0.17 c -1.28,0.77 -2.55,1.55 -3.81,2.36 -1.09,0.71 -2.19,1.42 -3.22,2.23 -0.87,0.67 -1.72,1.36 -2.53,2.1 -0.62,0.56 -1.25,1.12 -1.83,1.72 a 0.61,0.61 0 0 0 -0.91,0.52 0.62,0.62 0 0 0 0.12,0.36 c -0.36,0.44 -0.7,0.89 -1,1.36 a 19.74,19.74 0 0 0 -1.08,1.76 l -0.15,0.31 c 0,-0.61 0.11,-1.22 0.19,-1.83 a 16.57,16.57 0 0 1 0.52,-2.52 15.31,15.31 0 0 1 0.83,-2.2 13,13 0 0 0 0.87,-1.63 c 0.05,-0.12 0.09,-0.25 0.14,-0.37 v -0.09 c 0.44,-0.79 0.89,-1.56 1.34,-2.33 l 0.09,-0.14 0.51,-0.7 c 0.49,-0.64 1,-1.25 1.54,-1.87 0.68,-0.78 1.4,-1.52 2.12,-2.25 0.72,-0.73 1.68,-1.62 2.54,-2.41 0.86,-0.79 1.87,-1.65 2.8,-2.49 l 3,-2.63 c 1.12,-1 2.21,-2 3.28,-3 l 1.7,-1.65 a 10.71,10.71 0 0 0 1.68,-1.33 c 1.11,-0.94 2.23,-1.86 3.39,-2.74 a 15.89,15.89 0 0 1 2.27,-1.56 l 0.5,-0.22 a 0.58,0.58 0 0 0 0,0.18 0.62,0.62 0 0 0 0.61,0.61 0.6,0.6 0 0 0 0.6,-0.61 0.58,0.58 0 0 0 -0.14,-0.39 c 2.23,-0.16 2.69,-0.49 0.27,-0.33 a 1.82,1.82 0 0 0 -0.57,0.13 h -0.16 a 0.59,0.59 0 0 0 -0.53,0.33 21.16,21.16 0 0 0 -3.41,2.21 C 46.14,58 45,59 43.93,59.9 c -0.46,0.39 -0.76,0.66 -0.94,0.83 L 44.71,59 c 1.25,-1.26 2.43,-2.58 3.58,-3.93 0.71,-0.85 1.39,-1.73 2.06,-2.61 a 0.62,0.62 0 0 0 0.47,0.22 0.6,0.6 0 0 0 0.6,-0.61 0.6,0.6 0 0 0 -0.36,-0.55 c 0.3,-0.41 0.6,-0.81 0.89,-1.22 a 56.29,56.29 0 0 0 3.46,-5.45 36.64,36.64 0 0 0 2.78,-6.24 54,54 0 0 0 1.13,-5.8 c 0.37,-2.33 -0.21,-2 -0.58,0.34 a 53.82,53.82 0 0 1 -1.13,5.79 35.92,35.92 0 0 1 -2.79,6.24 c -0.08,0.15 -0.18,0.29 -0.26,0.44 a 0.33,0.33 0 1 0 -0.33,0.41 h 0.12 a 52.87,52.87 0 0 1 -3,4.63 l -0.6,0.84 a 0.6,0.6 0 0 0 -0.55,0.59 c 0,0 0,0.08 0,0.12 -0.81,1.1 -1.64,2.17 -2.52,3.22 -1.15,1.35 -2.33,2.67 -3.58,3.93 -1.25,1.26 -2.36,2.39 -3.58,3.54 -1.22,1.15 -2.17,2 -3.3,3 -1.13,1 -2,1.75 -3,2.64 -1,0.89 -1.83,1.65 -2.77,2.46 -0.94,0.81 -1.6,1.46 -2.36,2.23 a 0.35,0.35 0 0 0 -0.16,-0.2 l 0.9,-0.91 c 1,-0.94 2,-1.85 3,-2.8 1.19,-1.11 2.34,-2.25 3.48,-3.4 a 39.09,39.09 0 0 0 3.69,-4.18 46.23,46.23 0 0 0 3.28,-5.4 36,36 0 0 0 2.66,-6.11 41.51,41.51 0 0 0 1.36,-7 57.54,57.54 0 0 0 0.08,-6 0.61,0.61 0 0 0 0.2,-0.45 0.6,0.6 0 0 0 -0.24,-0.48 c 0,-0.25 0,-0.49 0,-0.74 0,-0.42 0,-0.83 0,-1.25 -0.09,-2.35 -0.66,-2 -0.57,0.33 0,0.42 0,0.83 0,1.25 0,0.11 0,0.22 0,0.33 a 0.59,0.59 0 0 0 -0.39,0.56 0.6,0.6 0 0 0 0.43,0.57 c 0,1 0,2.07 0,3.11 a 0.64,0.64 0 0 0 -0.24,-0.05 0.6,0.6 0 0 0 -0.6,0.6 0.61,0.61 0 0 0 0.6,0.61 0.78,0.78 0 0 0 0.22,0 c 0,0.66 0,1.34 -0.1,2 -0.19,1.51 -0.42,3 -0.75,4.51 0,-0.71 0,-1.42 0,-2.13 a 49.81,49.81 0 0 0 -0.37,-5 28,28 0 0 0 -0.68,-3.4 12,12 0 0 0 -0.57,-1.66 1.86,1.86 0 0 0 -0.27,-0.45 c -1.9,-1.71 -2.54,-1.32 -0.62,0.37 a 1.73,1.73 0 0 1 0.27,0.43 12,12 0 0 1 0.57,1.66 27.92,27.92 0 0 1 0.7,3.39 50.24,50.24 0 0 1 0.38,5 c 0,0.93 0,1.87 0,2.81 a 7.87,7.87 0 0 0 0,1.22 1.55,1.55 0 0 0 -0.07,0.23 c -0.39,1.15 -0.82,2.28 -1.31,3.39 a 0.61,0.61 0 0 0 -0.53,-0.3 0.6,0.6 0 0 0 -0.6,0.6 0.61,0.61 0 0 0 0.6,0.61 h 0.12 c -0.29,0.62 -0.6,1.23 -0.94,1.83 a 45.09,45.09 0 0 1 -3.29,5.41 39.09,39.09 0 0 1 -3.62,4.2 c -1.14,1.15 -2.29,2.3 -3.48,3.41 -1,0.94 -2,1.86 -3.05,2.8 l -0.51,0.52 a 0.33,0.33 0 0 0 -0.28,0.28 19.78,19.78 0 0 0 -1.76,2 c -0.67,0.94 -1.33,1.89 -1.91,2.89 -0.22,0.3 -0.42,0.6 -0.61,0.92 a 10,10 0 0 0 -0.58,1 6.43,6.43 0 0 0 -0.32,0.71 v 0 l -0.49,0.92 c -0.2,0.42 -0.39,0.84 -0.58,1.26 0,-0.07 0,-0.14 0.05,-0.21 a 18.09,18.09 0 0 1 0.5,-1.74 c 0.24,-0.68 0.52,-1.34 0.81,-2 l 1.06,-2.43 c 0.49,-1.1 1,-2.17 1.57,-3.23 0.69,-1.31 1.3,-2.66 1.88,-4 0.69,-1.66 1.37,-3.32 2.06,-5 0.69,-1.68 1.41,-3.43 2.06,-5.16 a 0.33,0.33 0 0 0 0.26,-0.32 0.32,0.32 0 0 0 -0.06,-0.2 c 0.65,-1.82 1.24,-3.66 1.8,-5.51 0.65,-2.15 1.21,-4.32 1.65,-6.52 A 42.61,42.61 0 0 0 36.33,39 c -0.08,-2.63 -0.38,-5.25 -0.7,-7.87 -0.2,-1.57 -0.44,-3.14 -0.68,-4.71 A 5.23,5.23 0 0 0 34.59,25 a 0.65,0.65 0 0 0 0.19,0 0.61,0.61 0 0 0 0.61,-0.61 0.61,0.61 0 0 0 -1.21,0 0.59,0.59 0 0 0 0.17,0.42 3.7,3.7 0 0 0 0,1.88 c 0.11,0.69 0.21,1.39 0.31,2.08 a 0.34,0.34 0 0 0 -0.23,-0.08 0.33,0.33 0 1 0 0,0.66 0.34,0.34 0 0 0 0.3,-0.18 q 0.16,1.11 0.3,2.22 c 0,0.19 0.05,0.38 0.07,0.57 a 0.6,0.6 0 1 0 -0.27,1.14 0.61,0.61 0 0 0 0.39,-0.15 c 0.24,2.1 0.46,4.2 0.53,6.31 a 42.8,42.8 0 0 1 -0.53,7.75 c -0.44,2.2 -1,4.37 -1.65,6.52 -0.52,1.7 -1.07,3.4 -1.66,5.08 a 0.32,0.32 0 0 0 -0.17,0.29 0.27,0.27 0 0 0 0,0.12 c -0.05,0.11 -0.09,0.23 -0.13,0.34 q -1,2.7 -2.14,5.36 c -0.69,1.65 -1.37,3.31 -2.07,5 -0.58,1.35 -1.19,2.7 -1.88,4 C 25,74.81 24.48,75.88 24,77 l -1.06,2.44 c -0.29,0.67 -0.58,1.33 -0.82,2 -0.24,0.67 -0.37,1.14 -0.5,1.74 -0.13,0.6 -0.22,1 -0.3,1.49 0,0.22 -0.08,0.43 -0.14,0.65 -0.25,1.06 -0.28,1.6 -0.18,1.68 0.1,0.08 0,0.36 -0.07,0.55 a 21.33,21.33 0 0 0 -0.21,2.13 c 0,0.33 0,0.66 0,1 0,0.34 -0.14,0.49 -0.2,0.74 l -0.06,0.3 h -3 c 2,0.58 3.56,0.41 5.87,6.18 z m 0.58,-4.67 a 0.34,0.34 0 0 0 0,-0.67 0.34,0.34 0 0 0 0,0.67 z M 19.3,91.52 a 0.62,0.62 0 0 0 0.61,-0.61 0.61,0.61 0 0 0 -0.61,-0.61 0.6,0.6 0 0 0 -0.6,0.61 0.61,0.61 0 0 0 0.6,0.61 z m 3.27,-0.73 a 0.61,0.61 0 0 0 0.6,-0.61 0.6,0.6 0 0 0 -0.6,-0.6 0.6,0.6 0 0 0 -0.6,0.6 0.6,0.6 0 0 0 0.6,0.61 z m -4.27,-1.7 a 0.34,0.34 0 0 0 0.34,-0.33 0.34,0.34 0 0 0 -0.67,0 0.33,0.33 0 0 0 0.33,0.33 z m 1.52,-0.54 a 0.34,0.34 0 1 0 -0.34,-0.34 0.34,0.34 0 0 0 0.34,0.34 z m 5.71,-0.72 a 0.62,0.62 0 0 0 0.61,-0.61 0.6,0.6 0 0 0 -0.61,-0.6 0.6,0.6 0 0 0 -0.6,0.6 0.61,0.61 0 0 0 0.6,0.61 z m 1.42,-1 A 0.33,0.33 0 1 0 26.62,86.5 0.33,0.33 0 0 0 27,86.79 Z m -8.31,-0.66 a 0.61,0.61 0 1 0 -0.61,-0.6 0.6,0.6 0 0 0 0.61,0.56 z M 20,84.38 a 0.61,0.61 0 0 0 0.6,-0.61 0.61,0.61 0 0 0 -1.21,0 0.61,0.61 0 0 0 0.61,0.61 z m 7.83,-0.25 a 0.32,0.32 0 0 0 0.33,-0.33 0.33,0.33 0 0 0 -0.33,-0.33 0.33,0.33 0 0 0 -0.33,0.33 0.33,0.33 0 0 0 0.36,0.33 z m 4.39,-0.54 a 0.61,0.61 0 1 0 -0.61,-0.61 0.6,0.6 0 0 0 0.64,0.61 z m -6.47,-0.73 a 0.6,0.6 0 0 0 0.6,-0.6 0.61,0.61 0 1 0 -1.21,0 0.6,0.6 0 0 0 0.64,0.6 z m 2.37,-0.15 c 0,0 0.7,-0.46 1.82,-1.28 0.47,-0.35 0.94,-0.71 1.44,-1 a 22.34,22.34 0 0 1 2.21,-1.17 l 0.46,-0.21 a 0.63,0.63 0 0 0 -0.14,0.38 0.61,0.61 0 1 0 1.21,0 0.59,0.59 0 0 0 -0.57,-0.59 c 0.53,-0.23 1.06,-0.47 1.6,-0.67 0.54,-0.2 1.21,-0.49 1.81,-0.72 l 0.78,-0.29 c 2.39,-0.92 3,-1.28 0.62,-0.37 l -0.78,0.3 -1.82,0.72 c -0.87,0.34 -1.72,0.72 -2.56,1.1 a 32.55,32.55 0 0 0 -3.43,1.87 c -0.5,0.3 -1,0.67 -1.44,1 a 13.37,13.37 0 0 0 -1.18,0.93 z m -8.43,-0.63 a 0.61,0.61 0 0 0 0.61,-0.61 0.61,0.61 0 0 0 -1.21,0 0.61,0.61 0 0 0 0.63,0.61 z m 13.22,-0.67 a 0.33,0.33 0 1 0 -0.33,-0.33 0.33,0.33 0 0 0 0.36,0.33 z m -11,-0.85 a 0.6,0.6 0 0 0 0.6,-0.6 0.61,0.61 0 0 0 -1.21,0 0.6,0.6 0 0 0 0.7,0.6 z m 3.26,-0.18 a 0.6,0.6 0 0 0 0.6,-0.6 0.6,0.6 0 0 0 -0.6,-0.61 0.62,0.62 0 0 0 -0.61,0.61 0.61,0.61 0 0 0 0.67,0.6 z M 17,79.9 a 0.33,0.33 0 0 0 0.33,-0.33 0.33,0.33 0 0 0 -0.66,0 0.33,0.33 0 0 0 0.33,0.33 z m 21.11,-1.15 a 0.34,0.34 0 0 0 0,-0.67 0.34,0.34 0 0 0 0,0.67 z m -7.22,-0.06 a 0.61,0.61 0 1 0 -0.61,-0.61 0.6,0.6 0 0 0 0.64,0.61 z m 10.67,-0.54 a 0.34,0.34 0 0 0 0,-0.67 v 0 a 0.6,0.6 0 0 0 -0.42,-1 0.61,0.61 0 1 0 0,1.21 h 0.17 a 0.33,0.33 0 0 0 0.28,0.51 z m 2.09,-1.4 a 0.61,0.61 0 1 0 -0.61,-0.6 0.6,0.6 0 0 0 0.64,0.6 z m -20.62,0 a 0.61,0.61 0 1 0 -0.61,-0.6 0.6,0.6 0 0 0 0.64,0.6 z m 4.77,-0.06 a 0.61,0.61 0 0 0 0.61,-0.6 0.62,0.62 0 0 0 -0.61,-0.61 0.6,0.6 0 0 0 -0.6,0.61 0.6,0.6 0 0 0 0.63,0.6 z m 17.39,-0.06 a 0.33,0.33 0 1 0 -0.33,-0.33 0.33,0.33 0 0 0 0.36,0.33 z m -13,-0.42 a 0.34,0.34 0 0 0 0,-0.67 0.34,0.34 0 0 0 0,0.67 z m -5.54,-0.4 0.6,-0.85 a 16.79,16.79 0 0 1 1.2,-1.45 0.36,0.36 0 0 0 0.21,0.15 c -0.65,0.66 -1.3,1.32 -1.9,2 z m 11.5,-0.91 2,-1.1 1.48,-0.8 h 0.17 a 0.6,0.6 0 0 0 0.58,-0.45 l 2.08,-1.18 -2.07,1.16 a 0.51,0.51 0 0 0 0,-0.13 0.61,0.61 0 1 0 -0.8,0.57 l -0.48,0.26 -3,1.67 z M 46,74.82 a 0.34,0.34 0 0 0 0,-0.67 0.34,0.34 0 0 0 0,0.67 z M 22.86,73.91 a 0.61,0.61 0 0 0 0.61,-0.61 0.58,0.58 0 0 0 0,-0.18 h 0.06 a 0.34,0.34 0 0 0 0.34,-0.34 0.34,0.34 0 0 0 -0.34,-0.34 0.34,0.34 0 0 0 -0.33,0.33 0.61,0.61 0 0 0 -0.3,-0.08 0.61,0.61 0 0 0 0,1.21 z m -2,-0.06 a 0.34,0.34 0 0 0 0,-0.67 0.34,0.34 0 0 0 0,0.67 z m 4.21,-2.3 a 0.6,0.6 0 0 0 0.6,-0.6 0.61,0.61 0 1 0 -1.21,0 0.6,0.6 0 0 0 0.59,0.6 z m 25.56,-0.12 a 0.33,0.33 0 0 0 0.33,-0.33 0.34,0.34 0 0 0 -0.67,0 0.34,0.34 0 0 0 0.32,0.33 z M 44.72,71.22 45.63,70.7 A 45.33,45.33 0 0 0 50,67.77 c 0.7,-0.54 1.38,-1.11 2,-1.7 a 0.6,0.6 0 0 0 1.16,-0.2 0.62,0.62 0 0 0 -0.34,-0.56 c 0.48,-0.44 0.94,-0.9 1.4,-1.37 0.46,-0.47 0.66,-0.69 1,-1 v 0 c 1,-0.88 2,-1.75 2.9,-2.65 a 0.1,0.1 0 0 1 0,-0.05 0.6,0.6 0 0 0 0.6,0.51 0.60101997,0.60101997 0 0 0 0.07,-1.2 13.4,13.4 0 0 0 1.51,-1.85 c 0.57,-0.84 1.13,-1.69 1.68,-2.54 0.55,-0.85 1.08,-1.71 1.61,-2.57 0.3,-0.51 0.6,-1 0.89,-1.52 a 0.49,0.49 0 0 0 0,0.12 0.6,0.6 0 0 0 0.6,0.61 0.61,0.61 0 1 0 0,-1.21 0.63,0.63 0 0 0 -0.42,0.17 c 0.08,-0.15 0.17,-0.29 0.24,-0.44 a 12.3,12.3 0 0 0 0.63,-1.44 5.37,5.37 0 0 1 0.21,-0.56 c 0.14,-0.27 0.25,-0.51 0.34,-0.7 a 0.61,0.61 0 0 0 0.51,-0.6 0.62,0.62 0 0 0 -0.36,-0.56 0.31,0.31 0 0 0 0.24,-0.31 0.33,0.33 0 1 0 -0.66,0 0.33,0.33 0 0 0 0.15,0.27 0.61,0.61 0 0 0 -0.24,1.15 c -0.18,0.29 -0.37,0.65 -0.6,1.11 a 5.42,5.42 0 0 0 -0.22,0.56 10.59,10.59 0 0 1 -0.61,1.43 c -0.4,0.78 -0.85,1.52 -1.3,2.27 -0.45,0.75 -0.99,1.63 -1.54,2.48 -0.55,0.85 -1.11,1.7 -1.68,2.54 a 11,11 0 0 1 -1.24,1.56 0.59,0.59 0 0 0 -0.29,0.33 l -0.68,0.69 c -0.55,0.52 -1.1,1 -1.66,1.53 0.78,-1 1.5,-2 2.19,-3 A 25,25 0 0 0 61,53.35 c 0,-0.1 0.07,-0.21 0.1,-0.31 a 0.61,0.61 0 1 0 0.6,-0.73 0.63,0.63 0 0 0 -0.41,0.16 27.8,27.8 0 0 0 1,-6 27.45,27.45 0 0 0 -0.24,-6.21 c -0.5,-3.85 -1.45,-3.31 -1,0.54 a 27.56,27.56 0 0 1 0.23,6.22 25.74,25.74 0 0 1 -1.27,6.85 25.17,25.17 0 0 1 -2.92,5.76 39.38,39.38 0 0 1 -3.43,4.38 c -0.72,0.63 -1.44,1.27 -2.17,1.89 -0.52,0.47 -1.08,0.89 -1.62,1.33 -1.91,1.52 -1.31,1.17 0.6,-0.35 0.49,-0.4 1,-0.78 1.48,-1.2 a 36.9,36.9 0 0 1 -3,2.58 40.92,40.92 0 0 1 -4.27,2.88 z m -3.35,-0.15 a 0.34,0.34 0 0 0 0,-0.67 0.34,0.34 0 0 0 0,0.67 z m 6,-0.25 a 0.36,0.36 0 1 0 -0.06,0 c 0,0 0.07,0.01 0.09,0 z M 34,70.65 a 0.62,0.62 0 0 0 0.61,-0.61 0.6,0.6 0 0 0 -0.61,-0.6 0.59,0.59 0 0 0 -0.6,0.6 0.6,0.6 0 0 0 0.6,0.61 z m 1.84,-0.19 a 0.33,0.33 0 1 0 -0.33,-0.33 0.34,0.34 0 0 0 0.33,0.33 z M 44.62,69 a 0.34,0.34 0 0 0 0,-0.67 0.34,0.34 0 0 0 0,0.67 z m 3,-0.18 a 0.61,0.61 0 1 0 0,-1.21 0.61,0.61 0 0 0 0,1.21 z M 26.27,68.57 a 0.6,0.6 0 0 0 0.6,-0.6 0.61,0.61 0 1 0 -0.6,0.6 z m 28.64,-0.6 a 0.33,0.33 0 1 0 0,-0.66 0.33,0.33 0 1 0 0,0.66 z M 33.57,67.8 a 0.61,0.61 0 1 0 -0.6,-0.61 0.61,0.61 0 0 0 0.6,0.61 z m -9,-1 a 0.33,0.33 0 0 0 0.33,-0.33 0.32,0.32 0 0 0 -0.33,-0.33 0.33,0.33 0 0 0 -0.33,0.33 0.33,0.33 0 0 0 0.29,0.3 z m 24.41,-0.06 a 0.61,0.61 0 0 0 0.61,-0.6 0.6,0.6 0 0 0 -0.61,-0.6 0.59,0.59 0 0 0 -0.6,0.6 0.6,0.6 0 0 0 0.56,0.57 z m -21.71,-0.6 a 0.6,0.6 0 0 0 0.6,-0.6 0.62,0.62 0 0 0 -0.26,-0.51 0.51,0.51 0 0 0 0,-0.13 0.34,0.34 0 0 0 -0.67,0 0.3,0.3 0 0 0 0,0.1 0.61,0.61 0 0 0 -0.32,0.54 0.6,0.6 0 0 0 0.61,0.57 z m 13.06,-0.55 a 0.6,0.6 0 0 0 0.6,-0.6 0.6,0.6 0 0 0 -0.6,-0.61 0.62,0.62 0 0 0 -0.61,0.61 0.61,0.61 0 0 0 0.57,0.57 z M 29.19,65.37 c 0.14,0 0.42,-0.69 0.65,-1.94 0.23,-1.25 0.47,-2.54 0.61,-3.82 a 36,36 0 0 0 0.21,-4.76 30.24,30.24 0 0 0 -0.34,-3.55 23.89,23.89 0 0 0 -0.44,-2.36 7.25,7.25 0 0 0 -0.29,-0.9 c -1,-2.33 -1.71,-1.95 -0.62,0.36 a 5.53,5.53 0 0 1 0.28,0.9 23.42,23.42 0 0 1 0.46,2.36 27.92,27.92 0 0 1 0.29,3.51 35.88,35.88 0 0 1 -0.2,4.75 c -0.14,1.28 -0.37,2.55 -0.61,3.82 -0.2,1.1 -0.18,1.61 -0.06,1.6 z m 12.92,0 a 0.33,0.33 0 1 0 -0.33,-0.33 0.34,0.34 0 0 0 0.29,0.28 z m -9.92,-0.24 a 0.34,0.34 0 0 0 0.34,-0.33 0.34,0.34 0 0 0 -0.67,0 0.33,0.33 0 0 0 0.29,0.28 z m 4,-1.09 a 0.61,0.61 0 0 0 0,-1.21 0.61,0.61 0 1 0 0,1.21 z M 53,63.5 a 0.6,0.6 0 0 0 0.6,-0.6 0.61,0.61 0 1 0 -0.6,0.6 z m 6.8,-1.39 a 0.33,0.33 0 0 0 0,-0.66 0.33,0.33 0 0 0 0,0.66 z M 48.27,59.27 a 0.61,0.61 0 1 0 -0.6,-0.6 0.6,0.6 0 0 0 0.6,0.6 z m 6.45,-1 a 0.33,0.33 0 0 0 0.33,-0.33 0.34,0.34 0 0 0 -0.67,0 0.34,0.34 0 0 0 0.34,0.36 z M 25.29,57.85 a 0.61,0.61 0 1 0 0,-1.21 0.61,0.61 0 0 0 0,1.21 z M 40.6,57.61 A 0.61,0.61 0 1 0 40,57 a 0.6,0.6 0 0 0 0.6,0.64 z m 23.31,-0.73 a 0.33,0.33 0 0 0 0.34,-0.33 0.34,0.34 0 0 0 -0.67,0 0.33,0.33 0 0 0 0.33,0.36 z M 63.16,56.4 a 0.61,0.61 0 1 0 -0.61,-0.6 0.6,0.6 0 0 0 0.61,0.63 z M 44.34,56.22 a 0.61,0.61 0 0 0 0.61,-0.61 0.61,0.61 0 1 0 -1.21,0 0.6,0.6 0 0 0 0.6,0.64 z m -10,-0.67 a 0.61,0.61 0 1 0 0,-1.21 0.61,0.61 0 0 0 0,1.21 z M 28,53 A 0.34,0.34 0 1 0 27.67,52.66 0.34,0.34 0 0 0 28,53 Z m 3.48,-0.12 a 0.61,0.61 0 1 0 0,-1.21 0.61,0.61 0 0 0 0,1.21 z M 58.15,52.7 a 0.61,0.61 0 1 0 -0.6,-0.61 0.61,0.61 0 0 0 0.64,0.59 z M 35.2,52.09 a 0.33,0.33 0 1 0 0,-0.66 0.33,0.33 0 1 0 0,0.66 z m 8.38,-2.54 a 0.61,0.61 0 0 0 0,-1.21 0.61,0.61 0 1 0 0,1.21 z m 7.13,-0.06 a 0.6,0.6 0 0 0 0.61,-0.6 0.61,0.61 0 1 0 -1.21,0 0.6,0.6 0 0 0 0.64,0.58 z M 63.3,48.83 a 0.61,0.61 0 0 0 0,-1.21 0.61,0.61 0 1 0 0,1.21 z M 33.05,48.34 a 0.6,0.6 0 0 0 0.6,-0.6 0.59,0.59 0 0 0 -0.6,-0.6 0.6,0.6 0 0 0 -0.6,0.6 0.6,0.6 0 0 0 0.64,0.58 z m 15.37,-0.06 a 0.6,0.6 0 0 0 0.6,-0.6 0.61,0.61 0 1 0 -1.21,0 0.6,0.6 0 0 0 0.65,0.58 z M 36.33,46.93 a 0.33,0.33 0 0 0 0,-0.66 0.33,0.33 0 1 0 0,0.66 z m -8.72,-1 A 0.33,0.33 0 1 0 27.28,45.6 0.34,0.34 0 0 0 27.61,46 Z m 22,-0.12 a 0.33,0.33 0 1 0 -0.33,-0.33 0.34,0.34 0 0 0 0.29,0.36 z m 9.71,-0.54 a 0.61,0.61 0 0 0 0.61,-0.61 0.61,0.61 0 0 0 -1.21,0 0.61,0.61 0 0 0 0.56,0.64 z M 43.27,45.03 a 0.34,0.34 0 0 0 0,-0.67 0.34,0.34 0 1 0 0,0.67 z M 67,44.51 a 0.33,0.33 0 0 0 0.33,-0.33 0.34,0.34 0 0 0 -0.67,0 0.33,0.33 0 0 0 0.34,0.33 z M 44,44.39 a 0.61,0.61 0 0 0 0,-1.21 0.61,0.61 0 1 0 0,1.21 z m 9.68,-0.18 a 0.61,0.61 0 0 0 0,-1.21 0.61,0.61 0 1 0 0,1.21 z m 4.14,-0.85 a 0.33,0.33 0 1 0 -0.33,-0.33 0.34,0.34 0 0 0 0.31,0.33 z m 9,-0.18 a 0.61,0.61 0 1 0 -0.61,-0.6 0.6,0.6 0 0 0 0.64,0.6 z m -32,0 a 0.34,0.34 0 0 0 -0.07,-0.67 0.34,0.34 0 1 0 0,0.67 z m 27.81,-1 a 0.34,0.34 0 0 0 0.33,-0.34 0.33,0.33 0 1 0 -0.66,0 0.34,0.34 0 0 0 0.34,0.38 z M 38.41,41.57 A 0.61,0.61 0 0 0 39,41 0.6,0.6 0 0 0 38.4,40.4 0.61,0.61 0 0 0 37.79,41 a 0.62,0.62 0 0 0 0.63,0.61 z m 20.47,-0.48 a 0.34,0.34 0 1 0 -0.33,-0.33 0.34,0.34 0 0 0 0.34,0.37 z m -10,-0.85 a 0.62,0.62 0 0 0 0.61,-0.61 c 0,0 0,0 0,0 a 0.41,0.41 0 0 0 0.16,0 0.33,0.33 0 1 0 0,-0.66 0.32,0.32 0 0 0 -0.32,0.24 0.63,0.63 0 0 0 -0.44,-0.18 0.6,0.6 0 0 0 -0.6,0.6 0.61,0.61 0 0 0 0.6,0.61 z m 6.5,-0.73 a 0.34,0.34 0 0 0 0.34,-0.33 0.34,0.34 0 0 0 -0.67,0 0.33,0.33 0 0 0 0.39,0.37 z m 10.29,-0.12 a 0.33,0.33 0 0 0 0.33,-0.33 0.33,0.33 0 0 0 -0.66,0 0.33,0.33 0 0 0 0.39,0.37 z M 63.1,39.33 a 0.61,0.61 0 1 0 -0.61,-0.6 0.6,0.6 0 0 0 0.67,0.64 z M 37.81,39.15 a 0.61,0.61 0 1 0 -0.6,-0.61 0.61,0.61 0 0 0 0.66,0.65 z M 43,38.53 a 0.61,0.61 0 0 0 0.61,-0.61 0.6,0.6 0 0 0 -0.61,-0.6 0.59,0.59 0 0 0 -0.56,0.39 0.33,0.33 0 0 0 0,0.51 0.59,0.59 0 0 0 0.56,0.31 z M 56.56,38 a 0.61,0.61 0 1 0 0,-1.21 0.61,0.61 0 0 0 0,1.21 z M 34.24,37.39 a 0.6,0.6 0 0 0 0.61,-0.6 0.62,0.62 0 0 0 -0.61,-0.61 0.61,0.61 0 0 0 -0.6,0.61 0.6,0.6 0 0 0 0.6,0.58 z m 10.2,-1.87 a 0.33,0.33 0 0 0 0.33,-0.33 0.34,0.34 0 0 0 -0.67,0 0.34,0.34 0 0 0 0.34,0.31 z M 64.82,35.4 a 0.34,0.34 0 0 0 0,-0.67 0.34,0.34 0 0 0 0,0.67 z M 37.17,35.34 a 0.34,0.34 0 1 0 0,-0.67 0.34,0.34 0 0 0 0,0.67 z m 23.41,-1.4 a 0.33,0.33 0 1 0 -0.33,-0.33 0.34,0.34 0 0 0 0.33,0.31 z m 1.3,-0.48 a 0.61,0.61 0 1 0 -0.6,-0.61 0.61,0.61 0 0 0 0.6,0.59 z M 40.14,32.73 a 0.33,0.33 0 0 0 0.34,-0.33 0.34,0.34 0 0 0 -0.34,-0.33 0.34,0.34 0 0 0 -0.34,0.33 0.34,0.34 0 0 0 0.34,0.31 z m 2.75,-0.24 a 0.59,0.59 0 0 0 0.6,-0.6 0.6,0.6 0 0 0 -0.6,-0.61 0.61,0.61 0 0 0 -0.6,0.61 0.6,0.6 0 0 0 0.6,0.58 z m -5.2,-1 a 0.61,0.61 0 1 0 -0.61,-0.61 0.61,0.61 0 0 0 0.61,0.63 z m 17.45,-0.18 a 0.34,0.34 0 0 0 0.33,-0.34 0.33,0.33 0 1 0 -0.66,0 0.34,0.34 0 0 0 0.33,0.36 z m -7.83,-0.07 a 0.6,0.6 0 0 0 0.6,-0.6 0.61,0.61 0 0 0 -1.21,0 0.6,0.6 0 0 0 0.61,0.62 z m 10.43,-0.6 a 0.34,0.34 0 1 0 -0.33,-0.34 0.34,0.34 0 0 0 0.33,0.36 z M 46.07,29.27 a 0.33,0.33 0 1 0 0,-0.66 0.33,0.33 0 0 0 0,0.66 z m -13,-0.18 a 0.6,0.6 0 0 0 0.6,-0.61 0.6,0.6 0 0 0 -0.6,-0.6 0.6,0.6 0 0 0 -0.6,0.6 0.61,0.61 0 0 0 0.62,0.61 z m 22.78,-1.45 a 0.34,0.34 0 0 0 0,-0.67 0.34,0.34 0 1 0 0,0.67 z M 58,27.21 a 0.61,0.61 0 1 0 -0.61,-0.6 0.6,0.6 0 0 0 0.61,0.6 z M 32.27,26.3 a 0.33,0.33 0 1 0 -0.33,-0.33 0.34,0.34 0 0 0 0.33,0.33 z M 58,25 A 0.34,0.34 0 1 0 58,24.33 0.34,0.34 0 0 0 58,25 Z M 41.37,24.08 a 0.33,0.33 0 0 0 0.33,-0.33 0.33,0.33 0 0 0 -0.33,-0.33 0.33,0.33 0 0 0 -0.33,0.33 0.32,0.32 0 0 0 0.37,0.37 z m -8.53,-1.63 a 0.33,0.33 0 0 0 0.33,-0.33 0.33,0.33 0 0 0 -0.66,0 0.33,0.33 0 0 0 0.37,0.37 z m 1.69,-1.21 a 0.33,0.33 0 1 0 -0.33,-0.33 0.33,0.33 0 0 0 0.37,0.37 z"
       style="fill:url(#radial-gradient-4)" />
    <g
       id="use81502">
      <path
         id="path72939"
         class="cls-10"
         d="m 52.21,38.54 a 20.36,20.36 0 0 1 1.57,3.69 2,2 0 0 1 0.16,1.57 1.11,1.11 0 0 0 0.06,1.31 c 0.4,0.62 0.51,0.59 0.75,1 a 6.54,6.54 0 0 0 0.75,1.1 4.13,4.13 0 0 1 0.88,1.2 c 0.24,0.53 0.29,0.72 0.08,1 -0.21,0.28 -0.56,0.29 -1.09,0.4 a 1.28,1.28 0 0 0 -1.07,0.91 1.09,1.09 0 0 0 0,1 c 0.14,0.35 0,0.59 -0.13,0.65 -0.13,0.06 -0.59,0.13 -0.51,0.24 0.08,0.11 0.35,0.21 0.35,0.58 0,0.37 -0.19,0.38 -0.29,0.56 -0.1,0.18 -0.4,0.62 -0.32,0.81 a 2.33,2.33 0 0 1 0.7,1.44 1.88,1.88 0 0 1 -1,1.85 7.63,7.63 0 0 1 -2,0.26 10.44,10.44 0 0 0 -2.94,0.67 2.78,2.78 0 0 0 -1.36,1.58 4.63,4.63 0 0 1 -0.91,1.73 5.79,5.79 0 0 0 -1.47,1.79 7.92,7.92 0 0 0 -1,3.1 c 0,1.26 0,1.29 0.21,1.53 a 4.9,4.9 0 0 0 0.78,1.27 c 0.75,0.61 1.17,1 1.06,2 -0.08,0.53 -0.34,0.91 -0.15,1.1 a 0.78,0.78 0 0 1 0.26,0.79 c -0.08,1.79 2,3.6 3,5 0.27,0.53 0.95,1 0.87,2.2 l -0.08,1.2 a 27.39,27.39 0 0 1 0,3.14 c -0.18,1.29 -5.66,-0.77 -10.46,-4 -6.44,-4.38 -11,-13.64 -10.32,-15.08 0.68,-1.44 0.47,-1.16 0.48,-1.39 -0.14,-0.4 0.37,-0.42 0.43,-0.72 0.06,-0.3 -0.05,-0.41 0.09,-0.48 0.43,-0.13 0.51,-0.51 0.74,-0.84 -0.19,-0.37 0.09,-0.91 0.61,-1.29 a 9.9,9.9 0 0 1 -1,-1.74 c -0.11,-0.49 -0.26,-1.36 -0.26,-1.36 0,0 -0.11,-1 -0.61,-1.25 -0.5,-0.25 -0.11,-0.75 -0.11,-0.75 0,0 0,-0.49 -0.79,-1 -0.79,-0.51 -0.42,-1.1 -0.42,-2.08 0,-0.98 2.04,-10.12 2.47,-12.23 0.43,-2.11 3,-5.66 5.56,-7 2.56,-1.34 5.34,-1.07 7.48,-0.86 a 18,18 0 0 1 6.74,1.63 7.88,7.88 0 0 1 3.42,3.31 8.23,8.23 0 0 1 1.17,4.28 5.14,5.14 0 0 0 -2.37,-3.82 z"
         style="fill:url(#linear-gradient-4)" />
    </g>
    <path
       id="use81666"
       class="cls-11"
       d="m 68.92,18.34 c 0,-0.81 0.12,-0.93 1,-1 v -0.21 h -3.17 v 0.21 c 0.91,0.07 1,0.19 1,1 v 5.13 c 0,0.5 -0.14,0.74 -0.43,0.74 -0.29,0 -0.22,-0.09 -0.3,-0.37 -0.08,-0.28 -0.28,-0.57 -0.57,-0.57 a 0.56,0.56 0 0 0 -0.55,0.56 c 0,0.46 0.46,0.8 1.1,0.8 1.2,0 1.88,-0.8 1.88,-2.19 v -4.1"
       style="fill:url(#linear-gradient-5)" />
    <g
       id="use81700">
      <path
         id="path23436"
         class="cls-12"
         d="M 22.56,18.4 C 21.4,21.51 18.18,23.32 17,26 a 2.88,2.88 0 0 0 1.24,3.93 3.08,3.08 0 0 0 3.74,-1.16 c 0,0.14 0,0.28 0,0.42 a 5.59,5.59 0 0 1 -1.39,3.74 h 4 a 5.6,5.6 0 0 1 -1.47,-3.83 4.35,4.35 0 0 1 0,-0.51 3.1,3.1 0 0 0 3.86,1.34 3,3 0 0 0 1.19,-3.93 c -1.05,-2.7 -4.21,-4.47 -5.61,-7.59 z"
         style="fill:url(#linear-gradient-6)" />
    </g>
  </g>
  <metadata
     id="metadata1">
    <rdf:RDF>
      <cc:Work
         rdf:about="">
        <dc:title>Jack of Spades</dc:title>
      </cc:Work>
    </rdf:RDF>
  </metadata>
</svg>
