<?xml version="1.0" encoding="UTF-8" standalone="no"?>
<svg
   id="svg2"
   viewBox="0 0 84 119"
   version="1.1"
   sodipodi:docname="QS.svg"
   inkscape:version="1.3.2 (091e20e, 2023-11-25, custom)"
   xmlns:inkscape="http://www.inkscape.org/namespaces/inkscape"
   xmlns:sodipodi="http://sodipodi.sourceforge.net/DTD/sodipodi-0.dtd"
   xmlns:xlink="http://www.w3.org/1999/xlink"
   xmlns="http://www.w3.org/2000/svg"
   xmlns:svg="http://www.w3.org/2000/svg">
  <sodipodi:namedview
     id="namedview6"
     pagecolor="#ffffff"
     bordercolor="#000000"
     borderopacity="0.25"
     inkscape:showpageshadow="2"
     inkscape:pageopacity="0.0"
     inkscape:pagecheckerboard="0"
     inkscape:deskcolor="#d1d1d1"
     inkscape:zoom="15.285714"
     inkscape:cx="41.96729"
     inkscape:cy="59.5"
     inkscape:window-width="3840"
     inkscape:window-height="2054"
     inkscape:window-x="-11"
     inkscape:window-y="-11"
     inkscape:window-maximized="1"
     inkscape:current-layer="svg2" />
  <defs
     id="defs6">
    <style
       id="style1">
      .cls-1 {
        filter: url(#filter63625-2-3);
      }

      .cls-2 {
        stroke: #000;
        fill: url(#linear-gradient);
      }

      .cls-2, .cls-6 {
        stroke-miterlimit: 10;
        stroke-width: 0.23px;
      }

      .cls-3 {
        fill: url(#linear-gradient-2);
      }

      .cls-4 {
        opacity: 0.31;
        fill: url(#radial-gradient);
      }

      .cls-4, .cls-5, .cls-7 {
        isolation: isolate;
      }

      .cls-5 {
        opacity: 0.32;
        fill: url(#radial-gradient-2);
      }

      .cls-6 {
        fill: none;
      }

      .cls-11, .cls-6 {
        stroke: #fff;
      }

      .cls-7 {
        opacity: 0.32;
        fill: url(#radial-gradient-3);
      }

      .cls-10, .cls-12, .cls-8 {
        stroke: #c8c8c8;
      }

      .cls-12, .cls-8 {
        stroke-linejoin: round;
      }

      .cls-8 {
        stroke-width: 0.18px;
        fill: url(#linear-gradient-3);
      }

      .cls-9 {
        fill: url(#radial-gradient-4);
      }

      .cls-10 {
        stroke-width: 0.4px;
        fill-rule: evenodd;
        fill: url(#linear-gradient-4);
      }

      .cls-11 {
        stroke-width: 0.49px;
        fill: url(#linear-gradient-5);
      }

      .cls-12 {
        stroke-width: 0.37px;
        fill: url(#linear-gradient-6);
      }
    </style>
    <filter
       id="filter63625-2-3"
       name="filter63625-2-3"
       x="-0.12863863"
       y="-0.090976911"
       width="1.2572773"
       height="1.1819538">
      <feGaussianBlur
         result="feGaussianBlur63627-6-62"
         stdDeviation="3.76"
         id="feGaussianBlur1" />
    </filter>
    <linearGradient
       id="linear-gradient"
       x1="-1220.02"
       y1="-2182.9"
       x2="-1210.53"
       y2="-1668.39"
       gradientTransform="matrix(0.23, 0, 0, -0.23, 318.64, -459.03)"
       gradientUnits="userSpaceOnUse">
      <stop
         offset="0"
         stop-color="#f3f3f3"
         id="stop1" />
      <stop
         offset="1"
         stop-color="#8f8f8f"
         id="stop2" />
    </linearGradient>
    <linearGradient
       id="linear-gradient-2"
       x1="-1695.53"
       y1="-1957.34"
       x2="-1563.25"
       y2="-2395.05"
       gradientTransform="matrix(0.24, 0, 0, -0.24, 433.76, -446.28)"
       gradientUnits="userSpaceOnUse">
      <stop
         offset="0"
         id="stop3" />
      <stop
         offset="1"
         stop-color="#555753"
         id="stop4" />
    </linearGradient>
    <radialGradient
       id="radial-gradient"
       cx="233.22"
       cy="6290.67"
       r="58.68"
       gradientTransform="matrix(-0.23, 0, 0, 0.21, 68.53, -1201.47)"
       gradientUnits="userSpaceOnUse">
      <stop
         offset="0"
         stop-color="#fff"
         id="stop5" />
      <stop
         offset="1"
         stop-color="#fff"
         stop-opacity="0"
         id="stop6" />
    </radialGradient>
    <radialGradient
       id="radial-gradient-2"
       cx="-1253.81"
       cy="-1179.16"
       r="63.15"
       gradientTransform="matrix(0.23, 0, 0, -0.36, 351.45, -401.71)"
       xlink:href="#radial-gradient" />
    <radialGradient
       id="radial-gradient-3"
       cx="-436.05"
       cy="821.17"
       r="26.74"
       gradientTransform="matrix(0.84, 0, 0, -1.48, 407.24, 1276.31)"
       xlink:href="#radial-gradient" />
    <linearGradient
       id="linear-gradient-3"
       x1="-4294.58"
       y1="-12398.77"
       x2="-4294.58"
       y2="-12344.25"
       gradientTransform="matrix(0.06, 0, 0, -0.06, 280.94, -624.96)"
       xlink:href="#linear-gradient" />
    <radialGradient
       id="radial-gradient-4"
       cx="-170.38"
       cy="1370.9"
       r="25.37"
       gradientTransform="matrix(0.83, 0.56, 2.15, -3.16, -2780.82, 4514.96)"
       xlink:href="#radial-gradient" />
    <linearGradient
       id="linear-gradient-4"
       x1="-1328.4"
       y1="-2536.87"
       x2="-1328.4"
       y2="-2359.95"
       gradientTransform="matrix(0.24, 0, 0, -0.24, 356.24, -520.93)"
       xlink:href="#linear-gradient" />
    <linearGradient
       id="linear-gradient-5"
       x1="-852.61"
       y1="-2297.97"
       x2="-852.61"
       y2="-2251.26"
       gradientTransform="matrix(0.24, 0, 0, -0.24, 268.35, -519.16)"
       xlink:href="#linear-gradient" />
    <linearGradient
       id="linear-gradient-6"
       x1="-2526.04"
       y1="-5420.83"
       x2="-2526.04"
       y2="-5366.28"
       gradientTransform="matrix(0.13, 0, 0, -0.12, 345.05, -628.04)"
       xlink:href="#linear-gradient" />
  </defs>
  <title
     id="title6">Queen of Spades</title>
  <g
     id="queen_spade"
     data-name="queen spade">
    <g
       id="use72927">
      <g
         id="g70523">
        <rect
           id="rect70527"
           class="cls-2"
           x="7.15"
           y="9.42"
           width="70.15"
           height="99.19"
           rx="4.05"
           ry="4.05" />
        <rect
           id="rect6077"
           class="cls-3"
           x="10.61"
           y="12.88"
           width="63.24"
           height="92.26"
           rx="1.29"
           ry="1.29" />
        <rect
           id="rect70531"
           class="cls-4"
           x="10.61"
           y="80.86"
           width="26.55"
           height="24.28"
           rx="0.85"
           ry="0.85" />
        <rect
           id="rect70533"
           class="cls-5"
           x="45.27"
           y="12.88"
           width="28.57"
           height="45.27"
           rx="1.04"
           ry="1.04" />
        <path
           id="path70535"
           class="cls-6"
           d="M25.57,101.12H70.29V27.51M58.72,16.91H14.16V90.09" />
        <path
           id="path70537"
           class="cls-7"
           d="M64.6,59c0,21.89-10,39.64-22.38,39.64S19.83,80.9,19.83,59s10-39.64,22.39-39.64S64.6,37.12,64.6,59Z" />
      </g>
    </g>
    <g
       id="use74182">
      <path
         id="path74108"
         class="cls-8"
         d="M17.27,94c-.56,1.5-2.11,2.37-2.7,3.65a1.39,1.39,0,0,0,.59,1.9A1.49,1.49,0,0,0,17,99a1.34,1.34,0,0,1,0,.2,2.71,2.71,0,0,1-.67,1.8h1.91a2.71,2.71,0,0,1-.71-1.84c0-.09,0-.17,0-.25a1.49,1.49,0,0,0,1.86.65,1.43,1.43,0,0,0,.6-1.9c-.51-1.3-2-2.15-2.7-3.65Z" />
    </g>
    <path
       id="path7090"
       class="cls-9"
       d="M23.36,97.88c.53-.9-1.57-4.1-1.84-5.3a1.7,1.7,0,0,1-.06-.31,3,3,0,0,1,0-.52,4.63,4.63,0,0,1,.12-.91.32.32,0,0,0,.31-.33.32.32,0,0,0-.14-.27l.21-.69a9.11,9.11,0,0,1,.6-1.44c.32-.61.71-1.18,1.09-1.76l.37-.53h.11a.6.6,0,0,0,.61-.6.65.65,0,0,0-.06-.24c.15-.18.3-.37.45-.54a29.36,29.36,0,0,1,2.14-2c.81-.75,1.67-1.43,2.53-2.1,1-.8,2.12-1.51,3.21-2.22s2.08-1.31,3.13-2l.15,0a.61.61,0,0,0,0-1.21.61.61,0,0,0-.61.6.6.6,0,0,0,.44.58l-.3.17c-1.28.77-2.55,1.55-3.81,2.36-1.09.71-2.19,1.42-3.22,2.23-.87.67-1.72,1.36-2.53,2.1-.62.56-1.25,1.12-1.83,1.72a.61.61,0,0,0-.91.52.62.62,0,0,0,.12.36c-.36.44-.7.89-1,1.36A19.74,19.74,0,0,0,21.5,88.7l-.15.31c0-.61.11-1.22.19-1.83a16.57,16.57,0,0,1,.52-2.52,15.31,15.31,0,0,1,.83-2.2,13,13,0,0,0,.87-1.63c0-.12.09-.25.14-.37l0-.09c.44-.79.89-1.56,1.34-2.33l.09-.14.51-.7c.49-.64,1-1.25,1.54-1.87.68-.78,1.4-1.52,2.12-2.25s1.68-1.62,2.54-2.41,1.87-1.65,2.8-2.49l3-2.63c1.12-1,2.21-2,3.28-3l1.7-1.65a10.71,10.71,0,0,0,1.68-1.33c1.11-.94,2.23-1.86,3.39-2.74a15.89,15.89,0,0,1,2.27-1.56l.5-.22a.57.57,0,0,0,0,.18.61.61,0,0,0,.6.61.6.6,0,0,0,.6-.61.58.58,0,0,0-.14-.39c2.23-.16,2.69-.49.27-.33a1.82,1.82,0,0,0-.57.13h-.16a.59.59,0,0,0-.53.33,21.16,21.16,0,0,0-3.41,2.21C46.15,58,45,59,43.94,59.9c-.46.39-.76.66-.94.83L44.72,59c1.25-1.26,2.43-2.58,3.58-3.93.71-.85,1.39-1.73,2.06-2.61a.62.62,0,0,0,.47.22.6.6,0,0,0,.6-.61.6.6,0,0,0-.36-.55c.3-.41.6-.81.89-1.22a56.29,56.29,0,0,0,3.46-5.45,35.88,35.88,0,0,0,2.78-6.24,54,54,0,0,0,1.13-5.8c.37-2.33-.21-2-.58.34a53.82,53.82,0,0,1-1.13,5.79,35.92,35.92,0,0,1-2.79,6.24c-.08.15-.18.29-.26.44a.33.33,0,1,0-.33.41l.12,0a52.87,52.87,0,0,1-3,4.63l-.6.84a.6.6,0,0,0-.55.59s0,.08,0,.12c-.81,1.1-1.64,2.17-2.52,3.22-1.15,1.35-2.33,2.67-3.58,3.93s-2.36,2.39-3.58,3.54-2.17,2-3.3,3-2,1.75-3,2.64S32.4,70.19,31.46,71s-1.6,1.46-2.36,2.23a.35.35,0,0,0-.16-.2l.9-.91c1-.94,2-1.85,3-2.8,1.19-1.11,2.34-2.25,3.48-3.4A39.09,39.09,0,0,0,40,61.74a46.23,46.23,0,0,0,3.28-5.4,36,36,0,0,0,2.66-6.11,41.51,41.51,0,0,0,1.36-7,57.54,57.54,0,0,0,.08-6,.61.61,0,0,0,.2-.45.6.6,0,0,0-.24-.48c0-.25,0-.49,0-.74,0-.42,0-.83,0-1.25-.09-2.35-.66-2-.57.33,0,.42,0,.83,0,1.25,0,.11,0,.22,0,.33a.59.59,0,0,0-.39.56.6.6,0,0,0,.43.57c0,1,0,2.07,0,3.11a.64.64,0,0,0-.24-.05.6.6,0,0,0-.6.6.61.61,0,0,0,.6.61.78.78,0,0,0,.22,0c0,.66-.05,1.34-.1,2-.19,1.51-.42,3-.75,4.51,0-.71,0-1.42,0-2.13a49.81,49.81,0,0,0-.37-5,28,28,0,0,0-.68-3.4,12,12,0,0,0-.57-1.66,1.86,1.86,0,0,0-.27-.45c-1.9-1.71-2.54-1.32-.62.37a1.73,1.73,0,0,1,.27.43,12,12,0,0,1,.57,1.66,27.92,27.92,0,0,1,.7,3.39,50.24,50.24,0,0,1,.38,5c0,.93,0,1.87,0,2.81a7.87,7.87,0,0,0,0,1.22,1.55,1.55,0,0,0-.07.23C45,51.71,44.52,52.84,44,54a.61.61,0,0,0-.53-.3.6.6,0,0,0-.6.6.61.61,0,0,0,.6.61l.12,0c-.29.62-.6,1.23-.94,1.83a45.09,45.09,0,0,1-3.29,5.41,39.09,39.09,0,0,1-3.62,4.2c-1.14,1.15-2.29,2.3-3.48,3.41-1,.94-2,1.86-3.05,2.8l-.51.52a.33.33,0,0,0-.28.28,19.78,19.78,0,0,0-1.76,2c-.67.94-1.33,1.89-1.91,2.89-.22.3-.42.6-.61.92a10,10,0,0,0-.58,1,6.43,6.43,0,0,0-.32.71v0l-.49.92c-.2.42-.39.84-.58,1.26,0-.07,0-.14,0-.21a18.09,18.09,0,0,1,.5-1.74c.24-.68.52-1.34.81-2l1.06-2.43c.49-1.1,1-2.17,1.57-3.23.69-1.31,1.3-2.66,1.88-4,.69-1.66,1.37-3.32,2.06-5s1.41-3.43,2.07-5.16a.33.33,0,0,0,.25-.32.32.32,0,0,0-.06-.2c.65-1.82,1.24-3.66,1.8-5.51.65-2.15,1.21-4.32,1.65-6.52A42.61,42.61,0,0,0,36.34,39c-.08-2.63-.38-5.25-.7-7.87-.2-1.57-.44-3.14-.68-4.71A5.23,5.23,0,0,0,34.6,25a.65.65,0,0,0,.19,0,.61.61,0,0,0,.61-.61.61.61,0,0,0-1.21,0,.59.59,0,0,0,.17.42,3.7,3.7,0,0,0,0,1.88c.11.69.21,1.39.32,2.08a.38.38,0,0,0-.24-.08.33.33,0,0,0,0,.66.34.34,0,0,0,.3-.18q.16,1.11.3,2.22c0,.19,0,.38.07.57a.6.6,0,1,0-.27,1.14.61.61,0,0,0,.39-.15c.25,2.1.46,4.2.53,6.31a42.8,42.8,0,0,1-.53,7.75c-.44,2.2-1,4.37-1.65,6.52-.52,1.7-1.07,3.4-1.66,5.08a.31.31,0,0,0-.16.29.25.25,0,0,0,0,.12c-.05.11-.09.23-.13.34q-1,2.7-2.14,5.36c-.69,1.65-1.37,3.31-2.07,5-.58,1.35-1.19,2.7-1.88,4C25,74.81,24.49,75.88,24,77c-.36.81-.72,1.63-1.07,2.44s-.58,1.33-.82,2-.37,1.14-.5,1.74-.21,1-.3,1.49c-.05.22-.08.43-.14.65-.25,1.06-.28,1.6-.18,1.68s-.05.36-.07.55a21.33,21.33,0,0,0-.21,2.13c0,.33,0,.66,0,1s-.14.49-.2.74l-.06.3h-3c2,.58,3.56.41,5.87,6.18Zm.58-4.67a.34.34,0,0,0,0-.67.34.34,0,0,0,0,.67Zm-4.63-1.69a.62.62,0,0,0,.61-.61.61.61,0,0,0-.61-.61.6.6,0,0,0-.6.61A.61.61,0,0,0,19.31,91.52Zm3.27-.73a.62.62,0,0,0,.61-.61.61.61,0,0,0-.61-.6.6.6,0,0,0-.6.6A.6.6,0,0,0,22.58,90.79Zm-4.27-1.7a.34.34,0,0,0,.34-.33.34.34,0,0,0-.67,0A.33.33,0,0,0,18.31,89.09Zm1.52-.54a.34.34,0,1,0-.34-.34A.34.34,0,0,0,19.83,88.55Zm5.71-.72a.62.62,0,0,0,.61-.61.6.6,0,0,0-.61-.6.6.6,0,0,0-.6.6A.61.61,0,0,0,25.54,87.83Zm1.42-1a.33.33,0,1,0-.33-.33A.33.33,0,0,0,27,86.79Zm-8.31-.66a.61.61,0,1,0-.61-.6A.6.6,0,0,0,18.65,86.13ZM20,84.38a.61.61,0,0,0,.6-.61.61.61,0,0,0-1.21,0A.61.61,0,0,0,20,84.38Zm7.83-.25a.32.32,0,0,0,.33-.33.33.33,0,0,0-.33-.33.33.33,0,0,0-.33.33A.33.33,0,0,0,27.87,84.13Zm4.39-.54a.61.61,0,1,0-.61-.61A.6.6,0,0,0,32.26,83.59Zm-6.47-.73a.6.6,0,0,0,.6-.6.61.61,0,1,0-1.21,0A.6.6,0,0,0,25.79,82.86Zm2.37-.15s.7-.46,1.82-1.28c.48-.35.94-.71,1.44-1a22.34,22.34,0,0,1,2.21-1.17l.46-.21a.63.63,0,0,0-.14.38.61.61,0,1,0,1.21,0,.59.59,0,0,0-.57-.59c.53-.23,1.06-.47,1.6-.67s1.21-.49,1.81-.72l.78-.29c2.39-.92,3-1.28.62-.37l-.78.3-1.82.72c-.87.34-1.72.72-2.56,1.1a32.55,32.55,0,0,0-3.43,1.87c-.5.3-1,.67-1.44,1A13.37,13.37,0,0,0,28.16,82.71Zm-8.43-.63a.61.61,0,0,0,.61-.61.61.61,0,0,0-1.21,0A.61.61,0,0,0,19.73,82.08ZM33,81.41a.33.33,0,1,0-.33-.33A.33.33,0,0,0,33,81.41Zm-11-.85a.6.6,0,0,0,.6-.6.61.61,0,0,0-1.21,0A.6.6,0,0,0,22,80.56Zm3.26-.18a.6.6,0,0,0,.6-.6.6.6,0,0,0-.6-.61.62.62,0,0,0-.61.61A.61.61,0,0,0,25.24,80.38ZM17,79.9a.33.33,0,0,0,.33-.33.33.33,0,1,0-.66,0A.33.33,0,0,0,17,79.9Zm21.11-1.15a.34.34,0,0,0,0-.67.34.34,0,0,0,0,.67Zm-7.22-.06a.61.61,0,1,0-.61-.61A.6.6,0,0,0,30.93,78.69Zm10.67-.54a.34.34,0,0,0,0-.67h0a.6.6,0,0,0-.42-1,.61.61,0,1,0,0,1.21l.17,0a.33.33,0,0,0,.28.51Zm2.09-1.4a.61.61,0,1,0-.61-.6A.6.6,0,0,0,43.69,76.75Zm-20.62,0a.61.61,0,1,0-.61-.6A.6.6,0,0,0,23.07,76.75Zm4.77-.06a.61.61,0,0,0,.61-.6.62.62,0,0,0-.61-.61.6.6,0,0,0-.6.61A.6.6,0,0,0,27.84,76.69Zm17.39-.06a.33.33,0,1,0-.33-.33A.33.33,0,0,0,45.23,76.63Zm-13-.42a.34.34,0,0,0,0-.67.34.34,0,0,0,0,.67Zm-5.54-.4.6-.85a16.79,16.79,0,0,1,1.2-1.45.36.36,0,0,0,.21.15c-.65.66-1.3,1.32-1.9,2Zm11.5-.91,2-1.1L41.64,73l.17,0a.6.6,0,0,0,.58-.45l2.08-1.18L42.4,72.53a.51.51,0,0,0,0-.13.61.61,0,1,0-.8.57l-.48.26-3,1.67ZM46,74.82a.34.34,0,0,0,0-.67.34.34,0,0,0,0,.67Zm-23.14-.91a.61.61,0,0,0,.61-.61.58.58,0,0,0,0-.18h.06a.34.34,0,0,0,.34-.34.34.34,0,0,0-.34-.34.34.34,0,0,0-.33.33.61.61,0,0,0-.3-.08.61.61,0,0,0,0,1.21Zm-2-.06a.34.34,0,0,0,0-.67.34.34,0,0,0,0,.67Zm4.21-2.3a.6.6,0,0,0,.6-.6.61.61,0,1,0-1.21,0A.6.6,0,0,0,25.06,71.55Zm25.56-.12A.33.33,0,0,0,51,71.1a.34.34,0,0,0-.67,0A.34.34,0,0,0,50.62,71.43Zm-5.91-.21.91-.52A45.33,45.33,0,0,0,50,67.77c.7-.54,1.38-1.11,2.05-1.7a.6.6,0,0,0,1.16-.2.62.62,0,0,0-.34-.56c.48-.44.94-.9,1.4-1.37s.66-.69,1-1l.05,0c1-.88,1.95-1.75,2.9-2.65a.1.1,0,0,1,0-.05.6.6,0,0,0,.6.51.6.6,0,0,0,.07-1.2,13.4,13.4,0,0,0,1.51-1.85c.57-.84,1.13-1.69,1.68-2.54s1.08-1.71,1.61-2.57c.3-.51.6-1,.89-1.52,0,0,0,.08,0,.12a.6.6,0,0,0,.6.61.61.61,0,1,0,0-1.21.63.63,0,0,0-.42.17c.08-.15.17-.29.24-.44a10.83,10.83,0,0,0,.63-1.44,5.37,5.37,0,0,1,.21-.56c.14-.27.25-.51.34-.7a.61.61,0,0,0,.51-.6.62.62,0,0,0-.36-.56.31.31,0,0,0,.24-.31.33.33,0,1,0-.66,0,.33.33,0,0,0,.15.27.61.61,0,0,0-.24,1.15c-.18.29-.37.65-.6,1.11a5.42,5.42,0,0,0-.22.56,10.59,10.59,0,0,1-.61,1.43c-.4.78-.85,1.52-1.3,2.27S62,54.57,61.46,55.42s-1.11,1.7-1.68,2.54a11,11,0,0,1-1.24,1.56.59.59,0,0,0-.29.33l-.68.69c-.55.52-1.1,1-1.66,1.53.78-1,1.5-2,2.19-3A25,25,0,0,0,61,53.35c0-.1.07-.21.1-.31a.61.61,0,1,0,.6-.73.63.63,0,0,0-.41.16,27.8,27.8,0,0,0,1-6,27.45,27.45,0,0,0-.24-6.21c-.5-3.85-1.45-3.31-1,.54a27.56,27.56,0,0,1,.23,6.22,25.74,25.74,0,0,1-1.27,6.85,25.17,25.17,0,0,1-2.92,5.76,39.38,39.38,0,0,1-3.43,4.38c-.72.63-1.44,1.27-2.17,1.89-.52.47-1.08.89-1.62,1.33-1.91,1.52-1.31,1.17.6-.35.49-.4,1-.78,1.48-1.2a.08.08,0,0,0,0,0,36.9,36.9,0,0,1-3,2.58,40.92,40.92,0,0,1-4.27,2.88Zm-3.35-.15a.34.34,0,0,0,0-.67.34.34,0,0,0,0,.67Zm6-.25a.36.36,0,1,0-.06,0S47.39,70.83,47.41,70.82ZM34,70.65a.62.62,0,0,0,.61-.61.6.6,0,0,0-.61-.6.6.6,0,0,0-.6.6A.61.61,0,0,0,34,70.65Zm1.84-.19a.33.33,0,1,0-.33-.33A.34.34,0,0,0,35.85,70.46ZM44.63,69a.34.34,0,0,0,0-.67.34.34,0,0,0,0,.67Zm3-.18a.61.61,0,1,0,0-1.21.61.61,0,0,0,0,1.21Zm-21.35-.25a.6.6,0,0,0,.6-.6.61.61,0,1,0-.6.6Zm28.64-.6a.33.33,0,0,0,0-.66.33.33,0,0,0,0,.66ZM33.58,67.8a.61.61,0,1,0-.6-.61A.61.61,0,0,0,33.58,67.8Zm-9-1a.33.33,0,0,0,.33-.33.32.32,0,0,0-.33-.33.33.33,0,0,0-.33.33A.33.33,0,0,0,24.54,66.77ZM49,66.71a.61.61,0,0,0,.61-.6.6.6,0,0,0-.61-.6.59.59,0,0,0-.6.6A.6.6,0,0,0,49,66.71Zm-21.71-.6a.6.6,0,0,0,.6-.6.62.62,0,0,0-.26-.51.51.51,0,0,0,0-.13.34.34,0,0,0-.67,0,.3.3,0,0,0,0,.1.61.61,0,0,0-.32.54A.6.6,0,0,0,27.24,66.11Zm13.06-.55a.6.6,0,0,0,.6-.6.6.6,0,0,0-.6-.61.62.62,0,0,0-.61.61A.61.61,0,0,0,40.3,65.56Zm-11.14-.22c.14,0,.42-.69.65-1.94s.47-2.54.61-3.82a36,36,0,0,0,.21-4.76,30.24,30.24,0,0,0-.34-3.55,23.89,23.89,0,0,0-.44-2.36,7.25,7.25,0,0,0-.29-.9c-1-2.33-1.7-1.95-.62.36a5.53,5.53,0,0,1,.28.9,23.42,23.42,0,0,1,.46,2.36A27.92,27.92,0,0,1,30,55.17a35.88,35.88,0,0,1-.2,4.75c-.14,1.28-.37,2.55-.61,3.82-.2,1.1-.18,1.61-.06,1.6Zm12.92,0a.33.33,0,1,0-.33-.33A.34.34,0,0,0,42.08,65.32Zm-9.92-.24a.34.34,0,0,0,.34-.33.34.34,0,0,0-.67,0A.33.33,0,0,0,32.16,65.08Zm4-1.09a.61.61,0,0,0,0-1.21.61.61,0,1,0,0,1.21ZM53,63.5a.6.6,0,0,0,.6-.6.61.61,0,1,0-.6.6Zm6.8-1.39a.33.33,0,1,0-.33-.33A.33.33,0,0,0,59.81,62.11ZM48.28,59.27a.61.61,0,1,0-.6-.6A.6.6,0,0,0,48.28,59.27Zm6.45-1a.33.33,0,0,0,.33-.33.34.34,0,0,0-.67,0A.34.34,0,0,0,54.73,58.3ZM25.3,57.88a.61.61,0,1,0,0-1.21.61.61,0,0,0,0,1.21Zm15.31-.24A.61.61,0,1,0,40,57,.6.6,0,0,0,40.61,57.64Zm23.31-.73a.33.33,0,0,0,.34-.33.34.34,0,0,0-.67,0A.33.33,0,0,0,63.92,56.91Zm-.75-.48a.61.61,0,1,0-.61-.6A.6.6,0,0,0,63.17,56.43Zm-18.82-.18a.61.61,0,0,0,.61-.61.61.61,0,1,0-1.21,0A.6.6,0,0,0,44.35,56.25Zm-10-.67a.61.61,0,1,0,0-1.21.61.61,0,0,0,0,1.21ZM28.05,53a.34.34,0,1,0-.33-.34A.34.34,0,0,0,28.05,53Zm3.48-.12a.61.61,0,1,0,0-1.21.61.61,0,0,0,0,1.21Zm26.67-.18a.61.61,0,1,0-.6-.61A.61.61,0,0,0,58.2,52.68Zm-23-.61a.33.33,0,1,0,0-.66.33.33,0,1,0,0,.66Zm8.38-2.54a.61.61,0,0,0,0-1.21.61.61,0,1,0,0,1.21Zm7.13-.06a.6.6,0,0,0,.61-.6.61.61,0,1,0-1.21,0A.6.6,0,0,0,50.76,49.47Zm12.59-.66a.61.61,0,0,0,0-1.21.61.61,0,1,0,0,1.21ZM33.1,48.32a.6.6,0,0,0,.6-.6.59.59,0,0,0-.6-.6.6.6,0,0,0-.6.6A.6.6,0,0,0,33.1,48.32Zm15.37-.06a.6.6,0,0,0,.6-.6.61.61,0,1,0-1.21,0A.6.6,0,0,0,48.47,48.26ZM36.34,46.93a.33.33,0,0,0,0-.66.33.33,0,1,0,0,.66Zm-8.72-1a.33.33,0,1,0-.33-.33A.34.34,0,0,0,27.62,46Zm22-.12a.33.33,0,1,0-.33-.33A.34.34,0,0,0,49.58,45.84Zm9.71-.54a.61.61,0,0,0,.61-.61.61.61,0,0,0-1.21,0A.61.61,0,0,0,59.29,45.3Zm-16-.24a.34.34,0,0,0,0-.67.34.34,0,1,0,0,.67ZM67,44.51a.33.33,0,0,0,.33-.33.34.34,0,0,0-.67,0A.33.33,0,0,0,67,44.51Zm-23-.12a.61.61,0,0,0,0-1.21.61.61,0,1,0,0,1.21Zm9.68-.18a.61.61,0,0,0,0-1.21.61.61,0,1,0,0,1.21Zm4.14-.85a.33.33,0,1,0-.33-.33A.34.34,0,0,0,57.81,43.36Zm9-.18a.61.61,0,1,0-.61-.6A.6.6,0,0,0,66.86,43.18Zm-32,0a.34.34,0,0,0-.07-.67.34.34,0,1,0,0,.67Zm27.81-1a.33.33,0,0,0,.33-.34.34.34,0,0,0-.33-.34.34.34,0,0,0-.33.34A.34.34,0,0,0,62.65,42.22Zm-24.22-.61A.61.61,0,0,0,39,41a.6.6,0,0,0-.6-.6.61.61,0,0,0-.61.6A.62.62,0,0,0,38.43,41.61Zm20.47-.48a.34.34,0,1,0-.33-.33A.34.34,0,0,0,58.9,41.13ZM49,40.28a.62.62,0,0,0,.61-.61s0,0,0,0a.41.41,0,0,0,.16,0,.33.33,0,1,0,0-.66.32.32,0,0,0-.32.24.63.63,0,0,0-.44-.18.6.6,0,0,0-.6.6.61.61,0,0,0,.6.61Zm6.5-.73a.34.34,0,0,0,.34-.33.34.34,0,0,0-.67,0A.33.33,0,0,0,55.45,39.55Zm10.29-.12a.33.33,0,0,0,.33-.33.33.33,0,0,0-.66,0A.33.33,0,0,0,65.74,39.43Zm-2.57-.06a.61.61,0,1,0-.61-.6A.6.6,0,0,0,63.17,39.37Zm-25.29-.18a.61.61,0,1,0-.6-.61A.61.61,0,0,0,37.88,39.19ZM43,38.53a.61.61,0,0,0,.61-.61.6.6,0,0,0-.61-.6.59.59,0,0,0-.56.39.33.33,0,0,0,0,.51A.59.59,0,0,0,43,38.53ZM56.57,38a.61.61,0,1,0,0-1.21.61.61,0,0,0,0,1.21Zm-22.32-.61a.6.6,0,0,0,.61-.6.62.62,0,0,0-.61-.61.61.61,0,0,0-.6.61A.6.6,0,0,0,34.25,37.37Zm10.2-1.87a.33.33,0,0,0,.33-.33.34.34,0,0,0-.67,0A.34.34,0,0,0,44.45,35.5Zm20.38-.12a.34.34,0,1,0-.33-.33A.33.33,0,0,0,64.83,35.38Zm-27.65-.06a.34.34,0,1,0,0-.67.34.34,0,0,0,0,.67Zm23.41-1.4a.33.33,0,1,0-.33-.33A.34.34,0,0,0,60.59,33.92Zm1.3-.48a.61.61,0,1,0-.6-.61A.61.61,0,0,0,61.89,33.44Zm-21.74-.73a.33.33,0,0,0,.34-.33.34.34,0,0,0-.34-.33.34.34,0,0,0-.34.33A.34.34,0,0,0,40.15,32.71Zm2.75-.24a.59.59,0,0,0,.6-.6.6.6,0,0,0-.6-.61.61.61,0,0,0-.6.61A.6.6,0,0,0,42.9,32.47Zm-5.2-1a.61.61,0,1,0-.61-.61A.61.61,0,0,0,37.7,31.51Zm17.45-.18a.34.34,0,0,0,.33-.34.33.33,0,0,0-.66,0A.34.34,0,0,0,55.15,31.33Zm-7.83-.07a.6.6,0,0,0,.6-.6.61.61,0,0,0-1.21,0A.6.6,0,0,0,47.32,31.26Zm10.43-.6a.34.34,0,1,0-.33-.34A.34.34,0,0,0,57.75,30.66ZM46.08,29.27a.33.33,0,1,0,0-.66.33.33,0,0,0,0,.66Zm-13-.18a.6.6,0,0,0,.6-.61.6.6,0,0,0-.6-.6.6.6,0,0,0-.6.6A.61.61,0,0,0,33.1,29.09Zm22.78-1.45a.34.34,0,0,0,0-.67.34.34,0,1,0,0,.67ZM58,27.21a.61.61,0,1,0-.61-.6A.6.6,0,0,0,58,27.21ZM32.28,26.3A.33.33,0,1,0,32,26,.34.34,0,0,0,32.28,26.3ZM58.05,25a.34.34,0,1,0,0-.67.34.34,0,0,0,0,.67Zm-16.63-.92a.33.33,0,0,0,.33-.33.33.33,0,0,0-.33-.33.33.33,0,0,0-.33.33A.32.32,0,0,0,41.42,24.12Zm-8.53-1.63a.33.33,0,0,0,.33-.33.32.32,0,0,0-.33-.33.33.33,0,0,0-.33.33A.33.33,0,0,0,32.89,22.49Zm1.69-1.21a.33.33,0,1,0-.33-.33A.33.33,0,0,0,34.58,21.28Z" />
    <g
       id="use81512">
      <path
         id="path72947"
         class="cls-10"
         d="M47.93,27.45s-.07.05-.11.32,0,2.7-.1,3.21l-2.58.43L45,30.8l.21,0a.23.23,0,0,0,.21-.25.24.24,0,0,0-.26-.21h0l-.29,0c-.16-.48-.33-.93-.43-.91s-.13.49-.13,1l-.46.06a.25.25,0,0,0-.19.14.26.26,0,0,0,0,.24.23.23,0,0,0,.22.08l.41-.05c0,.36,0,.66,0,.66l-3.13.51s-.08-.25-.19-.57l.28,0a.25.25,0,0,0,0-.5h0l-.39,0c-.2-.53-.44-1.07-.58-1s-.19.58-.21,1.14l-.42.05a.24.24,0,0,0-.17.4.23.23,0,0,0,.23.09l.36,0c0,.36,0,.64,0,.64l-3.21.52s-.07-.25-.17-.58l.27,0a.24.24,0,0,0,.21-.25.25.25,0,0,0-.26-.22h0l-.34,0c-.17-.49-.35-1-.45-1s-.13.52-.13,1l-.39.06a.23.23,0,0,0-.19.14.24.24,0,0,0,0,.23.24.24,0,0,0,.22.09l.34,0c0,.35,0,.62,0,.62l-2.46.41c-.26-.44-.66-1.14-.81-1.43s-.17-.29-.19-.28l0,0,.35,2.2.39,1.11c.1.63.56,1.08.86,1l.17,0a4.12,4.12,0,0,1-.84.38c-1.52.54-1.3,1.51-2.27,2.16s-2.39,4.44-2.71,8.56,1.41,7.47,3.46,8.34a3.39,3.39,0,0,1,2.28,2.81c.21.65.43,1.52,1.08,1.73s.76,0,.32.76-1.19,1-2.49,2.28-2.16,4.22-2.7,4-1.2.54-1.74,1.19-3,3.36-3.46,5.2,5.3-1.41,11.15,8,19.39,10.93,19.39,8.87-6.58-12.1-7.48-13.59a45.33,45.33,0,0,1-2.92-5.46c-.57-1.49-1-1.9-.95-2.28a52.23,52.23,0,0,1,3.25-5.36,18.44,18.44,0,0,1,2.6-3.33c.52-.32,4-.43,4.47-.49a2.35,2.35,0,0,0,1.76-.81,2.17,2.17,0,0,0,.24-2.14,2.8,2.8,0,0,1-.35-1.43c0-.57.27-.71.4-.79a1,1,0,0,0,.25-.78c0-.3-.44-.49-.46-.6s.43-.41.43-.68a9.36,9.36,0,0,0-.13-1,1.63,1.63,0,0,1,.24-1.17c.11-.19.84-.43,1.3-.78a1.38,1.38,0,0,0,.6-1.3c-.09-.46-.9-1-1.33-1.41s-1.33-1.14-1.9-1.54a2,2,0,0,1-.67-.71h.15c.15,0,.43.06.32,0s-.14,0-.27,0-.06-.12,0-.15.4-.22.26-.17-.23,0-.17-.1a.86.86,0,0,1,.17-.17.75.75,0,0,0-.26.19c0-.05.07-.21.14-.29a.36.36,0,0,0-.15.18.65.65,0,0,1-.34.31c-.07-.15-.16-.33-.26-.56-.14-.49,0-.45.15-.76s.23-.34,0-.65a4.66,4.66,0,0,1-.46-1.19c-.11-.34.39.39.46.65a4.12,4.12,0,0,0-.1-2.35,8,8,0,0,0-6.39-5.74l-.31,0a1.2,1.2,0,0,0,.44-1.25l0-1.11L48,27.47l0,0Zm7.52,16.39,0,0S55.48,43.8,55.45,43.84Z" />
    </g>
    <path
       id="use81658"
       class="cls-11"
       d="M70.58,26.26a3.88,3.88,0,0,1-3.19-1.76,3.24,3.24,0,0,0,1.74-.81,4,4,0,0,0,1.3-3.11,3.8,3.8,0,1,0-7.58,0,4,4,0,0,0,1,2.83,3.36,3.36,0,0,0,1.64,1l.55.64a5.2,5.2,0,0,0,4,1.41h.48v-.21M66.67,17a2.25,2.25,0,0,1,1.44.58,4.07,4.07,0,0,1,1,3,4.82,4.82,0,0,1-.8,2.86,2.23,2.23,0,0,1-3.15.17,4.22,4.22,0,0,1-1-3.06A4.57,4.57,0,0,1,65,17.75,2.18,2.18,0,0,1,66.67,17" />
    <g
       id="use81692">
      <path
         id="path23436"
         class="cls-12"
         d="M22.75,18.4c-1.16,3.11-4.38,4.92-5.61,7.59a2.87,2.87,0,0,0,1.23,3.93,3.09,3.09,0,0,0,3.75-1.16c0,.14,0,.28,0,.42a5.59,5.59,0,0,1-1.39,3.74h4a5.55,5.55,0,0,1-1.47-3.83,4.35,4.35,0,0,1,0-.51,3.1,3.1,0,0,0,3.86,1.34A3,3,0,0,0,28.36,26c-1.06-2.7-4.21-4.47-5.61-7.59Z" />
    </g>
  </g>
</svg>
